<svg width="25" height="25" xmlns="http://www.w3.org/2000/svg">
  <path d="M13.62 7.736a1.705 1.705 0 0 0-.635 2.314 1.705 1.705 0 0 0 2.314.634 1.705 1.705 0 0 0 .634-2.313 1.69 1.69 0 0 0-2.314-.635M11.99 4.851a1.198 1.198 0 0 0-.448 1.63 1.198 1.198 0 0 0 1.63.447A1.195 1.195 0 0 0 11.99 4.85m0 13.383a1.198 1.198 0 0 0-.448 1.63 1.198 1.198 0 0 0 1.63.447 1.195 1.195 0 0 0-1.182-2.077m5.771-10.062a1.198 1.198 0 0 0-.448 1.629 1.198 1.198 0 0 0 1.63.448 1.198 1.198 0 0 0 .448-1.63 1.188 1.188 0 0 0-1.63-.447M6.107 14.863a1.198 1.198 0 0 0-.448 1.63 1.198 1.198 0 0 0 1.63.447 1.198 1.198 0 0 0 .447-1.63 1.198 1.198 0 0 0-1.629-.447m-.075-6.691A1.198 1.198 0 0 0 5.585 9.8a1.198 1.198 0 0 0 1.629.448 1.198 1.198 0 0 0 .448-1.63 1.177 1.177 0 0 0-1.63-.447m11.73 6.617a1.198 1.198 0 0 0-.449 1.629 1.198 1.198 0 0 0 1.63.448 1.198 1.198 0 0 0 .448-1.63 1.188 1.188 0 0 0-1.63-.447m3.035-3.073a.958.958 0 0 0-.36 1.306.947.947 0 0 0 1.293.361.947.947 0 0 0 .36-1.293.937.937 0 0 0-1.293-.374m-17.562 0a.958.958 0 1 0 .945 1.667.947.947 0 0 0 .36-1.293.951.951 0 0 0-1.305-.374M16.02 4.988a.956.956 0 0 0 .933.97.956.956 0 0 0 .97-.933.956.956 0 0 0-.933-.97.947.947 0 0 0-.97.933M7.052 20.075a.956.956 0 0 0 .933.97.956.956 0 0 0 .97-.933.956.956 0 0 0-.933-.97.956.956 0 0 0-.97.933m.523-14.279a.954.954 0 0 0 1.306-.348.954.954 0 0 0-.349-1.306.954.954 0 0 0-1.306.348.965.965 0 0 0 .349 1.306m8.868 15.15a.954.954 0 0 0 1.306-.349.954.954 0 0 0-.349-1.306.954.954 0 0 0-1.305.348.965.965 0 0 0 .348 1.306m-.883-9.813a1.705 1.705 0 0 0-.635 2.313 1.705 1.705 0 0 0 2.314.635 1.705 1.705 0 0 0 .634-2.314 1.68 1.68 0 0 0-2.313-.634m-1.94 3.383a1.705 1.705 0 0 0-.635 2.313 1.705 1.705 0 0 0 2.314.635 1.705 1.705 0 0 0 .634-2.314 1.702 1.702 0 0 0-2.314-.634m-2.263-6.779a1.705 1.705 0 0 1 .634 2.314 1.705 1.705 0 0 1-2.313.634 1.705 1.705 0 0 1-.635-2.313 1.694 1.694 0 0 1 2.314-.635m-1.94 3.396a1.705 1.705 0 0 1 .634 2.313 1.705 1.705 0 0 1-2.314.635 1.705 1.705 0 0 1-.634-2.314 1.68 1.68 0 0 1 2.313-.634m1.94 3.383a1.705 1.705 0 0 1 .635 2.313 1.705 1.705 0 0 1-2.313.635 1.705 1.705 0 0 1-.635-2.314 1.705 1.705 0 0 1 2.314-.634m1.865-12.65c0 .411-.335.76-.758.76a.762.762 0 0 1-.759-.76c0-.422.336-.758.759-.758a.77.77 0 0 1 .758.759m0 21.306c0 .41-.335.758-.758.758a.762.762 0 0 1-.759-.758c0-.423.336-.76.759-.76a.77.77 0 0 1 .758.76M3.595 6.592c.36.211.485.672.286 1.032a.769.769 0 0 1-1.033.286.769.769 0 0 1-.286-1.032.766.766 0 0 1 1.033-.286m18.507 10.547c.36.212.485.672.286 1.033a.769.769 0 0 1-1.032.286.769.769 0 0 1-.286-1.033.769.769 0 0 1 1.032-.286m-19.266 0a.758.758 0 0 1 .746 1.318.758.758 0 0 1-1.032-.285.766.766 0 0 1 .286-1.033m18.52-10.535a.758.758 0 0 1 .746 1.318.758.758 0 0 1-1.032-.285.763.763 0 0 1 .286-1.033M7.102 2.351a.61.61 0 0 1-1.219 0 .61.61 0 0 1 .61-.61.595.595 0 0 1 .609.61m12.002 20.373a.61.61 0 0 1-1.218 0 .61.61 0 0 1 1.218 0m-.335-19.85a.611.611 0 0 1-.834-.237.611.611 0 0 1 .237-.834.611.611 0 0 1 .833.237c.162.286.05.659-.236.833M6.803 23.271a.611.611 0 0 1-.833-.236.611.611 0 0 1 .236-.834.611.611 0 0 1 .834.237.6.6 0 0 1-.237.833m17.202-10.236a.625.625 0 0 1-.224-.846.625.625 0 0 1 .846-.224.625.625 0 0 1 .224.846c-.187.298-.56.398-.846.224m-23.657.062a.625.625 0 0 1-.224-.846.625.625 0 0 1 .846-.224c.299.162.386.548.224.846a.614.614 0 0 1-.846.224" fill="#000" fill-rule="nonzero"/>
</svg>
