<svg width="25" height="25" xmlns="http://www.w3.org/2000/svg">
  <g transform="translate(-1.5 -1)" fill-rule="nonzero" fill="none">
    <ellipse fill="#5FBCD3" transform="rotate(-70.67 13.488 13.665)" cx="13.488" cy="13.665" rx="12.386" ry="5.918"/>
    <ellipse fill="#2C89A0" transform="rotate(-36.91 13.487 13.667)" cx="13.487" cy="13.667" rx="12.386" ry="5.918"/>
    <ellipse fill="#164450" transform="rotate(-5.709 14.026 13.347)" cx="14.026" cy="13.347" rx="12.386" ry="5.918"/>
    <path d="M14.901 13.902c.101.989.811 1.483 2.13 1.482a4.84 4.84 0 0 0 2.244-.53v1.5c-.786.345-1.738.518-2.856.518-1.354 0-2.356-.396-3.006-1.188h-.03c-.709.792-1.62 1.188-2.735 1.188-.836.002-1.49-.18-1.96-.547-.471-.367-.707-.875-.707-1.525 0-.648.243-1.166.73-1.556.486-.39 1.182-.615 2.088-.678l1.934-.133c0-.846-.463-1.27-1.39-1.27-.875 0-1.741.238-2.599.712v-1.569a7.41 7.41 0 0 1 2.795-.572c1.18 0 1.995.297 2.448.891h.03c.665-.594 1.43-.938 2.39-1.094 1.024-.166 2.32-.158 2.937.431.35.338.577.782.647 1.262.143 1.116-.611 2.15-1.87 2.299l-3.22.38zm-2.168.054v-.3l-1.179.086c-.926.067-1.39.358-1.39.872 0 .221.111.428.295.552.197.145.454.218.771.218.433 0 .792-.131 1.076-.395.284-.263.427-.608.427-1.033zm2.38-1.456l-.016.299 1.182-.035c.93-.026 1.409-.295 1.437-.809a.653.653 0 0 0-.263-.563c-.188-.154-.44-.238-.757-.25-.432-.018-.798.098-1.097.349-.3.25-.461.587-.485 1.009z" fill="#FFF"/>
  </g>
</svg>
