<svg width="25" height="25" xmlns="http://www.w3.org/2000/svg">
  <g fill-rule="nonzero" fill="none">
    <path d="M22.85 6.903h-.003a4.721 4.721 0 0 1-4.72-4.718v-.003a2.14 2.14 0 1 0-4.281 0v.004a4.727 4.727 0 0 1-4.649 4.718l-.082-.002a2.141 2.141 0 0 0 0 4.281h.005a4.723 4.723 0 0 1 4.716 4.563c-.004.055-.006.11-.006.166v.004a4.722 4.722 0 0 1-2.37 4.09 4.702 4.702 0 0 1-2.344.623v-.001c-.046 0-.092.002-.137.004a4.723 4.723 0 0 1-4.596-4.72H4.38l-.006.001a2.136 2.136 0 1 0-4.274 0c0 1.182.96 2.14 2.142 2.14h.002a4.72 4.72 0 0 1 4.722 4.715v-.004.006c0 1.182.958 2.142 2.14 2.142a2.15 2.15 0 0 0 2.15-2.143v-.002a4.71 4.71 0 0 1 4.711-4.717v.001c1.185 0 2.146-.96 2.15-2.144 0-1.182-.962-2.14-2.144-2.14h-.006c-2.549-.001-4.629-2.042-4.713-4.571.004-.05.007-.102.007-.153V9.04a4.723 4.723 0 0 1 9.448.004h-.005l-.002-.001v.001a2.143 2.143 0 0 0 4.286 0c0-1.182-.957-2.14-2.139-2.14" fill="#2FADE2"/>
    <path d="M6.865 2.142v.002a4.726 4.726 0 0 1-4.724 4.72h-.003A2.138 2.138 0 0 0 0 9.005c0 1.182.955 2.14 2.137 2.14 2.61.002 4.73 2.124 4.73 4.71 0 1.187.957 2.146 2.139 2.146a2.137 2.137 0 1 0 0-4.274h-.004a4.723 4.723 0 0 1 .003-9.445v-.003l-.002-.005h.001A2.136 2.136 0 1 0 9.005 0c-1.181 0-2.14.96-2.14 2.142z" fill="#707374"/>
  </g>
</svg>
