<svg width="25" height="25" xmlns="http://www.w3.org/2000/svg">
  <defs>
    <linearGradient x1="6.32%" y1="6.32%" x2="93.679%" y2="93.681%" id="a">
      <stop stop-color="#D53F3C" offset="0%"/>
      <stop stop-color="#C22752" offset="100%"/>
    </linearGradient>
  </defs>
  <path d="M21.261 21.26c-.885.885-2.425.885-3.31.001L3.739 7.048a2.326 2.326 0 0 1-.686-1.654c0-.626.244-1.213.686-1.656a2.326 2.326 0 0 1 1.655-.685c.625 0 1.213.243 1.655.685L21.261 17.95a2.344 2.344 0 0 1 0 3.31zm-1.133-8.76l3.292-3.292A5.357 5.357 0 0 0 25 5.394a5.357 5.357 0 0 0-1.58-3.814 5.4 5.4 0 0 0-7.628 0l-1.369 1.368 2.159 2.16 1.369-1.37a2.344 2.344 0 0 1 3.31 0c.442.443.686 1.03.686 1.656 0 .625-.244 1.213-.686 1.655L17.97 10.34 9.208 1.58A5.357 5.357 0 0 0 5.394 0C3.954 0 2.599.56 1.58 1.58A5.358 5.358 0 0 0 0 5.394c0 1.44.561 2.795 1.58 3.813L4.872 12.5 1.58 15.792A5.357 5.357 0 0 0 0 19.606c0 1.44.561 2.795 1.58 3.814a5.378 5.378 0 0 0 3.814 1.577 5.378 5.378 0 0 0 3.814-1.577l1.359-1.36-2.159-2.158L7.05 21.26a2.344 2.344 0 0 1-3.31 0 2.344 2.344 0 0 1 0-3.31l3.292-3.293 8.761 8.762A5.36 5.36 0 0 0 19.606 25c1.44 0 2.795-.562 3.814-1.58a5.4 5.4 0 0 0 0-7.628L20.128 12.5z" fill="url(#a)" fill-rule="evenodd"/>
</svg>
