<svg width="25" height="25" xmlns="http://www.w3.org/2000/svg">
  <g fill="#667EEC" fill-rule="evenodd">
    <path d="M12.52 10.107c2.083 0 3.771-1.665 3.771-3.72 0-1.325-1.567-4.033-2.68-5.791a1.295 1.295 0 0 0-2.181 0c-1.114 1.758-2.68 4.466-2.68 5.79 0 2.056 1.688 3.721 3.77 3.721M10.245 12.494c0-2.055-1.689-3.72-3.771-3.72-1.343 0-4.088 1.546-5.87 2.644a1.26 1.26 0 0 0 0 2.152c1.782 1.098 4.527 2.644 5.87 2.644 2.082 0 3.77-1.665 3.77-3.72M12.52 14.882c-2.082 0-3.77 1.665-3.77 3.72 0 1.324 1.566 4.033 2.68 5.79a1.295 1.295 0 0 0 2.18 0c1.114-1.757 2.681-4.466 2.681-5.79 0-2.055-1.688-3.72-3.77-3.72M24.354 11.418c-1.782-1.098-4.528-2.644-5.87-2.644-2.083 0-3.771 1.665-3.771 3.72s1.688 3.72 3.77 3.72c1.343 0 4.089-1.546 5.87-2.644a1.26 1.26 0 0 0 0-2.152"/>
  </g>
</svg>
