<svg width="25" height="25" xmlns="http://www.w3.org/2000/svg">
  <g fill="none" fill-rule="evenodd">
    <path d="M25 12.5C25 19.404 19.404 25 12.5 25S0 19.404 0 12.5 5.596 0 12.5 0 25 5.596 25 12.5" fill="#5493C2"/>
    <path d="M19.816 20.275a10.686 10.686 0 0 1-4.241 2.455v-.638a8.241 8.241 0 0 0-3.075-.59c-1.087 0-2.124.209-3.075.59v.638a10.684 10.684 0 0 1-4.241-2.455l.546-.316a8.241 8.241 0 0 0-1.025-2.958 8.243 8.243 0 0 0-2.05-2.368l-.552.32a10.672 10.672 0 0 1 0-4.905l.553.319a8.242 8.242 0 0 0 2.049-2.368A8.242 8.242 0 0 0 5.73 5.041l-.546-.316A10.686 10.686 0 0 1 9.425 2.27v.638c.95.381 1.988.59 3.075.59 1.087 0 2.124-.209 3.075-.59V2.27a10.685 10.685 0 0 1 4.241 2.455l-.546.316a8.241 8.241 0 0 0 1.025 2.958 8.243 8.243 0 0 0 2.05 2.368l.552-.32a10.672 10.672 0 0 1 0 4.905l-.553-.319a8.242 8.242 0 0 0-2.049 2.368 8.242 8.242 0 0 0-1.025 2.958l.546.316zM12.5 0C5.596 0 0 5.596 0 12.5S5.596 25 12.5 25 25 19.404 25 12.5 19.404 0 12.5 0z" fill="#0C121A"/>
    <path d="M20.606 12.5a8.106 8.106 0 1 1-16.212 0 8.106 8.106 0 0 1 16.212 0" fill="#0C121A"/>
    <path d="M9.431 13.464c0-.455-.244-.683-.734-.683h-.966v1.394h.995c.244 0 .423-.059.536-.177.113-.119.17-.297.17-.534zM9.22 11.43c0-.219-.052-.374-.156-.466-.104-.092-.259-.138-.464-.138h-.868v1.204h.873c.216 0 .372-.05.47-.15.097-.1.145-.25.145-.45zm.977 2.115c0 .441-.124.783-.372 1.025-.248.241-.593.362-1.034.362H6.97v-4.862h1.666c.445 0 .781.103 1.01.309.228.206.342.51.342.913 0 .276-.057.509-.172.698a.858.858 0 0 1-.523.385c.294.046.519.17.673.371.154.201.231.468.231.799zM13.202 11.56c0-.467-.224-.7-.672-.7h-.977v1.435h.997c.214 0 .376-.065.486-.194.11-.128.166-.309.166-.541zm.09 3.37l-.845-1.845h-.894v1.846h-.762v-4.862h1.819c.434 0 .769.125 1.005.374.236.25.354.608.354 1.075 0 .34-.072.635-.217.882-.145.247-.34.41-.587.488l.985 2.043h-.858zM17.132 14.93l-1.307-2.232-.45.46v1.773h-.762v-4.862h.762v2.205l1.64-2.205h.89l-1.556 2.057 1.682 2.805h-.899" fill="#FFFFFE"/>
  </g>
</svg>
