<svg width="25" height="25" xmlns="http://www.w3.org/2000/svg">
  <g fill-rule="nonzero" fill="none">
    <circle fill="#1186E6" cx="12.5" cy="12.5" r="12.5"/>
    <path d="M2.773 12.12l19.512-.001.003-2.42L9.507 9.69V4.938c-.163.105-1.603 1.676-1.919 1.992-.08.081-.133.149-.207.236-.313.372-.918.953-1.266 1.354-.138.158-.285.272-.42.429L4.43 10.303c-.07.08-.117.141-.19.217-.08.084-.15.127-.229.212-.148.16-.255.323-.418.468-.185.166-.269.268-.412.437-.236.279-.364.283-.407.483zm-.06 3.172l12.782.01.003 4.753c.265-.18.62-.677.858-.882l3.981-4.248c.079-.083.152-.127.23-.21.141-.153.251-.308.398-.454.27-.266 1.226-1.238 1.256-1.387l-19.499.001-.008 2.417z" fill="#FFF"/>
  </g>
</svg>
