<svg width="25" height="25" xmlns="http://www.w3.org/2000/svg">
  <g fill-rule="nonzero" fill="none">
    <path d="M12.162.338h1.284c1.351.067 2.635.338 3.851.878 3.04 1.216 5.54 3.649 6.757 6.69 1.69 4.053.946 8.986-1.824 12.297-1.892 2.365-4.73 3.919-7.703 4.324a12.37 12.37 0 0 1-8.176-1.69C4.527 21.69 2.973 20 1.96 18.109.676 15.676.27 12.77.88 10.068a12.117 12.117 0 0 1 4.864-7.433C7.635 1.216 9.933.473 12.163.338zm-.743.54c-3.649.406-7.095 2.77-8.851 6.014-1.217 2.23-1.69 4.797-1.284 7.23.405 2.973 2.027 5.743 4.392 7.567 1.824 1.42 3.986 2.297 6.283 2.433a11.474 11.474 0 0 0 7.365-1.96c2.635-1.757 4.527-4.594 5.068-7.703.338-1.824.203-3.716-.338-5.54-.81-2.568-2.568-4.865-4.797-6.284C16.892 1.216 14.122.541 11.419.878z" fill="#00206B"/>
    <path d="M11.757 5.676c2.094-.338 4.392.338 5.878 1.824 1.351 1.284 2.162 3.108 2.095 5 0 1.824-.744 3.716-2.095 4.932-1.486 1.487-3.649 2.163-5.676 1.892-1.891-.202-3.716-1.351-4.797-2.905-1.216-1.69-1.554-3.987-.946-6.014.743-2.432 2.973-4.324 5.54-4.73zm.405.405v1.824h.879V6.014c-.27.067-.609.067-.879.067zm2.162 1.892c.811.135 1.622.203 2.298.743.946.879.81 2.703-.338 3.311.675.135 1.419.608 1.554 1.351.203.946.067 2.163-.743 2.838-.744.608-1.825.743-2.77.811v1.69c2.026-.474 3.783-2.028 4.526-3.92.676-1.824.54-3.919-.473-5.54-.878-1.487-2.364-2.568-4.054-3.04v1.756zm-6.013-.068c.878.068 1.757 0 2.635 0V6.284A8.648 8.648 0 0 0 8.31 7.905zm-.135.068c-.27.473-.676.878-.879 1.351-1.013 1.757-1.148 3.987-.27 5.879.743 1.689 2.23 2.973 3.919 3.513v-1.621H8.31c0-.473.135-.946.27-1.42.405 0 .878.068 1.284-.067.27-.203.203-.54.203-.81V10c0-.27-.136-.54-.406-.608-.473-.068-.878-.068-1.351-.068-.068-.338-.068-.743-.068-1.08l.135.067a.722.722 0 0 0-.202-.338zm3.986 1.419v2.365c.811 0 1.69.067 2.365-.406.54-.405.54-1.351-.068-1.689-.675-.405-1.486-.27-2.297-.27zm0 3.581v2.635c.946-.067 2.095.068 2.906-.473.608-.405.54-1.419-.068-1.757-.81-.54-1.892-.337-2.838-.405zm0 4.122v1.824c.338 0 .608 0 .946.067v-1.824h-.946v-.067z" fill="#00206B"/>
    <path d="M11.486 1.486c2.163-.202 4.325.068 6.284 1.082 2.433 1.216 4.46 3.378 5.406 5.946 1.013 2.567.946 5.54-.068 8.04-1.554 4.054-5.676 6.96-10 6.96-2.567.067-5.135-.744-7.094-2.365-2.095-1.622-3.582-4.122-4.055-6.757-.473-2.635.068-5.406 1.42-7.703 1.756-2.838 4.797-4.797 8.107-5.203zm-.337 3.582a7.711 7.711 0 0 0-4.392 2.837 7.96 7.96 0 0 0-1.487 5.473c.203 2.027 1.352 3.987 3.04 5.203A7.668 7.668 0 0 0 13.852 20c2.365-.27 4.595-1.824 5.676-3.919.81-1.554 1.081-3.31.743-5-.405-2.027-1.689-3.919-3.446-5C15.135 5 13.041 4.662 11.15 5.068z" fill="#EBA809"/>
  </g>
</svg>
