<svg width="25" height="25" xmlns="http://www.w3.org/2000/svg">
  <g fill-rule="nonzero" fill="none">
    <circle fill="#00579D" cx="12.526" cy="12.526" r="12.435"/>
    <path d="M7.31 13.344l-.55 2.338-6.626-2.109h4.241l.55-2.567 4.225.003 1.232-6.65h4.769c3.275 0 4.454 1.237 3.987 3.757l-.108.583c-.312 1.68-1.138 2.73-2.645 3.266l-.009.047c1.596.537 2.032 1.75 1.712 3.477l-.246 1.33c-.467 2.52-2.356 3.873-5.516 3.873h-4.97l1.361-7.348H7.31zm4.568-.002l-.93 5.016h1.81c1.063 0 1.711-.396 1.936-1.61l.264-1.423c.28-1.516-.236-1.983-1.673-1.983h-1.407zm1.232-6.65l-.8 4.317h1.235c1.178 0 1.974-.42 2.216-1.726l.169-.91c.216-1.167-.177-1.68-1.298-1.68H13.11z" fill="#FFF"/>
  </g>
</svg>
