<svg width="25" height="25" xmlns="http://www.w3.org/2000/svg">
  <g fill="none" fill-rule="evenodd">
    <path d="M25 12.5C25 19.404 19.404 25 12.5 25S0 19.404 0 12.5 5.596 0 12.5 0 25 5.596 25 12.5" fill="#FFFFFE"/>
    <path d="M14.774 14.232h-4.327v5.912h4.327a2.956 2.956 0 0 0 0-5.912M14.774 4.856h-4.327v5.912h4.327a2.956 2.956 0 0 0 0-5.912" fill="#D7262E"/>
    <path d="M12.5 23.181c-3.376 0-6.39-1.574-8.35-4.027V5.846a10.667 10.667 0 0 1 8.35-4.027c5.89 0 10.681 4.791 10.681 10.681 0 5.89-4.791 10.681-10.681 10.681zM12.5 0C5.596 0 0 5.596 0 12.5S5.596 25 12.5 25 25 19.404 25 12.5 19.404 0 12.5 0z" fill="#D7262E"/>
  </g>
</svg>
