<svg width="25" height="25" xmlns="http://www.w3.org/2000/svg" xmlns:xlink="http://www.w3.org/1999/xlink">
  <defs>
    <path d="M25 12.5C25 19.404 19.404 25 12.5 25S0 19.404 0 12.5 5.596 0 12.5 0 25 5.596 25 12.5" id="a"/>
    <linearGradient x1="50%" y1="0%" x2="50%" y2="96.69%" id="b">
      <stop stop-color="#996630" offset="0%"/>
      <stop stop-color="#D2A342" offset="32.828%"/>
      <stop stop-color="#A8772D" offset="60.384%"/>
      <stop stop-color="#C59734" offset="100%"/>
    </linearGradient>
  </defs>
  <g fill="none" fill-rule="evenodd">
    <mask id="c" fill="#fff">
      <use xlink:href="#a"/>
    </mask>
    <path d="M25 12.5C25 19.404 19.404 25 12.5 25S0 19.404 0 12.5 5.596 0 12.5 0 25 5.596 25 12.5" fill="url(#b)" mask="url(#c)"/>
    <path d="M12.5 23.872c-6.27 0-11.372-5.101-11.372-11.372 0-6.27 5.101-11.372 11.372-11.372 6.27 0 11.372 5.101 11.372 11.372 0 6.27-5.101 11.372-11.372 11.372zM12.5 0C5.596 0 0 5.596 0 12.5S5.596 25 12.5 25 25 19.404 25 12.5 19.404 0 12.5 0z" fill="#1B1A19"/>
    <path d="M21.239 7.505l.45-.451c.524.884.909 1.827 1.156 2.799h-.633a.76.76 0 0 0-.76.76v3.775c0 .42.34.76.76.76h.633a10.62 10.62 0 0 1-1.155 2.798l-.451-.45a.76.76 0 0 0-1.074 0l-2.67 2.669a.76.76 0 0 0 0 1.074l.451.45c-.884.524-1.827.91-2.799 1.156v-.633a.76.76 0 0 0-.76-.76h-3.775a.76.76 0 0 0-.76.76v.633a10.617 10.617 0 0 1-2.798-1.155l.45-.451a.76.76 0 0 0 0-1.074l-2.669-2.67a.76.76 0 0 0-1.074 0l-.45.451a10.617 10.617 0 0 1-1.156-2.799h.633c.42 0 .76-.34.76-.76v-3.775a.76.76 0 0 0-.76-.76h-.633c.247-.971.632-1.914 1.155-2.798l.451.45a.76.76 0 0 0 1.074 0l2.67-2.669a.76.76 0 0 0 0-1.074l-.451-.45a10.617 10.617 0 0 1 2.799-1.156v.633c0 .42.34.76.76.76h3.775c.42 0 .76-.34.76-.76v-.633c.971.247 1.914.632 2.798 1.155l-.45.451a.76.76 0 0 0 0 1.074l2.669 2.67a.76.76 0 0 0 1.074 0zM12.5 1.128C6.23 1.128 1.128 6.229 1.128 12.5c0 6.27 5.101 11.372 11.372 11.372 6.27 0 11.372-5.101 11.372-11.372 0-6.27-5.101-11.372-11.372-11.372z" fill="#FFFFFE"/>
    <path d="M19.245 12.5a6.745 6.745 0 1 1-13.49 0 6.745 6.745 0 0 1 13.49 0" fill="#FFFFFE"/>
    <path d="M18.661 12.5a6.161 6.161 0 1 1-12.322 0 6.161 6.161 0 0 1 12.322 0" fill="#1B1A19"/>
    <path d="M12.025 14.27H9.807a.906.906 0 0 1-.907-.907v-.414c0-.5.406-.906.907-.906h.837a.863.863 0 0 0 .863-.864v-.241h-1.7c-1.111 0-2.012.9-2.012 2.011v.414c0 1.111.9 2.012 2.012 2.012h2.218V14.27zm2.158 0h1.01c.5 0 .907-.407.907-.907v-.414c0-.5-.407-.906-.907-.906h-1.01v2.227zm1.01 1.105h-2.115v-3.332h-.051a.863.863 0 0 1-.864-.864v-.241h.915v-1.26h-.707a.863.863 0 0 1-.864-.864v-.242h2.676v2.366h1.01c1.111 0 2.012.9 2.012 2.011v.414c0 1.111-.9 2.012-2.012 2.012z" fill="#FFFFFE"/>
  </g>
</svg>
