<svg width="25" height="25" xmlns="http://www.w3.org/2000/svg">
  <g fill="none" fill-rule="evenodd">
    <path d="M25 12.5C25 19.404 19.404 25 12.5 25S0 19.404 0 12.5 5.596 0 12.5 0 25 5.596 25 12.5" fill="#2E344F"/>
    <path d="M19.999 20.098l-1.285-1.284-.292.263a8.83 8.83 0 0 1-5.918 2.27c-4.878 0-8.847-3.968-8.847-8.847s3.969-8.848 8.847-8.848a8.83 8.83 0 0 1 5.918 2.271l.292.263L20 4.902a10.649 10.649 0 0 1 3.182 7.598c0 2.97-1.219 5.66-3.182 7.598zM1.819 12.5C1.819 6.61 6.61 1.819 12.5 1.819c2.622 0 5.026.95 6.887 2.523l-.708.708a9.656 9.656 0 0 0-6.175-2.227c-5.335 0-9.676 4.341-9.676 9.677 0 5.336 4.34 9.677 9.676 9.677 2.264 0 4.441-.788 6.175-2.227l.708.708A10.634 10.634 0 0 1 12.5 23.18c-5.89 0-10.681-4.791-10.681-10.681zM12.5 1.128C6.23 1.128 1.128 6.229 1.128 12.5c0 6.27 5.101 11.372 11.372 11.372 6.27 0 11.372-5.101 11.372-11.372 0-6.27-5.101-11.372-11.372-11.372z" fill="#FFFFFE"/>
    <path d="M12.806 19.152a6.587 6.587 0 0 0 4.023-1.592l.34-.29-1.65-1.653-.29.236a4.329 4.329 0 0 1-2.725.968 4.316 4.316 0 0 1-4.249-3.54l-.062-.34H5.845l.065.471a6.605 6.605 0 0 0 1.803 3.71A6.602 6.602 0 0 0 11 18.988v.696c-3.358-.7-5.834-3.708-5.834-7.184 0-4.047 3.292-7.339 7.338-7.339.163 0 .327.006.49.016L13 6.68l.353.052c.936.137 1.82.5 2.584 1.058l-.487.488a5.163 5.163 0 0 0-2.947-.928 5.131 5.131 0 0 0-5.123 4.627l.825.083a4.305 4.305 0 0 1 4.298-3.88c.99 0 1.957.343 2.724.967l.29.236L17.17 7.73l-.34-.291a6.638 6.638 0 0 0-3.004-1.467l-.008-1.543-.364-.043a8.262 8.262 0 0 0-.95-.055c-4.503 0-8.167 3.664-8.167 8.168a8.16 8.16 0 0 0 2.022 5.38 8.162 8.162 0 0 0 4.998 2.707l.472.067v-2.352l-.342-.06a5.8 5.8 0 0 1-4.672-4.472h.7a5.145 5.145 0 0 0 4.99 3.88 5.163 5.163 0 0 0 2.946-.928l.488.488a5.756 5.756 0 0 1-3.17 1.114l.037.828" fill="#FFFFFE"/>
    <path d="M14.705 5.497a7.29 7.29 0 0 1 2.65 1.499l.549-.622a8.112 8.112 0 0 0-2.95-1.667l-.25.79M12.772 19.834l.03.828a8.177 8.177 0 0 0 5.102-2.036l-.548-.622a7.346 7.346 0 0 1-4.584 1.83M11.986 5.861a6.657 6.657 0 0 0-6.119 6.126l.827.063c.216-2.838 2.519-5.144 5.356-5.362l-.064-.827" fill="#FFFFFE"/>
  </g>
</svg>
