<svg width="25" height="25" xmlns="http://www.w3.org/2000/svg">
  <g fill="none" fill-rule="evenodd">
    <path d="M25 12.5C25 19.404 19.404 25 12.5 25S0 19.404 0 12.5 5.596 0 12.5 0 25 5.596 25 12.5" fill="#1D373C"/>
    <path d="M12.5 23.181c-5.89 0-10.681-4.791-10.681-10.681C1.819 6.61 6.61 1.819 12.5 1.819c5.89 0 10.681 4.791 10.681 10.681 0 5.89-4.791 10.681-10.681 10.681zm0-22.053C6.23 1.128 1.128 6.229 1.128 12.5c0 6.27 5.101 11.372 11.372 11.372 6.27 0 11.372-5.101 11.372-11.372 0-6.27-5.101-11.372-11.372-11.372z" fill="#FFFFFE"/>
    <path d="M12.5 18.821a6.282 6.282 0 0 1-4.471-1.852 6.282 6.282 0 0 1-1.852-4.471c0-1.689.658-3.277 1.852-4.471a6.277 6.277 0 0 1 4.47-1.848c1.299 0 2.536.386 3.58 1.105l-.835.834a5.136 5.136 0 0 0-2.744-.786c-1.38 0-2.678.537-3.654 1.512a5.133 5.133 0 0 0-1.513 3.654c0 1.38.537 2.678 1.513 3.654a5.133 5.133 0 0 0 3.654 1.513c.985 0 1.929-.273 2.742-.785l.835.834a6.278 6.278 0 0 1-3.577 1.107zm2.019-4.303a2.836 2.836 0 0 1-2.019.836c-.762 0-1.48-.297-2.02-.837a2.837 2.837 0 0 1-.836-2.019c0-.762.297-1.48.837-2.019a2.847 2.847 0 0 1 2.019-.835c.731 0 1.462.278 2.02.835l.816.817 4.086-4.087-.817-.817a8.578 8.578 0 0 0-4.757-2.41V2.313h-2.6v1.654a8.575 8.575 0 0 0-4.853 2.424 8.578 8.578 0 0 0-2.53 6.106c0 2.307.899 4.475 2.53 6.106a8.563 8.563 0 0 0 4.853 2.429v1.653h2.6v-1.667a8.564 8.564 0 0 0 4.758-2.415l.815-.815-4.087-4.087-.815.816z" fill="#FFFFFE"/>
  </g>
</svg>
