<svg width="25" height="25" xmlns="http://www.w3.org/2000/svg">
  <g fill="none" fill-rule="evenodd">
    <path d="M9.575 12.321c-.925.207-2.014-.012-2.745-.225l2.575 4.13-.517.322-3.51-5.73.843.422.03.014c.186.075 1.923.756 3.19.472 1.061-.237 2.508-2.414 2.926-3.147l.398.528c-.067.117-1.65 2.87-3.19 3.214zm6.315.157c-1.373-.18-2.594-1.528-2.645-1.585l.36-.513c.011.012 1.217 1.343 2.365 1.494.529.07 1.93-.34 2.453-.514a.234.234 0 0 0 .04-.017l.882-.487-3.473 5.607-.225-.07c-.017-.006-1.735-.55-2.307-.618-.612-.073-2.678.063-2.698.064l-.18-.6c.08-.005 2.282-.15 2.95-.07.501.06 1.693.417 2.194.572l2.243-3.57c-.634.175-1.486.37-1.959.307zM1.863 10.156C.57 16.02 4.291 21.844 10.156 23.136c.586.13 1.173.21 1.754.24a10.92 10.92 0 0 0 8.73-3.64 10.824 10.824 0 0 0 2.497-4.892c1.293-5.865-2.428-11.688-8.293-12.98C8.98.57 3.156 4.29 1.864 10.155z" fill="#213B73"/>
    <path d="M20.976 19.997a11.368 11.368 0 0 1-2.386 2.035 11.229 11.229 0 0 1-8.524 1.514 11.237 11.237 0 0 1-7.098-4.956 11.238 11.238 0 0 1-1.514-8.524c.65-2.95 2.41-5.472 4.956-7.098a11.238 11.238 0 0 1 8.524-1.514c2.95.65 5.472 2.41 7.098 4.956a11.238 11.238 0 0 1 1.514 8.524 11.248 11.248 0 0 1-2.57 5.063zM12.5 0C5.596 0 0 5.596 0 12.5S5.596 25 12.5 25 25 19.404 25 12.5 19.404 0 12.5 0z" fill="#213B73"/>
    <path d="M22.032 6.41a11.237 11.237 0 0 0-7.098-4.956l-.09.41c5.865 1.292 9.586 7.115 8.293 12.98a10.824 10.824 0 0 1-2.498 4.891l.337.262a11.248 11.248 0 0 0 2.57-5.063c.65-2.95.113-5.977-1.514-8.524" fill="#587389"/>
    <path d="M11.91 23.377v.421a11.229 11.229 0 0 0 6.68-1.766 11.368 11.368 0 0 0 2.386-2.035l-.337-.262a10.92 10.92 0 0 1-8.73 3.642M14.844 1.863l.09-.41A11.238 11.238 0 0 0 6.41 2.969a11.237 11.237 0 0 0-4.956 7.098l.41.09C3.155 4.29 8.978.57 14.843 1.863" fill="#FEFEFF"/>
    <path d="M11.91 23.377a10.903 10.903 0 0 1-1.754-.24C4.29 21.844.57 16.02 1.863 10.156l-.41-.09a11.238 11.238 0 0 0 1.515 8.524 11.237 11.237 0 0 0 7.098 4.956c.612.135 1.229.219 1.843.252v-.421" fill="#587389"/>
    <path d="M9.442 11.726c-1.268.284-3.005-.397-3.19-.472a.427.427 0 0 1-.03-.014l-.844-.422 3.51 5.73.517-.322-2.575-4.13c.731.213 1.82.432 2.745.225 1.54-.344 3.123-3.097 3.19-3.214l-.398-.528c-.418.733-1.865 2.91-2.925 3.147M13.413 15.17c-.67-.08-2.87.064-2.952.07l.181.6c.02-.002 2.086-.138 2.698-.065.572.069 2.29.612 2.307.617l.225.071 3.473-5.607-.882.487a.234.234 0 0 1-.04.017c-.523.173-1.924.583-2.453.514-1.148-.151-2.354-1.482-2.365-1.494l-.36.513c.051.057 1.272 1.405 2.645 1.585.473.063 1.325-.132 1.959-.308l-2.243 3.57c-.5-.154-1.693-.51-2.193-.57" fill="#FEFEFF"/>
  </g>
</svg>
