<svg width="25" height="25" xmlns="http://www.w3.org/2000/svg">
  <g fill="#2FA73F" fill-rule="nonzero">
    <path d="M12.624 22.027c-5.273 0-9.552-4.278-9.552-9.552s4.279-9.552 9.552-9.552a9.545 9.545 0 0 1 9.142 6.803h2.985C23.507 4.18 18.545.037 12.624.037 5.76.037.187 5.61.187 12.475c0 6.866 5.572 12.438 12.437 12.438 5.908 0 10.859-4.117 12.127-9.64h-2.997c-1.194 3.906-4.826 6.754-9.13 6.754"/>
    <path d="M15.41 10.808c0 1.12-.659 2.078-1.616 2.525v3.744h-2.376v-3.769a2.787 2.787 0 0 1 1.206-5.298 2.808 2.808 0 0 1 2.786 2.798"/>
  </g>
</svg>
