<svg width="25" height="25" xmlns="http://www.w3.org/2000/svg">
  <g fill="none" fill-rule="evenodd">
    <path d="M17.413 8.828a5.754 5.754 0 0 1 2.165-.299l.059.008h5.31V6.019h-5.174c-.346-.029-1.59-.087-3.053.386a7.323 7.323 0 0 0-4.176 3.398 15.03 15.03 0 0 1 1.514 2.77c.09-.21.176-.424.26-.642.597-1.561 1.638-2.605 3.095-3.103M11.278 12.572c-.846 1.633-1.899 2.824-3.092 3.485-1.063.59-1.884.574-1.998.568l-.038-.005H2.623v2.51h-.061v.007h3.456c.054.004.13.007.223.007.525 0 1.64-.096 2.953-.77.983-.507 1.889-1.24 2.691-2.18.228-.267.448-.552.66-.852a8.823 8.823 0 0 1-.58-1.228 14.97 14.97 0 0 0-.687-1.542" fill="#1BB168"/>
    <path d="M11.885 8.951c-.802-.94-1.708-1.673-2.691-2.18-1.547-.795-2.82-.786-3.176-.764H2.623v-.002H.053V19.13h2.57V8.525h3.441l.045.005.077-.01c.11-.006.933-.024 2 .568 1.193.661 2.246 1.852 3.092 3.484.247.477.477.992.688 1.542.171.448.366.856.578 1.228a7.322 7.322 0 0 0 4.176 3.398 8.414 8.414 0 0 0 2.554.405c.229 0 .4-.01.5-.019h5.173v-2.518h-5.303l-.07.008a5.76 5.76 0 0 1-2.079-.272c-1.5-.486-2.569-1.539-3.178-3.13-.083-.218-.17-.432-.259-.642a15.03 15.03 0 0 0-1.514-2.769c-.211-.3-.43-.585-.659-.852" fill="#008A6E"/>
  </g>
</svg>
