<svg width="25" height="25" xmlns="http://www.w3.org/2000/svg">
  <g fill-rule="nonzero" fill="none">
    <path d="M12.491.071C5.634.071.071 5.643.071 12.5S5.643 24.929 12.5 24.929 24.929 19.366 24.929 12.5C24.929 5.634 19.357.071 12.49.071z" fill="#06C"/>
    <circle fill="#002352" cx="12.491" cy="12.5" r="10.098"/>
    <path d="M15.607 7.438l.357-.93a.145.145 0 0 0-.134-.196H14.5l-.429 1.099h-.589l.34-.902a.145.145 0 0 0-.134-.197h-1.33l-.412 1.099h-4.17a.555.555 0 0 0-.463.268l-1.036 1.83h7.777c.258 0 .508.045.75.143.464.187 1.008.616.866 1.58-.224 1.616-1.875 4.473-5.447 4.518l1.848-4.804a.299.299 0 0 0-.285-.401H9.313L6.32 17.884s.599.071 1.545.071l-.303.768h1.366a.25.25 0 0 0 .24-.17l.26-.66c.205-.018.401-.045.616-.063l-.34.893h1.366a.25.25 0 0 0 .242-.17l.392-1.008c2.241-.51 4.634-1.625 6.072-3.965 2.884-4.714-.107-5.928-2.17-6.143z" fill="#FFF"/>
  </g>
</svg>
