<svg width="25" height="25" xmlns="http://www.w3.org/2000/svg">
  <path d="M7.704 18.266a7.458 7.458 0 0 0 2.86 1.481l-.408-2.499-2.452 1.018zm2.048-1.683l-1.415-1.294-.977 2.288 2.392-.994zm-1.94-2.397v-3.498l-2.706.555a7.489 7.489 0 0 0-.004 2.493l2.71.45zm.038-7.572l2.224.967.451-2.318A7.47 7.47 0 0 0 7.85 6.614zM6.674 17.223l.977-2.285-2.368-.39c.28.99.76 1.897 1.391 2.675zm.998-7.291l-.894-2.28a7.46 7.46 0 0 0-1.485 2.767l2.38-.487zm-.213-2.65l.885 2.257L9.68 8.25l-2.221-.966zm9.867 10.96l-2.248-.986-.426 2.43a7.465 7.465 0 0 0 2.674-1.445zm-1.079-8.126l-1.38-1.348-1.379 2.75 2.76-1.402zm-1.36 5.952l1.36-1.329-2.77-1.407 1.41 2.736zm1.878-.76l-1.304 1.276 2.275.997-.97-2.273zm1.005-8.072L15.438 8.25l1.33 1.301 1.002-2.315zM25 12.5C25 19.404 19.404 25 12.5 25S0 19.404 0 12.5 5.596 0 12.5 0 25 5.596 25 12.5zm-9.954-4.92l2.145-.932a7.448 7.448 0 0 0-2.583-1.347l.438 2.28zm-2.45 5.72l-1.516 3.022h3.073L12.595 13.3zm-1.225 6.615a7.537 7.537 0 0 0 2.466-.034l.489-2.79H10.91l.461 2.824zm-2.79-5.902l3.118-1.585-3.117-1.585v3.17zm5.556-5.503H10.99l1.595 3.093 1.55-3.093zm-3.31-.77h3.467l-.507-2.63a7.471 7.471 0 0 0-2.444-.02l-.516 2.65zm-.486 8.34l1.412-2.817-2.887 1.468 1.475 1.349zm7.1-1.152l.947 2.22a7.463 7.463 0 0 0 1.345-2.659l-2.293.439zm.917-7.113l-.912 2.106 2.229.39a7.48 7.48 0 0 0-1.317-2.496zm1.516 3.311l-2.59-.452v3.5l2.625-.5a7.493 7.493 0 0 0-.035-2.548zm-3.36 2.886v-3.169l-3.117 1.585 3.117 1.584zm-4.813-2.446l-1.445-2.804-1.404 1.356 2.849 1.448z" fill="#0844B6" fill-rule="evenodd"/>
</svg>
