<svg width="25" height="25" xmlns="http://www.w3.org/2000/svg">
  <g fill-rule="nonzero" fill="none">
    <path d="M24.834 10.07a7.478 7.478 0 0 0-.924-2.317c-.896-1.433-2.853-3.516-5.299-5.157 0 0-1.847-1.145-2.717-1.536-3.18-1.406-6.74-1.693-9.783.885-5.108 4.35-7.663 10.417-5.108 16.459.054.13 1.467 3.828 9.945 6.302 3.723.104 5.897-.104 8.288-1.433 3.125-1.718 4.946-4.843 5.598-8.02.19-.964.218-4.22 0-5.183" fill="#04FFCC"/>
    <path d="M14.943 1.503V7.31l-7.01-.417-2.881 3.49-.354 6.588L7.09 19.42l3.587 1.719 4.7.495 5.11-1.25V8.273l-.979-5.026S16.764 1.19 14.97.695" fill="#7DF8FB"/>
    <g fill="#2C398F">
      <path d="M23.15 15.904c-.979-.052-.435-1.537-.87-3.23-.516-1.875.244-3.177 1.25-3.125.472.071.92.25 1.304.521a7.478 7.478 0 0 0-.924-2.317c-.896-1.433-2.853-3.516-5.299-5.157V18.3c.001.743-.536 1.387-1.293 1.55-.756.162-1.529-.2-1.859-.872-2.682 1.593-6.174 1.091-8.252-1.186-2.077-2.277-2.129-5.66-.123-7.995 2.007-2.335 5.482-2.935 8.212-1.418V2.284a1.51 1.51 0 0 1 .598-1.224c-3.18-1.406-6.74-1.693-9.783.885-5.108 4.35-7.663 10.417-5.108 16.459.054.13.108.26.163.364.074-.146.176-.278.299-.39 1.331-1.302 2.799 1.354 5.924 2.89 1.983.964 3.125 2.24 3.56 3.438 2.907.338 5.896-.104 8.287-1.433 3.125-1.718 4.946-4.843 5.598-8.02a2.838 2.838 0 0 1-1.685.65zM12.496 3.56c.734-.026 1.413.807 1.44 1.198.028.39-.624.234-1.331.469-.788.26-1.359.026-1.386-.365-.027-.39.516-1.276 1.277-1.302z"/>
      <path d="M10.894 16.008c1.576.86 3.478.52 3.832-1.406.19-1.12.081-2.865-.952-3.412-3.423-1.875-6.304 2.943-2.88 4.818"/>
    </g>
  </g>
</svg>
