<svg width="25" height="25" xmlns="http://www.w3.org/2000/svg">
  <g fill="none" fill-rule="evenodd">
    <path d="M20.143 8.216c-.182.142-.415.304-.685.48l.023.014 4.917 8.256V7.294a6.658 6.658 0 0 0-.652-2.885s-2.57 3-3.603 3.807" fill="#560B74"/>
    <path d="M6.136 8.958l6.457-3.728.451.261 6.003 3.466c.145-.09.282-.177.411-.261l-6.865-3.964L5.705 8.71v7.946c.144-.13.289-.257.43-.378v-7.32" fill="#763C90"/>
    <path d="M19.047 8.957l.004.001v7.456l-6.458 3.729-6.457-3.729v-.136c-.142.121-.287.247-.431.378v.007l6.888 3.978 6.888-3.978V8.71l-.023-.014c-.13.084-.266.171-.41.26" fill="#602278"/>
    <path d="M15.571 10.919l2.912 5.036a.06.06 0 0 1-.053.09H6.771a.06.06 0 0 1-.052-.09l.152-.263 5.67-9.833a.06.06 0 0 1 .104 0l2.926 5.06zm-3.655-5.013L6.382 15.49a.772.772 0 0 0-.066.637c.101.301.382.536.743.536h11.068a.784.784 0 0 0 .678-1.173L13.27 5.906a.783.783 0 0 0-1.355 0z" fill="#743E89"/>
    <path d="M24.398 17.706v-.74L19.481 8.71v7.953l-6.888 3.978-6.888-3.978 4.535 7.735h7.466a6.692 6.692 0 0 0 6.692-6.692" fill="#753F8A"/>
    <path d="M5.705 16.656V8.71l6.888-3.978 6.865 3.964c.27-.176.503-.338.685-.48 1.032-.808 3.603-3.807 3.603-3.807a6.692 6.692 0 0 0-6.04-3.807H7.294A6.692 6.692 0 0 0 .602 7.294v10.412c0 1.222.327 2.368.9 3.353 0 0 2.173-2.58 4.203-4.403" fill="#662083"/>
    <path d="M18.805 15.49c.072.126.106.26.106.39h.14V8.957l-.004-.001a61.148 61.148 0 0 1-3.022 1.72l2.78 4.813" fill="#50056E"/>
    <path d="M24.398 17.706a6.692 6.692 0 0 1-6.692 6.692H10.24l.35.595h7.377a7.027 7.027 0 0 0 7.027-7.027l-.596-1v.74" fill="#7E4498"/>
    <path d="M12.541 5.86l-5.67 9.832c.258-.192.505-.356.735-.486a686.7 686.7 0 0 1 5.453-2.982s1.13-.568 2.512-1.305l-2.926-5.06a.06.06 0 0 0-.104 0" fill="#5E187B"/>
    <path d="M12.974 5.612a.772.772 0 0 1 .297.294l2.754 4.77a61.148 61.148 0 0 0 3.022-1.72l-6.003-3.465-.07.121" fill="#60187C"/>
    <path d="M7.606 15.206c-.23.13-.477.294-.735.486l-.152.263a.06.06 0 0 0 .052.09h11.66a.06.06 0 0 0 .052-.09l-2.912-5.036c-1.383.737-2.512 1.305-2.512 1.305s-4.098 2.22-5.453 2.982" fill="#4D026B"/>
    <path d="M18.127 16.663H7.06a.779.779 0 0 1-.743-.536l-.18.151v.136l6.457 3.729 6.458-3.729v-.535h-.14c0 .41-.327.784-.784.784" fill="#4B0069"/>
    <path d="M6.382 15.49l5.534-9.584a.783.783 0 0 1 1.058-.294l.07-.121-.45-.261-6.458 3.728v7.32l.18-.15a.772.772 0 0 1 .066-.638" fill="#5E167A"/>
    <path d="M5.705 16.656C3.675 18.478 1.5 21.059 1.5 21.059a6.69 6.69 0 0 0 5.793 3.339h2.946l-4.535-7.735v-.007" fill="#4B0069"/>
    <path d="M17.967.007H7.033A7.027 7.027 0 0 0 .006 7.034v10.932a7.027 7.027 0 0 0 7.027 7.027h3.556l-.35-.595H7.295a6.69 6.69 0 0 1-6.692-6.692V7.294A6.692 6.692 0 0 1 7.294.602h10.412a6.692 6.692 0 0 1 6.692 6.692v9.672l.596 1V7.034A7.027 7.027 0 0 0 17.967.007" fill="#500071"/>
  </g>
</svg>
