<svg width="25" height="25" xmlns="http://www.w3.org/2000/svg" xmlns:xlink="http://www.w3.org/1999/xlink">
  <defs>
    <path d="M2.851.044C.321.044.001 2.15.001 2.15h5.7S5.298.044 2.851.044" id="a"/>
    <linearGradient x1="-35.848%" y1="-307.795%" x2="137.468%" y2="504.746%" id="b">
      <stop stop-color="#5AC2F6" offset="0%"/>
      <stop stop-color="#1170AB" offset="100%"/>
    </linearGradient>
    <path d="M21.326 10.358H13.05s.213 2.297 2.98 2.297c1.977 0 2.935-1.02 2.935-1.02l1.787 1.615s-1.618 1.767-4.936 1.85c-2.012.053-5.552-1.04-5.552-5.827 0-4.106 3.803-5.422 5.786-5.424 6.126-.01 5.276 6.509 5.276 6.509zM15.816.051A9.134 9.134 0 0 0 7.25 6.013H.053l3.36 2.792h3.28a9.19 9.19 0 0 0 .04 1.323h-3.34l-3.275 2.74H7.46A9.131 9.131 0 1 0 15.816.051z" id="d"/>
    <linearGradient x1="31.011%" y1="8.24%" x2="70.697%" y2="101.939%" id="e">
      <stop stop-color="#5AC2F6" offset="0%"/>
      <stop stop-color="#1170AB" offset="100%"/>
    </linearGradient>
  </defs>
  <g fill="none" fill-rule="evenodd">
    <path d="M13.094 11.252s.319-2.106 2.85-2.106c2.446 0 2.85 2.106 2.85 2.106h-5.7zm2.956-4.403c-1.983.002-5.786 1.318-5.786 5.424 0 4.786 3.54 5.88 5.552 5.828 3.318-.084 4.936-1.85 4.936-1.85l-1.787-1.617s-.958 1.021-2.936 1.021c-2.766 0-2.979-2.297-2.979-2.297h8.276s.85-6.518-5.276-6.51z" fill="#FFF"/>
    <g transform="translate(13.092 9.102)">
      <mask id="c" fill="#fff">
        <use xlink:href="#a"/>
      </mask>
      <path d="M2.851.044C.321.044.001 2.15.001 2.15h5.7S5.298.044 2.851.044" fill="url(#b)" mask="url(#c)"/>
    </g>
    <g transform="translate(0 3)">
      <mask id="f" fill="#fff">
        <use xlink:href="#d"/>
      </mask>
      <path d="M21.326 10.358H13.05s.213 2.297 2.98 2.297c1.977 0 2.935-1.02 2.935-1.02l1.787 1.615s-1.618 1.767-4.936 1.85c-2.012.053-5.552-1.04-5.552-5.827 0-4.106 3.803-5.422 5.786-5.424 6.126-.01 5.276 6.509 5.276 6.509zM15.816.051A9.134 9.134 0 0 0 7.25 6.013H.053l3.36 2.792h3.28a9.19 9.19 0 0 0 .04 1.323h-3.34l-3.275 2.74H7.46A9.131 9.131 0 1 0 15.816.051z" fill="url(#e)" mask="url(#f)"/>
    </g>
  </g>
</svg>
