<svg width="25" height="25" xmlns="http://www.w3.org/2000/svg">
  <g fill="#202741" fill-rule="nonzero">
    <path d="M20.965 4.177L15.15.762a5.535 5.535 0 0 0-5.607 0L3.726 4.178A5.574 5.574 0 0 0 1 8.944v7.003a5.57 5.57 0 0 0 2.726 4.764l5.816 3.42a5.513 5.513 0 0 0 2.8.77 5.513 5.513 0 0 0 2.799-.77l5.817-3.42a5.57 5.57 0 0 0 2.734-4.764V8.942a5.574 5.574 0 0 0-2.727-4.765zm1.729 11.77a4.568 4.568 0 0 1-2.234 3.908l-5.816 3.419a4.537 4.537 0 0 1-4.597 0l-5.816-3.418a4.568 4.568 0 0 1-2.234-3.909v-7a4.567 4.567 0 0 1 2.234-3.906l5.816-3.42a4.505 4.505 0 0 1 4.595 0l5.817 3.42a4.57 4.57 0 0 1 2.233 3.906l.002 7z"/>
    <path d="M12.523 11.688l.705 1.495-.886.83-.884-.83.733-1.495c-1.23.641-3.253-.968-1.897-2.494a15.885 15.885 0 0 0 2.05-2.8l.014.026c.576.995 1.259 1.925 2.037 2.772 1.349 1.528-.64 3.137-1.872 2.496z"/>
    <path d="M15.292 13.353c-.326 0-.65.068-.948.2l-.5.298-1.495 1.305-1.42-1.246-.5-.32-.069-.037a2.33 2.33 0 0 0-.95-.2c-1.355 0-2.457 1.163-2.457 2.572 0 1.41 1.098 2.573 2.457 2.573a2.349 2.349 0 0 0 .95-.201l.498-.297.665-.581a.165.165 0 0 0 .017-.234l-.585-.585a.168.168 0 0 0-.227 0l-.513.448-.35.207a1.256 1.256 0 0 1-.45.088c-.714 0-1.294-.633-1.294-1.41 0-.777.58-1.41 1.294-1.41.154 0 .306.03.45.088l.345.213 1.26 1.1.88.77 1.422 1.248.499.32.069.035c.298.134.622.202.948.201 1.357 0 2.458-1.163 2.458-2.573s-1.105-2.572-2.454-2.572zm-.206 3.963a1.31 1.31 0 0 1-.242-.069l-.347-.213-1.266-1.109 1.264-1.107.351-.21a1.256 1.256 0 0 1 .453-.088c.714 0 1.295.633 1.295 1.41 0 .853-.698 1.539-1.506 1.391l-.002-.005z"/>
  </g>
</svg>
