<svg width="25" height="25" xmlns="http://www.w3.org/2000/svg">
  <g fill="none" fill-rule="evenodd">
    <path d="M25 12.5C25 19.404 19.404 25 12.5 25S0 19.404 0 12.5 5.596 0 12.5 0 25 5.596 25 12.5" fill="#EB8B2D"/>
    <path d="M12.5 23.181c-5.89 0-10.681-4.791-10.681-10.681C1.819 6.61 6.61 1.819 12.5 1.819c5.89 0 10.681 4.791 10.681 10.681 0 5.89-4.791 10.681-10.681 10.681zm0-22.053C6.23 1.128 1.128 6.229 1.128 12.5c0 6.27 5.101 11.372 11.372 11.372 6.27 0 11.372-5.101 11.372-11.372 0-6.27-5.101-11.372-11.372-11.372z" fill="#FFFFFE"/>
    <path d="M18.408 7.147c.23-1.187-.568-2.09-1.897-2.07-2.114.12-3.525 2.203-4.6 5.052l-2.14-.481-.128.57 2.066.465c-.16.455-.312.926-.458 1.41-.16.544-.269 1.073-.424 1.942-.773 3.773-1.797 5.73-3.136 5.393-.484-.134-.397-.422-.069-.44l.001-.007a.928.928 0 0 0 .168-1.803.93.93 0 0 0-1.173.595c-.01.03-.013.061-.02.092l-.006-.012c-.23 1.187.568 2.09 1.897 2.07 2.575-.146 4.218-3.243 5.26-7.015.143-.488.245-.964.377-1.682l2.12.477.128-.57-2.135-.48c.765-3.568 1.769-5.408 3.07-5.08.484.133.397.42.069.44l-.001.006a.928.928 0 0 0-.168 1.803.93.93 0 0 0 1.173-.595c.01-.03.013-.061.02-.092l.006.012" fill="#FFFFFE"/>
  </g>
</svg>
