<svg width="25" height="25" xmlns="http://www.w3.org/2000/svg">
  <g fill="none" fill-rule="evenodd">
    <path d="M25 12.5C25 19.404 19.404 25 12.5 25S0 19.404 0 12.5 5.596 0 12.5 0 25 5.596 25 12.5" fill="#127A51"/>
    <path d="M7.115 14.016a.524.524 0 1 1 1.048.001.524.524 0 0 1-1.048-.001zm-3.554-.43a.524.524 0 1 1 1.048 0 .524.524 0 0 1-1.048 0zm1.158-2.371l.02-.02.002.002-.022.018zm-1.158-.73a.524.524 0 1 1 1.048.001.524.524 0 0 1-1.048-.001zm2.544-1.432a.524.524 0 1 1 1.048.001.524.524 0 0 1-1.048-.001zm2.06-2.41a.524.524 0 1 1 1.047.001.524.524 0 0 1-1.047-.001zm.876.896a.965.965 0 0 0-.353-1.86.965.965 0 1 0-.087 1.923v5.125l-1.752-1.78V9.99a.965.965 0 0 0 .743-.937.965.965 0 0 0-1.927 0c0 .455.318.837.743.937v1.137l.63.64H5.665c-.088-.09-.254-.257-.42-.422a15.585 15.585 0 0 0-.344-.333l-.006-.006a.965.965 0 1 0-1.773-.521.965.965 0 0 0 1.455.827c.174.16.525.51.838.83l.065.066h1.993l3.91 3.973v1.232l-2.938-2.869a.965.965 0 1 0-1.769-.528.965.965 0 0 0 1.448.832L9.51 16.2H6.985l-2.103-2.076a.965.965 0 1 0-1.762-.54.965.965 0 0 0 1.438.839l2.246 2.218h3.157l1.42 1.387v.958l-.023-.025-1.937 1.872.306.317 1.655-1.6v1.91h.44V16l-2.78-2.827V7.54z" fill="#FFFFFE"/>
    <path d="M9.795 9.053a.524.524 0 1 1 1.047.001.524.524 0 0 1-1.047-.001zm1.43-3.287a.524.524 0 1 1 1.047.001.524.524 0 0 1-1.048 0zm2.001 2.599a.524.524 0 1 1 1.048 0 .524.524 0 0 1-1.048 0zm1.542-3.862a.524.524 0 1 1 1.048.001.524.524 0 0 1-1.048-.001zm.165 8.449a.524.524 0 1 1 1.048.001.524.524 0 0 1-1.048-.001zm.744 1.703v-.766a.965.965 0 0 0 .743-.937.965.965 0 0 0-1.927 0c0 .455.318.837.743.937v.577l-2.312 2.211v-1.403l1.046-1.045v-2.148l1.542-1.503V5.44a.965.965 0 0 0 .743-.937.965.965 0 0 0-1.928 0c0 .456.319.837.744.937v4.952l-1.101 1.074V9.302a.965.965 0 0 0 .743-.937.965.965 0 0 0-1.928 0c0 .455.319.837.744.937v4.744l-.605.605v-3.058l-.956-.937V6.704a.965.965 0 0 0 .743-.938.965.965 0 0 0-1.927 0c0 .456.318.838.743.938v4.138l.956.936v2.629l-1.945-1.959V9.99a.965.965 0 0 0 .744-.937.965.965 0 0 0-1.928 0c0 .455.318.837.744.937v2.64l2.385 2.402v6.429h.44v-4.174l2.754-2.632z" fill="#FFFFFE"/>
    <path d="M18.257 8.059a.524.524 0 1 1 1.047.001.524.524 0 0 1-1.047-.001zm2.168 5.113a.524.524 0 1 1-.001 1.048.524.524 0 0 1 0-1.048zm-3.765-2.687a.524.524 0 1 1 1.047.001.524.524 0 0 1-1.047-.001zm3.732-1.542a.524.524 0 1 1 1.048.001.524.524 0 0 1-1.048-.001zM19 12.493l2.136-2.111V9.88a.965.965 0 0 0 .743-.937.965.965 0 0 0-1.927 0c0 .455.318.837.743.937v.318L19 11.874V8.996a.965.965 0 0 0 .744-.937.965.965 0 0 0-1.928 0c0 .456.318.837.744.937v4.388L17.4 14.538c-.005-1.165-.009-2.616-.003-3.114a.965.965 0 0 0 .749-.94.965.965 0 0 0-1.928 0c0 .455.316.835.739.937-.009.666 0 2.608.005 3.521h.032l-3.355 3.343v3.176h.44v-1.83l1.611 1.522.303-.32-1.914-1.808v-.557l1.695-1.689h2.142l2.165-2.184a.965.965 0 1 0 .343-1.863.965.965 0 0 0-.964.963c0 .25.096.476.251.647l-1.979 1.997h-1.516L19 13.567v-1.074z" fill="#FFFFFE"/>
  </g>
</svg>
