<svg width="25" height="25" xmlns="http://www.w3.org/2000/svg">
  <path d="M12.5 22.93a10.412 10.412 0 0 1-9.57-6.289l1.343-.463c1.41 3.15 4.56 5.342 8.227 5.342 4.163 0 7.654-2.82 8.7-6.641l-2.62.848a6.893 6.893 0 0 1-6.08 3.656 6.867 6.867 0 0 1-6.2-3.91l2.61-.914-.518 2.71 16.586-5.408C24.648 5.253 19.185 0 12.5 0 5.595 0 0 5.595 0 12.5c0 .65.055 1.3.143 1.927l13.062-4.185-.716 2.423 8.623-2.83C19.967 6.167 16.542 3.49 12.5 3.49c-4.604 0-8.403 3.458-8.943 7.919l-1.464.462C2.423 6.41 6.96 2.07 12.51 2.07c5.132 0 9.405 3.712 10.275 8.602l-11.927 3.91.562-2.6-11.036 3.58c1.366 5.418 6.278 9.427 12.115 9.427 6.509 0 11.85-4.978 12.445-11.333l-2.18.705C21.882 19.23 17.62 22.93 12.5 22.93zm0-17.313a6.892 6.892 0 0 1 5.815 3.194l-3.139 1.057.617-2.368-9.912 3.16A6.862 6.862 0 0 1 12.5 5.618z" fill="#2727A4" fill-rule="nonzero"/>
</svg>
