<svg width="25" height="25" xmlns="http://www.w3.org/2000/svg" xmlns:xlink="http://www.w3.org/1999/xlink">
  <defs>
    <path d="M6.254 3.697c0 1.201-.436 2.3-1.16 3.146-.066.014-1.93.381-3.342-.23C.717 6.165.211 5.15.041 4.732a1.71 1.71 0 0 0 1.368.68c.39 0 .749-.13 1.037-.348.422-.173 1.432-.679 1.88-1.71.61-1.413.242-3.277.23-3.34a4.832 4.832 0 0 1 1.698 3.683" id="a"/>
    <linearGradient x1="50%" y1="0%" x2="50%" y2="99.999%" id="b">
      <stop stop-color="#F0CE7B" offset="0%"/>
      <stop stop-color="#FDFDF4" offset="100%"/>
    </linearGradient>
    <path d="M6.97 4.556a4.83 4.83 0 0 1-3.683 1.698c-1.201 0-2.3-.437-3.147-1.162-.013-.064-.38-1.928.23-3.34C.817.718 1.831.212 2.25.042a1.71 1.71 0 0 0-.331 2.4c.17.419.676 1.434 1.71 1.883 1.413.61 3.277.243 3.341.23" id="d"/>
    <linearGradient x1="50%" y1="100%" x2="50%" y2="-.001%" id="e">
      <stop stop-color="#CE4A28" offset="0%"/>
      <stop stop-color="#FDFDF4" offset="100%"/>
    </linearGradient>
    <path d="M6.844 1.187c.013.064.38 1.928-.23 3.34-.447 1.032-1.457 1.538-1.878 1.71a1.714 1.714 0 0 0 .328-2.403c-.172-.423-.678-1.433-1.71-1.88-1.412-.61-3.276-.243-3.34-.23A4.834 4.834 0 0 1 3.698.025a4.825 4.825 0 0 1 3.146 1.162" id="g"/>
    <linearGradient x1="50%" y1="0%" x2="50%" y2="100%" id="h">
      <stop stop-color="#F0CE7B" offset="0%"/>
      <stop stop-color="#FDFDF4" offset="100%"/>
    </linearGradient>
    <path d="M6.237 2.248a1.713 1.713 0 0 0-2.403-.328c-.418.17-1.432.676-1.879 1.71-.61 1.412-.244 3.276-.23 3.34a4.832 4.832 0 0 1-1.7-3.684c0-1.201.438-2.3 1.162-3.147.065-.013 1.928-.38 3.34.231 1.032.447 1.538 1.457 1.71 1.878" id="j"/>
    <linearGradient x1="10.51%" y1="91.311%" x2="67.941%" y2="2.43%" id="k">
      <stop stop-color="#F0CE7B" offset="0%"/>
      <stop stop-color="#FDFDF4" offset="100%"/>
    </linearGradient>
  </defs>
  <g fill="none" fill-rule="evenodd">
    <path fill="#BBC3C6" d="M23.309 18.633l-.136-12.5L12.416 12.5l10.893 6.133"/>
    <path fill="#9DA5A7" d="M12.416 12.5L12.55 25l10.758-6.367L12.416 12.5"/>
    <path fill="#7E878C" d="M23.173 6.133L12.28 0l.136 12.5 10.757-6.367"/>
    <path fill="#424647" d="M1.658 18.867L12.551 25l-.135-12.5-10.758 6.367"/>
    <path fill="#7F8382" d="M1.522 6.367l.136 12.5L12.416 12.5 1.522 6.367"/>
    <path fill="#C3C9C9" d="M12.28 0L1.522 6.367 12.416 12.5 12.28 0"/>
    <g transform="translate(11.007 8.803)">
      <mask id="c" fill="#fff">
        <use xlink:href="#a"/>
      </mask>
      <path d="M6.254 3.697c0 1.201-.436 2.3-1.16 3.146-.066.014-1.93.381-3.342-.23C.717 6.165.211 5.15.041 4.732a1.71 1.71 0 0 0 1.368.68c.39 0 .749-.13 1.037-.348.422-.173 1.432-.679 1.88-1.71.61-1.413.242-3.277.23-3.34a4.832 4.832 0 0 1 1.698 3.683" fill="url(#b)" mask="url(#c)"/>
    </g>
    <g transform="translate(9.13 11.092)">
      <mask id="f" fill="#fff">
        <use xlink:href="#d"/>
      </mask>
      <path d="M6.97 4.556a4.83 4.83 0 0 1-3.683 1.698c-1.201 0-2.3-.437-3.147-1.162-.013-.064-.38-1.928.23-3.34C.817.718 1.831.212 2.25.042a1.71 1.71 0 0 0-.331 2.4c.17.419.676 1.434 1.71 1.883 1.413.61 3.277.243 3.341.23" fill="url(#e)" mask="url(#f)"/>
    </g>
    <g transform="translate(8.718 7.63)">
      <mask id="i" fill="#fff">
        <use xlink:href="#g"/>
      </mask>
      <path d="M6.844 1.187c.013.064.38 1.928-.23 3.34-.447 1.032-1.457 1.538-1.878 1.71a1.714 1.714 0 0 0 .328-2.403c-.172-.423-.678-1.433-1.71-1.88-1.412-.61-3.276-.243-3.34-.23A4.834 4.834 0 0 1 3.698.025a4.825 4.825 0 0 1 3.146 1.162" fill="url(#h)" mask="url(#i)"/>
    </g>
    <path d="M13.782 11.463A1.714 1.714 0 1 1 10.7 12.5c0-.558.266-1.053.679-1.366a1.713 1.713 0 0 1 2.403.33" fill="#FFF"/>
    <g transform="translate(7.545 9.214)">
      <mask id="l" fill="#fff">
        <use xlink:href="#j"/>
      </mask>
      <path d="M6.237 2.248a1.713 1.713 0 0 0-2.403-.328c-.418.17-1.432.676-1.879 1.71-.61 1.412-.244 3.276-.23 3.34a4.832 4.832 0 0 1-1.7-3.684c0-1.201.438-2.3 1.162-3.147.065-.013 1.928-.38 3.34.231 1.032.447 1.538 1.457 1.71 1.878" fill="url(#k)" mask="url(#l)"/>
    </g>
  </g>
</svg>
