<svg width="25" height="25" xmlns="http://www.w3.org/2000/svg">
  <g fill-rule="nonzero" fill="none">
    <path d="M21.315 3.912c.646.288 1.109 1.158 1.046 1.804-.081.84-.505 1.516-.987 2.162-1.31 1.759-3.01 3.096-4.787 4.34a34.32 34.32 0 0 1-5.702 3.217c-1.104.493-2.249.905-3.4 1.28-.914.298-1.848.533-2.795.705-.842.154-1.71.223-2.565.032-.504-.113-1.006-.28-1.307-.74-.153-.232-.24-.51-.333-.776-.065-.185-.09-.384-.147-.638.302.28.496.544.756.681.335.177.722.345 1.09.353.824.016 1.67.03 2.472-.134 1.202-.246 2.4-.568 3.55-.992a34.429 34.429 0 0 0 8.912-4.876c1.228-.931 2.38-1.953 3.336-3.175.44-.562.836-1.163 1.005-1.855.084-.344-.04-.739-.074-1.11-.008-.079-.038-.155-.07-.278" fill="#3C7CA8"/>
    <path d="M19.29 2.232c.842.297 1.61 1.096 1.357 2.015-.336 1.223-1.104 2.144-1.949 3.013-1.646 1.696-3.57 3.031-5.597 4.23a32.972 32.972 0 0 1-4.448 2.201c-.888.358-1.818.611-2.727.918-.973.329-1.981.482-2.999.554-.67.047-1.335-.016-1.967-.3-.602-.27-.89-.734-.924-1.374-.013-.24 0-.479.037-.715.213.516.583.855 1.078 1.035.736.268 1.495.39 2.28.262.427-.07.858-.117 1.28-.209.499-.109 1-.225 1.48-.393.71-.248 1.407-.535 2.103-.823 1.805-.745 3.497-1.704 5.128-2.77 1.623-1.059 3.167-2.219 4.514-3.62.651-.678 1.276-1.383 1.607-2.286.204-.554.272-1.102-.188-1.582-.027-.029-.05-.063-.073-.096-.004-.006.002-.02.007-.06" fill="#D87E3A"/>
    <path d="M1.356 17.958c.082.038.142.052.182.088.414.374.916.48 1.454.574.705.123 1.39.002 2.079-.043.524-.035 1.043-.198 1.557-.33a24.43 24.43 0 0 0 1.818-.522 34.147 34.147 0 0 0 2.455-.918c1.915-.823 3.768-1.775 5.492-2.95 1.161-.79 2.266-1.667 3.387-2.517.354-.268.606-.32.814-.102.263.276.275.703-.025.973-.482.435-.98.854-1.495 1.248-2.21 1.688-4.602 3.073-7.13 4.222-1.452.659-2.94 1.236-4.491 1.609-.961.23-1.95.372-2.933.48a4.104 4.104 0 0 1-2.067-.32c-.579-.247-.85-.754-1.094-1.283-.023-.048-.003-.117-.003-.21" fill="#EAB600"/>
    <path d="M1.134 7.625c.007.104.042.214.017.31-.124.473.1.924.562 1.06.667.198 1.345.199 2.02.05.57-.125 1.15-.226 1.702-.406.833-.272 1.668-.557 2.465-.92 1.663-.756 3.234-1.678 4.67-2.817.967-.767 1.884-1.58 2.496-2.681.207-.372.268-.761.195-1.164-.026-.143-.16-.277-.269-.392-.086-.092-.209-.15-.392-.274.16-.035.25-.086.317-.064.368.118.753.211 1.09.392.453.243.593.811.433 1.305-.365 1.127-1.16 1.938-1.991 2.712-1.474 1.372-3.14 2.478-4.934 3.379a39.034 39.034 0 0 1-3.313 1.462c-.649.254-1.347.395-2.033.537-.573.12-1.16.22-1.742.227-.398.006-.816-.116-1.193-.263C.729 9.881.48 9.332.618 8.734c.088-.387.277-.75.42-1.124l.096.015z" fill="#3C7CA8"/>
    <path d="M17.132.976c.384.206.816.355 1.143.63.529.444.542.956.28 1.643-.445 1.162-1.278 2.048-2.17 2.874-1.734 1.606-3.683 2.909-5.781 3.984-1.031.529-2.094 1-3.158 1.46-.596.256-1.225.437-1.843.643a.341.341 0 0 1-.238-.02c-.252-.128-.33-.352-.32-.623.01-.271.139-.478.383-.55 1.68-.494 3.274-1.186 4.815-2.01 1.971-1.053 3.825-2.276 5.444-3.829.702-.672 1.338-1.396 1.735-2.305.327-.747.29-1.047-.272-1.648-.04-.042-.06-.105-.089-.158l.07-.09" fill="#EAB600"/>
    <path d="M6.671 23.487c.106-.006.195-.029.277-.013.36.069.718.158 1.08.22.162.027.334.023.497.003.594-.074 1.192-.128 1.775-.25.567-.12 1.124-.297 1.675-.48.742-.245 1.501-.464 2.206-.794 1.31-.615 2.613-1.25 3.866-1.97 1.938-1.112 3.74-2.42 5.248-4.09.542-.6.99-1.264 1.302-2.014.068-.165.114-.34.206-.497.09 1.199-.393 2.18-1.137 3.056-1.436 1.694-3.19 3.01-5.091 4.118a44.95 44.95 0 0 1-4.097 2.086c-.89.403-1.85.647-2.784.95a9.777 9.777 0 0 1-2.796.454c-.787.019-1.5-.284-2.179-.66-.02-.012-.022-.053-.048-.12m17.584-14.98c.159.607.449 1.18.244 1.858-.416 1.38-1.348 2.396-2.338 3.363-1.965 1.92-4.238 3.416-6.64 4.727a2.505 2.505 0 0 1-.62.255c-.265.062-.52-.028-.608-.303-.09-.28.004-.53.284-.682.305-.164.61-.328.91-.5 2.472-1.417 4.826-2.995 6.794-5.083.672-.713 1.295-1.47 1.635-2.408.104-.284.14-.593.2-.892.021-.106.02-.216.029-.325l.11-.01M10.157 2.208c.06-.122.113-.223.16-.326.104-.223.24-.438.295-.672.066-.275-.082-.408-.378-.447-.92-.121-1.765.157-2.56.534-.82.388-1.607.852-2.372 1.337-.571.362-1.094.798-1.396 1.432-.204.43-.052.695.439.73.895.066 1.706-.235 2.505-.562.418-.17.813-.393 1.217-.597.252-.126.405-.042.631.264.194.262-.027.357-.172.425-.778.368-1.562.721-2.351 1.061-.677.292-1.4.432-2.133.475-.24.015-.505-.059-.73-.154-.388-.164-.492-.602-.288-1.036.301-.64.812-1.109 1.343-1.555 1.115-.936 2.337-1.7 3.737-2.169.458-.153.9-.373 1.37-.465.554-.108 1.144-.21 1.693-.134.73.1.905.597.512 1.36-.075.145-.183.277-.288.406-.229.28-.472.336-.818.21-.107-.04-.22-.063-.416-.117" fill="#3C7CA8"/>
    <path d="M24.287 16.38c-.05.182-.08.371-.15.545-.472 1.172-1.298 2.076-2.23 2.892-1.896 1.662-4.047 2.91-6.376 3.853-.776.314-1.563.615-2.37.832-.691.186-1.414.306-2.128.34-.571.026-1.15-.12-1.726-.19l-.001-.117c.057-.022.113-.06.171-.064.166-.011.332-.013.498-.007.865.04 1.694-.133 2.527-.353 2.486-.656 4.75-1.793 6.906-3.16 1.341-.85 2.604-1.813 3.666-3.002.407-.454.711-1 1.062-1.505.022-.031.049-.059.073-.088l.078.024" fill="#EAB600"/>
    <path d="M11.738.089c.561.04 1.153-.018 1.676.145.722.225.937.76.516 1.594-.473.936-1.24 1.619-2.021 2.28-.4.338-.832.64-1.27.928-.133.087-.369.147-.494.087-.171-.082-.325-.274-.397-.454-.03-.074.155-.262.273-.362.683-.583 1.404-1.125 2.053-1.743.317-.303.544-.72.744-1.12.245-.492.079-1.007-.5-1.068-.197-.02-.386-.123-.58-.187v-.1zM4.54 22.08c.39.096.756.176 1.116.278.574.163 1.143.127 1.72.017.394-.075.797-.096 1.19-.169.402-.074.802-.162 1.192-.28.593-.177 1.178-.384 1.765-.584.298-.1.594-.208.888-.322.282-.11.645-.016.797.234.15.246-.015.417-.2.507-.33.162-.68.292-1.031.404-.781.249-1.561.508-2.355.707a9.556 9.556 0 0 1-3.2.275c-.69-.062-1.248-.452-1.77-.882-.051-.042-.074-.12-.112-.185zm20.22-10.989c.043.164.105.325.125.491.117.946-.232 1.752-.767 2.5-1.03 1.441-2.367 2.565-3.767 3.622-.168.126-.346.202-.524.006-.156-.173-.162-.552.035-.738.283-.266.598-.5.9-.745 1.287-1.04 2.52-2.132 3.39-3.567.256-.421.494-.853.476-1.374-.002-.062.038-.126.058-.189l.074-.006zM2.618 5.076c-.124.324-.259.628-.354.944-.101.334.092.634.42.75.7.25 1.391.083 2.079-.047.32-.061.626-.205.947-.261.095-.017.289.119.318.22.127.432-.102.798-.565.93-.862.25-1.736.436-2.64.377a2.008 2.008 0 0 1-.731-.191c-.493-.24-.708-.744-.462-1.272.234-.504.593-.95.9-1.42.011-.017.05-.018.088-.03z" fill="#D87E3A"/>
    <path d="M2.687 20.126c.242.128.47.28.72.372.274.101.565.19.853.207.57.031 1.142.012 1.713.006a.982.982 0 0 0 .331-.058c.515-.195.916.07 1.178.478.108.17-.026.394-.267.41-.784.054-1.57.14-2.353.113-.944-.032-1.623-.583-2.144-1.34a.425.425 0 0 1-.053-.11c-.005-.016.01-.038.022-.079m9.538 4.785c.261-.065.52-.148.784-.191 2.592-.421 4.835-1.64 6.993-3.051.343-.225.658-.492.993-.73.08-.058.188-.079.327-.134-.025.365-.218.56-.432.702-.98.646-1.94 1.333-2.971 1.887-.913.491-1.894.87-2.874 1.218-.9.32-1.847.459-2.82.299" fill="#3C7CA8"/>
    <path d="M.384 10.008c.015.141.046.282.041.422-.01.32.132.545.385.723.389.272.488.8.21 1.188-.04.055-.227.068-.299.024-.575-.352-.781-1-.576-1.742l.169-.621.07.006m23.252-2.323c-.53-.45-.629-1.022-.674-1.628.371.17.79 1.121.674 1.628" fill="#EAB600"/>
  </g>
</svg>
