<svg width="25" height="25" xmlns="http://www.w3.org/2000/svg">
  <defs>
    <radialGradient fx="50%" fy="50%" r="58.357%" gradientTransform="matrix(0 1 -1.00804 0 1.004 0)" id="a">
      <stop stop-color="#FFF" offset="0%"/>
      <stop stop-color="#7E2023" offset="100%"/>
    </radialGradient>
  </defs>
  <g fill="none" fill-rule="evenodd">
    <path d="M25 12.5C25 19.404 19.404 25 12.5 25S0 19.404 0 12.5 5.596 0 12.5 0 25 5.596 25 12.5" fill="#7E2023"/>
    <path d="M12.5 23.181c-5.89 0-10.681-4.791-10.681-10.681C1.819 6.61 6.61 1.819 12.5 1.819c5.89 0 10.681 4.791 10.681 10.681 0 5.89-4.791 10.681-10.681 10.681" fill="url(#a)"/>
    <path d="M13.411 18.444c-1.028-1.057-2.346-1.884-3.054-2.699-1.263-1.453-1.704-2.725-1.287-4.136.417-1.411 1.479-2.239 3.328-2.772 1.038-.3 2.594-.277 4.031-.605 1.88-.46 3.468-1.474 3.853-3.702l-1.486-.726c-.213 2.39-1.692 3.224-3.715 3.353-4.278.253-6.844 1.318-7.629 3.974-.785 2.655.79 4.944 4.243 7.482 1.628 1.208 2.416 2.713 1.296 4.834l1.641.199c.888-2.08.107-3.795-1.221-5.202" fill="#7E2023"/>
    <path d="M15.747 8.755a27.55 27.55 0 0 1-1.407.171l-.284.03c.2.178.379.353.53.527 1.263 1.453 1.704 2.725 1.287 4.137-.417 1.41-1.48 2.238-3.328 2.772a6.016 6.016 0 0 1-.732.154l.222.18c.361.29.73.588 1.087.908 2.345-.559 3.81-1.643 4.369-3.536.56-1.893-.08-3.6-1.744-5.343M11.532 6.785c.129.132.263.261.399.387l.185-.04a17.23 17.23 0 0 1 1.505-.238 28.858 28.858 0 0 0-.373-.279c-1.628-1.208-2.416-2.713-1.296-4.833l-1.641-.2c-.888 2.08-.107 3.795 1.221 5.203M9.193 17.022l-.134-.134c-.182.031-.365.067-.545.108-1.88.46-3.468 1.474-3.853 3.702l1.486.726c.213-2.389 1.692-3.224 3.715-3.353.157-.009.312-.02.465-.031a17.2 17.2 0 0 1-1.134-1.018" fill="#3A3A39"/>
    <path d="M14.81 13.582l-4.827-1.426a.351.351 0 0 1-.237-.437l.018-.062a.351.351 0 0 1 .437-.237l4.826 1.426c.186.055.292.25.237.436l-.018.063a.351.351 0 0 1-.437.237M13.85 13.721l-3.137-.927a.384.384 0 0 0-.217.736l3.136.927a.384.384 0 1 0 .217-.736M14.514 11.471l-3.136-.927a.384.384 0 0 0-.217.736l3.136.927a.384.384 0 1 0 .217-.736M17.335 5.036L12.51 3.609a.351.351 0 0 1-.237-.436l.018-.063a.351.351 0 0 1 .436-.237L17.553 4.3c.186.055.292.25.237.436l-.018.063a.351.351 0 0 1-.437.237M16.375 5.175l-3.136-.927a.384.384 0 0 0-.217.736l3.136.927a.384.384 0 1 0 .217-.736M17.04 2.925l-3.136-.927a.384.384 0 0 0-.217.736l3.136.927a.384.384 0 1 0 .217-.736M12.284 22.128l-4.827-1.426a.351.351 0 0 1-.237-.436l.018-.063a.351.351 0 0 1 .437-.237l4.826 1.426c.186.055.292.25.237.437l-.018.062a.351.351 0 0 1-.436.237M11.323 22.267l-3.136-.926a.384.384 0 1 0-.217.736l3.136.926a.384.384 0 0 0 .217-.736M11.988 20.018l-3.136-.927a.384.384 0 1 0-.217.736l3.136.927a.384.384 0 0 0 .217-.736" fill="#3A3A39"/>
    <path d="M12.5 23.181c-5.89 0-10.681-4.791-10.681-10.681C1.819 6.61 6.61 1.819 12.5 1.819c5.89 0 10.681 4.791 10.681 10.681 0 5.89-4.791 10.681-10.681 10.681zm0-22.053C6.23 1.128 1.128 6.229 1.128 12.5c0 6.27 5.101 11.372 11.372 11.372 6.27 0 11.372-5.101 11.372-11.372 0-6.27-5.101-11.372-11.372-11.372z" fill="#FFFFFE"/>
  </g>
</svg>
