<svg width="25" height="25" xmlns="http://www.w3.org/2000/svg">
  <g fill="none" fill-rule="evenodd">
    <path d="M12.5 14.376s-1.875-2.32-1.875-5.114c0-2.528 1.875-4.375 1.875-4.375s1.875 1.847 1.875 4.375c0 2.794-1.875 5.114-1.875 5.114zm.726 3.955c.026.196.041.412.041.647 0 .606-.362 1.319-.59 1.705a.206.206 0 0 1-.355 0c-.227-.386-.589-1.1-.589-1.705 0-.288.023-.546.06-.775.18-1.106.707-1.554.707-1.554s.566.482.726 1.682zm8.39-7.118c-.79.018-2.865-.025-3.86.18-1.837.38-3.523 2.244-3.523 2.244s1.403-2.3.824-5.937C14.726 5.616 12.5 2.814 12.5 2.814S10.274 5.616 9.943 7.7c-.578 3.637.824 5.937.824 5.937s-1.686-1.865-3.523-2.244c-.995-.205-3.07-.162-3.86-.18-1.196-.028.78 2.344 1.332 3.021.968 1.188 1.95 1.744 2.556 1.995.122.051.22-.11.118-.196-1.011-.845-2.987-3.087-2.674-3.674.242-.454 2.87-.265 4.687 1.25.627.522 2.472 2.13 2.472 2.13h-.027c-.189-.005-1.361-.002-2.842.683-1.543.712-2.358 2.443-2.358 2.443.16.19 1.793.317 2.386.227.325-.05 1.01-.36 1.464-.577a.06.06 0 0 0 .035-.055c0-.036-.03-.07-.074-.062-.508.103-1.283.24-1.624.211-.224-.02-.807-.064-.852-.284-.108-.522 1.127-1.159 1.59-1.42.484-.273 2.032-.646 2.27-.703l.032-.008s-.488.807-.67 1.932a5.345 5.345 0 0 0-.069.824c0 1.97 1.25 3.239 1.25 3.239h.228s1.25-1.27 1.25-3.239a4.907 4.907 0 0 0-.049-.692c-.164-1.194-.69-2.064-.69-2.064s1.777.415 2.301.71c.464.262 1.699.899 1.591 1.421-.045.22-.628.265-.852.284-.341.03-1.116-.108-1.624-.21-.047-.01-.078.031-.073.069a.059.059 0 0 0 .035.047c.453.217 1.138.528 1.463.577.593.09 2.225-.037 2.386-.227 0 0-.815-1.73-2.358-2.443-1.619-.749-2.869-.682-2.869-.682s1.845-1.609 2.472-2.13c1.818-1.516 4.446-1.705 4.687-1.25.313.586-1.663 2.828-2.674 3.673-.103.086-.004.247.118.196.606-.25 1.588-.807 2.556-1.995.552-.677 2.529-3.05 1.332-3.021z" fill="#FDFFFF"/>
    <path d="M20.284 14.234c-.968 1.188-1.95 1.744-2.556 1.995-.122.051-.22-.11-.118-.196 1.011-.845 2.987-3.087 2.674-3.674-.241-.454-2.87-.265-4.687 1.25-.627.522-2.472 2.13-2.472 2.13s1.25-.066 2.87.683c1.542.712 2.357 2.443 2.357 2.443-.16.19-1.793.317-2.386.227-.325-.05-1.01-.36-1.463-.577a.059.059 0 0 1-.035-.047c-.005-.038.026-.08.073-.07.508.103 1.283.24 1.624.211.224-.02.807-.064.852-.284.108-.522-1.127-1.159-1.59-1.42-.525-.296-2.302-.71-2.302-.71a5.958 5.958 0 0 0 .72 2.332c.012.138.019.28.019.423 0 1.97-1.25 3.239-1.25 3.239h-.228s-1.25-1.27-1.25-3.239a5.014 5.014 0 0 1 .069-.824c.182-1.125.67-1.932.67-1.932l-.031.008c-.239.057-1.787.43-2.27.703-.464.261-1.699.898-1.591 1.42.045.22.628.265.852.284.341.03 1.116-.108 1.624-.21.044-.01.074.025.074.061a.06.06 0 0 1-.035.055c-.454.217-1.139.528-1.464.577-.593.09-2.225-.037-2.386-.227 0 0 .815-1.73 2.358-2.443 1.48-.685 2.653-.688 2.842-.683h.027s-1.845-1.608-2.472-2.13c-1.818-1.515-4.445-1.704-4.687-1.25-.313.587 1.663 2.83 2.674 3.674.103.086.004.247-.118.196-.606-.25-1.588-.807-2.556-1.995-.552-.677-2.529-3.05-1.332-3.021.79.018 2.865-.025 3.86.18 1.837.38 3.523 2.244 3.523 2.244s-1.402-2.3-.824-5.937c.331-2.084 2.557-4.886 2.557-4.886s2.226 2.802 2.557 4.886c.579 3.637-.824 5.937-.824 5.937s1.686-1.865 3.523-2.244c.995-.205 3.07-.162 3.86-.18 1.197-.028-.78 2.344-1.332 3.021zM12.5 0C5.597 0 0 5.597 0 12.5S5.597 25 12.5 25 25 19.403 25 12.5 19.403 0 12.5 0z" fill="#2182A5"/>
    <path d="M12.5 4.888s-1.875 1.846-1.875 4.374c0 2.794 1.875 5.114 1.875 5.114s1.875-2.32 1.875-5.114c0-2.528-1.875-4.375-1.875-4.375M12.5 16.649s-.526.448-.707 1.554c-.037.23-.06.487-.06.775 0 .606.362 1.319.59 1.705.079.136.275.136.355 0 .227-.386.589-1.1.589-1.705 0-.235-.015-.45-.041-.647-.16-1.2-.726-1.682-.726-1.682" fill="#2182A5"/>
  </g>
</svg>
