<svg width="25" height="25" xmlns="http://www.w3.org/2000/svg">
  <g fill="none" fill-rule="evenodd">
    <circle stroke="#3E4B52" fill="#FFF" cx="12.5" cy="12.5" r="11.994"/>
    <path d="M10.472 19.611c-.935-.095-1.86-.306-2.313-.895-.08-.103-.08-.259-.252-.3-.014.49.292.877.573 1.164.147.15.32.276.502.387.187.113.18.176-.012.11-.589-.202-1.142-.443-1.584-.809-.348.575-.86 1.04-1.378 1.482-.116.1-.114.002-.015-.138.236-.335.853-.937.995-1.459.068-.251-.07-.695-.255-.71-.19-.017-.314.23-.392.354-.114.18-.182.327-.267.485-.218-.462-.034-1.023.223-1.286-.43-.455-.847-.922-1.311-1.338-.188-.169-.123-.292.105-.187.684.317 1.312.718 1.72 1.262-.214-.739-.464-1.51-.749-2.16-.063-.144.01-.177.11-.054.459.567.863 1.195 1.21 1.888-.071-1.003-.042-1.958.33-2.545.025-.04.051-.153.13-.125.12.363.205.684.353 1.078.06.16.333.919.539.89.137-.018.165-.352.181-.616.066-1.109-.095-2.384-.167-3.4.165-.174.387-.394.557-.56.057-.055.123-.153.188-.127-.015.252.02.517.024.782.007.681.02 1.433.279 1.865.214-.175.28-.49.35-.763.229-.887.366-1.891.51-2.83.387-.35.836-.758 1.212-1.105.047-.043.085-.128.151-.106.1.454.081 1.042.384 1.272.25-.26.31-.639.375-1.02.03-.178.056-.392.084-.593.03-.198.017-.457.084-.611.084-.191.515-.465.729-.648 1.733-1.484 3.585-3.013 5.694-4.036.464.39.773 1.106.754 1.957-.016.725-.319 1.38-.639 1.916-.324.542-.724 1.033-1.112 1.51-.54.665-1.182 1.46-1.76 2.174-.161.199-.47.649-.628.701-.114.038-.25 0-.372 0-.569.007-1.15.086-1.327.466.262.28.862.186 1.363.2-.67.993-1.425 1.976-2.167 2.979-.095.127-.227.395-.33.43-.2.067-.617-.032-.94-.027-1.315.017-2.81.159-3.317.966 1.65.127 3.308.245 5.086.23-1.409.784-3.84.494-5.43.279.333.858 1.06 1.277 1.939 1.526.163.046.164.114-.017.095zm7.062-12.44c-2.514 2.81-5.003 5.645-7.198 8.741 1.273-1.347 2.639-2.677 3.847-4.13 1.214-1.459 2.253-3.061 3.35-4.611z" fill="#3E4B52"/>
  </g>
</svg>
