<svg width="25" height="25" xmlns="http://www.w3.org/2000/svg">
  <g fill="#EE0766" fill-rule="evenodd">
    <path d="M8.932 18.645l-.016-.01 4.728-3.712-3.248-4.136-4.738 3.72a7.144 7.144 0 0 1 6.644-9.193L8.62.61C3.616 2.235 0 6.934 0 12.48c0 6.89 5.587 12.477 12.478 12.477.428 0 .85-.021 1.267-.063l-4.861-6.21.048-.038"/>
    <path d="M21.375 19.424c-1.061 1.348-2.414 2.465-3.953 3.195l-.786.388-2.113-2.602 1.01-.349a9.17 9.17 0 0 0 3.404-2.619c.224-.281.43-.576.615-.884.998-1.666 1.175-3.68.948-5.653-.011-.1.002-.249-.02-.348-.123-.872-.654-1.295-1.374-1.196-.159.029-.25.094-.25.094l-4.078 3.288-2.07-2.569 4.083-3.293c.798-.703.078-1.433-.395-2.01l-.166-.205-.89-1.111-1.92-2.412.922.139.699.153a11.084 11.084 0 0 1 5.197 2.8c.96.918 1.804 1.973 2.422 3.138.154.291.295.59.42.894 1.155 3.353.999 7.347-1.105 10.327a11.88 11.88 0 0 1-.6.835zM12.478 0c-.421 0-.838.021-1.248.062l4.867 6.22-4.72 3.705 3.248 4.135 4.724-3.71a7.144 7.144 0 0 1-6.71 9.186l3.714 4.744c4.994-1.63 8.603-6.325 8.603-11.864C24.956 5.587 19.37 0 12.478 0z"/>
  </g>
</svg>
