<svg width="25" height="25" xmlns="http://www.w3.org/2000/svg">
  <defs>
    <linearGradient x1="0%" y1="46.828%" y2="46.828%" id="a">
      <stop stop-color="#EE7B00" offset="0%"/>
      <stop stop-color="#B82600" offset="100%"/>
    </linearGradient>
  </defs>
  <g fill="none" fill-rule="evenodd">
    <path d="M25 12.5C25 19.404 19.404 25 12.5 25S0 19.404 0 12.5 5.596 0 12.5 0 25 5.596 25 12.5" fill="url(#a)"/>
    <path d="M12.5 23.181c-5.89 0-10.681-4.791-10.681-10.681C1.819 6.61 6.61 1.819 12.5 1.819c5.89 0 10.681 4.791 10.681 10.681 0 5.89-4.791 10.681-10.681 10.681zm0-22.053C6.23 1.128 1.128 6.229 1.128 12.5c0 6.27 5.101 11.372 11.372 11.372 6.27 0 11.372-5.101 11.372-11.372 0-6.27-5.101-11.372-11.372-11.372z" fill="#FFFFFE"/>
    <path d="M17.212 12.5a4.712 4.712 0 1 1-9.424 0 4.712 4.712 0 0 1 9.424 0" fill="#E48D2E"/>
    <path d="M12.5 20.779a8.22 8.22 0 0 1-5.895-2.466 8.221 8.221 0 0 1-2.383-5.931 8.229 8.229 0 0 1 2.426-5.725 8.228 8.228 0 0 1 5.722-2.435 8.294 8.294 0 0 1 6.19 2.637.863.863 0 1 1-1.264 1.176 6.564 6.564 0 0 0-4.9-2.086c-3.506.054-6.399 2.95-6.448 6.457A6.507 6.507 0 0 0 7.834 17.1a6.505 6.505 0 0 0 4.666 1.952c3.32 0 6.072-2.482 6.496-5.689h-5.414l1.256 1.257a.863.863 0 1 1-1.22 1.22l-2.73-2.73a.863.863 0 0 1 0-1.22l2.73-2.73a.863.863 0 0 1 1.22 1.22l-1.256 1.257h6.334c.476 0 .863.386.863.863 0 4.565-3.714 8.279-8.279 8.279" fill="#20211F"/>
  </g>
</svg>
