<svg width="25" height="25" xmlns="http://www.w3.org/2000/svg">
  <g fill="none" fill-rule="evenodd">
    <path d="M24.887 12.443C24.887 5.571 19.316 0 12.443 0 5.571 0 0 5.571 0 12.443c0 6.873 5.571 12.444 12.443 12.444 6.873 0 12.444-5.571 12.444-12.444" fill="#273E4B"/>
    <path d="M18.87 13.155v4.715a8.413 8.413 0 0 1-6.426 2.985 8.355 8.355 0 0 1-5.948-2.464 8.356 8.356 0 0 1-2.464-5.948c0-2.246.875-4.358 2.464-5.947a8.356 8.356 0 0 1 5.947-2.464c1.183 0 2.327.241 3.4.717a8.376 8.376 0 0 1 2.736 1.94l-1.801 1.69a5.886 5.886 0 0 0-4.335-1.877 5.948 5.948 0 0 0-5.94 5.941 5.948 5.948 0 0 0 5.94 5.942 5.909 5.909 0 0 0 4.082-1.62v-1.543H9.72v-2.067h9.149" fill="#FFFFFE"/>
    <path fill="#FFFFFE" d="M9.721 11.76h9.149V9.692H9.72z"/>
  </g>
</svg>
