<svg width="25" height="25" xmlns="http://www.w3.org/2000/svg">
  <g fill="none" fill-rule="evenodd">
    <path d="M24.96 12.456c0 6.87-5.568 12.438-12.437 12.438-6.87 0-12.438-5.568-12.438-12.438C.085 5.587 5.653.02 12.523.02c6.869 0 12.437 5.568 12.437 12.437" fill="#FFF"/>
    <path d="M12.523.019C5.653.019.085 5.587.085 12.456c0 6.87 5.568 12.438 12.438 12.438 6.869 0 12.437-5.568 12.437-12.438C24.96 5.587 19.392.02 12.523.02m0 .995c6.31 0 11.442 5.133 11.442 11.442 0 6.31-5.133 11.443-11.442 11.443-6.31 0-11.443-5.133-11.443-11.443S6.213 1.014 12.523 1.014" fill="#333"/>
  </g>
</svg>
