<svg width="25" height="25" xmlns="http://www.w3.org/2000/svg">
  <g fill="none" fill-rule="evenodd">
    <path d="M25 12.5C25 19.404 19.404 25 12.5 25S0 19.404 0 12.5 5.596 0 12.5 0 25 5.596 25 12.5" fill="#08914B"/>
    <path d="M14.03 13.894V11.2h3.687a5.387 5.387 0 1 0 0 2.693H14.03" fill="#3A3A39"/>
    <path d="M14.577 17.519a5.389 5.389 0 0 1-7.294-3.625h3.687V11.2H7.283a5.389 5.389 0 0 1 7.279-3.631l1.03-2.49a8.08 8.08 0 1 0 .018 14.927l-1.033-2.487" fill="#FAD948"/>
    <path d="M12.5 23.181c-5.89 0-10.681-4.791-10.681-10.681C1.819 6.61 6.61 1.819 12.5 1.819c2.956 0 5.635 1.207 7.571 3.154l-1.86 1.86a8.088 8.088 0 0 0-2.62-1.753l-1.03 2.489a5.396 5.396 0 0 1 3.156 3.631l5.385-.004c.052.428.08.863.08 1.304 0 5.89-4.792 10.681-10.682 10.681zm0-22.053C6.23 1.128 1.128 6.229 1.128 12.5c0 6.27 5.101 11.372 11.372 11.372 6.27 0 11.372-5.101 11.372-11.372 0-6.27-5.101-11.372-11.372-11.372z" fill="#DE495C"/>
    <path d="M17.717 13.894a5.399 5.399 0 0 1-3.14 3.625l1.032 2.488a8.092 8.092 0 0 0 4.857-6.113h-2.749M14.03 13.894V11.2h.802a2.692 2.692 0 0 0-4.664 0h.802v2.694h-.802a2.692 2.692 0 0 0 4.664 0h-.802" fill="#DE495C"/>
  </g>
</svg>
