<svg width="25" height="25" xmlns="http://www.w3.org/2000/svg">
  <defs>
    <linearGradient x1="50%" y1="0%" x2="50%" y2="100%" id="a">
      <stop stop-color="#7732EB" offset="0%"/>
      <stop stop-color="#511B89" offset="100%"/>
    </linearGradient>
  </defs>
  <g fill="none" fill-rule="evenodd">
    <path d="M17.794 11.559h2.472s-.46-2.228-1.733-3.678c-.543-.618-2.546-2.087-2.546-2.087l-2.635 1.468s2.205 1.417 2.9 1.945c1.026.778 1.542 2.352 1.542 2.352" fill="#FFF"/>
    <path d="M5.418 13.274c.142 3.63 4.339 5.918 4.339 5.918l2.64-1.51s-4.29-2.32-4.55-4.455c-.636-5.233 7.425-6.638 9.71-9.098l4.878 2.817v11.1l-4.921 2.842-1.545-1.09-2.581 1.486 1.64 1.04-2.206 1.273-2.166-1.25 4.235-2.548s2.9-1.432 4.491-3.607c.832-1.137.884-3.325.884-3.325h-7.444l-1.627 2.741h5.181s-2.493 2.034-4.102 2.688a6.202 6.202 0 0 0-.713.365c-1.189.687-2.93 1.952-3.361 2.267l-4.992-2.882v-11.1l4.957-2.863 1.615 1.08 2.623-1.475.018-.01-1.763-1.034 2.164-1.25 2.175 1.257c-.14.081-1.159.676-2.385 1.41-1.388.831-3.042 1.843-3.987 2.494-2.806 1.933-3.279 4.859-3.207 6.719zM2.501 6.537v11.918l10.32 5.959 2.56-1.478 7.762-4.481V6.537L12.822.577 2.5 6.538z" fill="#FFF"/>
    <path d="M15.987 5.794s2.003 1.469 2.546 2.087c1.273 1.45 1.733 3.678 1.733 3.678h-2.472s-.516-1.574-1.542-2.352c-.695-.528-2.9-1.945-2.9-1.945l2.635-1.468zm-7.362.76c.945-.65 2.599-1.662 3.987-2.493a240.796 240.796 0 0 1 2.385-1.41l-2.175-1.256-2.164 1.249 1.763 1.034-.018.01L9.78 5.163l-1.615-1.08-4.957 2.863v11.1L8.2 20.928c.43-.315 2.172-1.58 3.361-2.267.275-.159.52-.287.713-.365 1.609-.654 4.102-2.688 4.102-2.688h-5.181l1.627-2.74h7.444s-.052 2.187-.884 3.324c-1.591 2.175-4.491 3.607-4.491 3.607l-4.235 2.548 2.166 1.25 2.206-1.274-1.64-1.039 2.581-1.485 1.545 1.09 4.921-2.843v-11.1l-4.878-2.817c-2.285 2.46-10.346 3.865-9.71 9.098.26 2.136 4.55 4.456 4.55 4.456l-2.64 1.509s-4.197-2.287-4.339-5.918c-.072-1.86.401-4.786 3.207-6.72z" fill="url(#a)"/>
    <path d="M23.148 18.458L12.822 24.42 2.495 18.458V6.534L12.822.571l10.326 5.963v11.924zM12.822 0L2 6.248v12.496l10.822 6.248 10.822-6.248V6.248L12.822 0z" fill="url(#a)"/>
  </g>
</svg>
