<svg width="25" height="25" xmlns="http://www.w3.org/2000/svg">
  <g fill="none" fill-rule="evenodd">
    <path d="M24.93 12.529c0 6.87-5.568 12.438-12.437 12.438-6.87 0-12.438-5.569-12.438-12.438C.055 5.659 5.624.091 12.493.091c6.87 0 12.438 5.569 12.438 12.438" fill="#5791A3"/>
    <path d="M24.191 12.53c0 4.078-2.088 7.67-5.254 9.762a11.628 11.628 0 0 1-6.444 1.935 11.662 11.662 0 0 1-6.083-1.704A11.692 11.692 0 0 1 .795 12.53C.795 6.068 6.032.83 12.493.83c6.46 0 11.698 5.238 11.698 11.7" fill="#337D97"/>
    <path d="M8.45 11.829c0-1.643.272-2.872.816-3.688.543-.816 1.36-1.224 2.446-1.224.864 0 1.638.333 2.324.994.685.662 1.028 1.867 1.028 3.617 0 1.738-.323 2.958-.966 3.662-.644.702-1.417 1.054-2.315 1.054-.969 0-1.767-.354-2.393-1.063-.627-.71-.94-1.827-.94-3.352M18.77 22.06c-.627-.804-1.467-1.34-2.518-1.604-1.052-.266-2.553-.447-4.504-.541-1.784-.095-2.955-.236-3.51-.426-.568-.177-.851-.485-.851-.922 0-.933 1.252-1.442 3.758-1.525 2.412-.082 4.126-.673 5.142-1.773 1.016-1.088 1.525-2.34 1.525-3.758 0-1.089-.307-2.117-.922-3.086l-.02-.025h1.025s.596-1.482.45-1.482c-.144 0-.064-.065-.33.201-.265.266-.628.201-.628.201h-1.686c-.034-.025-.069-.048-.103-.072a44.389 44.389 0 0 0 1.813-1.958c.943-1.087 1.04-3.094-.87-3.166-1.91-.073-1.813 1.716-1.813 1.716l.105-.016s.121-1.072 1.346-1.056c1.224.016.999 1.571.999 1.571-.095.84-1.154 2.006-1.874 2.712-1.01-.63-2.219-.948-3.626-.948-1.596 0-2.977.516-4.141 1.55-1.164 1.035-1.746 2.29-1.746 3.768a5.03 5.03 0 0 0 .85 2.855c.568.852 1.413 1.608 2.537 2.27-2.163.401-3.245 1.376-3.245 2.925 0 .805.378 1.46 1.134 1.969.074.05.157.1.249.146a1.795 1.795 0 0 0-.617.487c-.115.14-.21.288-.289.45.45.275.922.52 1.41.733.106-.442.308-.871.604-1.286.88.21 2.077.345 3.59.409 2.21.094 3.747.378 4.61.85.085.048.164.099.24.152a11.46 11.46 0 0 0 2.073-1.09 3.593 3.593 0 0 0-.167-.23" fill="#FFF"/>
  </g>
</svg>
