<svg width="25" height="25" xmlns="http://www.w3.org/2000/svg">
  <g fill="none" fill-rule="evenodd">
    <circle fill="#7F27FF" fill-rule="nonzero" cx="12.5" cy="12.5" r="12.5"/>
    <g fill="#FFF" fill-rule="nonzero">
      <path d="M12.083 10.833H6.667v5.417a2.063 2.063 0 0 0 2.083 2.083h3.333v-7.5zm.834 0h5.416v5.417a2.063 2.063 0 0 1-2.083 2.083h-3.333v-7.5zM12.917 10h5.252c.581 0 1-.5 1-1 0-.581-.5-1-1-1H6.917c-.582 0-1 .5-1 1 0 .581.5 1 1 1h5.166V8.667h.834"/>
    </g>
    <g stroke="#FFF">
      <path d="M13.264 8.574c1.166-2.083 2.083-2.75 2.75-2.083.666.666.25 1.333-1.167 2.083M12.1 8.574c-1.166-2.083-2.083-2.75-2.75-2.083-.666.666-.25 1.333 1.167 2.083"/>
    </g>
  </g>
</svg>
