<svg width="25" height="25" xmlns="http://www.w3.org/2000/svg">
  <g fill="none" fill-rule="evenodd">
    <path d="M25 12.5C25 19.404 19.404 25 12.5 25S0 19.404 0 12.5 5.596 0 12.5 0 25 5.596 25 12.5" fill="#FFFFFE"/>
    <path d="M12.5 23.872c-6.27 0-11.372-5.101-11.372-11.372 0-6.27 5.101-11.372 11.372-11.372 6.27 0 11.372 5.101 11.372 11.372 0 6.27-5.101 11.372-11.372 11.372zM12.5 0C5.596 0 0 5.596 0 12.5S5.596 25 12.5 25 25 19.404 25 12.5 19.404 0 12.5 0z" fill="#3A3A39"/>
    <path d="M18.28 11.981c-.114 0-.23-.018-.344-.057L6.376 7.978a1.064 1.064 0 0 1 .688-2.014l11.56 3.945a1.064 1.064 0 0 1-.344 2.072" fill="#4FA2CD"/>
    <path d="M18.28 15.537c-.114 0-.23-.018-.344-.057l-11.56-3.946a1.064 1.064 0 1 1 .688-2.014l11.56 3.946a1.064 1.064 0 0 1-.344 2.071" fill="#4365A1"/>
    <path d="M18.28 19.094c-.114 0-.23-.019-.344-.058l-11.56-3.945a1.064 1.064 0 0 1 .688-2.015l11.56 3.946a1.064 1.064 0 0 1-.344 2.072" fill="#3D2C78"/>
  </g>
</svg>
