<svg width="25" height="25" xmlns="http://www.w3.org/2000/svg">
  <g fill-rule="nonzero" fill="none">
    <path d="M16.264.59v4.487a8.323 8.323 0 0 1 0 14.832v4.468a12.494 12.494 0 0 0 8.703-11.887A12.495 12.495 0 0 0 16.264.59zM8.702.602A12.483 12.483 0 0 0 0 12.49c0 5.441 3.522 10.25 8.702 11.897v-4.488a8.333 8.333 0 0 1-4.543-7.413 8.318 8.318 0 0 1 4.543-7.419V.603z" fill="#3D92EF"/>
    <path d="M12.481 0c-.917.005-1.83.115-2.723.32v4.311a8.25 8.25 0 0 1 2.723-.474 8.37 8.37 0 0 1 2.723.47V.31A12.7 12.7 0 0 0 12.481 0zm3.783.59v4.477V.589zM8.702.602v4.474V.603zm3.779 7.534c-.993 0-1.953.345-2.723.967v6.768c.77.622 1.734.967 2.723.967.993 0 1.953-.345 2.723-.967V9.104a4.333 4.333 0 0 0-2.723-.967zM8.702 10.34v4.291-4.291zm7.562.005v4.291-4.291zm0 9.554v4.478V19.9zm-7.562.01v4.478-4.478zm6.507.436a8.25 8.25 0 0 1-2.723.474 8.37 8.37 0 0 1-2.724-.47v4.316c.894.206 1.806.306 2.724.311.917-.005 1.83-.115 2.723-.32v-4.311z" fill="#81BFFF"/>
    <path d="M12.481 11.173c-.917.005-1.83.063-2.728.178v13.328c.893.11 1.81.168 2.728.173.917-.005 1.83-.063 2.723-.178V11.346a23.293 23.293 0 0 0-2.723-.173zm3.783.326v13.022V11.5z" fill="#81BFFF"/>
  </g>
</svg>
