<svg width="25" height="25" xmlns="http://www.w3.org/2000/svg">
  <g transform="translate(.3 .5)" fill-rule="nonzero" fill="none">
    <circle fill="#57BEEA" cx="13.488" cy="11.744" r="2.988"/>
    <path d="M13.488 22.52c-5.952 0-10.777-4.824-10.777-10.776C2.711 5.793 7.536.968 13.488.968c5.951 0 10.776 4.825 10.776 10.776 0 5.952-4.825 10.777-10.776 10.777zm0-.542c5.652 0 10.233-4.582 10.233-10.234S19.14 1.511 13.488 1.511 3.254 6.092 3.254 11.744s4.582 10.234 10.234 10.234z" fill="#292929"/>
    <circle fill="#292929" cx="18.756" cy="2.984" r="2.984"/>
    <circle fill="#292929" cx="18.65" cy="21.167" r="2.984"/>
    <circle fill="#292929" cx="2.984" cy="12.415" r="2.984"/>
  </g>
</svg>
