<svg width="25" height="25" xmlns="http://www.w3.org/2000/svg">
  <g fill-rule="nonzero" fill="none">
    <path d="M3.462 20.81l.631.632c2.789 1.168 5.577 2.35 8.38 3.503v-5.082l-5.22-2.157-2.157-5.22 2.157-5.22-3.791-3.131L0 12.473l3.462 8.337z" fill="#598282"/>
    <path d="M12.473 0c-2.789 1.154-5.591 2.335-8.38 3.503l-.631.632 3.79 3.118 5.22-2.157V0z" fill="#FBBB31"/>
    <path fill="#598282" d="M12.473 7.253L8.777 8.79l-1.524 3.682 1.524 3.695 3.696 1.524z"/>
    <path d="M12.473 24.945c2.788-1.154 5.576-2.335 8.365-3.503l.632-.632 3.461-8.337-3.461-8.338-3.791 3.118 2.156 5.22-2.156 5.22-5.22 2.156v5.096h.014z" fill="#326464"/>
    <path d="M21.484 4.135l-.632-.646C18.049 2.335 15.26 1.168 12.472 0v5.082l5.22 2.157 3.792-3.104z" fill="#FAAA00"/>
    <path fill="#326464" d="M12.473 17.692l3.695-1.524 1.524-3.695-1.524-3.682-3.695-1.538z"/>
  </g>
</svg>
