<svg width="25" height="25" xmlns="http://www.w3.org/2000/svg">
  <path d="M12.554 0c3.819 5.222 7.602 10.473 11.421 15.697A4400.163 4400.163 0 0 0 12.566 25C8.706 21.903 4.862 18.79 1 15.697A3805.542 3805.542 0 0 0 12.554 0zM5.772 15.088c1.684 1.341 3.348 2.706 5.036 4.041.004-3.63.016-7.262-.006-10.895-1.657 2.299-3.362 4.563-5.03 6.854zm8.532-6.796c-.008 3.608-.008 7.217 0 10.827 1.63-1.363 3.293-2.684 4.93-4.038-1.647-2.262-3.298-4.518-4.93-6.789z" fill="#3D82F3" fill-rule="nonzero"/>
</svg>
