<svg width="25" height="25" xmlns="http://www.w3.org/2000/svg">
  <g fill="#324132" fill-rule="nonzero">
    <path d="M10.942.68c.776-.873 2.272-.892 3.073-.045.505.458.621 1.163.64 1.81-.284-.438-.486-.95-.899-1.29-.76-.636-2.02-.573-2.691.165-.325.36-.49.825-.734 1.239.012-.666.112-1.39.611-1.88M8.495 5.467c1.384 1.62 2.646 3.34 4.011 4.975 1.358-1.637 2.636-3.339 4.003-4.97-.152.666-.37 1.32-.463 1.997-.056.338.136.643.28.933 1.465 2.687 2.887 5.4 4.34 8.095.24.505.84.824 1.384.622.492-.14.712-.642.9-1.07 1.117-2.64 1.237-5.708.218-8.396-.245-.652-.6-1.266-.713-1.961.633.465.975 1.191 1.303 1.88a12.346 12.346 0 0 1 .951 8.05 12.457 12.457 0 0 1-4.33 7.039c-.684.565-1.446 1.025-2.216 1.459-.2-.396-.437-.785-.533-1.224-.02-.29.128-.56.205-.834.344-.952.302-2.017-.031-2.965a526.32 526.32 0 0 1-2.419-7.133c-.13-.4-.371-.749-.594-1.102.075.657-.455 1.113-.754 1.635-.496.877-.995 1.756-1.61 2.555-.137-.565-.095-1.15-.14-1.726-.06.356-.087.717-.128 1.075-.798-1.073-1.438-2.254-2.19-3.36-1.008 2.827-1.922 5.689-2.938 8.515-.24-.155-.482-.308-.725-.46l-.042.635c.255.323.496.655.725.996-.225-.018-.45-.038-.675-.06.225.178.54.31.62.611.186.578.311 1.188.646 1.705.42.75 1.222 1.16 1.686 1.873-1.111-.084-2.151-.543-3.095-1.114-2.249-1.32-4.078-3.35-5.121-5.744-1.152-2.616-1.37-5.632-.585-8.383.371-1.386 1.03-2.679 1.838-3.86.077.035.231.11.309.145C2.057 7 1.602 8.154 1.34 9.36c-.13-.043-.259-.087-.388-.133.272.343.321.778.254 1.2-.213 2.04.13 4.143 1.027 5.993.213.48.71.702 1.127.968.374-.295.795-.562 1.025-.996.438-.774.817-1.582 1.277-2.343.096.133.192.267.287.402-.087-.366-.167-.77.056-1.106.865-1.598 1.709-3.208 2.576-4.803.172-.361.466-.731.36-1.154-.124-.646-.329-1.273-.446-1.921m6.363 3.92c.271-.193.575-.33.889-.44-.099-.214-.196-.425-.293-.64-.208.354-.41.713-.596 1.08m-1.388.764c.203.265.49.438.795.564-.21-.257-.502-.42-.795-.564m-.883 2.253c-.18.176.125.454.296.281.187-.175-.129-.455-.295-.28m5.66 5.013l.62-.27-.256-.275c-.12.182-.242.364-.364.546M4.328 21.15l-.017.68c.229.108.454.222.678.34a8.08 8.08 0 0 1-.66-1.02m1.898.008l.034.282c.151.06.304.123.455.185l-.145-.37a69.6 69.6 0 0 1-.344-.097"/>
    <path d="M15.728 24.704c.542-.463 1.091-.925 1.55-1.474.356.23.582.586.718.98-.644.275-1.3.52-1.961.752l-.307-.258"/>
  </g>
</svg>
