<svg width="25" height="25" xmlns="http://www.w3.org/2000/svg">
  <g fill="none" fill-rule="evenodd">
    <circle fill="#EBEBEB" cx="12.5" cy="12.5" r="12.5"/>
    <path fill="#000" d="M18.891 4.629h1.685v16.129h-1.685zM18.516 4.629v16.13h-.157l-7.69-4.436v-2.029l6.09 3.52V4.63zM17.488 20.758h-3.516l-3.303-1.907v-2.028zM13.431 20.758H10.67v-1.593zM4.448 4.629h1.758v16.129H4.448z"/>
    <path fill="#000" d="M6.528 20.758V4.63h.157l7.69 4.444v2.024l-6.089-3.52v13.181zM7.556 4.629h3.513l3.306 1.911V8.57zM11.613 4.629h2.762v1.597z"/>
    <path fill="#F3E733" d="M16.456 4.629v12.532l-1.758-1.012-4.029-2.326V11.79l4.029 2.331V4.629z"/>
    <path fill="#F3E733" d="M8.589 20.762V8.234l1.754 1.012 4.032 2.33v2.029l-4.032-2.33v9.487z"/>
  </g>
</svg>
