<svg width="25" height="25" xmlns="http://www.w3.org/2000/svg">
  <g fill="#0CA4FB" fill-rule="evenodd">
    <path d="M18.376 9.905c1.322 1.986-1.109 5.925-5.425 8.799-4.049 2.695-8.322 3.497-9.928 1.945a7.386 7.386 0 0 1-.305-.367c-.862-1.345-.037-3.567 1.914-5.748a1.437 1.437 0 0 0 2.046-1.931c.466-.376.963-.74 1.486-1.089 4.319-2.873 8.89-3.594 10.212-1.609"/>
    <path d="M12.951 18.704c-4.049 2.695-8.322 3.497-9.928 1.945a1.897 1.897 0 0 1-.284-.336c-.006-.011-.015-.02-.02-.031-.863-1.345-.038-3.567 1.913-5.748a1.437 1.437 0 0 0 2.046-1.931c.466-.376.963-.74 1.486-1.089 4.319-2.873 8.89-3.594 10.212-1.609 1.322 1.986-1.109 5.925-5.425 8.799"/>
    <path d="M23.563 6.678c-2.635-1.813-8.474-.626-13.988 3.043a27.344 27.344 0 0 0-3.233 2.509 1.437 1.437 0 0 0-2.319 1.132c0 .342.12.655.322.902-1.305 1.509-2.236 3.032-2.707 4.426A12.43 12.43 0 0 1 0 12.5C0 5.598 5.598 0 12.5 0a12.5 12.5 0 0 1 11.063 6.678M25 12.5C25 19.402 19.402 25 12.5 25c-1.626 0-3.181-.31-4.606-.876 2.64-.431 5.767-1.699 8.796-3.716 4.485-2.986 7.54-6.805 8.166-9.807.095.617.144 1.252.144 1.899"/>
    <path d="M12.951 18.704c-4.049 2.695-8.322 3.497-9.928 1.945a1.897 1.897 0 0 1-.284-.336c-.006-.011-.015-.02-.02-.031-.863-1.345-.038-3.567 1.913-5.748a1.437 1.437 0 0 0 2.046-1.931c.466-.376.963-.74 1.486-1.089 4.319-2.873 8.89-3.594 10.212-1.609 1.322 1.986-1.109 5.925-5.425 8.799"/>
  </g>
</svg>
