<svg width="25" height="25" xmlns="http://www.w3.org/2000/svg">
  <g fill="#1767A0" fill-rule="nonzero">
    <path d="M9.19 9.263c-.375-.104-2.052-.512-2.405-.602-.377-.097-.966-.16-1.22.414-.254.575-.979 2.268-1.21 2.854-.232.586.123.806.466.895.344.09 2.114.513 2.524.603.41.09.809.055 1.062-.512.254-.567.991-2.271 1.193-2.824.201-.552-.038-.723-.41-.828z"/>
    <path d="M12.495 0C5.595 0 0 5.594 0 12.496c0 6.901 5.594 12.496 12.495 12.496 6.901 0 12.496-5.595 12.496-12.496C24.991 5.594 19.396 0 12.495 0zM8.112 16.065c-.837-.183-5.525-1.416-6.225-1.598-.7-.183-1.446-.808-.974-2.002a245.114 245.114 0 0 1 2.359-5.638c.518-1.173 2.549-.852 3.318-.655.719.184 4.353 1.066 5.114 1.279.76.213 1.796.852 1.385 1.978-.411 1.127-1.811 4.399-2.329 5.555-.517 1.157-1.81 1.264-2.648 1.08zm13.839-.529c-.308.822-1.461 3.584-1.461 3.584l-2.934-.73s.959-2.26 1.05-2.546c.092-.285.171-.65-.262-.776-.434-.125-3.014-.799-3.014-.799l-1.347 3.253-2.99-.776 3.618-8.607 2.968.753-1.838 4.258 5.32-3.402 3.538.896-4.166 2.506s1.141.445 1.415.856.411.708.103 1.53z"/>
  </g>
</svg>
