<svg width="25" height="25" xmlns="http://www.w3.org/2000/svg">
  <g fill="#1E4691" fill-rule="evenodd">
    <path d="M12.485 21.706c-5.085 0-9.221-4.136-9.221-9.221a9.165 9.165 0 0 1 1.834-5.514 9.295 9.295 0 0 1 1.525-1.599 9.18 9.18 0 0 1 5.862-2.108 9.179 9.179 0 0 1 6.672 2.862 9.522 9.522 0 0 1 .715.845 9.3 9.3 0 0 1 .72 1.122 9.164 9.164 0 0 1 1.114 4.392c0 5.085-4.136 9.221-9.221 9.221zm0-21.706C5.601 0 0 5.6 0 12.485 0 19.369 5.6 24.97 12.485 24.97c6.884 0 12.485-5.6 12.485-12.485C24.97 5.601 19.37 0 12.485 0z"/>
    <path d="M5.25 1.155H1.03v4.248s.84-1.341 1.817-2.319C4.023 1.91 5.25 1.154 5.25 1.154M21.886 2.848a14.768 14.768 0 0 1 1.93 2.402V1.03h-4.25s1.342.84 2.32 1.817M3.084 22.122c-1.175-1.175-1.93-2.402-1.93-2.402v4.219h4.25s-1.342-.84-2.32-1.817M19.72 23.815h4.219v-4.248s-.84 1.341-1.817 2.319c-1.175 1.175-2.402 1.93-2.402 1.93"/>
  </g>
</svg>
