<svg width="25" height="25" xmlns="http://www.w3.org/2000/svg">
  <g fill-rule="nonzero" fill="none">
    <circle fill="#105B2F" cx="12.5" cy="12.5" r="12.5"/>
    <path d="M7.69 8.498c.253-1.348.526-2.691.788-4.037 1.348-.008 2.696-.012 4.044-.01 1.24-.003 2.482-.008 3.719.089.73.057 1.46.14 2.172.314.738.176 1.437.568 1.925 1.154.442.538.65 1.23.71 1.914.051.37.064.747.008 1.116-.085 1.107-.45 2.204-1.115 3.1-.546.748-1.309 1.318-2.143 1.711-.919.432-1.923.653-2.93.744-.764.071-1.533.053-2.299.055-1.078-.002-2.156.003-3.234-.007-.391 1.946-.749 3.9-1.123 5.85-.942-.006-1.884-.01-2.826-.014.636-3.35 1.3-6.693 1.963-10.036-.56-.003-1.119.002-1.679.001.13-.644.246-1.291.366-1.937.552-.005 1.104 0 1.655-.007m3.088-1.273c-.078.425-.165.848-.246 1.273 1.341.002 2.682 0 4.024.002-.124.646-.249 1.291-.364 1.938-1.346.005-2.692.001-4.039.002-.09.495-.202.986-.278 1.483 1.562 0 3.126.002 4.69 0 .851-.013 1.751-.183 2.426-.738.577-.477 1.056-1.147 1.108-1.915.015-.33-.013-.673-.138-.982-.183-.45-.612-.764-1.075-.876-.73-.17-1.485-.171-2.23-.195-1.293.006-2.586-.008-3.878.008" fill="#FEFEFE"/>
  </g>
</svg>
