<svg width="25" height="25" xmlns="http://www.w3.org/2000/svg">
  <g fill="#00C0AC" fill-rule="evenodd">
    <path d="M.617 12.533l11.85 11.85 11.85-11.85L12.467.683.617 12.533zm11.85 12.439a.243.243 0 0 1-.173-.072L.1 12.705a.244.244 0 0 1 0-.345L12.294.165a.244.244 0 0 1 .345 0L24.834 12.36a.244.244 0 0 1 0 .345L12.64 24.9a.243.243 0 0 1-.172.072z"/>
    <path d="M1.39 12.289h7.268l2.605-4.524L1.39 12.29zm7.409.488H.272a.244.244 0 0 1-.102-.466l11.583-5.307a.244.244 0 0 1 .313.343L9.01 12.655a.244.244 0 0 1-.211.122zM16.244 12.777L13.64 17.3l9.873-4.523h-7.268zm-3.197 5.307a.244.244 0 0 1-.211-.366l3.056-5.307a.244.244 0 0 1 .211-.122h8.527a.244.244 0 0 1 .102.466l-11.584 5.307a.242.242 0 0 1-.101.022z"/>
    <path d="M2.192 6.63l4.372 16.178 16.178-4.372L18.37 2.257 2.192 6.63zm4.2 16.721a.244.244 0 0 1-.235-.18l-4.5-16.65a.244.244 0 0 1 .172-.298l16.65-4.5a.244.244 0 0 1 .298.172l4.5 16.649a.244.244 0 0 1-.172.299l-16.65 4.5a.245.245 0 0 1-.063.008z"/>
    <path d="M4.721 8.327a.242.242 0 0 1-.12-.032L1.77 6.67a.244.244 0 1 1 .243-.424l2.829 1.626a.244.244 0 0 1-.122.455M23.013 18.835a.243.243 0 0 1-.121-.032l-2.806-1.612a.244.244 0 0 1 .243-.423l2.806 1.612a.244.244 0 0 1-.122.455M20.176 8.313a.244.244 0 0 1-.122-.456l2.826-1.63a.244.244 0 0 1 .244.422l-2.826 1.63a.243.243 0 0 1-.122.034M1.904 18.855a.244.244 0 0 1-.122-.455l2.803-1.617a.244.244 0 1 1 .244.423l-2.803 1.617a.243.243 0 0 1-.122.032M12.475 3.852a.245.245 0 0 1-.247-.244l.008-3.263c0-.134.11-.243.246-.243.137 0 .247.11.246.244l-.007 3.263c0 .134-.11.243-.246.243M12.43 24.948h-.001a.245.245 0 0 1-.246-.245l.007-3.235c0-.135.11-.244.246-.244h.001c.136 0 .246.11.246.245l-.007 3.235c0 .135-.11.244-.247.244"/>
    <path d="M2.217 18.48l16.197 4.303 4.303-16.197L6.52 2.283 2.217 18.48zm16.37 4.845a.247.247 0 0 1-.063-.008L1.857 18.889a.244.244 0 0 1-.173-.299L6.111 1.922a.244.244 0 0 1 .299-.173l16.668 4.428a.244.244 0 0 1 .173.298l-4.428 16.669a.244.244 0 0 1-.236.181z"/>
    <path d="M7.119 2.829l3.647 6.286 5.22-.016-8.867-6.27zm3.507 6.775a.244.244 0 0 1-.211-.122L6.136 2.107a.244.244 0 0 1 .352-.322L16.89 9.141a.244.244 0 0 1-.14.443l-6.124.02h-.001zM8.931 15.94l8.868 6.269-3.647-6.287-5.22.017zm9.64 7.357a.243.243 0 0 1-.14-.045L8.026 15.897a.244.244 0 0 1 .14-.443l6.124-.02c.088 0 .168.046.212.122l4.279 7.375a.244.244 0 0 1-.211.366z"/>
    <path d="M2.238 6.55l4.246 16.212 16.212-4.246L18.45 2.304 2.238 6.55zM6.31 23.304a.244.244 0 0 1-.236-.183L1.704 6.438a.244.244 0 0 1 .174-.298l16.684-4.37a.244.244 0 0 1 .298.174l4.37 16.684a.244.244 0 0 1-.174.298l-16.684 4.37a.242.242 0 0 1-.062.008z"/>
    <path d="M14.6 9.368l2.59 4.532 1.08-10.806-3.67 6.274zm2.757 5.56a.244.244 0 0 1-.212-.123l-3.038-5.318a.244.244 0 0 1 .002-.244l4.304-7.36a.244.244 0 0 1 .454.147L17.6 14.708a.244.244 0 0 1-.243.22zM7.76 11.138L6.68 21.944l3.67-6.274-2.59-4.532zM6.326 23.276a.245.245 0 0 1-.242-.268L7.35 10.33a.244.244 0 0 1 .455-.097l3.038 5.318a.244.244 0 0 1-.001.244l-4.305 7.36a.244.244 0 0 1-.21.12z"/>
  </g>
</svg>
