<svg width="25" height="25" xmlns="http://www.w3.org/2000/svg">
  <g fill-rule="nonzero" fill="none">
    <path d="M7.762 5.667V7.34A1.909 1.909 0 0 1 5.85 9.25H2.151A2.15 2.15 0 0 0 0 11.401v3.154c0 1.185.967 2.151 2.151 2.151h3.7c1.06 0 1.91.865 1.91 1.912v3.699c0 1.184.967 2.151 2.152 2.151h3.154a2.156 2.156 0 0 0 2.151-2.151v-3.7c0-1.06.858-1.91 1.911-1.91h1.672c-6.076 0-11.04-4.964-11.04-11.04z" fill="#000"/>
    <path d="M22.98 14.555v-3.154a2.156 2.156 0 0 0-2.152-2.151H17.13a1.909 1.909 0 0 1-1.911-1.911v-3.7a2.156 2.156 0 0 0-2.151-2.15H9.913a2.156 2.156 0 0 0-2.151 2.15v2.028c0 6.076 4.97 11.04 11.039 11.04h2.027a2.156 2.156 0 0 0 2.152-2.152z" fill="#DB0029"/>
    <path d="M17.464 6.467S16.744-1.041 25 .79c-.153 2.209.05 7.645-7.536 5.676z" fill="#DB0029"/>
  </g>
</svg>
