<svg width="25" height="25" xmlns="http://www.w3.org/2000/svg" xmlns:xlink="http://www.w3.org/1999/xlink">
  <defs>
    <path d="M24.437 2.86a.462.462 0 0 1-.46-.462V1.012h-5.98l-.012.876a9.647 9.647 0 0 1 4.104 7.902c0 5.325-4.325 9.659-9.64 9.659-5.314 0-9.64-4.334-9.64-9.66 0-3.14 1.53-6.092 4.093-7.899l.012-.005-.012-.873H.922v1.386a.462.462 0 1 1-.922 0V.088h7.812l.026 2.004a.462.462 0 0 1-.29.433.452.452 0 0 1-.115.123 8.748 8.748 0 0 0-3.701 7.144c0 4.817 3.91 8.735 8.717 8.735 4.808 0 8.718-3.918 8.718-8.735a8.725 8.725 0 0 0-3.838-7.238.43.43 0 0 1-.11-.11.453.453 0 0 1-.161-.35L17.084.09l7.814-.002v2.31a.462.462 0 0 1-.46.462z" id="a"/>
    <path id="c" d="M0 0h252.678v178.555H0z"/>
    <path d="M12.876 7.32c-.186.232-.392.463-.615.692.223.23.428.462.615.692 1.027 1.274 1.345 2.402.897 3.178-.34.589-1.078.9-2.132.9-.587 0-1.258-.097-1.975-.278-.569 1.977-1.509 3.248-2.592 3.248-1.084 0-2.023-1.271-2.592-3.248-.718.18-1.388.278-1.976.278-1.055 0-1.792-.311-2.132-.9-.448-.776-.129-1.905.898-3.178.186-.23.392-.463.616-.694C.46 6.53-.168 5.08.373 4.142c.34-.589 1.077-.9 2.132-.9.587 0 1.258.097 1.976.278C5.05 1.543 5.99.272 7.072.272c1.084 0 2.024 1.271 2.592 3.248.719-.18 1.39-.278 1.976-.278 1.055 0 1.792.311 2.132.9.45.776.13 1.905-.896 3.179zm-1.235 4.887c.584 0 1.341-.106 1.634-.613.316-.547.006-1.469-.847-2.528a10.045 10.045 0 0 0-.577-.65c-.5.472-1.071.934-1.695 1.376-.071.772-.189 1.496-.345 2.156.667.168 1.288.259 1.83.259zM8.367 5.77c-.43-.248-.863-.475-1.293-.68a18.848 18.848 0 0 0-2.533 1.461 19.389 19.389 0 0 0 0 2.924c.387.264.8.524 1.24.779.43.249.862.475 1.293.68a18.943 18.943 0 0 0 2.534-1.46 19.282 19.282 0 0 0 0-2.923c-.396-.271-.81-.532-1.24-.781zm1.169.04a14.656 14.656 0 0 0-.274-1.583c-.487.149-.994.333-1.51.554a19 19 0 0 1 1.784 1.03zm-3.14-1.03a14.993 14.993 0 0 0-1.51-.554 14.659 14.659 0 0 0-.273 1.584 19.85 19.85 0 0 1 1.783-1.03zM3.938 6.986c-.447.336-.862.682-1.235 1.032.364.34.776.685 1.235 1.028a19.25 19.25 0 0 1 0-2.06zm.674 3.228c.068.569.16 1.098.273 1.584.488-.148.994-.334 1.51-.554a20.033 20.033 0 0 1-.904-.49 20.367 20.367 0 0 1-.88-.54zm3.14 1.03c.516.22 1.023.406 1.51.554.112-.485.206-1.014.274-1.583a19.99 19.99 0 0 1-1.784 1.03zm2.459-2.203c.445-.335.857-.679 1.23-1.028a14.732 14.732 0 0 0-1.23-1.027 20.147 20.147 0 0 1 0 2.055zm-3.137 6.135c.754 0 1.54-1.05 2.045-2.823a16.035 16.035 0 0 1-2.045-.782 16.06 16.06 0 0 1-2.045.782c.505 1.774 1.29 2.823 2.045 2.823zM.873 11.594c.292.506 1.05.613 1.633.613.542 0 1.164-.09 1.83-.26a15.767 15.767 0 0 1-.345-2.155c-.632-.448-1.2-.911-1.694-1.377a9.75 9.75 0 0 0-.577.651c-.854 1.06-1.162 1.981-.847 2.528zm1.633-7.776c-.584 0-1.341.106-1.633.612-.377.654.138 1.858 1.42 3.182a15.897 15.897 0 0 1 1.699-1.38c.071-.772.189-1.496.346-2.156-.668-.166-1.29-.258-1.832-.258zM7.074.85C6.32.85 5.534 1.9 5.03 3.672c.658.198 1.347.461 2.045.782.698-.32 1.387-.584 2.045-.782C8.613 1.9 7.828.85 7.074.85zm6.2 3.581c-.292-.506-1.05-.613-1.633-.613-.542 0-1.163.09-1.83.26.156.66.273 1.383.345 2.155a15.9 15.9 0 0 1 1.695 1.376c.21-.217.402-.434.577-.65.854-1.06 1.163-1.981.847-2.528z" id="e"/>
    <path id="g" d="M0 0h252.678v178.555H0z"/>
    <path d="M2.273 4.5a2.192 2.192 0 0 1-2.19-2.19c0-1.207.982-2.19 2.19-2.19 1.207 0 2.189.982 2.189 2.19S3.48 4.5 2.272 4.5zm0-3.803C1.383.697.659 1.42.659 2.31c0 .89.724 1.614 1.614 1.614.89 0 1.613-.724 1.613-1.614 0-.89-.724-1.614-1.613-1.614z" id="i"/>
    <path id="k" d="M0 0h252.678v178.555H0z"/>
  </defs>
  <g fill="none" fill-rule="evenodd">
    <g transform="matrix(1 0 0 -1 .027 22.741)">
      <mask id="b" fill="#fff">
        <use xlink:href="#a"/>
      </mask>
      <g mask="url(#b)">
        <g transform="translate(-102.332 -24.608)">
          <mask id="d" fill="#fff">
            <use xlink:href="#c"/>
          </mask>
          <g mask="url(#d)" fill="#1D2951" fill-rule="nonzero">
            <path d="M100.831 23.195h27.9v22.362h-27.9z"/>
          </g>
        </g>
      </g>
    </g>
    <g transform="matrix(1 0 0 -1 5.429 20.94)">
      <mask id="f" fill="#fff">
        <use xlink:href="#e"/>
      </mask>
      <g mask="url(#f)">
        <g transform="translate(-107.733 -26.408)">
          <mask id="h" fill="#fff">
            <use xlink:href="#g"/>
          </mask>
          <g mask="url(#h)" fill="#1D2951" fill-rule="nonzero">
            <path d="M106.41 25.18h16.795v18.48h-16.796z"/>
          </g>
        </g>
      </g>
    </g>
    <g transform="matrix(1 0 0 -1 10.23 15.239)">
      <mask id="j" fill="#fff">
        <use xlink:href="#i"/>
      </mask>
      <g mask="url(#j)">
        <g transform="translate(-112.535 -32.11)">
          <mask id="l" fill="#fff">
            <use xlink:href="#k"/>
          </mask>
          <g mask="url(#l)" fill="#1D2951" fill-rule="nonzero">
            <path d="M111.118 30.73h7.379v7.38h-7.379z"/>
          </g>
        </g>
      </g>
    </g>
  </g>
</svg>
