<svg width="25" height="25" xmlns="http://www.w3.org/2000/svg">
  <g fill="none" fill-rule="evenodd">
    <path d="M4.55 2.841a12.455 12.455 0 0 0-1.745 17.5c3.434 4.217 9.055 5.605 13.897 3.86 1.085-.392 1.235-1.863.25-2.462l-7.164-4.355a4.34 4.34 0 0 0-2.044-.625l-2.154-.102-.04-.006a3.18 3.18 0 0 1-2.04-1.14 3.172 3.172 0 0 1 .457-4.457c1.027-.837 2.065-1 2.98-1.143.922-.145 1.719-.27 2.624-1.007.906-.737 1.19-1.492 1.518-2.365.326-.868.696-1.85 1.724-2.687a3.172 3.172 0 0 1 4.457.456 3.18 3.18 0 0 1 .703 2.23l-.003.04-.336 2.13a4.338 4.338 0 0 0 .197 2.128l2.812 7.898c.385 1.08 1.854 1.242 2.454.265 2.699-4.39 2.482-10.181-.955-14.402C17.78-.76 9.892-1.553 4.55 2.84" fill="#2891A5"/>
    <path d="M19.45 21.037a1.344 1.344 0 1 0 1.696 2.084 1.344 1.344 0 0 0-1.696-2.084zM15.887 8.431a6.114 6.114 0 0 0 .278 2.998l1.936 5.436c.294.826-.078 1.509-.524 1.872-.446.363-1.19.589-1.94.133l-4.93-2.997a6.113 6.113 0 0 0-2.88-.88l-2.07-.099a1.434 1.434 0 0 1-.876-.5 1.402 1.402 0 0 1 .202-1.969c.657-.535 1.31-.637 2.138-.767 1.027-.161 2.19-.344 3.467-1.383a5.837 5.837 0 0 0 1.183-1.284c.422-.629.656-1.252.873-1.83.185-.49.345-.915.6-1.296.152-.229.339-.441.585-.642a1.402 1.402 0 0 1 1.97.202c.214.263.326.61.311.96l-.323 2.046z" fill="#3C4D60"/>
  </g>
</svg>
