<svg width="25" height="25" xmlns="http://www.w3.org/2000/svg">
  <g fill-rule="nonzero" fill="none">
    <path d="M10.008 22.572C4.443 21.192 1.05 15.564 2.429 10a10.38 10.38 0 0 1 7.579-7.578V.252C3.244 1.627-1.122 8.224.253 14.987c1 4.915 4.84 8.756 9.755 9.755v-2.17zm1.687-20.42c.27-.021.54-.035.814-.035.41 0 .818.024 1.225.072V.062c-.408-.04-.816-.06-1.225-.062-.277 0-.544.013-.814.029v2.123z" fill="#231F20"/>
    <path d="M15.42.345v2.186a10.412 10.412 0 0 1 6.68 5.993h-2.377a8.233 8.233 0 1 0 .398 7.117h2.283a10.407 10.407 0 0 1-6.982 6.822v2.186c6.709-1.616 10.839-8.364 9.224-15.073A12.497 12.497 0 0 0 15.422.35L15.42.345zm-.972 17.503l-2.408-3.42H8.031v-2.1h4.707c1.15 0 1.563-.72 1.563-1.579 0-.857-.52-1.64-1.686-1.64H8.033V7.145h4.822c1.528 0 3.956.675 3.956 3.527 0 2.85-2.146 3.419-2.146 3.419l2.76 3.757h-2.968l-.009-.001z" fill="#D31F26"/>
    <path d="M13.734 22.805a10.183 10.183 0 0 1-2.039.037v2.12c.27.018.54.03.814.03.417 0 .822-.022 1.225-.063v-2.124z" fill="#231F20"/>
  </g>
</svg>
