<svg width="25" height="25" xmlns="http://www.w3.org/2000/svg">
  <g fill="#FFE800" fill-rule="evenodd">
    <path d="M12.535 4.4a3.53 3.53 0 0 0-3.53 3.531c0 .073.006.144.01.216l-.004-.008s-.063 1.011-.499 1.338c-.435.326-1.425.06-1.425.06l.002.003a3.53 3.53 0 1 0 1.59 2.948c0-.07-.007-.137-.01-.205l.004.009s.01-1.011.55-1.368c.541-.356 1.493.033 1.493.033l-.005-.007a3.509 3.509 0 0 0 1.824.512 3.53 3.53 0 0 0 0-7.061"/>
    <path d="M19.974 8.86a3.53 3.53 0 0 0-3.53 3.53c0 .073.006.144.01.215l-.004-.007s-.064 1.01-.5 1.337c-.356.268-1.083.138-1.335.082a3.53 3.53 0 0 0-5.55 2.893c0 .073.006.144.01.216l-.004-.008s-.064 1.011-.5 1.338c-.435.327-1.424.06-1.424.06l.001.003a3.53 3.53 0 1 0 1.59 2.948c0-.069-.006-.136-.01-.205l.005.009s.01-1.011.55-1.367c.54-.357 1.492.033 1.492.033l-.004-.008a3.508 3.508 0 0 0 1.824.512 3.53 3.53 0 0 0 3.53-3.53c0-.075-.006-.148-.01-.222.011-.22.085-1.002.547-1.306.54-.357 1.492.033 1.492.033l-.004-.008a3.51 3.51 0 0 0 1.824.513 3.53 3.53 0 0 0 0-7.062M8.642 3.571a3.571 3.571 0 1 1-7.142 0 3.571 3.571 0 0 1 7.142 0"/>
  </g>
</svg>
