<svg width="25" height="25" xmlns="http://www.w3.org/2000/svg">
  <path d="M24.788 23.115c0 .962-.673 1.654-1.653 1.673-2.25.02-4.5.039-6.731-.019-4.02-.096-7.385-3.25-7.846-7.269a8.07 8.07 0 0 1 .615-4.096c.789-1.846.52-3.23-.885-4.654-1.48-1.48-3-2.98-4.48-4.48-.462-.482-1-.693-1.673-.616A1.776 1.776 0 0 1 .192 1.98C.154 1.038.962.192 1.923.192c1.02 0 1.808.808 1.73 1.846-.057.731.174 1.289.693 1.789 1.5 1.461 2.962 2.942 4.423 4.423 1.423 1.423 2.808 1.692 4.654.904 4.808-2.039 10.365.884 11.192 6 .25 1.5.193 6.846.173 7.961zm-3.25-4.903v-1.385c.02-3.673-3.115-5.346-5.461-5.058-2.404.327-4.289 2.346-4.308 4.77-.019 2.519 1.789 4.653 4.25 4.884 1.366.135 2.77.096 4.154.077.808 0 1.327-.558 1.365-1.385.02-.634 0-1.269 0-1.903z" fill="#3EBB9A" fill-rule="nonzero"/>
</svg>
