<svg width="25" height="25" xmlns="http://www.w3.org/2000/svg">
  <g fill="none" fill-rule="evenodd">
    <path d="M25 12.5C25 19.404 19.404 25 12.5 25S0 19.404 0 12.5 5.596 0 12.5 0 25 5.596 25 12.5" fill="#3A3A39"/>
    <path d="M12.5 1.128C6.23 1.128 1.128 6.229 1.128 12.5c0 6.27 5.101 11.372 11.372 11.372 6.27 0 11.372-5.101 11.372-11.372 0-6.27-5.101-11.372-11.372-11.372" fill="#FFFFFE"/>
    <path d="M12.5 23.181c-5.89 0-10.681-4.791-10.681-10.681C1.819 6.61 6.61 1.819 12.5 1.819c5.89 0 10.681 4.791 10.681 10.681 0 5.89-4.791 10.681-10.681 10.681" fill="#646565"/>
    <path d="M8.041 19.078a3.494 3.494 0 0 1-2.402-.947 3.543 3.543 0 0 1-1.124-2.584v-1.096h1.312v1.096c0 .623.251 1.2.707 1.624.455.424 1.05.634 1.674.59a2.223 2.223 0 0 0 2.05-2.042 2.226 2.226 0 0 0-.427-1.489 2.22 2.22 0 0 0-1.014-.747l-1.99-.748c-1.403-.527-2.332-1.866-2.312-3.332a3.528 3.528 0 0 1 3.277-3.472l.046-.002h5.319l-.01 11.83h3.99a2.215 2.215 0 0 0 2.036-2.18c.012-.915-.575-1.753-1.461-2.086l-1.99-.747a3.53 3.53 0 0 1-1.608-1.196 3.538 3.538 0 0 1-.68-2.367 3.543 3.543 0 0 1 3.265-3.252 3.502 3.502 0 0 1 2.662.938 3.543 3.543 0 0 1 1.124 2.584v1.096h-1.312V9.453c0-.623-.251-1.2-.707-1.624a2.203 2.203 0 0 0-1.674-.59 2.223 2.223 0 0 0-2.05 2.042c-.04.534.112 1.063.427 1.489.246.332.596.59 1.015.747l1.99.748c1.402.527 2.33 1.866 2.31 3.332a3.528 3.528 0 0 1-3.277 3.472l-.045.002h-5.328l.01-11.83H7.862a2.215 2.215 0 0 0-2.036 2.18c-.012.915.575 1.753 1.461 2.086l1.99.747c.655.247 1.212.66 1.608 1.196.502.679.743 1.52.68 2.367a3.543 3.543 0 0 1-3.525 3.261" fill="#FFFFFE"/>
  </g>
</svg>
