<svg width="25" height="25" xmlns="http://www.w3.org/2000/svg">
  <g fill-rule="nonzero" fill="none">
    <circle fill="#5B6DEE" cx="12.5" cy="12.5" r="12.5"/>
    <path d="M10.39 11.735a7.144 7.144 0 0 0-1.3.112c.354-3.266 3.076-5.74 6.316-5.739 1.984 0 3.344.972 3.344 2.983s-1.632 2.983-4.012 2.983c-1.758 0-2.59-.34-4.347-.34m-.129 1.192c-2.38 0-4.012.972-4.012 2.983 0 2.012 1.36 2.983 3.344 2.983 3.24 0 5.962-2.473 6.315-5.739a7.144 7.144 0 0 1-1.3.112c-1.757 0-2.59-.339-4.347-.339" fill="#FFF"/>
  </g>
</svg>
