<svg width="25" height="25" xmlns="http://www.w3.org/2000/svg" xmlns:xlink="http://www.w3.org/1999/xlink">
  <defs>
    <path d="M12.5 24.217C6.04 24.217.783 18.961.783 12.5.783 6.04 6.039.783 12.5.783c6.46 0 11.717 5.256 11.717 11.717 0 6.46-5.256 11.717-11.717 11.717" id="a"/>
  </defs>
  <g fill="none" fill-rule="evenodd">
    <mask id="b" fill="#fff">
      <use xlink:href="#a"/>
    </mask>
    <use fill="#0F100F" xlink:href="#a"/>
    <path fill="#C4CACA" mask="url(#b)" d="M14.356.783v.811l1.351-.492-1.35-.32"/>
    <path fill="#ACB6BA" mask="url(#b)" d="M15.126 1.674h-.77l1.152-.5-.382.5"/>
    <path fill="#B7BFC3" mask="url(#b)" d="M16.585 1.524l-1.459.078.382-.427.199-.073.878.422"/>
    <path fill="#B7BDBF" mask="url(#b)" d="M13.346.66l-.05.529 1.06.405V.783L13.346.66"/>
    <path fill="#BCC2C4" mask="url(#b)" d="M12.045.66l-.214.442 1.464.087.051-.53h-1.3"/>
    <path fill="#B5BEC3" mask="url(#b)" d="M9.899.976l1.553.29.379-.164.214-.442L9.9.976"/>
    <path d="M8.447 1.506c.004-.002.379.656.379.656l1.212-.988-.139-.198-1.452.53" fill="#A8AFB1" mask="url(#b)"/>
    <path fill="#9BA2A4" mask="url(#b)" d="M10.417 1.733l-1.591.43 1.212-.989.379.56"/>
    <path fill="#B8BEBF" mask="url(#b)" d="M11.452 1.266l.43.082-1.465.385-.38-.559L9.9.976l1.553.29"/>
    <path fill="#BEC3C4" mask="url(#b)" d="M14.356 1.674h-1.01l-.291-.5.24.017 1.061.483"/>
    <path fill="#B5BABA" mask="url(#b)" d="M11.452 1.268l.379-.166 1.224.073.291.427-1.465-.25-.429-.084"/>
    <path fill="#979C9B" mask="url(#b)" d="M10.417 1.733l1.161.934.303-1.319-1.464.385"/>
    <path fill="#444545" mask="url(#b)" d="M8.826 2.162L9.508 3.3l.909-1.566-1.591.43"/>
    <path fill="#818685" mask="url(#b)" d="M11.578 2.667l-1.161.24V1.733l1.161.934"/>
    <path fill="#808686" mask="url(#b)" d="M11.881 1.348l.518.385-.82.934.302-1.319"/>
    <path fill="#BBC1C4" mask="url(#b)" d="M13.346 1.668l-.947.18-.518-.5 1.465.32"/>
    <path fill="#A3AAAD" mask="url(#b)" d="M10.417 2.911l.473.256 1.724-.192-1.036-.308-1.161.244"/>
    <path fill="#B1B9BD" mask="url(#b)" d="M13.346 1.594l-.152.5-.795-.288.947-.212"/>
    <path fill="#7F8485" mask="url(#b)" d="M11.578 2.667l.821-.934.795.19-.58 1.047-1.036-.303"/>
    <path fill="#868D8D" mask="url(#b)" d="M10.89 3.16l-1.345.846-.037-.707.909-.392.473.253"/>
    <path fill="#919493" mask="url(#b)" d="M8.826 2.162L9.508 3.3l-1.01-.215.328-.922"/>
    <path fill="#909697" mask="url(#b)" d="M9.545 4.006l-.947.088.91-.795.037.707"/>
    <path fill="#989C9C" mask="url(#b)" d="M8.498 3.084l.1 1.01.91-.795-1.01-.215"/>
    <path fill="#535554" mask="url(#b)" d="M10.89 3.16l.41.934 1.314-1.124-1.724.19"/>
    <path fill="#4C4F4F" mask="url(#b)" d="M9.545 4.006l.493.43.852-1.276-1.345.846"/>
    <path fill="#2F3130" mask="url(#b)" d="M11.3 4.094l-1.262.341.852-1.275.41.934"/>
    <path fill="#888E90" mask="url(#b)" d="M13.346 1.594l1.01 1.187-.252.43-.91-1.288.152-.329"/>
    <path fill="#656767" mask="url(#b)" d="M15.126 1.594l.581 1.25-1.35-.063-1.011-1.187h1.78"/>
    <path fill="#787D7D" mask="url(#b)" d="M16.288 1.533l-.581 1.311-.58-1.25 1.161-.061"/>
    <path fill="#838C90" mask="url(#b)" d="M17.386 2.189l-.48-.805-.618.149 1.098.656"/>
    <path fill="#ABAEAF" mask="url(#b)" d="M15.707 2.844l1.086.954.114-.89-1.2-.064"/>
    <path fill="#B4BAB9" mask="url(#b)" d="M16.288 1.533l1.098.656-.48.718-1.199-.063.581-1.311"/>
    <path fill="#717473" mask="url(#b)" d="M13.194 1.923l.91 1.287-1.49-.24.58-1.048"/>
    <path fill="#A8AEB0" mask="url(#b)" d="M15.707 2.844l-.199.477-1.404-.11.252-.43 1.351.063"/>
    <path fill="#9EA4A7" mask="url(#b)" d="M16.793 3.797l-1.285-.476.199-.477 1.086.954"/>
    <path fill="#848A8B" mask="url(#b)" d="M16.907 2.907l1.123.414-1.237.476.114-.89"/>
    <path fill="#83898A" mask="url(#b)" d="M17.386 2.189l-.48.718 1.124.414-.644-1.132"/>
    <path fill="#969C9D" mask="url(#b)" d="M8.498 3.084l-.884.076 1.212-.998-.329.922"/>
    <path fill="#858C8E" mask="url(#b)" d="M8.447 1.506l.379.656-1.212.998-.076-1.427.909-.227"/>
    <path fill="#3A3D3C" mask="url(#b)" d="M8.498 3.084l.1 1.01-.72.455-.264-1.39.884-.075"/>
    <path fill="#858A8A" mask="url(#b)" d="M9.545 4.006l.493.43 1.111.858-1.604.543-1.098-.916.151-.827.947-.088"/>
    <path fill="#676A69" mask="url(#b)" d="M11.3 4.094l-.151 1.2-1.111-.859 1.263-.34"/>
    <path fill="#727574" mask="url(#b)" d="M12.614 2.97l.34.985-1.653.14 1.313-1.125"/>
    <path fill="#808483" mask="url(#b)" d="M14.104 3.21l-1.15.745-.34-.985 1.49.24"/>
    <path fill="#656867" mask="url(#b)" d="M15.508 3.32l-.382.875-1.022-.985 1.404.11"/>
    <path fill="#8B9191" mask="url(#b)" d="M16.793 3.797l-.139.752-1.146-1.228 1.285.476"/>
    <path fill="#AFB4B5" mask="url(#b)" d="M16.907 1.384l.846.475-.367.33-.48-.805"/>
    <path fill="#A2A8AB" mask="url(#b)" d="M18.952 2.516l-.391.454-1.175-.781.367-.33 1.199.657"/>
    <path fill="#7A7F81" mask="url(#b)" d="M18.03 3.32l.53-.35-1.174-.781.644 1.132"/>
    <path fill="#91979A" mask="url(#b)" d="M7.538 1.733l.056 1.048-.978.063.922-1.11"/>
    <path fill="#AFB6BA" mask="url(#b)" d="M7.614 3.16l-1.099.72-.505-.29.606-.746.978-.063.02.379"/>
    <path d="M7.879 4.549c-.089.038-.707.442-.707.442L6.515 3.88l1.099-.72.265 1.389" fill="#171818" mask="url(#b)"/>
    <path fill="#545859" mask="url(#b)" d="M8.447 4.921l-.568-.372.72-.455-.152.827"/>
    <path fill="#151615" mask="url(#b)" d="M8.946 5.337l-1.534.752 1.035-1.168.499.416"/>
    <path fill="#353838" mask="url(#b)" d="M7.879 4.549l.568.372L7.412 6.09l-.24-1.098.707-.442"/>
    <path fill="#676A69" mask="url(#b)" d="M12.5 4.435l-1.351.859.152-1.2 1.199.341"/>
    <path fill="#979D9F" mask="url(#b)" d="M12.955 3.955l1.224.884-1.679-.404-1.2-.34 1.655-.14"/>
    <path fill="#696C6A" mask="url(#b)" d="M14.104 3.21l.075 1.63-1.224-.885 1.149-.745"/>
    <path fill="#5B5D5C" mask="url(#b)" d="M16.654 4.549l-1.528-.354.382-.874 1.146 1.228"/>
    <path fill="#565958" mask="url(#b)" d="M14.104 3.21l.075 1.63 1.414.454-.467-1.099-1.022-.985"/>
    <path fill="#7E8588" mask="url(#b)" d="M18.56 2.97l-.53.35 1.15.27 1.275.605-.19-.612-1.313-1.067-.391.454"/>
    <path d="M16.793 3.797c.088.057 1.654.6 1.654.6l-.417-1.076-1.237.476" fill="#808687" mask="url(#b)"/>
    <path fill="#767C7D" mask="url(#b)" d="M16.654 4.549l1.376.505.417-.657-1.654-.6-.139.752"/>
    <path fill="#343736" mask="url(#b)" d="M18.03 3.32l1.15.27 1.275.605-.796.796-1.212-.594-.417-1.076"/>
    <path fill="#92989A" mask="url(#b)" d="M6.01 3.59l-1.237-.058 1.515-1.2 1.25-.599-.922 1.111-.606.745"/>
    <path fill="#474949" mask="url(#b)" d="M6.515 3.88l-1.168.555-.574-.903 1.237.057.505.29"/>
    <path fill="#404242" mask="url(#b)" d="M7.172 4.99L6.155 4.55l-.808-.114 1.168-.555.657 1.11"/>
    <path fill="#343736" mask="url(#b)" d="M4.773 3.532l-.884 1.39 1.458-.487-.574-.903"/>
    <path fill="#939A9D" mask="url(#b)" d="M5.48 4.99l-1.591-.069 1.458-.486.133.556"/>
    <path fill="#606567" mask="url(#b)" d="M5.922 5.319L5.48 4.99l-.133-.556.808.114-.233.77"/>
    <path fill="#909494" mask="url(#b)" d="M7.412 6.09l-1.49-.771.233-.77 1.017.442.24 1.098"/>
    <path d="M3.889 4.921c.025.158.151 1.168.151 1.168l1.307-.088-.183.303.758.505 1.49-.72-1.49-.77-.442-.328-1.591-.07" fill="#0A0B09" mask="url(#b)"/>
    <path fill="#788084" mask="url(#b)" d="M4.773 3.532l-.884 1.39h-.493l1.377-1.39"/>
    <path fill="#202223" mask="url(#b)" d="M4.04 6.09l-.921-.102v-.783l.277-.284h.493L4.04 6.09"/>
    <path fill="#535859" mask="url(#b)" d="M5.164 6.317l-.82.184-.304-.408L5.347 6l-.183.316"/>
    <path fill="#161716" mask="url(#b)" d="M5.922 6.809L4.04 7.819l1.124-1.515.758.505"/>
    <path fill="#404446" mask="url(#b)" d="M3.018 8.11l2.146-1.806L4.04 7.819l-1.022.29"/>
    <path fill="#2D2F30" mask="url(#b)" d="M4.343 6.48l.821-.176-2.146 1.805.1-.902 1.225-.726"/>
    <path fill="#323534" mask="url(#b)" d="M9.545 5.837l-1.047.808-1.086-.556 1.534-.752.6.5"/>
    <path fill="#151615" mask="url(#b)" d="M11.149 5.294L12.29 6.48l1.561 1.06 1.54.695 1.156-.594.865 1.137-1.768 1.098-1.288-.972-.997-.164-.859-.77-1.502-1.023-1.453-1.111 1.604-.543"/>
    <path fill="#0A0B09" mask="url(#b)" d="M12.5 4.435l.979 1.238h-1.093l-1.237-.38 1.351-.858"/>
    <path fill="#3F403F" mask="url(#b)" d="M12.29 6.48l1.89.329-.701-1.136h-1.093l-1.237-.38 1.141 1.188"/>
    <path fill="#4D4F4F" mask="url(#b)" d="M13.851 7.541l.328-.732-1.889-.328 1.561 1.06"/>
    <path fill="#373939" mask="url(#b)" d="M12.5 4.435l1.68.404-.701.833-.979-1.237"/>
    <path fill="#9DA2A3" mask="url(#b)" d="M15.593 5.294l1.2.379-1.389.164-1.225-.998 1.414.455"/>
    <path fill="#393C3B" mask="url(#b)" d="M9.95 6.809l-.405-.972-1.047.808 1.451.164"/>
    <path fill="#595B5A" mask="url(#b)" d="M12.5 7.97l-1.351.14-1.2-1.301-.404-.972 1.453 1.11L12.5 7.97"/>
    <path fill="#4B4E4E" mask="url(#b)" d="M8.498 6.645l-1.479.328-1.097-.164 1.49-.72 1.086.556"/>
    <path fill="#242625" mask="url(#b)" d="M8.239 7.478l-1.22-.505 1.479-.328-.26.833"/>
    <path fill="#0A0B09" mask="url(#b)" d="M11.149 8.11l-1.351.315-1.56-.947.26-.833 1.451.164 1.2 1.3"/>
    <path fill="#282A29" mask="url(#b)" d="M7.02 6.973l-1.603.612-1.377.234 1.882-1.01 1.097.164"/>
    <path fill="#373A3B" mask="url(#b)" d="M3.119 7.207l-.265-.398 1.186-.72.303.392-1.224.726"/>
    <path fill="#44494A" mask="url(#b)" d="M3.119 5.988l-.265.82L4.04 6.09l-.921-.1"/>
    <path fill="#454A4C" mask="url(#b)" d="M3.119 5.205v.783l-.265.82-1.238 1.01.682-1.577.82-1.036"/>
    <path fill="#1B1E1E" mask="url(#b)" d="M3.018 8.11l-.65.15-.527-.625 1.013-.826.265.398-.101.902"/>
    <path fill="#0F100F" mask="url(#b)" d="M5.417 7.585L4.52 8.816l-1.124.707L1.97 9.7l-.19-.492-.669-.227.505-1.162.225-.184.526.626.65-.152 1.023-.29 1.377-.234M7.02 6.973l.442.934-.65.973 1.067.454.72-.29 1.08 1.022 1.04-.732-.921-.909-1.56-.947-1.219-.505"/>
    <path fill="#1E211F" mask="url(#b)" d="M5.417 7.585L6.812 8.88l.65-.973-.443-.934-1.602.612"/>
    <path fill="#282B2C" mask="url(#b)" d="M3.396 9.523l.581.543 1.25-1.477.19-1.004-.897 1.231-1.124.707"/>
    <path fill="#121413" mask="url(#b)" d="M2.652 9.616l-.973 1.208.619.644.556-.354.542-1.59-.744.092"/>
    <path d="M1.111 8.98c-.006.038-.278.84-.278.84l.846 1.004.973-1.208-.682.084-.19-.492-.669-.227" fill="#242727" mask="url(#b)"/>
    <path d="M5.417 7.585l-.19 1.004 1.032-.222-.842-.782" fill="#434545" mask="url(#b)"/>
    <path fill="#363937" mask="url(#b)" d="M6.812 8.88L5.75 10.227 5.227 8.59l1.032-.222.553.513"/>
    <path fill="#262827" mask="url(#b)" d="M7.377 10.496l-1.626-.269L6.81 8.88l.566 1.616"/>
    <path d="M8.598 9.044c.01.085.086 1.452.086 1.452H7.377L6.812 8.88l1.067.454.72-.29" fill="#161716" mask="url(#b)"/>
    <path fill="#1C1E1D" mask="url(#b)" d="M9.68 10.066l-.996.43-.086-1.452 1.081 1.022"/>
    <path fill="#333534" mask="url(#b)" d="M11.149 8.11l1.165 1.284-1.594-.06-.922-.909 1.351-.316"/>
    <path fill="#333534" mask="url(#b)" d="M15.644 9.877l-1.58-.229-1.75-.254-1.165-1.285L12.5 7.97l.859.77.997.165 1.288.972"/>
    <path fill="#222423" mask="url(#b)" d="M13.067 10.91l.997-1.262.633.63-1.63.631"/>
    <path fill="#404140" mask="url(#b)" d="M15.644 9.877l-.947.402-.633-.631 1.58.229"/>
    <path fill="#161817" mask="url(#b)" d="M16.547 7.642l-1.156.594-1.54-.695.328-.732.947-.104 1.42.937"/>
    <path fill="#191B1A" mask="url(#b)" d="M15.404 5.837l-.278.868-1.647-1.032 1.925.164"/>
    <path fill="#606261" mask="url(#b)" d="M14.18 6.809l-.701-1.136 1.647 1.032-.947.104"/>
    <path fill="#8F9394" mask="url(#b)" d="M14.18 4.84l1.224.997-1.925-.164.7-.834"/>
    <path fill="#6A6C6B" mask="url(#b)" d="M18.03 5.054l-.35.619h-.887l-1.2-.38-.467-1.098 1.528.354 1.376.505"/>
    <path fill="#0A0B09" mask="url(#b)" d="M20.265 3.583l1.61 1.55-.7-.08-.645.285-.87.903-.708-.303.46-.884.247-.063.796-.796-.19-.612"/>
    <path fill="#5F6363" mask="url(#b)" d="M18.03 5.054l.922.884.46-.884.247-.063-1.212-.594-.417.657"/>
    <path fill="#131513" mask="url(#b)" d="M15.126 6.705l1.597.19 1.25-.25.057-1.591-.35.619h-.887l-1.389.164-.278.868"/>
    <path fill="#484A49" mask="url(#b)" d="M16.547 7.642l.176-.748-1.597-.19 1.42.938"/>
    <path fill="#282B2C" mask="url(#b)" d="M19.66 6.24l-.503.654-.205-.956.707.303"/>
    <path fill="#7C807F" mask="url(#b)" d="M20.53 5.338l.38.713-.38.922-1.373-.079.502-.653.871-.903"/>
    <path fill="#4B4E4D" mask="url(#b)" d="M18.03 5.054l.922.884.205.956-.937.748h-1.673l.176-.748 1.25-.25.057-1.59"/>
    <path fill="#666A6B" mask="url(#b)" d="M21.875 5.133l.483.704-1.449.214-.379-.713.644-.284.701.079"/>
    <path fill="#242626" mask="url(#b)" d="M20.53 6.973l1.08.271-.7-1.193-.38.922"/>
    <path fill="#161716" mask="url(#b)" d="M18.22 7.642l-.808 1.137-.865-1.137h1.673"/>
    <path d="M21.61 7.244c.01.076.55 1.535.55 1.535l-1.63-.455-1.136-.492-.73.593s-.757 1.3-.757 1.272c0-.028-.495-.918-.495-.918l.808-1.137.937-.748 1.373.079 1.08.271" fill="#0F100F" mask="url(#b)"/>
    <path fill="#242625" mask="url(#b)" d="M19.953 9.48l-1.288-1.055.729-.593 1.136.492-.34.101-.237 1.054"/>
    <path fill="#3D3F3F" mask="url(#b)" d="M22.16 8.779l.851.814-.208.966-.7-1.08-1.648-.208.222-.906 1.482.414"/>
    <path fill="#0F100E" mask="url(#b)" d="M19.953 9.48l.502-.209.222-.906-.147-.041-.34.101-.237 1.054"/>
    <path fill="#444849" mask="url(#b)" d="M22.358 5.837l.379.726-.767.824.19 1.392-.55-1.535-.7-1.193 1.448-.214"/>
    <path fill="#121413" mask="url(#b)" d="M23.011 9.593l-.274-1.581-.578.767.852.814"/>
    <path fill="#515454" mask="url(#b)" d="M22.737 6.563v1.449l-.578.767-.19-1.392.768-.824"/>
    <path fill="#343738" mask="url(#b)" d="M23.778 8.545l-.944.025-.097-.558v-1.45l.776 1.08.265.903"/>
    <path fill="#2C2E2E" mask="url(#b)" d="M19.953 9.48l-.168.799-1.026-.631 1.194-.169"/>
    <path fill="#4C4F4F" mask="url(#b)" d="M10.417 2.907l-.91.392.91-1.566v1.174"/>
  </g>
</svg>
