<svg width="25" height="25" xmlns="http://www.w3.org/2000/svg">
  <defs>
    <linearGradient x1="0%" y1="50%" y2="50%" id="a">
      <stop stop-color="#6C3D94" offset="0%"/>
      <stop stop-color="#A13469" offset="100%"/>
    </linearGradient>
  </defs>
  <path d="M16.622 24.681a4.183 4.183 0 0 1-2.176-2.049c-.547-.904-1.502-2.838-3.271-3.907-1.336-.802-5.014-.395-5.562-.624a2.25 2.25 0 0 1-1.234-2.927c.255-.624 1.654-1.26 2.24-1.464 0 0 7.101-2.036 7.101-4.238 0-1.094-.84-1.374-2.443-1.769-2.33-.56-6.109.535-6.109.535v-.013a4.22 4.22 0 0 1-2.558-.19A4.174 4.174 0 0 1 .319 2.6a4.175 4.175 0 0 1 7.623-.242c.535.904 1.464 2.838 3.233 3.894 1.336.815 5.04.408 5.587.637a2.238 2.238 0 0 1 1.235 2.927c-.255.636-1.668 1.273-2.266 1.476 0 0-7.076 1.782-7.076 4.226 0 1.094.84 1.374 2.456 1.769 2.33.56 6.11-.535 6.11-.535l-.013.013a4.174 4.174 0 0 1 2.57.19 4.18 4.18 0 0 1 2.279 5.435 4.182 4.182 0 0 1-3.867 2.6 4.15 4.15 0 0 1-1.568-.309" transform="matrix(1 0 0 -1 1 24.99)" fill="url(#a)" fill-rule="nonzero"/>
</svg>
