<svg width="25" height="25" xmlns="http://www.w3.org/2000/svg">
  <g fill="#2583FF" fill-rule="evenodd">
    <path d="M7.757 14.53c-.088.06-.148.109-.214.147-.898.515-1.8 1.026-2.694 1.547-.184.108-.338.126-.527.014-.364-.214-.757-.26-1.174-.165-.843.192-1.42 1.134-1.201 1.978.239.92 1.168 1.463 2.039 1.191.748-.233 1.13-.759 1.18-1.526a.543.543 0 0 1 .308-.488c1-.566 1.992-1.142 2.982-1.721a.542.542 0 0 1 .558-.031c.464.217.97.314 1.464.202.445-.101.818-.035 1.212.168.212.11.282.228.281.456-.008 1.537-.012 3.075.001 4.613.003.29-.076.463-.328.625-.747.483-.931 1.496-.439 2.239.5.752 1.511.963 2.26.47a1.628 1.628 0 0 0-.054-2.77c-.138-.085-.249-.158-.248-.353.007-1.58.007-3.161.002-4.742-.001-.173.067-.25.229-.28.271-.048.545-.093.81-.165.242-.066.464-.072.705.023.623.245 1.237.199 1.817-.136.19-.108.336-.099.522.011.787.466 1.58.923 2.379 1.369.237.132.343.29.347.572.01.735.642 1.413 1.365 1.506.746.096 1.428-.27 1.744-.938a1.63 1.63 0 0 0-.371-1.877c-.512-.488-1.262-.583-1.917-.221-.183.102-.325.094-.5-.01a105.14 105.14 0 0 0-2.266-1.305c-.207-.116-.28-.227-.215-.472.191-.718.056-1.378-.394-1.98-.31-.415-.582-.855-.875-1.281-.125-.183-.093-.306.103-.418 1.228-.703 2.453-1.41 3.677-2.122.158-.09.288-.1.451-.001.413.252.857.29 1.32.148.736-.226 1.238-1.018 1.12-1.775-.127-.816-.84-1.446-1.623-1.433-.903.014-1.6.703-1.625 1.615-.005.19-.056.322-.231.422-1.259.72-2.514 1.447-3.766 2.177-.15.088-.254.081-.385-.041A3.595 3.595 0 0 0 13.46 8.8c-.228-.024-.296-.125-.295-.352.009-1.494.008-2.989-.002-4.483-.002-.263.085-.434.306-.577.626-.402.884-1.13.668-1.829A1.625 1.625 0 0 0 12.585.408c-.747-.003-1.364.442-1.582 1.142-.23.738.041 1.458.713 1.881.135.085.254.157.254.351-.006 1.642 0 3.283-.01 4.925-.001.103-.092.242-.182.3-.396.26-.806.497-1.213.738-.4.238-.858.343-1.26.124-1.312-.712-2.598-1.474-3.892-2.218-.16-.092-.236-.22-.24-.421-.029-1.167-1.101-1.778-1.92-1.588-.682.159-1.14.541-1.306 1.214-.164.672.039 1.26.588 1.682.548.423 1.16.47 1.774.143.203-.107.355-.106.548.01.645.383 1.3.75 1.95 1.126.453.262.904.527 1.393.812-1.142 1.2-1.26 2.505-.443 3.9M23.601 7.24c0 .72-.294 1.288-.898 1.68-.19.122-.26.26-.258.486.008 2.03.009 4.06 0 6.09 0 .234.069.374.269.505.893.581 1.169 1.779.635 2.672-.562.94-1.72 1.285-2.675.78a.483.483 0 0 0-.526.009 1323.882 1323.882 0 0 1-5.361 3.092c-.183.105-.198.259-.21.436a2.02 2.02 0 0 1-1.597 1.865c-1.171.242-2.297-.573-2.403-1.76-.028-.317-.147-.502-.427-.66a499.633 499.633 0 0 1-5.137-2.961c-.2-.117-.356-.127-.569-.018a1.989 1.989 0 0 1-2.651-.774 1.995 1.995 0 0 1 .635-2.69c.205-.136.28-.289.28-.532a756.88 756.88 0 0 1 0-6.012c0-.243-.074-.397-.282-.53-.716-.459-1.025-1.23-.863-2.089.147-.782.755-1.375 1.557-1.548a1.889 1.889 0 0 1 1.373.197c.162.09.293.092.455-.002 1.762-1.021 3.526-2.04 5.296-3.047.239-.136.309-.32.322-.566.06-1.09 1.078-1.948 2.246-1.83.89.09 1.69.887 1.755 1.8.023.328.172.506.445.662 1.71.973 3.413 1.957 5.113 2.947.204.118.365.118.575.013a1.99 1.99 0 0 1 2.901 1.785"/>
    <path d="M8.248 12.757c.006-1.135.913-2.088 2.055-2.112.355-.007.617-.114.876-.347 1.305-1.18 3.114-.73 4.01.292.328.373.518.816.614 1.295.049.244.173.397.371.527.493.322.768.793.715 1.374-.061.671-.395 1.195-1.076 1.414-.397.128-.803.127-1.179-.081a.586.586 0 0 0-.542-.029c-.872.346-1.72.3-2.53-.19-.195-.118-.378-.126-.59-.065a2.129 2.129 0 0 1-2.724-2.078M21.606 17.203c.266.007.487.229.477.48-.01.244-.252.464-.506.457a.458.458 0 0 1-.452-.47.454.454 0 0 1 .48-.467M12.091 2.005a.47.47 0 0 1 .517-.43.456.456 0 0 1 .427.514.479.479 0 0 1-.496.427.498.498 0 0 1-.448-.511M21.588 7.71a.448.448 0 0 1-.46-.454c-.004-.279.19-.472.47-.471.262 0 .487.217.485.468-.001.255-.221.459-.495.458M4.003 7.252c-.004.27-.188.458-.452.46-.29.001-.5-.206-.49-.481.009-.263.222-.453.498-.446.264.007.448.2.444.467M12.557 22.412c.263-.004.487.21.485.462a.456.456 0 0 1-.48.462.452.452 0 0 1-.469-.47.462.462 0 0 1 .464-.454M3.545 17.205c.26 0 .453.192.458.454a.458.458 0 0 1-.464.482.477.477 0 0 1-.478-.474c.001-.266.206-.461.484-.462"/>
  </g>
</svg>
