<svg width="25" height="25" xmlns="http://www.w3.org/2000/svg">
  <path d="M.508 16.406c.176-.273.332-.508.508-.781l.293.176c3.671 2.363 7.363 4.726 11.035 7.11.215.136.351.155.566 0 3.496-2.266 7.012-4.513 10.527-6.759.41-.254.625-.586.606-1.074-.02-.488 0-.976 0-1.543-.137.078-.254.137-.352.195-3.515 2.247-7.03 4.473-10.546 6.72-.43.273-.801.292-1.23.019-3.575-2.285-7.15-4.57-10.743-6.817C.39 13.164 0 12.52.039 11.582c.04-.684 0-1.367 0-2.05 0-.313.117-.548.39-.723C4.298 6.25 8.204 3.71 12.09 1.172c.157-.098.313-.234.49-.254.214-.02.468.02.624.137 3.79 2.402 7.578 4.804 11.367 7.226.586.371.547.996-.058 1.367l-8.73 5.508c-.86.547-1.72 1.055-2.56 1.621-.41.274-.761.274-1.19 0-3.555-2.246-7.15-4.492-10.723-6.738-.098-.059-.196-.117-.332-.195 0 .742-.02 1.445 0 2.148.02.352.273.586.566.762l8.496 5.39c.742.47 1.465.919 2.188 1.407.175.117.312.117.507 0 3.594-2.305 7.207-4.61 10.82-6.895.098-.058.196-.136.294-.176.527-.253 1.093.06 1.113.645.02.762.02 1.523 0 2.285-.02.664-.371 1.133-.938 1.485-2.382 1.523-4.765 3.046-7.148 4.59-1.25.8-2.52 1.6-3.77 2.421-.351.235-.664.235-1.015 0-3.79-2.46-7.617-4.922-11.426-7.383-.059-.02-.098-.058-.156-.117zM1.68 9.102c.078.078.156.117.215.175 3.515 2.207 7.03 4.414 10.527 6.621.176.118.293.079.45-.02 3.554-2.245 7.108-4.491 10.663-6.718.078-.058.176-.117.274-.195-.079-.059-.118-.098-.176-.137-3.555-2.265-7.11-4.531-10.684-6.797-.195-.136-.332-.058-.488.04-2.422 1.581-4.863 3.183-7.285 4.765-1.172.742-2.324 1.504-3.496 2.266z" fill="#2A8AC7" fill-rule="nonzero"/>
</svg>
