<svg width="25" height="25" xmlns="http://www.w3.org/2000/svg">
  <g fill-rule="nonzero" fill="none">
    <path fill="#EFD96F" d="M0 0h25v25H0z"/>
    <g transform="translate(3.25 9.15)" fill="#333">
      <path d="M14.537 0c-2.85 0-5.2 2.288-7.325 4.188-.612-.538-1.3-1.2-1.824-1.825-.05-.063-.125-.075-.163-.05a.107.107 0 0 0-.012.162c.487.6 1.137 1.325 1.75 1.937-1.138 1.075-2.875 2.375-4.276 2.375-2.825 0-2.837-3.912-.362-4.65.112-.025.112-.162 0-.124-3.238.8-3.063 5.362.425 5.362 1.662 0 3.188-1.112 4.725-2.425 1.662 1.5 3.763 2.725 6.463 2.725 6.85 0 6.65-7.675.6-7.675zm-.65 7.088c-2.162-.013-4.262-.963-6.1-2.4C9.875 2.875 11.988.8 14.476.8c4.85 0 4.975 6.325-.588 6.288z"/>
      <circle cx="3.8" cy="1.613" r="1"/>
    </g>
  </g>
</svg>
