<svg width="25" height="25" xmlns="http://www.w3.org/2000/svg">
  <g fill="#0082C6" fill-rule="nonzero">
    <path d="M14.626 11.535C25.56 13.595 10.684 25.164 0 14.69c12.6 8.4 19.09.506 14.531-2.94a.12.12 0 0 1-.023-.17.12.12 0 0 1 .118-.045z"/>
    <path d="M8.54 6.928c-9.46 3.153 1.378 10.59 2.319 6.833a.12.12 0 0 0-.087-.148.12.12 0 0 0-.067.002c-1.391.47-9.06-1.762-2.165-6.687z"/>
    <path d="M24.991 8.822C16.8 2.737 1.428 7.756 9.358 12.052a.12.12 0 0 0 .163-.05.123.123 0 0 0 .004-.108C6.3 4.797 22.68 6.956 24.991 8.822z"/>
    <path d="M18.194 17.665c4.33-2.052.809-9.07-4.92-7.715a.121.121 0 0 1-.143-.092.119.119 0 0 1 .042-.119c4.457-3.49 12.822 4.655 5.021 7.926z"/>
  </g>
</svg>
