<svg width="25" height="25" xmlns="http://www.w3.org/2000/svg">
  <defs>
    <linearGradient x1=".005%" y1="-31.636%" y2="-31.636%" id="a">
      <stop stop-color="#58B27A" offset="0%"/>
      <stop stop-color="#56AA75" offset="5%"/>
      <stop stop-color="#4A875D" offset="32%"/>
      <stop stop-color="#467A54" offset="46%"/>
      <stop stop-color="#466454" offset="100%"/>
    </linearGradient>
  </defs>
  <g fill-rule="nonzero" fill="none">
    <circle fill="#FFF" cx="12.5" cy="12.5" r="12.5"/>
    <path d="M18.368 16.19a2.5 2.5 0 0 1-.508-.075c-1.279-.337-1.794-1.553-1.794-1.553-.23-.469-.35-1.067-.403-1.696h1.926v-2.014H15.68c.047-.57.115-1.065.167-1.39.054-.346.193-.675.404-.954 1.264-1.655 3.573-.901 3.573-.901v-2.09c-3.39-.211-4.75 1.45-4.858 1.589l-.016.02c-.855 1.009-1.15 2.532-1.24 3.723h-1.158V5.323h-2.015v5.529H8.744V5.029H6.729v5.823H4.64v2.014h2.09v8.059h2.015v-8.059h1.793v4.251h2.015v-4.25h1.168c.226 2.981 2.075 4.176 2.075 4.176 1.572 1.105 4.447.712 4.447.712v-1.572c-.243.081-1.457.027-1.874.008z" fill="url(#a)"/>
    <path d="M12.525 1.153a1.25 1.25 0 0 1-.408.14s.068-.14.272-.156c0 0-.319-.11-.46-.272 0 0 .272.021.476.173 0 0-.303-.235-.33-.613 0 0 .335.298.413.585 0 0-.12-.402.063-.762 0 0 .146.386.026.768.112-.222.277-.412.48-.554 0 0-.03.324-.37.58.157-.077.327-.124.501-.136 0 0-.24.22-.522.246a.43.43 0 0 1 .298.14s-.293-.01-.44-.14zm2.432.32c-.14.039-.284.053-.429.042 0 0 .1-.121.3-.089 0 0-.283-.18-.382-.372 0 0 .259.084.421.28 0 0-.24-.3-.176-.672 0 0 .255.368.264.665 0 0-.023-.419.24-.726 0 0 .051.41-.155.752.16-.19.366-.336.597-.426 0 0-.106.308-.497.478a1.35 1.35 0 0 1 .52-.015s-.285.158-.566.117c.11.032.202.106.257.207 0 0-.282-.08-.394-.241zm2.582.83a1.251 1.251 0 0 1-.428-.045s.121-.1.313-.027c0 0-.242-.235-.301-.441 0 0 .237.134.357.358 0 0-.175-.341-.038-.693 0 0 .176.411.125.705 0 0 .062-.415.38-.664 0 0-.031.412-.302.706a1.49 1.49 0 0 1 .67-.297s-.166.28-.582.368a1.35 1.35 0 0 1 .512.09s-.31.096-.576 0a.43.43 0 0 1 .21.254s-.264-.134-.34-.314zm2.032 1.423a1.25 1.25 0 0 1-.407-.144s.14-.068.31.046c0 0-.182-.284-.192-.499 0 0 .2.185.266.433 0 0-.092-.373.121-.685 0 0 .077.441-.04.715 0 0 .156-.39.523-.559 0 0-.125.394-.456.618.225-.104.473-.15.72-.136 0 0-.225.235-.65.225.171.037.334.107.479.206 0 0-.324.022-.562-.132a.43.43 0 0 1 .144.295s-.223-.19-.256-.383zm1.653 1.7a1.25 1.25 0 0 1-.376-.212s.15-.043.298.1c0 0-.13-.312-.101-.525 0 0 .164.216.186.47 0 0-.025-.383.24-.65 0 0-.002.447-.166.696 0 0 .222-.357.613-.458 0 0-.193.366-.558.528.24-.063.492-.066.733-.006 0 0-.264.19-.68.105.16.067.308.164.432.286 0 0-.324-.036-.53-.229.071.09.104.203.091.317 0 0-.183-.226-.182-.423zm1.257 1.663a1.245 1.245 0 0 1-.33-.277s.155-.014.273.153c0 0-.07-.33-.003-.534 0 0 .122.244.096.496 0 0 .047-.38.356-.596 0 0-.084.44-.29.655 0 0 .283-.31.686-.338 0 0-.256.324-.645.416.247-.017.495.027.72.129 0 0-.294.14-.688-.021.147.095.274.217.374.36 0 0-.311-.094-.478-.324.053.1.065.219.031.328 0 0-.14-.254-.102-.447zm.925 2.313a1.248 1.248 0 0 1-.263-.34s.155.018.235.206c0 0 .002-.337.11-.522 0 0 .067.264-.011.504 0 0 .126-.362.474-.508 0 0-.175.413-.423.579 0 0 .343-.243.743-.185 0 0-.32.262-.72.27.246.035.479.131.678.279 0 0-.317.074-.668-.166.123.124.221.271.288.432 0 0-.285-.157-.4-.416a.429.429 0 0 1-.038.327s-.081-.28-.005-.46zm.37 2.259a1.248 1.248 0 0 1-.16-.4s.144.06.169.263c0 0 .095-.324.252-.471 0 0-.009.272-.15.482 0 0 .22-.313.595-.356 0 0-.282.347-.566.439 0 0 .397-.139.765.028 0 0-.38.163-.766.06.227.102.426.258.577.455 0 0-.324-.016-.596-.344.084.154.138.322.158.495 0 0-.23-.23-.27-.51a.428.428 0 0 1-.126.304s-.007-.293.117-.445zm-.175 2.604a1.248 1.248 0 0 1-.037-.43s.12.101.085.303c0 0 .185-.282.377-.379 0 0-.087.258-.284.418 0 0 .302-.235.673-.168 0 0-.371.25-.669.256 0 0 .42-.017.724.249 0 0-.41.046-.751-.165.187.164.33.372.416.605 0 0-.306-.11-.468-.505.036.171.039.348.008.52 0 0-.153-.288-.108-.567a.43.43 0 0 1-.21.252s.08-.278.244-.389zm-.702 2.625c-.02-.143-.016-.29.014-.432 0 0 .108.114.05.31 0 0 .216-.258.417-.332 0 0-.116.246-.33.382 0 0 .328-.199.688-.089 0 0-.396.206-.694.177 0 0 .419.031.69.331 0 0-.413 0-.727-.25.168.184.286.407.346.648 0 0-.292-.144-.41-.554.017.175-.001.35-.052.517 0 0-.119-.303-.042-.576a.428.428 0 0 1-.238.228s.114-.27.288-.36zm-1.137 1.958a1.25 1.25 0 0 1 .158-.401s.063.144-.058.308c0 0 .29-.17.504-.171 0 0-.193.192-.44.248 0 0 .376-.077.678.149 0 0-.444.059-.713-.069 0 0 .383.171.537.545 0 0-.388-.141-.6-.481.097.23.134.479.109.726 0 0-.225-.236-.198-.66a1.36 1.36 0 0 1-.224.468s-.01-.324.154-.556a.428.428 0 0 1-.3.134s.198-.214.393-.24zm-1.59 1.956c.039-.14.101-.272.184-.39 0 0 .054.147-.077.304 0 0 .301-.152.515-.14 0 0-.204.18-.455.22 0 0 .38-.053.668.19 0 0-.447.033-.707-.112 0 0 .372.195.504.577 0 0-.379-.165-.568-.517.08.234.102.485.061.73 0 0-.21-.248-.157-.67-.053.166-.139.32-.252.454 0 0 .01-.324.189-.545a.428.428 0 0 1-.309.114s.209-.201.405-.215zm-1.679 1.278a1.25 1.25 0 0 1 .252-.35s.026.155-.132.285c0 0 .324-.093.533-.042 0 0-.235.14-.489.132 0 0 .383.018.621.311 0 0-.445-.051-.674-.241 0 0 .33.26.387.66 0 0-.342-.233-.463-.613.036.246.01.497-.075.73 0 0-.16-.283-.03-.688a1.35 1.35 0 0 1-.332.4s.072-.318.287-.502a.43.43 0 0 1-.325.056s.247-.16.44-.138zm-2.147 1.048c.08-.12.181-.226.298-.312 0 0 .004.157-.17.264 0 0 .334-.048.533.031 0 0-.252.106-.501.064 0 0 .377.072.572.394 0 0-.432-.112-.635-.332 0 0 .291.303.293.707 0 0-.307-.277-.374-.671a1.49 1.49 0 0 1-.175.712s-.12-.302.065-.684a1.35 1.35 0 0 1-.384.35s.114-.305.353-.458a.429.429 0 0 1-.33.011s.265-.125.455-.076zm-2.445.696c.103-.1.224-.183.355-.244 0 0-.028.154-.22.223 0 0 .336.022.516.14 0 0-.268.052-.505-.04 0 0 .355.147.48.502 0 0-.402-.198-.554-.454 0 0 .223.356.142.752 0 0-.243-.334-.229-.734a1.49 1.49 0 0 1-.316.662s-.056-.321.204-.658c-.13.116-.283.206-.448.264 0 0 .174-.275.439-.375a.428.428 0 0 1-.324-.057s.284-.068.46.02zm-2.926-.053a1.25 1.25 0 0 1 .417-.11s-.078.135-.282.136c0 0 .31.133.438.305 0 0-.27-.041-.462-.207 0 0 .285.257.283.634 0 0-.311-.322-.368-.615 0 0 .09.41-.12.757 0 0-.116-.396.032-.768-.128.213-.307.39-.52.517 0 0 .054-.323.414-.551a1.352 1.352 0 0 1-.51.098s.256-.201.54-.206a.43.43 0 0 1-.288-.163s.29.031.426.173zM8.594 23.2c.145-.006.29.013.427.057 0 0-.124.096-.313.018 0 0 .235.241.288.45 0 0-.233-.142-.347-.368 0 0 .165.346.02.694 0 0-.165-.417-.106-.709 0 0-.072.414-.4.654 0 0 .044-.411.323-.698-.2.148-.433.244-.678.279 0 0 .173-.276.591-.352a1.352 1.352 0 0 1-.509-.104s.314-.088.577.015a.429.429 0 0 1-.203-.26s.258.141.33.324zm-2.2-1.153c.144.01.286.044.419.102 0 0-.134.082-.314-.015 0 0 .209.265.24.477 0 0-.216-.164-.307-.402 0 0 .128.36-.054.692 0 0-.12-.432-.03-.715 0 0-.117.403-.466.607 0 0 .087-.404.394-.66a1.492 1.492 0 0 1-.704.206s.202-.256.626-.289a1.354 1.354 0 0 1-.495-.157s.32-.054.572.076a.428.428 0 0 1-.174-.28s.24.17.293.358zm-1.917-1.672c.143.024.28.073.407.144 0 0-.142.068-.31-.047 0 0 .18.284.189.5 0 0-.2-.187-.264-.433 0 0 .09.373-.125.684 0 0-.075-.441.044-.714 0 0-.158.389-.526.556 0 0 .127-.393.46-.616a1.491 1.491 0 0 1-.72.132s.226-.233.651-.22a1.348 1.348 0 0 1-.476-.208s.324-.021.561.134a.428.428 0 0 1-.144-.296s.22.19.253.384zm-1.409-1.732c.125.072.237.166.33.277 0 0-.156.014-.274-.152 0 0 .07.33.004.533 0 0-.122-.243-.097-.496 0 0-.046.38-.355.597 0 0 .083-.44.288-.655 0 0-.284.31-.687.338 0 0 .257-.324.646-.417a1.489 1.489 0 0 1-.72-.128s.293-.14.687.02a1.357 1.357 0 0 1-.374-.36s.312.094.48.322a.428.428 0 0 1-.032-.328s.14.256.104.449zm-1.074-1.977c.12.08.226.181.311.298 0 0-.156.004-.264-.17 0 0 .05.334-.03.533 0 0-.108-.252-.065-.501 0 0-.07.377-.392.573 0 0 .111-.432.33-.635 0 0-.302.291-.706.294 0 0 .276-.307.67-.376a1.488 1.488 0 0 1-.713-.172s.303-.121.685.063a1.354 1.354 0 0 1-.351-.383s.305.113.458.351a.429.429 0 0 1-.011-.33s.127.266.078.455zm-.625-2.256c.093.111.166.238.216.374 0 0-.151-.04-.205-.237 0 0-.048.333-.18.502 0 0-.03-.27.08-.499 0 0-.174.342-.539.438 0 0 .23-.384.498-.515 0 0-.373.193-.761.081 0 0 .352-.216.75-.17a1.49 1.49 0 0 1-.638-.37s.324-.03.64.255A1.347 1.347 0 0 1 1 13.8s.26.195.34.468a.43.43 0 0 1 .082-.319s.045.29-.054.46zm-.198-2.396c.07.127.118.265.14.408 0 0-.141-.068-.156-.272 0 0-.111.318-.274.458 0 0 .022-.27.175-.474 0 0-.236.302-.613.326 0 0 .3-.333.588-.41 0 0-.403.119-.763-.066 0 0 .387-.144.768-.023a1.49 1.49 0 0 1-.551-.483s.324.033.576.374a1.35 1.35 0 0 1-.132-.504s.218.242.243.524a.429.429 0 0 1 .144-.298s-.013.294-.145.44zm.436-2.506c.05.136.077.28.079.424 0 0-.13-.088-.115-.292 0 0-.155.3-.336.415 0 0 .06-.265.24-.445 0 0-.277.265-.653.236 0 0 .344-.288.64-.322 0 0-.416.06-.746-.175 0 0 .404-.088.764.088a1.495 1.495 0 0 1-.477-.557s.316.078.519.452a1.354 1.354 0 0 1-.06-.516s.18.27.166.553a.427.427 0 0 1 .183-.274s-.054.288-.204.413zm.97-2.457c.004.145-.017.289-.063.427 0 0-.094-.126-.014-.314 0 0-.244.233-.453.284 0 0 .144-.232.372-.343 0 0-.348.16-.694.01 0 0 .418-.159.71-.097 0 0-.413-.078-.65-.406 0 0 .411.048.694.33a1.494 1.494 0 0 1-.27-.682s.273.177.344.597c.004-.175.04-.348.11-.508 0 0 .084.314-.022.576a.429.429 0 0 1 .262-.2s-.144.256-.327.326zm1.465-2.001c-.026.142-.076.279-.15.404 0 0-.065-.142.051-.31 0 0-.288.178-.501.184 0 0 .188-.197.435-.258 0 0-.374.085-.682-.133 0 0 .443-.07.715.051 0 0-.388-.162-.55-.531 0 0 .391.132.612.466a1.492 1.492 0 0 1-.124-.723s.23.23.213.655c.04-.17.112-.332.213-.474 0 0 .017.324-.141.56a.43.43 0 0 1 .298-.142s-.195.22-.39.25zm1.674-1.647a1.244 1.244 0 0 1-.23.364s-.036-.153.115-.292c0 0-.318.113-.53.072 0 0 .226-.152.48-.16 0 0-.383.004-.639-.274 0 0 .448.025.688.2 0 0-.345-.24-.426-.635 0 0 .355.211.499.585a1.488 1.488 0 0 1 .03-.733s.178.273.073.684c.074-.158.179-.3.308-.418 0 0-.052.321-.256.517a.43.43 0 0 1 .32-.075s-.236.176-.432.165zm1.819-1.169c-.07.127-.161.241-.27.337 0 0-.018-.156.146-.277 0 0-.327.077-.533.015 0 0 .24-.128.494-.108 0 0-.382-.036-.604-.342 0 0 .441.072.66.275 0 0-.316-.276-.353-.679 0 0 .33.25.432.636a1.493 1.493 0 0 1 .111-.721s.146.29-.005.688c.092-.149.211-.278.352-.382 0 0-.086.314-.31.486a.43.43 0 0 1 .326-.04s-.253.146-.446.112zm2.274-.776a1.25 1.25 0 0 1-.344.26s.021-.155.21-.233c0 0-.337-.006-.52-.117 0 0 .264-.064.504.018 0 0-.36-.13-.502-.48 0 0 .41.18.573.43 0 0-.238-.347-.175-.746 0 0 .258.325.26.723a1.49 1.49 0 0 1 .29-.674s.069.318-.176.665a1.35 1.35 0 0 1 .436-.283s-.161.283-.423.394a.43.43 0 0 1 .327.043s-.28.08-.46 0z" fill="#467A54"/>
  </g>
</svg>
