<svg width="25" height="25" xmlns="http://www.w3.org/2000/svg">
  <g fill="none" fill-rule="evenodd">
    <path d="M25 12.5C25 19.404 19.404 25 12.5 25S0 19.404 0 12.5 5.596 0 12.5 0 25 5.596 25 12.5" fill="#EF494D"/>
    <path d="M5.302 8.692H4.43a.391.391 0 0 0-.391.39v.913c0 .216.175.391.39.391h.872a.391.391 0 0 0 .39-.39v-.913a.391.391 0 0 0-.39-.391M6.28 9.083v6.834c0 .216.175.391.39.391h1.232a.391.391 0 0 0 .39-.39v-5.336c0-.108.088-.196.196-.196h1.649a.391.391 0 0 0 .39-.39v-.913a.391.391 0 0 0-.39-.391H6.67a.391.391 0 0 0-.391.39M14.124 16.308h1.562a.196.196 0 0 0 .162-.085l1.329-1.952a.196.196 0 0 1 .323 0l1.325 1.952a.196.196 0 0 0 .162.085h1.582a.391.391 0 0 0 .32-.616l-2.243-3.186a.196.196 0 0 1-.002-.223l2.022-2.98a.391.391 0 0 0-.323-.611h-1.521a.196.196 0 0 0-.16.083l-4.858 6.917a.391.391 0 0 0 .32.616M13.099 15.917V9.083a.391.391 0 0 0-.392-.391h-1.23a.391.391 0 0 0-.392.39v6.835c0 .216.175.391.392.391h1.23a.391.391 0 0 0 .392-.39M16.967 10.173l-.921-1.394a.196.196 0 0 0-.164-.087h-1.53c-.314 0-.5.353-.322.612l.954 1.39a.196.196 0 0 0 .161.086h1.495a.391.391 0 0 0 .327-.607" fill="#FFF"/>
  </g>
</svg>
