<svg width="25" height="25" xmlns="http://www.w3.org/2000/svg" xmlns:xlink="http://www.w3.org/1999/xlink">
  <defs>
    <path id="a" d="M0 24.974h20.829V0H0z"/>
  </defs>
  <g transform="translate(2)" fill="none" fill-rule="evenodd">
    <path d="M7.517 7.319v.136c0 2.253 2.895 3.455 2.986 3.492V2.655c-.09.086-2.986 2.862-2.986 4.664" fill="#5CFF96"/>
    <path d="M10.503 2.655v8.292c.09-.037 2.986-1.24 2.986-3.492v-.136c0-1.802-2.895-4.578-2.986-4.664" fill="#00B269"/>
    <path d="M10.448 10.757S9.23 9.625 6.932 9.778c-2.299.155-3.345 3.273-4.8 3.171 0 0 2.51 2.043 4.68 2.398 1.954.298 3.976-1.158 3.636-4.59" fill="#5CFF96"/>
    <path d="M10.504 10.675s.506-.504 1.715-.776a5.849 5.849 0 0 1 1.677-.12c2.299.154 3.345 3.272 4.801 3.17 0 0-2.51 2.042-4.68 2.398-1.587.242-3.22-.673-3.594-2.864-.087-.507.017-1.163.08-1.808" fill="#00B269"/>
    <path d="M10.414 20.926l-10.39-6v-9.89L10.413 0l10.391 5.036v9.89l-10.39 6zM1.09 14.31l9.325 5.384 9.325-5.384V5.703l-9.325-4.519-9.325 4.52v8.607z" fill="#241F21"/>
    <mask id="b" fill="#fff">
      <use xlink:href="#a"/>
    </mask>
    <path fill="#241F21" mask="url(#b)" d="M10.18 20.31h.5v-9.635h-.5z"/>
    <path fill="#54BD87" mask="url(#b)" d="M10.479 24.397L0 18.347v.577l10.479 6.05 10.35-5.976v-.576z"/>
    <path fill="#54BD87" mask="url(#b)" d="M0 17.18v.577l10.479 6.05 10.35-5.975v-.577l-10.35 5.975z"/>
    <path fill="#54BD87" mask="url(#b)" d="M10.479 22.64l10.35-5.975v-.577l-10.35 5.976L0 16.014v.576z"/>
    <path fill="#241F21" mask="url(#b)" d="M10.414 11.223L.446 5.93l.22-.414 9.748 5.176 9.748-5.176.22.414z"/>
  </g>
</svg>
