<svg width="25" height="25" xmlns="http://www.w3.org/2000/svg">
  <g fill="none" fill-rule="nonzero">
    <circle fill="#30C0F2" cx="12.5" cy="12.5" r="12.5"/>
    <path d="M7.909 5.469h9.198s.244 1.214 1.547 1.295c0 0 4.314 10.04-6.187 14.33 0 0-9.687-3.077-6.268-14.249 0 0 1.466-.08 1.71-1.376zm8.71.799H8.402l-.011.175c-.069.382-.26.648-.54.828-.175.11-.37.182-.573.212l-.143.014-.041.139c-.757 2.586-.783 4.82-.187 6.727.49 1.562 1.374 2.843 2.54 3.867.616.54 1.298 1 2.028 1.37.242.122.469.223.671.304.123.05.213.081.262.098l.077.023.074-.031c2.895-1.238 4.647-3.108 5.431-5.438.648-1.922.59-3.968.107-5.905a11.113 11.113 0 0 0-.369-1.184l-.05-.123-.133-.009c-.38-.025-.621-.18-.77-.428a1.068 1.068 0 0 1-.145-.437l-.01-.202z" fill="#FFF"/>
    <path d="M8.772 6.694c4.974 0 7.46.001 7.46.002.035.146.09.292.173.43.2.332.52.556.97.62.119.33.22.667.305 1.008.466 1.866.52 3.833-.097 5.667-.738 2.193-2.38 3.959-5.118 5.149a7.983 7.983 0 0 1-.796-.351A9.325 9.325 0 0 1 9.73 17.91c-1.11-.975-1.95-2.19-2.414-3.674-.561-1.793-.546-3.901.151-6.355.217-.05.425-.135.613-.253.332-.212.576-.521.692-.935z" fill="#F9B631"/>
    <path d="M14.522 11.055c.37 0 .67.298.673.668v2.793a.672.672 0 0 1-.672.668h-4.03a.672.672 0 0 1-.672-.668v-2.793a.672.672 0 0 1 .672-.668h.174c.023-1.12.621-1.567 1.123-1.746a2.04 2.04 0 0 1 1.128-.051c1.285.287 1.39 1.322 1.367 1.797h.237zm-1.567 3.158l-.236-1.178a.526.526 0 1 0-.211-1.008.526.526 0 0 0-.211 1.008l-.237 1.178h.895zm-1.709-3.158h2.388c.022-1.365-1.248-1.296-1.248-1.296-.963.064-1.118.93-1.14 1.296z" fill="#FFF"/>
  </g>
</svg>
