<svg width="25" height="25" xmlns="http://www.w3.org/2000/svg">
  <g fill-rule="nonzero" fill="none">
    <path d="M24.958 12.529c0 6.87-5.568 12.438-12.438 12.438-6.87 0-12.438-5.569-12.438-12.438C.082 5.659 5.651.091 12.52.091c6.87 0 12.438 5.569 12.438 12.438" fill="#020100"/>
    <path d="M20.31 9.29c-.702-.491-1.454-1.015-2.189-1.535a.594.594 0 0 0-.052-.037.988.988 0 0 0-.289-.162l-.008-.004c-1.966-.475-3.964-.963-5.897-1.434-1.755-.426-3.505-.853-5.26-1.28l-.138-.036c-.158-.044-.341-.093-.536-.069a.373.373 0 0 0-.15.057l-.05.04a.596.596 0 0 0-.137.22l-.012.032v.187l.008.029c1.109 3.107 2.246 6.258 3.342 9.309.845 2.347 1.722 4.78 2.58 7.168.052.163.203.268.39.284h.04a.458.458 0 0 0 .406-.223l3.217-4.69 2.351-3.429.963-1.405c.528-.772 1.072-1.568 1.612-2.344l.029-.04v-.049c.012-.142.016-.435-.22-.589M16.541 11c-.755.394-1.527.8-2.302 1.202l1.356-1.454c.565-.609 1.154-1.239 1.73-1.856l.012-.012c.05-.065.11-.126.175-.19.045-.046.094-.09.138-.143.3.207.605.418.898.625.211.15.426.3.646.451-.894.455-1.787.922-2.653 1.377m-1.941-.195c-.58.63-1.182 1.275-1.779 1.913-1.157-1.405-2.34-2.83-3.485-4.208L7.773 6.63l-.004-.004c-.118-.134-.232-.28-.346-.419-.073-.093-.15-.182-.227-.276a64.9 64.9 0 0 0 1.413.346c.41.097.837.199 1.255.304L16.935 8.3c-.783.837-1.571 1.686-2.335 2.506m-2.043 7.916c.045-.427.094-.865.134-1.296.037-.345.073-.698.11-1.035.057-.54.118-1.101.166-1.65l.013-.097c.04-.35.08-.71.105-1.072a1.22 1.22 0 0 1 .146-.07c.061-.028.122-.052.183-.088.938-.492 1.877-.983 2.819-1.47.938-.488 1.9-.992 2.855-1.491a810.15 810.15 0 0 0-2.587 3.769c-.727 1.06-1.474 2.152-2.218 3.229-.292.43-.597.869-.885 1.291-.325.471-.658.955-.983 1.438.04-.487.09-.979.142-1.458M6.895 6.89c-.052-.146-.11-.297-.158-.439 1.097 1.324 2.201 2.656 3.278 3.948.556.67 1.112 1.336 1.669 2.01.11.126.22.26.325.39.138.167.276.341.426.508-.048.418-.09.84-.134 1.247-.028.284-.057.568-.09.857v.004c-.011.183-.036.365-.056.544l-.093.808-.004.029c-.074.82-.163 1.649-.248 2.453-.037.333-.07.674-.106 1.015-.02-.06-.044-.122-.065-.178-.06-.163-.122-.333-.178-.5l-.435-1.206c-1.377-3.83-2.754-7.656-4.13-11.49" fill="#FFF"/>
  </g>
</svg>
