<svg width="25" height="25" xmlns="http://www.w3.org/2000/svg">
  <g fill="none" fill-rule="evenodd">
    <path d="M3.175 12.375c0-5.39 5.162-10.11 11.436-10.11 3.9 0 7.25 1.875 9.227 4.589C21.976 2.96 17.782 0 12.776 0c-6.794 0-11.75 4.88-11.75 10.719 0 3.941 2.452 7.419 6.136 9.263-2.424-1.931-3.987-4.698-3.987-7.608" fill="#606161"/>
    <path d="M22.207 12.596c0 5.391-5.162 10.11-11.435 10.11-3.9 0-7.25-1.875-9.227-4.588C3.407 22.01 7.6 24.97 12.606 24.97c6.795 0 11.75-4.88 11.75-10.719 0-3.94-2.145-7.622-6.135-9.263 2.76 1.686 3.986 4.699 3.986 7.608" fill="#5DC9BC"/>
    <path d="M9.987 7.377c-1.942 0-2.804 2.162-2.804 2.162h4.357l.007 9.038s2.38-.873 2.38-2.842V9.54h1.778c1.265 0 2.511-2.162 2.511-2.162H9.987" fill="#606161"/>
  </g>
</svg>
