<svg width="25" height="25" xmlns="http://www.w3.org/2000/svg">
  <g fill-rule="nonzero" fill="none">
    <path d="M12.493 0C5.604 0 0 5.604 0 12.493c0 6.888 5.604 12.492 12.493 12.492 6.888 0 12.492-5.604 12.492-12.492C24.985 5.604 19.38 0 12.493 0zm0 24.189c-6.45 0-11.697-5.247-11.697-11.696C.796 6.043 6.043.796 12.493.796c6.449 0 11.696 5.247 11.696 11.697 0 6.449-5.247 11.696-11.696 11.696z" fill="#1D1D1B"/>
    <circle fill="#128ACF" cx="12.493" cy="5.544" r="2.529"/>
    <circle fill="#128ACF" cx="5.956" cy="15.295" r="2.529"/>
    <path d="M6.418 11.858a6.116 6.116 0 0 1 3.027-4.655 3.454 3.454 0 0 1-.415-1.866 7.962 7.962 0 0 0-4.478 6.786 3.455 3.455 0 0 1 1.866-.265zM18.565 11.844a3.456 3.456 0 0 1 1.87.331 7.961 7.961 0 0 0-4.48-6.838 3.455 3.455 0 0 1-.415 1.866 6.116 6.116 0 0 1 3.025 4.641zM16.147 17.383a6.075 6.075 0 0 1-3.654 1.217 6.074 6.074 0 0 1-3.726-1.273 3.48 3.48 0 0 1-1.476 1.17 7.915 7.915 0 0 0 5.202 1.946 7.915 7.915 0 0 0 5.166-1.915 3.48 3.48 0 0 1-1.512-1.145z" fill="#1D1D1B"/>
    <circle fill="#128ACF" cx="18.917" cy="15.295" r="2.529"/>
    <path d="M12.493 1.682c-5.961 0-10.81 4.85-10.81 10.81 0 5.961 4.849 10.81 10.81 10.81 5.96 0 10.81-4.849 10.81-10.81 0-5.96-4.85-10.81-10.81-10.81zm6.424 17.082c-.105 0-.21-.005-.312-.014a8.723 8.723 0 0 1-6.112 2.495 8.723 8.723 0 0 1-6.124-2.506 3.47 3.47 0 0 1-2.627-6.114l-.002-.132c0-3.672 2.274-6.823 5.487-8.12a3.47 3.47 0 0 1 6.531 0c3.213 1.297 5.486 4.448 5.486 8.12 0 .076 0 .152-.002.228a3.47 3.47 0 0 1-2.325 6.044z" fill="#128ACF"/>
  </g>
</svg>
