<svg width="25" height="25" xmlns="http://www.w3.org/2000/svg">
  <g fill="#0B223D" fill-rule="nonzero">
    <path d="M14.672 14.447c-.123-.185-.328-.328-.594-.492a8.907 8.907 0 0 0-1.045-.471v4.098c1.29-.164 1.947-.82 1.947-2.008 0-.267-.021-.472-.062-.635a1.228 1.228 0 0 0-.246-.492z"/>
    <path d="M12.5 0C5.594 0 0 5.594 0 12.5S5.594 25 12.5 25 25 19.406 25 12.5 19.406 0 12.5 0zm4.836 17.459c-.246.533-.594.963-1.045 1.27-.45.328-.943.574-1.475.738-.533.185-1.127.287-1.783.328v2.008h-1.004v-1.987a9.44 9.44 0 0 1-2.664-.492c-.84-.287-1.517-.676-2.008-1.168l1.086-1.845c.43.349 1.004.636 1.68.882.676.246 1.311.389 1.906.43v-4.467a3.756 3.756 0 0 1-.39-.123c-.164-.062-.328-.103-.45-.144a3.869 3.869 0 0 1-.37-.123c-1.208-.45-2.09-1.004-2.643-1.618-.553-.615-.82-1.476-.82-2.541 0-1.23.43-2.173 1.292-2.87.86-.696 1.987-1.065 3.38-1.126V3.156h1.005V4.61c1.106.04 1.987.184 2.643.43.656.266 1.27.676 1.885 1.25l-1.311 1.7c-.8-.757-1.865-1.147-3.217-1.188v4.099c.778.266 1.27.43 1.475.491 1.21.472 2.029 1.025 2.5 1.64.472.615.717 1.475.717 2.582 0 .717-.123 1.332-.389 1.844z"/>
    <path d="M10.102 8.504c0 .533.123.922.37 1.21.245.286.758.573 1.577.86v-3.71c-.594.083-1.065.267-1.414.534-.369.266-.533.635-.533 1.106z"/>
  </g>
</svg>
