<svg width="25" height="25" xmlns="http://www.w3.org/2000/svg">
  <g fill-rule="nonzero" fill="none">
    <path d="M24.978 12.496c0 6.869-5.569 12.437-12.438 12.437-6.87 0-12.438-5.568-12.438-12.437C.102 5.626 5.671.058 12.54.058c6.87 0 12.438 5.568 12.438 12.438" fill="#1BA27A"/>
    <path fill="#FFF" d="M18.377 6.33H6.6v2.843h4.467v4.18h2.843v-4.18h4.467z"/>
    <path d="M12.516 13.797c-3.696 0-6.692-.585-6.692-1.306 0-.721 2.996-1.306 6.692-1.306 3.695 0 6.69.585 6.69 1.306 0 .721-2.995 1.306-6.69 1.306m7.513-1.088c0-.93-3.364-1.685-7.513-1.685-4.15 0-7.514.754-7.514 1.685 0 .819 2.609 1.502 6.065 1.653v6h2.843v-5.998c3.483-.146 6.119-.832 6.119-1.655" fill="#FFF"/>
  </g>
</svg>
