<svg width="25" height="25" xmlns="http://www.w3.org/2000/svg">
  <g fill="none" fill-rule="evenodd">
    <path d="M17.1 2.108L14.157.487a3.55 3.55 0 0 0-1.713-.44v11.218a.955.955 0 0 0 .788-.41l4.43-6.333a1.666 1.666 0 0 0-.56-2.414" fill="#4480B5"/>
    <path d="M22.616 4.932L19.743 3.35c1.027.8 1.28 2.29.508 3.392l-6.63 9.474c-.286.41-.732.614-1.178.614v8.103c.651 0 1.302-.299 1.72-.896l9.68-13.832a3.638 3.638 0 0 0-1.227-5.273" fill="#41494E"/>
    <path d="M7.785 2.108L10.73.487a3.55 3.55 0 0 1 1.713-.44v11.218a.955.955 0 0 1-.788-.41L7.224 4.522a1.666 1.666 0 0 1 .561-2.414" fill="#81ACCD"/>
    <path d="M2.27 4.932L5.142 3.35a2.492 2.492 0 0 0-.508 3.392l6.63 9.474c.286.41.732.614 1.178.614v8.103a2.086 2.086 0 0 1-1.72-.896l-9.68-13.832A3.638 3.638 0 0 1 2.27 4.932" fill="#55646D"/>
  </g>
</svg>
