<svg width="25" height="25" xmlns="http://www.w3.org/2000/svg">
  <g fill-rule="nonzero" fill="none">
    <circle fill="#F89022" cx="12.5" cy="12.5" r="12.5"/>
    <path d="M21.875 14.814h-1.847l-1.31-1.122-1.305 1.117h-1.561l-.747-.906h-2.571l.65-.804h1.265l-.963-1.178-3.363 4.095h-1.56l.973-1.19H7.91l-.879-2.463-.872 2.445H4.51L3.125 10.97h1.266l.93 2.614.929-2.603h1.563l.925 2.597.925-2.598h1.27l-1.397 3.847.31-.38 2.854-3.473h1.57l2.375 2.897 1.142-.982-3.615-3.123h1.855l5.848 5.048zm-1.832-2.322l-.871-.747.87-.74 1.757.001-1.756 1.486z" fill="#FFF"/>
  </g>
</svg>
