<svg width="25" height="25" xmlns="http://www.w3.org/2000/svg">
  <path d="M9.143 9.568l1.71-1.71a.485.485 0 0 0 0-.686L8.686 5.006H3.669L0 8.676v4.992l3.67 3.67h5.167l8.899-8.9h2.21l1.64 1.642v2.115l-1.681 1.682h-2.431l-.947-.947a.485.485 0 0 0-.687 0l-2.098 2.099v4.994c0 .268.217.485.485.485h2.512a.485.485 0 0 0 .485-.485v-1.986c0-.4.324-.724.724-.724h3.445L25 13.706v-5.03L21.324 5h-5.098L7.36 13.865H5.167L3.484 12.18v-2.107l1.59-1.59H7.29L8.47 9.58c.191.178.49.173.674-.012" fill="#ED1650" fill-rule="evenodd"/>
</svg>
