<svg width="25" height="25" xmlns="http://www.w3.org/2000/svg">
  <g fill="none" fill-rule="evenodd">
    <path d="M16.48 21.118c0 2.136-1.793 3.867-4.006 3.867s-4.007-1.731-4.007-3.867 1.794-3.867 4.007-3.867c2.213 0 4.006 1.731 4.006 3.867" fill="#26B24C"/>
    <path d="M24.494 16.949c0 1.923-1.616 3.482-3.608 3.482-1.993 0-3.608-1.56-3.608-3.482 0-1.924 1.615-3.482 3.608-3.482 1.992 0 3.608 1.558 3.608 3.482M5.553 8.395c0 1.48-1.243 2.68-2.776 2.68-1.534 0-2.777-1.2-2.777-2.68 0-1.48 1.243-2.68 2.777-2.68 1.533 0 2.776 1.2 2.776 2.68" fill="#CECCCC"/>
    <path d="M18.95 2.206c0 1.21-1.017 2.192-2.271 2.192s-2.27-.982-2.27-2.192c0-1.21 1.016-2.191 2.27-2.191s2.27.98 2.27 2.191" fill="#26B24C"/>
    <path d="M22.223 5.715a2.81 2.81 0 0 0-2.17 1.008c-.056.09-.12.176-.188.258a2.808 2.808 0 0 1-2.17 1.009c-.768 0-1.461-.3-1.964-.785l-.013.013a4.598 4.598 0 0 0-2.944-1.25v-.01c-1.256-.07-2.253-1.078-2.253-2.309a2.254 2.254 0 0 1 .15-.806c.042-.163.063-.333.063-.507 0-1.209-1.015-2.188-2.267-2.188S6.2 1.128 6.2 2.336c0 .935.609 1.732 1.463 2.045v.003c.916.323 1.571 1.173 1.571 2.172a2.232 2.232 0 0 1-.528 1.448 4.24 4.24 0 0 0-.685 2.668l-.02.001c.005.059.007.118.007.177 0 1.477-1.24 2.673-2.77 2.673-.107 0-.214-.006-.319-.018a2.124 2.124 0 0 1-.23-.034c-.003-.002-.005-.002-.009-.002a3.563 3.563 0 0 0-.421-.024c-1.957 0-3.544 1.531-3.544 3.42 0 1.89 1.587 3.421 3.544 3.421 1.92 0 3.482-1.473 3.54-3.313h.006c.074-1.413 1.285-2.536 2.767-2.536a2.894 2.894 0 0 1 .952.162l.003.001c.325.073.665.11 1.013.11 1.908 0 3.54-1.137 4.209-2.75l.034.013c.421-.962 1.408-1.637 2.558-1.637.52 0 1.009.138 1.425.38l.017-.03c.42.246.913.388 1.44.388 1.534 0 2.777-1.199 2.777-2.679 0-1.48-1.243-2.68-2.777-2.68" fill="#343433"/>
  </g>
</svg>
