<svg width="25" height="25" xmlns="http://www.w3.org/2000/svg">
  <g fill-rule="nonzero" fill="none">
    <path d="M19.44 19.08c.187-4.354-2.326-6.48-3.694-7.301-.908-.548-1.654-1.331-2.102-2.289-1.604-3.383.71-6.082.71-6.082 1.405-1.754 3.158-2.687 5.621-2.152a24.485 24.485 0 0 1 4.938 2.202v.124A24.5 24.5 0 0 1 19.44 19.08" fill="#67AFE2"/>
    <path d="M16.754 21.903a24.67 24.67 0 0 1-4.254 3.072A24.645 24.645 0 0 1 1.729 12.463c1.903.982 4.229 1.828 5.87 1.293 3.272-1.057 5.647-2.81 8.806.025 1.78 1.592 2.152 3.644 1.73 5.746a4.493 4.493 0 0 1-1.381 2.376" fill="#1EBBAD"/>
    <path d="M16.716.46c-1.952.759-4.502 2.363-4.714 5.622v.162c-.024.808.025 4.9-4.141 6.293 0 0-2.973 1.033-5.46-1.082C1.38 10.585.72 9.378.472 8.06a25.538 25.538 0 0 1-.41-4.602A24.48 24.48 0 0 1 12.487.1c1.442 0 2.86.124 4.228.36" fill="#F7A800"/>
  </g>
</svg>
