<svg width="25" height="25" xmlns="http://www.w3.org/2000/svg">
  <g fill-rule="nonzero" fill="none">
    <path d="M18.925.288c.808-.146 1.648-.33 2.467-.181.438.291.475.895.625 1.358.531 2.432.536 5.198-.885 7.342-.912 1.21-1.907 2.355-2.879 3.516 1.29 2.264.489 5.077-.971 7.054-.175-.617-.199-1.269-.439-1.867a5.975 5.975 0 0 0-1.288-2.027c-.262.235-.512.552-.89.579-.402.046-.757-.184-1.077-.394-1.33-.95-2.666-1.89-3.998-2.836-.292-.22-.597-.477-.687-.849-.103-.358.09-.7.209-1.025-1.335-.575-2.822-.583-4.215-.235 1.323-2.07 3.71-3.748 6.268-3.383.757-1.297 1.485-2.61 2.295-3.875 1.257-1.792 3.385-2.73 5.465-3.177zm-.94.882c-1.612.498-3.213 1.368-4.138 2.828-1.447 2.369-2.792 4.797-4.145 7.22-.109.22-.279.48-.144.729.184.253.454.425.702.608 1.243.868 2.473 1.758 3.717 2.628.265.194.68.425.925.074a196.114 196.114 0 0 0 5.443-6.427c.668-.808 1.06-1.813 1.237-2.84.295-1.77.11-3.608-.449-5.31-1.068-.022-2.128.182-3.148.49z" fill="#5B6A72"/>
    <path d="M16.233 3.603c1.38-.528 3.042.459 3.275 1.909.325 1.43-.868 2.966-2.341 2.975-1.31.111-2.554-.995-2.62-2.304-.114-1.113.626-2.231 1.686-2.58zm.139.61c-.672.249-1.154.907-1.21 1.617-.109 1.042.785 2.045 1.835 2.048 1.136.062 2.131-1.075 1.911-2.195-.148-1.14-1.47-1.925-2.536-1.47zM6.048 19.818l.247.184c-1.032 1.508-2.118 2.98-3.158 4.483-.149.13-.217.487-.48.367-.179-.237.156-.42.24-.62 1.063-1.462 2.078-2.96 3.151-4.414zM4.418 24.177a51.485 51.485 0 0 1 2.054-2.915l.3.058a39.969 39.969 0 0 1-2.062 2.915l-.292-.058z" fill="#5B6A72"/>
    <path d="M17.985 1.17c1.02-.308 2.08-.512 3.148-.49.559 1.702.744 3.54.449 5.31-.177 1.027-.569 2.032-1.237 2.84a196.114 196.114 0 0 1-5.443 6.427c-.245.351-.66.12-.925-.074-1.244-.87-2.474-1.76-3.717-2.628-.248-.183-.518-.355-.702-.608-.135-.249.035-.509.144-.729 1.353-2.423 2.698-4.851 4.145-7.22.925-1.46 2.526-2.33 4.138-2.828zm-1.752 2.433c-1.06.349-1.8 1.467-1.686 2.58.066 1.309 1.31 2.415 2.62 2.304 1.473-.009 2.666-1.545 2.341-2.975-.233-1.45-1.895-2.437-3.275-1.909z" fill="#DCF2F9"/>
    <path d="M16.372 4.213c1.066-.455 2.388.33 2.536 1.47.22 1.12-.775 2.257-1.911 2.195-1.05-.003-1.944-1.006-1.835-2.048.056-.71.538-1.368 1.21-1.617z" fill="#FEFEFE"/>
    <path d="M9.59 12.832c1.332.946 2.668 1.886 3.998 2.836-.7 1.162-1.688 2.205-2.943 2.759-.688.296-1.633.38-2.172-.24-.57-.629-.501-1.555-.381-2.334a7.006 7.006 0 0 1 1.498-3.021z" fill="#ED9E17"/>
  </g>
</svg>
