<svg width="25" height="25" xmlns="http://www.w3.org/2000/svg">
  <g fill-rule="nonzero" fill="none">
    <circle fill="#004A80" cx="12.5" cy="12.5" r="12.5"/>
    <path d="M17.969 15.266L16.81 19.53H7.031v-.713l5.305-6.03-5.198-6.544v-.775h9.634l.336 3.322h-.617c-.407-.757-.753-1.324-1.038-1.7-.284-.375-.538-.609-.762-.702a2.092 2.092 0 0 0-.651-.164 8.5 8.5 0 0 0-.995-.05H10.31l4.1 5.109v.246l-5.068 5.754h5.785c.284 0 .545-.068.781-.204.236-.135.44-.306.613-.51.173-.2.333-.427.48-.683.149-.256.279-.523.39-.798l.579.177z" fill="#FFF"/>
  </g>
</svg>
