<svg width="25" height="25" xmlns="http://www.w3.org/2000/svg">
  <g fill="#046" fill-rule="evenodd">
    <path d="M8.21 19.255l-3.716 2.833A12.455 12.455 0 0 1 0 12.497c0-2.27.606-4.398 1.664-6.232l5.685 7.437-2.109 2.195a8.509 8.509 0 0 0 2.97 3.358M19.24 16.769l2.833 3.717a12.455 12.455 0 0 1-9.59 4.493c-2.27 0-4.398-.605-6.232-1.664l7.436-5.685 2.195 2.109a8.506 8.506 0 0 0 3.358-2.97M16.754 5.74l3.717-2.834a12.455 12.455 0 0 1 4.493 9.59c0 2.27-.605 4.399-1.664 6.233l-5.685-7.437 2.109-2.195a8.51 8.51 0 0 0-2.97-3.358M5.725 8.225L2.89 4.508A12.455 12.455 0 0 1 12.482.015c2.27 0 4.398.605 6.232 1.664l-7.437 5.685-2.195-2.109a8.507 8.507 0 0 0-3.357 2.97"/>
  </g>
</svg>
