<svg width="25" height="25" xmlns="http://www.w3.org/2000/svg">
  <defs>
    <path d="M0 .045h6.85v2.462H0V.045zm.86.478a.607.607 0 0 0-.225.038.465.465 0 0 0-.159.1.419.419 0 0 0-.125.284c0 .039.011.07.034.092.022.022.05.033.084.033.038 0 .068-.012.088-.036A.347.347 0 0 0 .61.929.506.506 0 0 1 .644.846a.237.237 0 0 1 .21-.117c.041 0 .08.01.116.029a.214.214 0 0 1 .115.195c0 .04-.01.081-.03.123a.47.47 0 0 1-.083.122.897.897 0 0 1-.139.118 1.606 1.606 0 0 0-.155.131 5.831 5.831 0 0 0-.244.24.347.347 0 0 0-.06.095.252.252 0 0 0-.027.097c0 .038.014.071.043.1a.162.162 0 0 0 .118.041h.747c.045 0 .078-.011.1-.034a.117.117 0 0 0 .033-.085.106.106 0 0 0-.041-.088.193.193 0 0 0-.121-.032h-.53a.584.584 0 0 1 .05-.066c.038-.046.108-.11.21-.194a6.85 6.85 0 0 0 .217-.183.712.712 0 0 0 .128-.162.433.433 0 0 0-.052-.515.398.398 0 0 0-.125-.09A.65.65 0 0 0 .86.524zm5.477.01h-.796a.254.254 0 0 0-.105.018.12.12 0 0 0-.06.06.25.25 0 0 0-.02.106v1.118c0 .065.015.112.044.142.028.029.076.043.141.043h.82c.047 0 .082-.01.106-.033a.111.111 0 0 0 .036-.086.113.113 0 0 0-.036-.087c-.024-.022-.06-.033-.107-.033h-.702v-.424h.625c.047 0 .081-.01.104-.032a.11.11 0 0 0 .033-.082.105.105 0 0 0-.034-.082c-.022-.02-.057-.03-.103-.03h-.625V.764h.679c.048 0 .084-.01.107-.032A.11.11 0 0 0 6.48.648a.108.108 0 0 0-.035-.084C6.421.543 6.385.532 6.337.532zM2.344.506a.938.938 0 0 0-.326.053.651.651 0 0 0-.397.398.933.933 0 0 0-.052.318.91.91 0 0 0 .053.32.657.657 0 0 0 .393.397 1.046 1.046 0 0 0 .844-.087.39.39 0 0 0 .078-.053.144.144 0 0 0 .04-.062.3.3 0 0 0 .012-.09v-.286a.203.203 0 0 0-.027-.115.12.12 0 0 0-.07-.05.437.437 0 0 0-.107-.011h-.342a.14.14 0 0 0-.098.032.106.106 0 0 0-.036.082c0 .041.014.07.043.087a.255.255 0 0 0 .127.025h.234v.242a.996.996 0 0 1-.186.078.683.683 0 0 1-.197.027.417.417 0 0 1-.335-.141c-.08-.094-.12-.228-.12-.403 0-.08.01-.154.03-.22a.473.473 0 0 1 .09-.168.386.386 0 0 1 .14-.105.46.46 0 0 1 .187-.036c.068 0 .123.01.167.03.044.021.078.046.104.076.026.03.057.074.094.132a.142.142 0 0 0 .214.018.129.129 0 0 0 .042-.097.262.262 0 0 0-.036-.121.45.45 0 0 0-.109-.129.586.586 0 0 0-.188-.101.81.81 0 0 0-.266-.04zm1.093 0a.139.139 0 0 0-.107.046c-.028.03-.042.076-.042.137v1.172c0 .06.014.107.042.137.028.031.064.047.107.047A.143.143 0 0 0 3.547 2c.029-.03.043-.077.043-.138V.69c0-.062-.014-.108-.042-.138a.144.144 0 0 0-.11-.045zm1.551 0a.128.128 0 0 0-.083.025.146.146 0 0 0-.044.056c-.008.02-.022.057-.04.11l-.337 1.004-.337-.997a.628.628 0 0 0-.066-.15C4.06.522 4.024.506 3.972.506a.14.14 0 0 0-.104.043.133.133 0 0 0-.042.094.407.407 0 0 0 .023.105L3.868.8l.354.964.039.106a.46.46 0 0 0 .045.089c.017.026.04.047.068.063a.206.206 0 0 0 .103.024c.04 0 .075-.009.103-.025a.2.2 0 0 0 .067-.062.45.45 0 0 0 .045-.089c.013-.033.026-.068.038-.106l.36-.972A3.29 3.29 0 0 1 5.11.741a.437.437 0 0 0 .015-.05.21.21 0 0 0 .006-.05.142.142 0 0 0-.142-.135z" id="a"/>
  </defs>
  <g fill="none" fill-rule="evenodd">
    <g fill-rule="nonzero">
      <path d="M.08 13.114s.174-.083.463-.258c.145-.086.318-.193.509-.328.193-.13.4-.292.616-.476.214-.186.432-.4.637-.645l.145-.193.037-.048.033-.052.066-.103.068-.104.057-.11.057-.112.029-.056.027-.062c.15-.332.299-.674.46-1.022.158-.347.32-.702.491-1.055.176-.35.358-.701.571-1.038A4.55 4.55 0 0 1 4.7 6.96l.103-.117.006-.007.012-.012.013-.012.025-.024.05-.049c.03-.03.074-.068.113-.101.04-.035.079-.07.12-.099l.12-.09.13-.08.063-.038.068-.034.133-.066c.046-.02.093-.036.14-.053.046-.016.09-.035.14-.045.095-.02.187-.052.282-.058.38-.05.739.013 1.037.121.073.03.143.063.212.093l.1.047.092.055c.121.073.236.139.332.218.2.146.35.296.475.418.121.124.205.232.265.302.06.071.09.11.09.11a.04.04 0 0 1-.056.058l-.001-.001-.116-.08a246.96 246.96 0 0 0-.136-.096c-.054-.037-.11-.086-.184-.128-.072-.043-.15-.093-.233-.147a64.93 64.93 0 0 0-.064-.041l-.07-.037-.147-.077a3.222 3.222 0 0 0-.691-.27 1.937 1.937 0 0 0-.82-.024c-.07.007-.138.037-.209.055-.07.022-.137.057-.207.084-.134.071-.27.15-.394.254-.034.023-.062.05-.091.075-.03.028-.058.048-.092.084l-.049.049-.025.024-.012.012-.003.003c-.002.003.009-.008.003-.002l-.005.005-.083.092c-.109.13-.215.272-.313.426-.2.306-.38.643-.555.983-.18.339-.352.684-.522 1.026-.168.341-.34.679-.509 1l-.03.061-.038.063-.073.124-.072.123-.083.113-.081.112-.04.055-.046.05-.176.2c-.245.247-.493.459-.736.632a7.047 7.047 0 0 1-1.247.699c-.316.133-.505.19-.505.19a.04.04 0 0 1-.03-.074zm.668.17a.02.02 0 0 0-.019.035l.015.009c.011.005.03.014.049.021a2.344 2.344 0 0 0 .451.118c.109.018.233.027.37.03.136 0 .285-.009.441-.033a2.76 2.76 0 0 0 .481-.128 2.41 2.41 0 0 0 .478-.242c.078-.048.149-.107.222-.163.07-.06.14-.12.206-.186.13-.131.25-.272.348-.423l.075-.111.066-.115.065-.113.056-.116c.037-.077.072-.152.1-.228.028-.077.062-.149.083-.223l.066-.214c.021-.07.035-.138.052-.203.033-.13.052-.25.07-.357l.024-.149.013-.128.022-.241a.02.02 0 0 0-.04-.008v.001l-.066.232-.034.122-.045.142c-.031.101-.066.215-.114.336-.022.06-.042.125-.07.19l-.084.197c-.027.069-.063.135-.096.205-.031.07-.07.138-.11.207l-.059.105-.065.102-.066.103-.074.1c-.025.032-.049.066-.075.098l-.082.094c-.052.065-.113.12-.17.18a3.27 3.27 0 0 1-.186.164c-.067.049-.13.1-.2.142a2.553 2.553 0 0 1-.42.225 3.107 3.107 0 0 1-.825.22 3.88 3.88 0 0 1-.618.024 2.887 2.887 0 0 1-.217-.016c-.01-.001-.016-.004-.015-.004H.748zm2.538-.24a.02.02 0 0 0 .002.029l.014.007a.277.277 0 0 0 .022.008l.024.007c.036.01.09.022.158.03.136.017.337.017.572-.039.117-.03.242-.073.367-.134a1.96 1.96 0 0 0 .689-.58c.05-.061.09-.13.134-.197.042-.068.08-.138.117-.208.033-.072.07-.143.1-.216.026-.074.058-.146.08-.22.048-.148.087-.294.117-.437.025-.144.051-.282.063-.414.017-.132.021-.258.028-.373.007-.115.001-.22.002-.314 0-.093-.006-.174-.01-.241l-.017-.21a.02.02 0 0 0-.04 0l-.03.207c-.007.066-.017.145-.032.236-.015.09-.026.194-.049.304-.02.11-.039.23-.07.355-.024.126-.06.255-.095.389a7.882 7.882 0 0 0-.063.2c-.02.068-.048.134-.072.202a4.559 4.559 0 0 1-.178.393c-.035.063-.07.125-.108.186-.041.058-.077.119-.122.172l-.064.083-.068.076c-.044.052-.093.098-.14.144a2.14 2.14 0 0 1-.3.231 1.913 1.913 0 0 1-.306.159c-.098.044-.194.07-.28.095-.085.024-.162.036-.226.047a1.64 1.64 0 0 1-.172.016l-.012.002c-.007.001-.013-.002-.013-.001a.02.02 0 0 0-.022.006zm1.941-.632a.02.02 0 0 0 .01.026s.002.002.013.005a.184.184 0 0 0 .045.008.822.822 0 0 0 .142.003c.121-.005.297-.034.493-.12.098-.042.201-.099.3-.174.097-.076.196-.166.279-.274.083-.107.16-.227.215-.356.06-.13.102-.266.135-.404.012-.069.03-.138.037-.207.007-.07.018-.138.02-.207.008-.137.008-.27 0-.4-.011-.127-.021-.251-.042-.366-.017-.116-.043-.224-.064-.323-.022-.099-.052-.187-.074-.266-.022-.08-.048-.147-.067-.202-.04-.11-.065-.173-.065-.173a.02.02 0 0 0-.039.01s.006.067.02.183c.008.057.018.127.024.208.008.08.02.17.026.268.007.099.018.205.019.317.007.112.006.229.005.35l-.01.183c-.001.062-.01.123-.016.186a3.41 3.41 0 0 1-.068.369c-.017.06-.034.12-.053.178-.023.057-.041.115-.068.169a1.745 1.745 0 0 1-.618.74c-.076.055-.154.094-.223.13a1.859 1.859 0 0 1-.338.128c-.005.002-.012 0-.011.001a.02.02 0 0 0-.027.01zm1.524-.935a.02.02 0 0 0 .01.026l.012.004a.637.637 0 0 0 .168-.008.97.97 0 0 0 .189-.052c.072-.026.148-.066.229-.118a1.213 1.213 0 0 0 .417-.502c.052-.11.083-.23.108-.354.017-.123.03-.248.024-.372l-.003-.093-.009-.092a1.877 1.877 0 0 0-.026-.18 1.889 1.889 0 0 0-.035-.173c-.014-.057-.026-.113-.045-.167l-.05-.157-.055-.148c-.036-.096-.08-.182-.116-.263-.038-.08-.079-.151-.112-.215s-.068-.116-.094-.16a5.175 5.175 0 0 0-.088-.136.02.02 0 0 0-.036.016l.045.155c.015.05.035.107.054.176.02.068.043.143.066.226.021.084.05.173.07.269l.036.145.03.153c.011.052.018.105.027.158.01.053.017.107.022.162.006.054.011.108.012.163l.005.082v.081c0 .109-.01.215-.026.318-.02.102-.042.202-.078.291a1.287 1.287 0 0 1-.282.448c-.054.059-.113.104-.166.146-.053.04-.104.07-.147.096-.042.024-.078.04-.101.05l-.016.007-.003.005c-.004.003-.01.001-.01.002a.02.02 0 0 0-.026.01zm1.144-1.053a.02.02 0 0 0-.01.037h.003c.004.003.02.002.02.002l.033-.006a.911.911 0 0 0 .256-.128 1.156 1.156 0 0 0 .438-.667 1.33 1.33 0 0 0 .034-.33A1.667 1.667 0 0 0 8.626 9a2.005 2.005 0 0 0-.1-.313 2.334 2.334 0 0 0-.138-.281 3.481 3.481 0 0 0-.155-.243 3.445 3.445 0 0 0-.42-.478c-.068-.063-.108-.096-.108-.096a.02.02 0 0 0-.023-.002.02.02 0 0 0-.008.027l.072.124c.045.078.11.189.184.323.037.066.075.139.114.216a3.709 3.709 0 0 1 .214.509c.03.09.054.184.072.277a1.637 1.637 0 0 1 .014.54 1.278 1.278 0 0 1-.153.445c-.033.063-.072.117-.106.165-.035.048-.07.088-.099.12a1.059 1.059 0 0 1-.09.087c-.005.001.006 0 .007.003h-.008zm16.988 2.738a.04.04 0 0 1-.05.026h-.001s-.189-.057-.505-.19a7.047 7.047 0 0 1-1.247-.698 5.614 5.614 0 0 1-.736-.634l-.176-.198-.045-.051-.04-.055L22 11.25l-.082-.113c-.025-.04-.049-.082-.073-.123l-.073-.124-.037-.063-.031-.06a46.84 46.84 0 0 1-.509-1.001c-.17-.341-.343-.687-.522-1.026-.176-.34-.356-.677-.555-.983a4.003 4.003 0 0 0-.312-.426l-.084-.092-.005-.005c-.006-.006.006.005.003.002l-.003-.003-.012-.012-.025-.024-.049-.05c-.034-.035-.061-.055-.091-.083-.03-.025-.058-.052-.091-.075a2.236 2.236 0 0 0-.395-.254c-.07-.027-.137-.062-.207-.084-.07-.018-.138-.048-.21-.055a1.938 1.938 0 0 0-.819.024 3.22 3.22 0 0 0-.691.27c-.05.028-.1.052-.147.077l-.07.037-.064.04c-.084.055-.16.105-.233.148-.073.042-.13.091-.184.128l-.136.096-.116.08h-.001a.04.04 0 0 1-.055-.057s.03-.039.09-.11c.06-.07.143-.178.265-.302.124-.122.274-.272.474-.418.096-.08.211-.145.332-.218l.092-.055.1-.047c.07-.03.14-.063.213-.093.298-.108.656-.17 1.036-.121.096.006.187.037.283.058.048.01.093.03.14.045.046.017.093.034.139.053l.134.066.067.034.064.039.128.08.122.09c.04.028.08.063.12.098.038.033.083.07.113.101l.05.049.024.024.013.012.012.012.006.007.104.117c.13.159.248.323.353.492.214.337.395.687.571 1.038.171.353.333.708.492 1.055.16.348.31.69.459 1.022l.028.062.028.056a93.232 93.232 0 0 0 .114.222l.068.104.066.103.033.052.037.048.145.193c.205.245.423.459.637.645.216.184.423.346.617.476.19.135.364.242.508.328a6 6 0 0 0 .463.258.04.04 0 0 1 .02.048zm-.691.123l-.016.004c-.009 0-.02 0-.041.003a4.062 4.062 0 0 1-.447.014 3.882 3.882 0 0 1-.347-.026 3.099 3.099 0 0 1-.825-.22 2.55 2.55 0 0 1-.42-.224c-.07-.041-.133-.093-.2-.142a3.27 3.27 0 0 1-.185-.163c-.057-.06-.119-.116-.17-.182l-.082-.093c-.027-.032-.05-.066-.075-.099l-.074-.099-.066-.103-.066-.102-.059-.105a2.285 2.285 0 0 1-.11-.207c-.032-.07-.069-.136-.096-.205l-.084-.198c-.027-.064-.047-.129-.07-.19a4.507 4.507 0 0 1-.113-.335l-.046-.142-.033-.122-.067-.232a.02.02 0 0 0-.04.006l.022.242.014.128.023.15c.018.106.038.227.07.356.018.065.031.133.052.203l.066.214c.022.074.056.146.084.222.028.077.063.152.1.229l.055.116a279.186 279.186 0 0 0 .132.228l.075.111a2.712 2.712 0 0 0 .553.609c.074.056.144.115.223.163.152.102.315.18.477.242.163.062.327.099.482.128.156.024.304.033.44.033.137-.004.262-.012.37-.03a2.335 2.335 0 0 0 .452-.118.555.555 0 0 0 .049-.022l.014-.008a.02.02 0 0 0-.019-.035l-.002.001zm-2.558-.247s-.006.002-.013.001c-.003 0-.007 0-.011-.002h-.023a1.64 1.64 0 0 1-.15-.016c-.063-.01-.14-.023-.226-.047-.086-.025-.182-.05-.28-.095a1.908 1.908 0 0 1-.305-.159 2.149 2.149 0 0 1-.3-.231c-.048-.046-.096-.092-.14-.144l-.069-.076-.063-.083c-.045-.053-.081-.114-.122-.172a4.506 4.506 0 0 1-.109-.186 4.542 4.542 0 0 1-.178-.393c-.024-.068-.051-.134-.072-.202a7.955 7.955 0 0 0-.062-.2c-.035-.134-.072-.263-.096-.39-.03-.123-.05-.243-.07-.354-.022-.11-.033-.213-.048-.304-.016-.09-.025-.17-.033-.236l-.03-.207a.02.02 0 0 0-.04 0l-.016.21c-.004.067-.011.148-.01.241 0 .093-.006.2.002.314.006.115.01.24.027.373.012.132.039.27.064.414.03.143.069.29.117.436.022.075.053.147.08.22.029.074.066.145.1.217.037.07.075.14.116.208.045.067.085.136.135.197a1.963 1.963 0 0 0 .688.58c.126.061.25.104.367.134.235.056.436.056.573.038a.986.986 0 0 0 .204-.044l.013-.007a.02.02 0 0 0-.02-.035zm-1.946-.636c.001 0-.005.001-.011-.001a1.864 1.864 0 0 1-.338-.129c-.07-.035-.147-.074-.223-.129a1.667 1.667 0 0 1-.445-.435 1.747 1.747 0 0 1-.172-.305c-.027-.054-.046-.112-.068-.17-.02-.058-.036-.118-.054-.177a3.41 3.41 0 0 1-.067-.37c-.006-.062-.015-.123-.018-.185-.002-.062-.005-.123-.009-.183 0-.121-.002-.238.005-.35.001-.112.012-.218.02-.317.005-.098.018-.188.025-.268.007-.08.017-.15.024-.208.014-.116.02-.183.02-.183a.02.02 0 0 0-.039-.01l-.065.173c-.019.055-.045.122-.067.201-.021.08-.052.168-.073.267-.022.1-.048.207-.065.322-.02.116-.03.24-.042.368a3.404 3.404 0 0 0 0 .4c.002.067.014.136.02.206.008.07.025.138.037.207.033.138.076.275.135.403.056.13.132.25.216.357a1.544 1.544 0 0 0 .578.449 1.4 1.4 0 0 0 .494.119.822.822 0 0 0 .187-.01l.012-.006a.02.02 0 1 0-.017-.036zm-1.523-.936c.001 0-.005.001-.01-.002l-.003-.005-.015-.006a1.072 1.072 0 0 1-.102-.051c-.042-.026-.093-.055-.147-.096-.052-.041-.111-.087-.166-.145a1.283 1.283 0 0 1-.282-.448 1.633 1.633 0 0 1-.078-.291 2.025 2.025 0 0 1-.025-.319v-.081l.004-.082c.001-.055.006-.11.013-.163.004-.055.011-.109.021-.162.01-.053.016-.106.027-.157l.03-.153.036-.146c.02-.096.05-.185.07-.268.023-.084.047-.16.067-.227.018-.068.038-.127.053-.175.03-.098.045-.155.045-.155a.02.02 0 0 0-.014-.026.02.02 0 0 0-.022.009s-.033.048-.087.136c-.026.044-.062.097-.095.16-.033.064-.073.135-.112.215-.035.081-.08.167-.115.263l-.056.148-.05.158c-.019.053-.03.11-.044.166a1.885 1.885 0 0 0-.036.174c-.01.058-.02.118-.026.18l-.009.091-.003.093c-.005.124.007.25.025.373.024.122.055.243.108.353a1.213 1.213 0 0 0 .417.502c.08.052.157.092.229.118a.97.97 0 0 0 .314.063 3.024 3.024 0 0 0 .042-.003l.012-.004a.02.02 0 1 0-.016-.037zm-1.123-1.042h-.003c.002-.004.012-.003.007-.004a1.073 1.073 0 0 1-.09-.086c-.029-.033-.064-.073-.099-.12-.034-.05-.073-.103-.106-.166a1.354 1.354 0 0 1-.17-.708c.002-.091.013-.184.031-.277.018-.093.043-.186.073-.277a3.635 3.635 0 0 1 .214-.509c.038-.077.076-.15.114-.216.073-.134.138-.245.184-.323l.071-.124a.02.02 0 0 0-.03-.025s-.04.033-.108.095a3.434 3.434 0 0 0-.42.479 3.517 3.517 0 0 0-.156.243 2.33 2.33 0 0 0-.137.281c-.041.1-.076.204-.1.313-.027.108-.04.22-.043.333-.002.112.009.223.034.328a1.155 1.155 0 0 0 .438.668.916.916 0 0 0 .256.128.192.192 0 0 0 .032.006s.017.002.02-.001l.003-.001a.02.02 0 0 0-.01-.037h-.005z" fill="#F7931B"/>
      <path d="M12.471 18.633a.62.62 0 0 1-.431-.173l-2.236-2.146c-.886-.851-1.802-1.73-2.477-2.77-.537-.827-1.132-2.108-.918-3.512.2-1.32 1.16-2.442 2.386-2.795a3.026 3.026 0 0 1 2.501.415c.541.376.96 1.015 1.175 1.393.216-.378.634-1.017 1.175-1.393a3.026 3.026 0 0 1 2.501-.415c1.227.353 2.186 1.475 2.387 2.795.213 1.404-.382 2.685-.919 3.512-.674 1.04-1.59 1.919-2.477 2.77l-2.236 2.146a.62.62 0 0 1-.43.173z" fill="#F7931B"/>
      <path d="M15.36 7.307c.25 0 .5.032.738.1 1.23.354 2.082 1.478 2.26 2.651.18 1.174-.231 2.372-.891 3.39-.66 1.017-1.56 1.882-2.451 2.738l-2.236 2.146a.444.444 0 0 1-.617 0l-2.236-2.146c-.891-.856-1.79-1.721-2.451-2.739-.66-1.017-1.07-2.215-.892-3.389.179-1.173 1.03-2.297 2.26-2.65a2.866 2.866 0 0 1 2.351.39c.756.525 1.276 1.625 1.276 1.625s.52-1.1 1.276-1.625a2.866 2.866 0 0 1 1.613-.491zm0-.355c-.656 0-1.3.197-1.815.554-.458.318-.83.811-1.074 1.196-.244-.385-.616-.878-1.073-1.196a3.206 3.206 0 0 0-2.652-.439c-1.292.37-2.302 1.552-2.513 2.938-.222 1.46.392 2.783.945 3.636.686 1.056 1.61 1.943 2.503 2.8l2.236 2.147a.796.796 0 0 0 1.108 0l2.236-2.147c.893-.857 1.817-1.744 2.503-2.8.554-.853 1.167-2.177.945-3.636-.211-1.386-1.22-2.567-2.513-2.938a3.027 3.027 0 0 0-.836-.115z" fill="#FFF"/>
      <path d="M17.7 10.85a.089.089 0 0 1-.177-.02c.03-.267.027-.53-.012-.788-.034-.222-.1-.44-.197-.649a2.537 2.537 0 0 0-.362-.567 2.397 2.397 0 0 0-.49-.442 2.055 2.055 0 0 0-.697-.302 1.72 1.72 0 0 0-.376-.038 2.033 2.033 0 0 0-.863.192c-.087.041-.17.088-.244.14a1.953 1.953 0 0 0-.324.294 3.756 3.756 0 0 0-.29.368.089.089 0 1 1-.146-.102c.099-.14.2-.27.304-.385.119-.13.237-.238.355-.32a1.89 1.89 0 0 1 .269-.155 2.133 2.133 0 0 1 .614-.185 2.21 2.21 0 0 1 .603-.006 1.897 1.897 0 0 1 .264.055c.22.063.432.164.63.297.193.13.37.29.526.475.155.183.286.388.387.607.104.223.176.458.212.697.042.273.045.551.013.834zM13.969 16.187l.506-.486a152.95 152.95 0 0 0 .645-.625c.235-.231.438-.439.627-.64.214-.23.406-.45.581-.665a.089.089 0 0 1 .138.111c-.178.22-.373.442-.59.674-.19.204-.395.414-.631.647a46.662 46.662 0 0 1-.647.626l-2.026 1.944a.089.089 0 0 1-.123 0l-2.025-1.944c-.322-.31-.468-.45-.647-.626a21.894 21.894 0 0 1-.632-.647 12.625 12.625 0 0 1-.589-.674 8.401 8.401 0 0 1-.518-.709 6.226 6.226 0 0 1-.343-.595 5.126 5.126 0 0 1-.293-.708 4.004 4.004 0 0 1-.176-.793 3.217 3.217 0 0 1 .013-.848c.037-.243.11-.482.215-.708.103-.222.236-.43.394-.617.157-.187.338-.35.535-.483a2.267 2.267 0 0 1 .772-.334 1.92 1.92 0 0 1 .418-.042.089.089 0 0 1 0 .177 1.973 1.973 0 0 0-.382.039 2.09 2.09 0 0 0-.71.308 2.437 2.437 0 0 0-.498.449 2.58 2.58 0 0 0-.368.577 2.448 2.448 0 0 0-.2.66 3.04 3.04 0 0 0-.013.802c.028.25.085.504.168.758.075.23.17.458.284.683.1.199.211.392.332.578.15.23.318.46.508.695.174.215.366.434.58.664.19.202.393.41.628.641.178.176.323.316.645.625l1.964 1.886 1.458-1.4z" fill="#FFF"/>
    </g>
    <path d="M14.053 11.408a.142.142 0 0 1 .142.135.21.21 0 0 1-.006.048.437.437 0 0 1-.015.05 3.29 3.29 0 0 0-.019.052l-.36.972a3.326 3.326 0 0 1-.038.106.45.45 0 0 1-.045.088.2.2 0 0 1-.068.063.203.203 0 0 1-.103.024.206.206 0 0 1-.103-.024.196.196 0 0 1-.068-.063.46.46 0 0 1-.045-.088 3.037 3.037 0 0 1-.038-.106l-.355-.964a1.796 1.796 0 0 0-.018-.052.407.407 0 0 1-.023-.104c0-.035.014-.066.041-.095a.14.14 0 0 1 .105-.042c.051 0 .088.015.11.047a.628.628 0 0 1 .065.15l.336.998.338-1.005c.018-.052.031-.09.04-.11a.146.146 0 0 1 .044-.056.128.128 0 0 1 .083-.024zm-1.55 0c.044 0 .081.015.11.045.027.03.041.076.041.137v1.172c0 .062-.014.108-.042.139a.143.143 0 0 1-.11.045.139.139 0 0 1-.107-.046c-.028-.03-.042-.077-.042-.138V11.59c0-.06.014-.106.042-.137a.139.139 0 0 1 .107-.045zm-1.094 0c.1 0 .189.013.266.04.077.026.14.06.188.1a.45.45 0 0 1 .108.13.262.262 0 0 1 .037.12.141.141 0 0 1-.205.122.142.142 0 0 1-.05-.043 1.194 1.194 0 0 0-.095-.131.304.304 0 0 0-.104-.076.397.397 0 0 0-.167-.03.46.46 0 0 0-.187.036.386.386 0 0 0-.14.105.473.473 0 0 0-.09.167.74.74 0 0 0-.03.22c0 .175.04.31.12.404.08.094.191.14.335.14.07 0 .135-.008.196-.027a.996.996 0 0 0 .186-.078v-.241h-.233a.255.255 0 0 1-.127-.026c-.03-.017-.043-.045-.043-.086 0-.033.012-.06.036-.082a.14.14 0 0 1 .098-.033h.342c.041 0 .077.004.106.011a.12.12 0 0 1 .07.05.203.203 0 0 1 .028.116v.285a.3.3 0 0 1-.012.09.144.144 0 0 1-.04.062.39.39 0 0 1-.077.053 1.046 1.046 0 0 1-.844.087.657.657 0 0 1-.394-.396.91.91 0 0 1-.053-.32c0-.116.017-.222.051-.318a.651.651 0 0 1 .397-.398.938.938 0 0 1 .327-.053zm3.993.025c.048 0 .083.01.107.032.023.021.035.05.035.084a.11.11 0 0 1-.035.084c-.024.022-.06.032-.107.032h-.68v.366h.626c.046 0 .08.01.103.03.023.021.034.049.034.082a.11.11 0 0 1-.034.083c-.022.021-.056.032-.103.032h-.625v.423h.702c.047 0 .083.011.107.033a.113.113 0 0 1 .036.088.111.111 0 0 1-.036.086c-.024.022-.06.033-.107.033h-.819c-.066 0-.113-.015-.142-.044-.028-.029-.043-.076-.043-.14v-1.12a.25.25 0 0 1 .02-.105.12.12 0 0 1 .06-.06.254.254 0 0 1 .105-.019h.796zm-5.478-.01a.65.65 0 0 1 .265.05.398.398 0 0 1 .209.22.433.433 0 0 1-.032.384.712.712 0 0 1-.128.161 6.85 6.85 0 0 1-.218.183 1.634 1.634 0 0 0-.21.194.584.584 0 0 0-.05.066h.53c.053 0 .094.011.121.033a.106.106 0 0 1 .042.088.117.117 0 0 1-.033.084c-.022.023-.055.035-.1.035h-.747a.162.162 0 0 1-.119-.042.135.135 0 0 1-.042-.1c0-.024.009-.056.027-.096a.347.347 0 0 1 .06-.095c.09-.093.171-.173.244-.24.072-.067.124-.11.155-.132a.897.897 0 0 0 .138-.118.47.47 0 0 0 .085-.122.29.29 0 0 0 .029-.122.22.22 0 0 0-.116-.196.243.243 0 0 0-.116-.028.237.237 0 0 0-.209.117.506.506 0 0 0-.034.083.347.347 0 0 1-.054.104c-.02.025-.049.037-.087.037a.114.114 0 0 1-.085-.034.123.123 0 0 1-.033-.091.419.419 0 0 1 .125-.284.465.465 0 0 1 .158-.1.607.607 0 0 1 .225-.038z" fill="#FFF" fill-rule="nonzero"/>
  </g>
</svg>
