<svg width="25" height="25" xmlns="http://www.w3.org/2000/svg">
  <defs>
    <linearGradient x1=".171%" y1="24.667%" x2="99.828%" y2="75.334%" id="a">
      <stop stop-color="#0071BC" offset="0%"/>
      <stop stop-color="#662D91" offset="100%"/>
    </linearGradient>
    <linearGradient x1="1.069%" y1="25.3%" x2="99.711%" y2="75.302%" id="b">
      <stop stop-color="#0071BC" offset="0%"/>
      <stop stop-color="#662D91" offset="100%"/>
    </linearGradient>
  </defs>
  <g fill-rule="nonzero" fill="none">
    <path d="M20.551 5.38c.455.263.735.748.735 1.273v10.685c0 .526-.28 1.01-.735 1.274L11.3 23.953a1.47 1.47 0 0 1-1.47 0L.577 18.612a1.47 1.47 0 0 1-.735-1.274V6.653c0-.525.28-1.01.735-1.273L9.827.04a1.47 1.47 0 0 1 1.47 0L20.55 5.38zm-.16.278L11.136.316a1.15 1.15 0 0 0-1.15 0L.738 5.658a1.15 1.15 0 0 0-.574.995v10.685c0 .411.219.79.574.996l9.252 5.341a1.15 1.15 0 0 0 1.15 0l9.252-5.341a1.15 1.15 0 0 0 .575-.996V6.653c0-.41-.22-.79-.575-.995z" fill="url(#a)" transform="translate(2 .5)"/>
    <path d="M19.51 6.083l-8.299-4.79a1.295 1.295 0 0 0-1.295 0l-8.298 4.79c-.4.231-.647.658-.647 1.12v9.584c0 .463.246.89.647 1.122l8.298 4.79c.401.232.895.232 1.296 0l8.298-4.79c.4-.232.648-.66.648-1.122V7.203c-.001-.462-.248-.889-.648-1.12z" fill="url(#b)" transform="translate(2 .5)"/>
    <path d="M6.575 7.111c.2-.198.398-.396.596-.595l.598.597-.596.596c-.2-.199-.4-.398-.598-.598m1.797.001l.596-.596.595.595c-.198.2-.397.398-.596.596l-.595-.595m7.194-.002l.595-.595.597.597-.595.596-.597-.598m1.793.004l.598-.599.596.596-.598.599-.596-.596m-9.885.896l.596-.596.595.596-.596.596-.595-.596m1.802 0c.197-.196.394-.394.59-.592.196.199.393.396.59.593l-.59.59-.59-.59m5.397-.004c.197-.198.395-.395.591-.594l.592.595-.592.591-.59-.592m1.79.001l.595-.595.596.596-.595.596-.596-.597m-9.89.9l.599-.597.595.596-.597.597c-.2-.198-.398-.397-.596-.596m1.796 0l.597-.596.595.596-.596.596-.596-.596m1.8-.003c.195-.197.392-.394.589-.59l.594.594-.59.589-.594-.593m3.607 0l.589-.59a254 254 0 0 1 .591.59l-.59.59c-.196-.198-.394-.393-.59-.59m1.789.001c.198-.2.398-.398.597-.597l.596.596-.597.598-.596-.597m1.796 0l.595-.595.596.596c-.198.2-.397.398-.595.596-.198-.2-.398-.398-.596-.597m-5.397.061l.59-.589c.206.192.41.388.607.59-.198.2-.401.396-.608.588l-.589-.589m-4.49.84l.596-.592c.196.198.393.395.59.59l-.591.593-.594-.591m3.593-.004l.589-.59.588.59-.588.588-.59-.588m1.811 0c.195-.198.393-.392.588-.59.201.193.394.394.593.59-.198.195-.394.394-.592.59-.195-.198-.393-.393-.589-.59m3.594 0l.587-.591c.2.197.397.394.595.591l-.595.592-.587-.592m-8.1.898l.592-.59.592.594-.59.59-.593-.594m3.592-.001l.588-.588c.207.191.41.387.608.588-.198.202-.4.398-.607.588l-.589-.588m3.609 0l.587-.586.59.587-.59.586-.587-.586m-6.302.898c.196-.197.392-.393.59-.589l.586.588-.588.59-.588-.589m5.401 0l.59-.589.588.59-.588.588-.59-.589m-6.299.897l.59-.589.588.589-.588.589-.59-.589m1.795 0l.59-.588.586.588c-.194.196-.39.392-.587.588l-.589-.588m3.606 0c.196-.198.395-.393.591-.59.197.195.393.394.59.59l-.59.59c-.196-.197-.394-.392-.59-.59m1.744 0c.202-.19.381-.404.597-.577.187.2.393.38.582.577-.189.196-.392.377-.58.575-.22-.167-.395-.387-.599-.575m-6.248.897l.588-.588.588.59-.587.587-.59-.59m5.403 0l.589-.588.588.589c-.197.196-.39.394-.59.588-.195-.197-.391-.392-.587-.588m-6.301.898c.197-.198.395-.396.594-.593l.59.59-.593.593c-.198-.196-.395-.393-.591-.59m3.59.001l.59-.59c.21.191.412.388.61.59-.198.202-.401.4-.61.591l-.59-.59m3.61-.001l.588-.587.59.586-.59.587-.587-.586m-8.1.893l.595-.591.59.592-.59.592-.595-.593m3.59.004l.593-.591.593.591-.592.593a151.28 151.28 0 0 1-.593-.593m1.81 0l.593-.593.593.591-.594.596-.593-.594m3.597 0l.588-.593.596.593-.596.592c-.195-.198-.392-.395-.588-.592m-4.51.836l.592-.593c.21.192.413.39.613.592-.2.203-.404.401-.612.595l-.594-.594m-5.386.06l.596-.597.597.597c-.198.2-.397.398-.595.596l-.598-.597m1.796 0l.596-.596c.2.198.398.397.596.596-.198.2-.396.398-.595.596l-.597-.596m1.795.003l.598-.596.594.592-.597.599-.595-.595m3.606 0c.199-.198.398-.396.595-.595l.595.594-.596.596-.594-.595m1.794-.001c.198-.2.397-.398.596-.597.198.2.398.399.597.598l-.596.596-.597-.597m1.796 0c.198-.2.397-.398.596-.597l.595.596-.596.596-.595-.595m-9.889.896l.596-.596.596.596c-.198.2-.397.398-.595.596a344.11 344.11 0 0 1-.597-.596m1.798 0c.197-.199.395-.397.594-.594.2.197.398.395.596.594l-.595.596-.595-.596m5.397.002c.198-.2.397-.398.597-.597l.597.597c-.2.199-.399.398-.597.598l-.597-.598m1.796 0c.198-.2.397-.398.596-.597l.595.596-.596.596a457.28 457.28 0 0 1-.595-.595m-9.887.894l.596-.596.596.596-.596.596a158.7 158.7 0 0 1-.596-.596m1.794.002l.596-.595c.2.198.398.396.596.596l-.595.595c-.2-.198-.398-.397-.597-.596m7.195.002c.198-.2.398-.399.597-.598l.595.596-.597.597-.595-.595m1.793-.004l.596-.596.598.599-.596.596c-.2-.2-.4-.399-.598-.599" fill="#FFF"/>
  </g>
</svg>
