<svg width="25" height="25" xmlns="http://www.w3.org/2000/svg">
  <g fill-rule="nonzero" fill="none">
    <circle fill="#F49E00" cx="12.5" cy="12.5" r="12.5"/>
    <path d="M16.208 13.564c1.827-2.95 3.25-7.826 3.25-7.826l-3.048.711-1.116 4.067c-.105-3.049-2.135-4.165-2.135-4.165-1.625-.816-3.074-.457-4.119.105-1.292.692-2.232 1.9-2.682 3.29-.64 1.977-.562 4.197-.477 5.202.034.47.135.935.3 1.377 1.123 2.996 4.23 2.826 4.23 2.826 2.846-.104 4.576-3.557 4.576-3.557l.816 2.54c.73 1.272 2.35.796 2.683.724.058-.013.11-.02.17-.033l1.82-.287v-.816c-3.962.11-4.268-4.158-4.268-4.158m-3.858 3.068a1.916 1.916 0 0 1-.894.535c-.738.19-1.306-.13-1.698-.522a3.333 3.333 0 0 1-.861-1.658c-.718-4.184.274-6.018.933-6.86a1.817 1.817 0 0 1 1.521-.725c2.559.137 3.133 5.653 3.133 5.653-.724 1.958-1.658 3.094-2.134 3.577" fill="#FFF"/>
  </g>
</svg>
