<svg width="25" height="25" xmlns="http://www.w3.org/2000/svg">
  <defs>
    <linearGradient x1="69.558%" y1="-13.269%" x2="39.93%" y2="82.202%" id="a">
      <stop stop-color="#2CF4E1" offset="3.9%"/>
      <stop stop-color="#2CB2E1" offset="100%"/>
    </linearGradient>
    <linearGradient x1="-24.618%" y1="3.457%" x2="147.594%" y2="127.729%" id="b">
      <stop stop-color="#2CF4E1" offset="3.9%"/>
      <stop stop-color="#2CB2E1" offset="100%"/>
    </linearGradient>
    <linearGradient x1="21.51%" y1="17.32%" x2="69.351%" y2="84.775%" id="c">
      <stop stop-color="#2CE5E1" offset="0%"/>
      <stop stop-color="#2CB2E1" offset="100%"/>
    </linearGradient>
    <linearGradient x1="49.992%" y1="99.959%" x2="49.992%" y2="0%" id="d">
      <stop offset="0%"/>
      <stop stop-color="#0D0D0D" offset="100%"/>
    </linearGradient>
    <linearGradient x1="-1.389%" y1="50.004%" x2="101.329%" y2="50.004%" id="e">
      <stop stop-color="#2CF4E1" offset="3.9%"/>
      <stop stop-color="#2CB2E1" offset="100%"/>
    </linearGradient>
  </defs>
  <g transform="translate(.5 1.5)" fill-rule="nonzero" fill="none">
    <circle fill="url(#a)" cx="12.8" cy="8.693" r="6.91"/>
    <path d="M17.653 6.621c.496.67.755 1.463.755 2.286 0 .998-.412 1.92-1.113 2.666l.427 1.593h1.295l1.364-1.547.366-2.263.076-1.348-1.349-1.524-1.82.137z" fill="url(#b)"/>
    <path d="M2.644 13.349l.236.937s2.789 5.722 9.067 7.847c0 0 5.882-2.438 8.419-6.575l-3.673-3.055s-1.676 1.333-4.167 1.333c-2.492 0-5.875-1.486-5.875-4.548 0-3.063 3.505-4.183 3.505-4.183l-1.493-.366H4.846l-2.423 5.836.22 2.774z" fill="url(#c)"/>
    <path d="M23.741 7.2c-.107-.107-3.2-3.383-11.68-6.301l-.053-.023C3.794 3.696.259 7.2.259 7.2c.32 1.867 1.128 3.947 1.86 5.562.06.137 1.035 1.859 1.76 2.796-.428-.937-.892-1.752-.892-3.154 0-3.954 3.063-7.17 6.895-7.307.091 0 .19 0 .282.008L9.25 4.19s3.68-.617 8.403 2.24c0 0 .069.145 0 .572 0 0 2.225.96 2.416 2.827.19 1.866-.99 2.933-1.943 3.085 0 0 .495-.77-.267-1.18-.16-.092-.35-.13-.54-.123-1.456 0-1.624 1.661-1.624 1.661-.015.084-.015.168-.015.252 0 0-.244 2.43 4.084 2.385 0 0 2.194-2.484 2.773-4.717.213-.822.366-1.44.465-1.897.244-.647.48-1.318.708-2.011l.031-.084z" fill="url(#d)"/>
    <path d="M15.771 7.17c.061-.031.26-.13.488-.366.457.06.907.206.907.206-.83-.503-1.966-.8-3.223-.793 0 0 .48.686 1.813.968l.015-.015z" fill="#282828"/>
    <path d="M11.97 1.242c.807.251 6.674 2.202 11.367 6.08l.526-.152-.038-.031C19.238 3.253 13.44 1.234 12.236.846l-.114-.038-.152-.046-.267.084C10.499 1.234 4.7 3.253.114 7.139l-.053.046.51.167c4.694-3.9 10.59-5.859 11.399-6.11z" fill="#282828"/>
    <path d="M24.265 6.355l-.055.314c-.03.245-.228 1.12-.472 1.957a25.587 25.587 0 0 1-1.752 4.442c-1.012 1.985-2.242 3.718-3.651 5.143-1.74 1.756-3.753 3.052-5.997 3.86l-.125.043-.238.093-.236-.083-.132-.047c-2.249-.81-4.267-2.108-5.996-3.86-1.416-1.44-2.643-3.166-3.65-5.142a25.626 25.626 0 0 1-2.112-5.85 11.65 11.65 0 0 1-.107-.523l-.057-.322.133-.114.1-.083c2.06-1.746 4.496-3.243 7.128-4.5C8.799.843 10.4.221 11.61-.17l.356-.112.242.073.12.04c1.209.39 2.811 1.012 4.564 1.85 2.627 1.256 5.061 2.75 7.12 4.493l.252.18zM16.63 2.232C14.904 1.407 13.326.794 12.14.411l-.11-.037-.234.038c-1.183.382-2.76.995-4.487 1.82C4.736 3.462 2.354 4.923.346 6.62c.02.103.061.31.098.474a25.02 25.02 0 0 0 2.06 5.706c.979 1.92 2.17 3.597 3.542 4.99 1.664 1.687 3.605 2.936 5.766 3.714l.152.054.169-.06c2.156-.777 4.092-2.023 5.768-3.715 1.364-1.38 2.558-3.06 3.542-4.99a24.983 24.983 0 0 0 1.71-4.336c.146-.502.263-.964.353-1.37a12.943 12.943 0 0 0 .094-.462c-2.01-1.698-4.394-3.16-6.97-4.392zM.333 6.555l-.223.073.004.006.223-.052a1.351 1.351 0 0 1-.004-.027zm0 0c0-.002 0-.003 0 0zM12.05.345l.01-.033-.005-.015-.017.051.012-.003zm10.527 8.41c.239-.767.407-1.43.517-1.955-2.025-1.672-4.415-3.104-6.984-4.304-.962-.45-1.896-.84-2.778-1.174a30.464 30.464 0 0 0-1.363-.484c-.36.117-.817.276-1.365.484-.882.334-1.816.725-2.778 1.174C5.26 3.696 2.87 5.128.845 6.8c.11.532.276 1.194.515 1.963.395 1.275.909 2.572 1.555 3.838.96 1.883 2.123 3.518 3.458 4.868 1.622 1.637 3.498 2.844 5.597 3.602 2.091-.756 3.969-1.967 5.596-3.61 1.33-1.344 2.494-2.986 3.458-4.876a24.59 24.59 0 0 0 1.553-3.83zm-1.01 4.107c-.992 1.944-2.192 3.637-3.568 5.029-1.718 1.733-3.708 3.007-5.928 3.79l-.101.036-.102-.035c-2.227-.787-4.215-2.055-5.929-3.784-1.38-1.396-2.579-3.083-3.567-5.02A24.898 24.898 0 0 1 .778 8.944 20.865 20.865 0 0 1 .21 6.739l-.034-.176.138-.115c2.1-1.76 4.583-3.257 7.253-4.504a40.97 40.97 0 0 1 2.82-1.192c.607-.23 1.106-.403 1.49-.524l.092-.03.093.03c.397.128.882.295 1.485.524.896.34 1.844.736 2.82 1.192 2.673 1.248 5.157 2.745 7.256 4.504l.138.116-.034.176a21.098 21.098 0 0 1-.57 2.196 25.195 25.195 0 0 1-1.591 3.926z" fill="url(#e)"/>
  </g>
</svg>
