<svg width="25" height="25" xmlns="http://www.w3.org/2000/svg">
  <g fill="#ED1C24" fill-rule="nonzero">
    <path d="M12.606 2.487c.066.145.106.304.185.436 3.995 6.376 8.003 12.738 11.997 19.1.093.146.186.292.212.503-4.14-4.272-8.267-8.545-12.434-12.843C8.413 13.98 4.272 18.254.132 22.526c-.026-.013-.04-.026-.066-.04.08-.132.146-.25.225-.383C4.286 15.741 8.294 9.365 12.288 2.99c.093-.158.16-.33.225-.502h.093z"/>
    <path d="M18.228 18.598H6.905c.7-.728 1.336-1.402 1.997-2.05.066-.067.225-.093.344-.093h6.64c.12 0 .291.026.37.106.649.661 1.27 1.323 1.972 2.037M10.423 14.815c.741-.662 1.482-1.323 2.117-1.892.661.582 1.402 1.244 2.156 1.918a.402.402 0 0 0-.066.093h-4.114a.933.933 0 0 1-.093-.12"/>
  </g>
</svg>
