<svg width="25" height="25" xmlns="http://www.w3.org/2000/svg">
  <defs>
    <linearGradient x1="14.643%" y1="14.643%" x2="85.357%" y2="85.357%" id="a">
      <stop stop-color="#30B5EC" offset="0%"/>
      <stop stop-color="#1E58BB" offset="100%"/>
    </linearGradient>
  </defs>
  <g fill-rule="nonzero" fill="none">
    <circle fill="url(#a)" cx="12.5" cy="12.5" r="12.5"/>
    <path d="M18.173 12.054a3.717 3.717 0 0 0-.405-.209h-.018l.095-.089c.179-.143.357-.298.506-.476.703-.81.905-1.715.607-2.697-.238-.81-.785-1.41-1.643-1.845-.654-.327-1.392-.476-2.28-.476H7.799l.023 7.113H4.56v2.798H9.32l-1.488.904v1.667h7.357c.477 0 .983-.06 1.489-.137 1.702-.297 3.035-1.917 3.035-3.69 0-1.292-.518-2.262-1.547-2.87l.006.007zm-2.548-1.12c-.149.102-.34.155-.536.203a1.56 1.56 0 0 1-.434.042h-3.988v-2.44H15c.518.011.952.356 1.107.868a1.241 1.241 0 0 1-.476 1.333l-.006-.005zm-3.869 5.358h-1.09v-2.857h4.435c.637 0 1.09.208 1.41.654.263.357.328.834.18 1.268-.155.417-.477.726-.893.833-.256.06-.5.102-.715.108H11.75l.006-.006z" fill="#FFF"/>
  </g>
</svg>
