<svg width="25" height="25" xmlns="http://www.w3.org/2000/svg" xmlns:xlink="http://www.w3.org/1999/xlink">
  <defs>
    <circle id="a" cx="12.463" cy="12.5" r="12.438"/>
    <path id="c" d="M.025 0H24.9v24.876H.025z"/>
    <path id="e" d="M.075.05H28.83v28.756H.075z"/>
    <path id="g" d="M.025 0H24.9v24.876H.025z"/>
    <path id="i" d="M.025 0H24.9v24.876H.025z"/>
    <path d="M7.4 6.43c.063-.037.212-.174.336-.286.56-.51.473-1.443-.199-1.816-.348-.211-.758-.236-1.144-.186-.585.074-1.12.236-1.704.398-.124.025-.137.074-.112.199.236.808.46 1.58.672 2.4 0 .087.062.1.149.1.15-.05.274-.075.423-.112.535-.236 1.032-.386 1.58-.697zm-.845 5.063c.037-.025.087 0 .087 0 .622-.175 1.28-.336 1.878-.635.423-.199.796-.41 1.082-.758.522-.573.31-1.568-.373-1.891-.324-.174-.684-.187-1.057-.199-.796.012-1.58.286-2.339.535-.124.025-.1.062-.074.174.124.373.199.734.323 1.107.137.56.311 1.082.473 1.667zM.037 4.167c.423-.112.834-.262 1.269-.373.423-.112.833-.262 1.269-.374.124-.024.136-.074.112-.199-.2-.646-.374-1.268-.573-1.915-.024-.124-.012-.174.112-.199.398-.1.734-.199 1.107-.323.125-.025.137.012.15.1.174.621.373 1.268.547 1.877.025.038.037.062.05.15.31-.088.646-.2.957-.287.038-.024.025-.112.038-.161-.15-.498-.286-.958-.398-1.468-.05-.15-.087-.31-.137-.46C4.502.473 4.515.41 4.602.41 5 .31 5.373.187 5.796.075c.037-.025.05.012.087 0 .15.497.286.957.41 1.418.063.186.125.373.162.584.025.124.075.137.2.112.472-.05.932-.087 1.405-.137.447.013.908.1 1.343.299.597.336.945.846 1.12 1.467.111.423.174.846.062 1.27-.087.322-.274.609-.485.87-.038.025-.05.074-.112.112.199.025.36.012.56.037.584.075 1.056.286 1.467.684.286.336.485.759.597 1.182.137.547.199 1.044.112 1.592-.112.646-.448 1.156-.958 1.542-.647.51-1.356.833-2.09 1.12-.124.024-.174.099-.149.21.174.623.373 1.27.548 1.879.05.15.062.186-.15.211-.335.112-.733.2-1.082.311-.124.025-.137-.012-.149-.1a30.242 30.242 0 0 1-.535-1.94c-.037-.062-.025-.124-.112-.111-.31.087-.622.174-.957.286.111.335.186.709.286 1.044.112.336.186.71.286 1.045 0 .087.025.125-.1.15-.398.099-.771.223-1.144.348-.124.025-.137-.013-.15-.1a30.242 30.242 0 0 1-.534-1.94c-.025-.037 0-.087-.05-.15-.895.25-1.779.486-2.711.76-.013-.175-.038-.3-.05-.473a13.137 13.137 0 0 0-.137-1.095c-.025-.124.013-.137.112-.199.274-.074.585-.162.833-.261.311-.087.436-.336.336-.597a193.51 193.51 0 0 0-1.679-5.908c-.087-.31-.435-.51-.796-.435-.36.074-.709.186-1.007.273-.063.038-.125.025-.125-.062C.348 4.95.211 4.478.1 4.055c-.075.174-.075.174-.063.112z" id="k"/>
    <path id="m" d="M4.575 4.618h24.876v24.875H4.575z"/>
  </defs>
  <g fill="none" fill-rule="evenodd">
    <mask id="b" fill="#fff">
      <use xlink:href="#a"/>
    </mask>
    <g mask="url(#b)">
      <g transform="translate(0 .062)">
        <mask id="d" fill="#fff">
          <use xlink:href="#c"/>
        </mask>
        <g mask="url(#d)">
          <g transform="translate(-1.99 -1.99)">
            <mask id="f" fill="#fff">
              <use xlink:href="#e"/>
            </mask>
            <g mask="url(#f)">
              <g transform="translate(1.99 1.99)">
                <mask id="h" fill="#fff">
                  <use xlink:href="#g"/>
                </mask>
                <path fill="#4BCF51" fill-rule="nonzero" mask="url(#h)" d="M-1.915-1.94H26.84v28.756H-1.915z"/>
              </g>
            </g>
          </g>
        </g>
      </g>
      <g transform="translate(0 .062)">
        <mask id="j" fill="#fff">
          <use xlink:href="#i"/>
        </mask>
        <g mask="url(#j)">
          <g transform="translate(6.343 4.726)">
            <mask id="l" fill="#fff">
              <use xlink:href="#k"/>
            </mask>
            <g mask="url(#l)">
              <g transform="translate(-10.945 -9.328)">
                <mask id="n" fill="#fff">
                  <use xlink:href="#m"/>
                </mask>
                <path fill="#FFF" fill-rule="nonzero" mask="url(#n)" transform="rotate(-30 17.07 17.134)" d="M9.253 7.426h15.635v19.416H9.253z"/>
              </g>
            </g>
          </g>
        </g>
      </g>
    </g>
  </g>
</svg>
