<svg width="25" height="25" xmlns="http://www.w3.org/2000/svg">
  <g fill="none" fill-rule="evenodd">
    <path d="M25 12.5C25 19.404 19.404 25 12.5 25S0 19.404 0 12.5 5.596 0 12.5 0 25 5.596 25 12.5" fill="#182C44"/>
    <path d="M11.088 20.694c-.25 0-.5-.068-.724-.203a1.394 1.394 0 0 1-.68-1.204v-3.294a.547.547 0 1 1 1.093 0v3.294c0 .159.106.24.151.267a.306.306 0 0 0 .306.008l2.564-1.36c.494-.261.783-.751.773-1.31a1.428 1.428 0 0 0-.82-1.282l-3.341-1.617a1.647 1.647 0 0 1-.937-1.493c0-.642.36-1.214.937-1.493l3.34-1.617c.504-.243.81-.723.82-1.282a1.428 1.428 0 0 0-.772-1.31l-2.564-1.36a.306.306 0 0 0-.306.008.306.306 0 0 0-.15.267v3.294a.547.547 0 1 1-1.095 0V5.713c0-.497.255-.947.681-1.204.426-.256.943-.27 1.383-.037L14.31 5.83a2.536 2.536 0 0 1 1.354 2.297 2.536 2.536 0 0 1-1.437 2.247l-3.341 1.617a.554.554 0 0 0-.319.508c0 .222.12.412.319.508l3.341 1.617a2.536 2.536 0 0 1 1.437 2.246 2.536 2.536 0 0 1-1.354 2.298l-2.563 1.36c-.208.11-.434.165-.66.165M17.768 10.414v4.172l2.687-2.086-2.687-2.086zm-.547 5.835a.545.545 0 0 1-.547-.547V9.298a.547.547 0 0 1 .882-.432l4.126 3.202a.547.547 0 0 1 0 .864l-4.126 3.202a.547.547 0 0 1-.335.115zM4.545 12.5l2.687 2.086v-4.172L4.545 12.5zm3.234 3.75a.547.547 0 0 1-.335-.116l-4.126-3.202a.547.547 0 0 1 0-.864l4.126-3.202a.547.547 0 0 1 .882.432v6.404a.547.547 0 0 1-.547.547z" fill="#FFFFFE"/>
  </g>
</svg>
