<svg width="25" height="25" xmlns="http://www.w3.org/2000/svg" xmlns:xlink="http://www.w3.org/1999/xlink">
  <defs>
    <path d="M9.535 11.47l.274.315-.223.03c-.361.05-.925.174-1.048.295-.166.165-.328.893-.391 1.313l-.005.031-.02.026c-.108.138-.483.593-.75.604H7.36c-.169 0-.362-.128-.589-.389-.216-.013-.73-.081-.91-.415-.105-.194.086-.625.182-.818a.593.593 0 0 1-.005-.076c.005-.259.271-.755.514-.877.175-.089.436-.06.713-.03.245.025.523.055.628-.024.16-.119.235-.833.237-1.278v-.325l.598.688c.113-.28.236-.64.224-.778-.017-.19-.327-.708-.518-.989l.202-.137c.054.08.53.788.559 1.104.021.246-.202.8-.289 1.005l.465.535c.227-.326.612-.93.626-1.182.018-.33-.379-1.172-.723-1.792-.02-.037-.03-.056-.032-.057l.21-.124.036.064c.182.328.778 1.441.752 1.923-.02.36-.525 1.104-.704 1.358zM5.202 7.271a2.327 2.327 0 0 1-.364.529l-.073.07a.348.348 0 0 1 .343.101c.11.121.089.568-.052.648-.206.115-.783-.337-.937-.461a3.77 3.77 0 0 1-.368.073.12.12 0 0 1-.135-.108.12.12 0 0 1 .109-.127 3.36 3.36 0 0 0 .482-.074c.097-.024.194-.05.282-.088a.895.895 0 0 0 .246-.146c.154-.125.284-.286.402-.456.117-.17.223-.35.315-.54a4.246 4.246 0 0 1-.25.58zm-3.376-.768a1.26 1.26 0 1 1 .352-2.467A1.908 1.908 0 1 1 3.082 5.2l.002.045c0 .694-.564 1.258-1.258 1.258zm9.815 3.975h.122l-.088-.085.088-.084h-.122c-.008-.815-.156-2.111-.377-3.3a14.459 14.459 0 0 0-.274-1.235C10.293 3.276 8.42 1.314 5.72.253c-.814-.32-2.68-.321-3.34.1C-.817 2.392.069 5.646.36 6.715c.284 1.047 1.138 2.422 2.606 2.853l.963.091-.82.071a.524.524 0 0 1-.026.266l.458.02-.496.083c-.041.096-.09.18-.121.222-.098.132-.267.278-.445.432-.218.19-.466.404-.543.567-.025.054-.05.116-.077.19-.157.442-.244 1.111-.245 1.882-.002.962.13 1.952.336 2.524.24.666 1.406 1.694 2.044 2.036.162.086.4.16.706.22l-.023.121.002-.002.023-.117c.654.129 1.487.164 1.984.144.446-.02 1.783-.398 2.206-.52l-.304-.744.226-.092 1.068 2.611.923.087v-.584l-.843-.676-.39-1.823.238-.051.14.653c.271-.353.682-.906.87-1.252.026-.047.05-.095.068-.139.48-1.16.713-3.778.752-5.254l.001-.055z" id="a"/>
    <linearGradient x1="18.978%" y1="0%" x2="79.193%" y2="93.755%" id="b">
      <stop stop-color="#B8E27F" offset="0%"/>
      <stop stop-color="#2A6700" offset="100%"/>
    </linearGradient>
    <path d="M.05.016c.117.448.331 1.171.506 1.395.172.218.82.597 1.206.806V.824c-.213.01-.593.015-.75-.068C.848.666.629.312.535.148A3.611 3.611 0 0 1 .05.016" id="d"/>
  </defs>
  <g fill="none" fill-rule="evenodd">
    <path d="M20.874 20.183a.175.175 0 0 0-.251-.01l-.003.004a.174.174 0 0 0-.002.251l3.931 3.873-3.675-4.118M19.39 14.114l-.003.004a.175.175 0 0 0-.003.251l4.1 4.033-3.843-4.278a.175.175 0 0 0-.25-.01" fill="#000"/>
    <path d="M16.039 13.31l-2.544-2.486c-.038 1.312-.244 4.02-.769 5.287-.008.02-.02.04-.029.06.37.235 1.15.691 1.46.691.387-.001 1.159-.429 1.438-.697.242-.234.499-.705.747-1.16.2-.367.408-.746.623-1.037.129-.174.248-.302.365-.39.242-.182.642-.329 1.064-.484.566-.207 1.207-.442 1.403-.761.195-.32.08-1.426.001-1.953-.534.059-2.703.22-4.266-.784-.744-.478-1.84-1.523-2.347-2.022.181 1.07.3 2.175.312 2.917l2.542 2.819" fill="#FECD0F"/>
    <path d="M15.873 20.72l-.003.003a.174.174 0 0 0-.002.25l3.946 3.892-3.69-4.135a.175.175 0 0 0-.251-.01M16.632 17.204a.174.174 0 0 0-.122.3l2.772 2.672-2.519-2.91a.172.172 0 0 0-.131-.062" fill="#000"/>
    <path d="M12.663 20.023v.311l.592-.453a.192.192 0 0 1 .188-.025.187.187 0 0 1 .116.148c.02.308.093 1.138.21 1.388.11.236.51.7 1.124 1.309a.042.042 0 0 0 .046.01.043.043 0 0 0 .03-.038c.027-.142.05-.311.042-.355-.141-.783-1.33-2.771-1.567-3.162a.162.162 0 0 0-.064-.059l-.993-.522v.393l.276.22v.835" fill="#FECD0F"/>
    <path d="M10.925 21.926h-.002a.175.175 0 0 0-.002.252l2.88 2.809-2.624-3.047a.175.175 0 0 0-.252-.014" fill="#000"/>
    <g transform="translate(1.613 .23)">
      <mask id="c" fill="#fff">
        <use xlink:href="#a"/>
      </mask>
      <path d="M9.535 11.47l.274.315-.223.03c-.361.05-.925.174-1.048.295-.166.165-.328.893-.391 1.313l-.005.031-.02.026c-.108.138-.483.593-.75.604H7.36c-.169 0-.362-.128-.589-.389-.216-.013-.73-.081-.91-.415-.105-.194.086-.625.182-.818a.593.593 0 0 1-.005-.076c.005-.259.271-.755.514-.877.175-.089.436-.06.713-.03.245.025.523.055.628-.024.16-.119.235-.833.237-1.278v-.325l.598.688c.113-.28.236-.64.224-.778-.017-.19-.327-.708-.518-.989l.202-.137c.054.08.53.788.559 1.104.021.246-.202.8-.289 1.005l.465.535c.227-.326.612-.93.626-1.182.018-.33-.379-1.172-.723-1.792-.02-.037-.03-.056-.032-.057l.21-.124.036.064c.182.328.778 1.441.752 1.923-.02.36-.525 1.104-.704 1.358zM5.202 7.271a2.327 2.327 0 0 1-.364.529l-.073.07a.348.348 0 0 1 .343.101c.11.121.089.568-.052.648-.206.115-.783-.337-.937-.461a3.77 3.77 0 0 1-.368.073.12.12 0 0 1-.135-.108.12.12 0 0 1 .109-.127 3.36 3.36 0 0 0 .482-.074c.097-.024.194-.05.282-.088a.895.895 0 0 0 .246-.146c.154-.125.284-.286.402-.456.117-.17.223-.35.315-.54a4.246 4.246 0 0 1-.25.58zm-3.376-.768a1.26 1.26 0 1 1 .352-2.467A1.908 1.908 0 1 1 3.082 5.2l.002.045c0 .694-.564 1.258-1.258 1.258zm9.815 3.975h.122l-.088-.085.088-.084h-.122c-.008-.815-.156-2.111-.377-3.3a14.459 14.459 0 0 0-.274-1.235C10.293 3.276 8.42 1.314 5.72.253c-.814-.32-2.68-.321-3.34.1C-.817 2.392.069 5.646.36 6.715c.284 1.047 1.138 2.422 2.606 2.853l.963.091-.82.071a.524.524 0 0 1-.026.266l.458.02-.496.083c-.041.096-.09.18-.121.222-.098.132-.267.278-.445.432-.218.19-.466.404-.543.567-.025.054-.05.116-.077.19-.157.442-.244 1.111-.245 1.882-.002.962.13 1.952.336 2.524.24.666 1.406 1.694 2.044 2.036.162.086.4.16.706.22l-.023.121.002-.002.023-.117c.654.129 1.487.164 1.984.144.446-.02 1.783-.398 2.206-.52l-.304-.744.226-.092 1.068 2.611.923.087v-.584l-.843-.676-.39-1.823.238-.051.14.653c.271-.353.682-.906.87-1.252.026-.047.05-.095.068-.139.48-1.16.713-3.778.752-5.254l.001-.055z" fill="url(#b)" mask="url(#c)"/>
    </g>
    <g transform="translate(5.678 18.482)">
      <mask id="e" fill="#fff">
        <use xlink:href="#d"/>
      </mask>
      <path d="M.05.016c.117.448.331 1.171.506 1.395.172.218.82.597 1.206.806V.824c-.213.01-.593.015-.75-.068C.848.666.629.312.535.148A3.611 3.611 0 0 1 .05.016" fill="#356C00" mask="url(#e)"/>
    </g>
    <path d="M9.652 11.88c-.183.136-.483.104-.8.07-.123-.013-.254-.027-.366-.027a.5.5 0 0 0-.211.034c-.15.075-.377.47-.38.661 0 .027.003.055.01.082v.002c.066.298.425.766.543.92.023.03.051.066.085.104.273.325.407.344.443.345.1-.004.36-.25.548-.487.034-.214.196-1.159.456-1.417.169-.167.664-.276.967-.329l-.971-1.116c-.023.39-.095.987-.324 1.158M8.178 19.298h-.494v1.167l1.61 1.596-1.116-2.763M7.688 13.395c.076.136.28.216.495.257a4.156 4.156 0 0 1-.408-.618c-.067.17-.106.317-.087.361" fill="#FECD0F"/>
    <path d="M3.987 3.77a.912.912 0 1 1 1.827 0 .914.914 0 0 1-1.827 0zm-.71 2.354a.65.65 0 1 1 0-1.3.65.65 0 0 1 0 1.3zm2.355-.447a1.907 1.907 0 1 0-1.84-1.41 1.26 1.26 0 1 0 .906 1.208c0-.015-.002-.03-.003-.044a1.9 1.9 0 0 0 .937.246z" fill="#FFF"/>
    <path d="M6.349 7.918a.895.895 0 0 1-.246.146 1.768 1.768 0 0 1-.283.088 3.36 3.36 0 0 1-.482.074.12.12 0 0 0-.108.127.12.12 0 0 0 .135.108 3.77 3.77 0 0 0 .508-.11c.103-.033.207-.069.308-.118a.865.865 0 0 0 .197-.134c.026-.022.05-.046.073-.07.152-.159.266-.341.364-.528.098-.187.182-.38.25-.578a4.16 4.16 0 0 1-.314.54c-.118.169-.249.33-.402.455" fill="#000"/>
    <path d="M5.873 8.35a4.505 4.505 0 0 1-.14.038c.153.124.73.576.936.461.142-.08.162-.527.053-.647a.348.348 0 0 0-.344-.103.865.865 0 0 1-.197.134 2.158 2.158 0 0 1-.308.117" fill="#CA1117"/>
    <path d="M5.814 3.77a.913.913 0 1 0-1.826-.001.913.913 0 0 0 1.826 0M3.276 4.824a.65.65 0 1 0 .002 1.3.65.65 0 0 0-.002-1.3" fill="#000"/>
    <path d="M2.148 11.431c-.096.006-.159.037-.192.098-.102.187.074.63.273.983l.009.015.011.02c.015.023.02.035.02.035l-.108.055-.012-.022a.277.277 0 0 1-.018-.03l-.007-.011c-.197-.32-.48-.653-.676-.625-.131.018-.21.205-.254.358-.015.052.07.169.133.254a.846.846 0 0 1 .124.202c.021.063.027.152.033.246.007.112.015.239.051.292.077.111.29.328.433.328h.003c.044 0 .135-.108.19-.205l.16-.281-.047.32c-.02.133-.009.277.021.298.167.113.5-.03.689-.137v-.003c.001-.76.086-1.427.237-1.895a4.606 4.606 0 0 0-.514-.225 2.393 2.393 0 0 0-.56-.07" fill="#FECD0F"/>
    <path d="M12.434 16.156c-.189.346-.6.899-.87 1.252l-.14-.653-.238.051.39 1.823.843.676v.584l-.924-.087-1.068-2.61-.225.091.304.744c-.423.122-1.76.5-2.206.52a9.532 9.532 0 0 1-1.985-.144l-.023.118-.002.002.024-.122c-.307-.06-.544-.134-.707-.22-.638-.342-1.803-1.37-2.043-2.036-.207-.572-.339-1.562-.337-2.524.002-.77.089-1.44.245-1.883.027-.073.052-.135.078-.189.077-.163.324-.378.542-.567.179-.154.347-.3.445-.432.031-.042.08-.126.122-.222l.495-.083-.457-.02a.524.524 0 0 0 .026-.265l.82-.072-.963-.09C3.11 9.365 2.258 7.99 1.974 6.943 1.683 5.875.797 2.621 3.992.584 4.653.162 6.518.163 7.332.483c2.702 1.062 4.575 3.023 5.272 5.521.09.326.185.753.274 1.235.22 1.189.369 2.485.376 3.301l.122-.001-.088.084.088.085h-.122v.055c-.04 1.476-.272 4.093-.752 5.254a1.439 1.439 0 0 1-.068.139zm-.047 2.42l.993.521a.162.162 0 0 1 .064.06c.237.39 1.426 2.378 1.567 3.16.008.045-.015.214-.042.356a.043.043 0 0 1-.03.038.042.042 0 0 1-.046-.01c-.615-.608-1.014-1.073-1.124-1.309-.117-.25-.19-1.08-.21-1.388a.187.187 0 0 0-.116-.148.192.192 0 0 0-.188.025l-.592.453v-1.146l-.276-.22v-.393zm-5.697.661c.157.084.537.08.75.069v1.392c-.386-.209-1.034-.587-1.206-.805-.175-.224-.389-.947-.506-1.395.137.05.3.093.485.131.094.164.313.52.477.608zm-3.706-5.616v.003c-.19.106-.522.25-.689.137-.03-.02-.04-.165-.02-.298l.047-.32-.16.281c-.056.097-.147.204-.191.205h-.003c-.143 0-.356-.217-.433-.328-.036-.053-.044-.18-.051-.292a1.054 1.054 0 0 0-.033-.246.846.846 0 0 0-.124-.202c-.063-.085-.148-.202-.133-.254.043-.153.123-.34.254-.358.197-.028.48.305.676.625l.007.011a.277.277 0 0 0 .018.03l.012.022.109-.055-.02-.035-.012-.02-.009-.015c-.199-.352-.375-.796-.273-.983.033-.06.096-.092.192-.098.14-.006.425.033.56.07.113.031.399.17.513.225-.151.468-.236 1.135-.237 1.895zm12.548-4.025c1.563 1.004 3.732.843 4.266.784.08.527.194 1.633-.001 1.953-.196.319-.837.554-1.403.761-.422.155-.822.302-1.064.484a1.916 1.916 0 0 0-.365.39c-.215.291-.422.67-.623 1.037-.248.455-.505.926-.747 1.16-.28.268-1.051.696-1.438.697-.31 0-1.09-.456-1.46-.692l.03-.06c.524-1.266.73-3.974.768-5.286l2.544 2.486-2.542-2.819c-.011-.742-.13-1.847-.312-2.917.506.499 1.603 1.544 2.347 2.022zm-7.848 9.702h.494l1.116 2.763-1.61-1.596v-1.167zm6.473-2.192c.464-.002 1.294-.465 1.607-.765.27-.26.523-.726.792-1.219.196-.36.4-.732.605-1.01.115-.154.218-.266.316-.34.213-.16.596-.3 1.001-.449.633-.232 1.287-.472 1.526-.863.297-.484.046-2.057.017-2.235l-.02-.117-.118.017c-.025.003-2.54.345-4.22-.734-.886-.569-2.343-2.023-2.553-2.234a14.6 14.6 0 0 0-.272-1.218C12.12 3.365 10.196 1.347 7.421.256c-.785-.309-2.775-.379-3.56.123-3.346 2.134-2.425 5.517-2.122 6.63.299 1.101 1.199 2.547 2.75 3.014.008.065-.063.267-.147.382-.082.11-.241.248-.41.393-.247.215-.504.437-.603.647a2.33 2.33 0 0 0-.068.165 4.476 4.476 0 0 0-.521-.226 2.482 2.482 0 0 0-.599-.074c-.14.008-.237.062-.291.16-.08.145-.044.365.032.582-.141-.142-.299-.245-.45-.223-.158.021-.277.171-.355.444-.032.11.061.237.152.36a.801.801 0 0 1 .107.169c.016.048.021.133.027.215.008.133.017.271.072.353.056.081.316.386.537.38.062 0 .121-.044.171-.096.006.085.027.17.084.208a.39.39 0 0 0 .225.061c.185 0 .394-.09.533-.162.01.943.144 1.898.35 2.466.256.712 1.415 1.75 2.109 2.14.062.254.34 1.345.598 1.676.272.346 1.343.904 1.464.966l.178.091v-.292l1.531 1.517a.216.216 0 0 0 .272.028.215.215 0 0 0 .082-.263l-1.227-3.036h-.658v-.01l-.132.01c-.248.02-.645.023-.747-.031-.058-.032-.166-.173-.271-.336a10.304 10.304 0 0 0 1.776.103c.487-.02 1.888-.42 2.289-.536l.727 1.777 1.093.102v.316c0 .072.04.136.105.168.064.031.14.023.197-.02l.603-.462c.022.295.09 1.073.224 1.36.157.335.725.935 1.173 1.378a.285.285 0 0 0 .3.068.281.281 0 0 0 .188-.231c.015-.074.062-.325.042-.435-.145-.805-1.26-2.687-1.6-3.245a.408.408 0 0 0-.157-.148l-1.053-.554a.204.204 0 0 0-.297.182v.262l-.348-.279-.166-.773c.273-.35.709-.925.952-1.334.314.2 1.171.72 1.575.72z" fill="#000"/>
    <path d="M9.98 12.167c-.26.258-.422 1.203-.456 1.417-.188.236-.447.483-.548.487-.036-.001-.17-.02-.443-.345a2.035 2.035 0 0 1-.085-.105c-.118-.153-.477-.62-.543-.919V12.7a.346.346 0 0 1-.01-.082c.003-.19.23-.586.38-.661a.5.5 0 0 1 .211-.034c.112 0 .243.014.366.027.317.034.617.066.8-.07.23-.171.301-.769.324-1.158l.97 1.116c-.302.053-.797.162-.966.329zm-2.292 1.228c-.018-.044.019-.192.084-.36.102.208.254.43.393.617-.207-.041-.404-.121-.477-.257zm3.377-5.04l-.21.124.031.057c.345.62.741 1.461.723 1.793-.014.251-.399.855-.625 1.182l-.465-.536c.087-.205.31-.759.288-1.005-.029-.316-.504-1.024-.559-1.104l-.201.137c.19.281.5.798.518.989.012.137-.112.497-.225.778l-.597-.688-.001.325c-.001.445-.077 1.16-.236 1.278-.106.08-.383.05-.628.023-.277-.03-.538-.057-.713.031-.243.122-.51.619-.514.877 0 .026.002.051.005.076-.096.193-.288.624-.183.818.18.334.695.402.91.415.228.26.42.39.59.39h.013c.267-.012.641-.466.75-.605l.02-.026.004-.031c.063-.42.225-1.148.392-1.313.122-.121.686-.245 1.047-.295l.223-.03-.274-.315c.18-.254.684-.999.705-1.358.025-.481-.57-1.595-.753-1.922l-.035-.065z" fill="#000"/>
  </g>
</svg>
