<svg width="25" height="25" xmlns="http://www.w3.org/2000/svg">
  <g fill-rule="nonzero" fill="none">
    <path d="M5 10.289v6.286h5.036c.026-.337.127-.663.297-.955L5 10.289z" fill="#B9BEC1"/>
    <path d="M5 0v8.6l6.183 6.182c.311-.174.66-.272 1.016-.284V6.43L5 0z" fill="#DE575B"/>
    <path d="M6.806 22.23l3.532-3.371a2.846 2.846 0 0 1-.45-1.156H5.013a7.681 7.681 0 0 0 1.793 4.527zm6.473-12.656v4.89c.36.072.703.213 1.01.415l3.46-3.46a7.684 7.684 0 0 0-4.47-1.845zm-1.074 10.511a2.853 2.853 0 0 1-1.078-.435l-3.543 3.382a7.689 7.689 0 0 0 4.621 1.938v-4.885zm2.878-4.425c.192.282.332.597.413.929h4.908a7.683 7.683 0 0 0-1.864-4.384l-3.457 3.455zm-.71 3.943c-.29.206-.617.357-.962.443v4.91a7.678 7.678 0 0 0 4.327-1.827l-3.365-3.526zm1.172-1.9c-.053.357-.175.7-.357 1.01l3.4 3.564a7.684 7.684 0 0 0 1.833-4.573h-4.876z" fill="#B9BEC1"/>
  </g>
</svg>
