<svg width="25" height="25" xmlns="http://www.w3.org/2000/svg">
  <g fill="none" fill-rule="evenodd">
    <path d="M17.349 7.735H7.184v1.834H17.35V7.735zm0 3.857H7.184v1.834H17.35v-1.834zM7.184 15.449H17.35v1.835H7.184v-1.835z" fill="#0DA9FF"/>
    <path d="M12.5 0C5.598 0 0 5.598 0 12.5S5.598 25 12.5 25 25 19.402 25 12.5 19.402 0 12.5 0zm.927 23.128v-2.912h-1.835v2.912c-5.465-.473-9.758-5.05-9.758-10.628 0-5.579 4.293-10.155 9.758-10.628v2.894h1.835V1.872c5.446.473 9.758 5.05 9.758 10.628-.02 5.579-4.312 10.155-9.758 10.628z" fill="#202326" fill-rule="nonzero"/>
  </g>
</svg>
