<svg width="25" height="25" xmlns="http://www.w3.org/2000/svg">
  <defs>
    <linearGradient x1="26.089%" y1="16.244%" x2="74.249%" y2="84.234%" id="a">
      <stop stop-color="#DEB354" offset="0%"/>
      <stop stop-color="#C89550" offset="100%"/>
    </linearGradient>
  </defs>
  <g fill-rule="nonzero" fill="none">
    <circle fill="url(#a)" cx="12.802" cy="12.13" r="9.929"/>
    <path d="M14.06 11.063c.804-1.046.552-3.015-.422-3.688s-2-.336-2.199-.147c-.198.19-.189 4.605-.189 4.605s2.005.276 2.81-.77m.15 1.879c-.754-.328-2.96-.242-2.96-.242s-.035 1.115.046 3.202c.08 2.086.793 2.075 1.534 2.103.742.029 2.155-.023 2.621-1.822.465-1.799-.489-2.913-1.242-3.24" fill="#000"/>
    <path d="M12.5 0C5.596 0 0 5.596 0 12.5S5.596 25 12.5 25 25 19.404 25 12.5 19.404 0 12.5 0m5.077 8.997c.035 2.086-1.784 2.672-1.784 2.672s.741-.716.707-2.551c-.035-1.836-1.414-2.742-1.414-2.742s2.457.534 2.491 2.62M9.4 18.8l-2.517.12v-.23s1.54-.155 1.54-2.856V8.931c0-2.288-1.54-2.684-1.54-2.684V6.04l2.517.12V18.8m4.023.129c-1.095.008-3.127-.141-3.127-.141V6.177c1.34-.017 1.808-.198 2.912-.042 1.103.155 2.051 1.232 2.31 2.31.259 1.078-.017 2.104-.37 2.664-.355.56-1.13.948-1.13.948s1.172.397 1.586.742c.414.344 1.216 1.284.906 3.327a3.186 3.186 0 0 1-3.087 2.802m2.91-.466s1.194-1.017 1.141-3.08c-.052-2.062-1.141-3.032-1.141-3.032s2.245.552 2.271 3.009c.026 2.457-2.271 3.103-2.271 3.103" fill="#000"/>
  </g>
</svg>
