<svg width="25" height="25" xmlns="http://www.w3.org/2000/svg">
  <g fill-rule="nonzero" fill="none">
    <path d="M12.5 0C5.6 0 0 5.6 0 12.5S5.6 25 12.5 25 25 19.4 25 12.5 19.4 0 12.5 0z" fill="#000E26"/>
    <path d="M14.28 11.594c0-1.287-.773-1.717-1.535-1.717h-1.717v5.508h.994v-1.996l.518-.001.853 1.997h1.097l-.992-2.221c.484-.261.782-.762.782-1.57zm-1.811.817h-.447v-1.568h.502c.36 0 .79.133.79.79s-.508.778-.845.778zm-2.766.025c.207-.025.708-.385.729-1.052.016-.845-.35-1.507-1.43-1.507H7.35v5.508h1.632c.596 0 1.508-.323 1.648-1.342.141-1.019-.397-1.458-.927-1.607zm-1.378-1.593h.52c.402 0 .62.166.62.637 0 .472-.378.607-.626.607h-.514v-1.244zm.61 3.562h-.61v-1.43h.617c.48 0 .739.19.739.733 0 .542-.45.697-.746.697zm9.353-4.528h-1.07l-.63 1.95-.698-1.95h-1.103l1.136 2.68-1.203 2.837h1.054l.713-2 .78 2h1.096l-1.203-2.759 1.128-2.758z" fill="#FFF"/>
    <path d="M21.855 14.536l1.106.638c.44-1.735.445-3.552.014-5.289l-1.12.647s-.772-.82-1.671-2.377c-.9-1.558-1.223-2.636-1.223-2.636l1.156-.668a10.787 10.787 0 0 0-4.624-2.725v1.39s-1.095.259-2.894.259c-1.799 0-2.894-.259-2.894-.259V2.071A10.78 10.78 0 0 0 4.957 4.78l1.28.74s-.323 1.078-1.223 2.635c-.899 1.558-1.67 2.377-1.67 2.377L2.05 9.785c-.465 1.8-.46 3.69.016 5.488l1.277-.737s.772.82 1.672 2.377c.899 1.558 1.223 2.636 1.223 2.636L5 20.262a10.779 10.779 0 0 0 4.705 2.666v-1.377s1.096-.259 2.894-.259c1.799 0 2.894.259 2.894.259v1.323c1.727-.499 3.301-1.42 4.58-2.683l-1.112-.642s.324-1.078 1.223-2.636c.9-1.558 1.671-2.377 1.671-2.377zM12.5 20.87a8.37 8.37 0 1 1 0-16.74 8.37 8.37 0 0 1 0 16.74z" fill="#2FA5FF"/>
  </g>
</svg>
