<svg width="25" height="25" xmlns="http://www.w3.org/2000/svg">
  <g fill="none" fill-rule="nonzero">
    <path d="M24.626 15.524c-1.67 6.696-8.453 10.772-15.151 9.102-6.695-1.67-10.771-8.452-9.1-15.149C2.042 2.78 8.826-1.295 15.522.374c6.697 1.67 10.773 8.453 9.103 15.15z" fill="#F7931A"/>
    <path d="M17.744 11.266c.245-1.638-1.002-2.518-2.707-3.106l.553-2.218-1.35-.337-.539 2.16a56.49 56.49 0 0 0-1.082-.254l.543-2.174L11.812 5l-.554 2.218a45.176 45.176 0 0 1-.862-.203l.002-.007-1.863-.465-.359 1.442s1.002.23.98.244c.548.137.647.499.63.786l-.63 2.527c.038.01.087.023.14.045-.044-.011-.093-.024-.142-.035l-.883 3.54c-.067.166-.237.415-.62.32.014.02-.98-.244-.98-.244L6 16.713l1.757.439c.327.081.648.167.963.248l-.559 2.244 1.349.336.553-2.22c.369.1.727.193 1.077.28l-.552 2.21 1.35.336.56-2.24c2.302.436 4.034.26 4.762-1.823.588-1.676-.029-2.644-1.24-3.275.882-.203 1.547-.783 1.724-1.982zm-3.086 4.326c-.417 1.677-3.24.77-4.156.543l.742-2.972c.915.228 3.85.68 3.414 2.43zm.418-4.35c-.38 1.525-2.73.75-3.493.56l.672-2.696c.763.19 3.218.544 2.821 2.136z" fill="#FFF"/>
  </g>
</svg>
