<svg width="25" height="25" xmlns="http://www.w3.org/2000/svg">
  <g fill="none" fill-rule="evenodd">
    <path d="M24.991 12.505c0 6.894-5.588 12.482-12.482 12.482-6.894 0-12.482-5.588-12.482-12.482C.027 5.61 5.615.023 12.509.023c6.894 0 12.482 5.588 12.482 12.482" fill="#293166"/>
    <path d="M15.1 14.117c1.555 1.08 1.344 3.805-3.034 2.826l-1.144 4.785 1.664.416.694-2.774c6.57 1.242 7.082-4.188 5.183-5.86-.017.018-.034.018-.052.018a9.368 9.368 0 0 1-3.311.589" fill="#FFF"/>
    <path d="M16.452 10.58c-.468 1.89-3.38.937-4.316.694l.832-3.329c.936.226 3.97.66 3.484 2.635zm-.07-3.83l.694-2.723-1.664-.416-.659 2.67c-.433-.104-.884-.208-1.335-.312l.677-2.687-1.665-.416-.693 2.739c-.364-.087-3.38-.832-3.38-.832l-.434 1.785s1.213.274 1.213.295c.676.173.798.624.78.971l-1.872 7.524c-.087.208-.295.52-.763.399.018.017-1.213-.295-1.213-.295l-.832 1.907 2.167.537 1.196.312-.694 2.774 1.665.416 2.132-8.442c2.005.546 5.876.81 7.281-.66.886-.956 2.006-3.961-2.6-5.547z" fill="#FFF"/>
  </g>
</svg>
