<svg width="25" height="25" xmlns="http://www.w3.org/2000/svg">
  <path d="M5 16.667v-6.39l5.416 5.336a2.976 2.976 0 0 0-.461 1.054H5zm0 1.11h4.99c.067.389.228.747.426 1.077l-3.513 3.507C5.815 21.104 5.113 19.527 5 17.778zm8.195-3.222V9.583a7.794 7.794 0 0 1 4.583 1.904L14.243 15a2.493 2.493 0 0 0-1.048-.445zm2.205 3.223h4.877a7.764 7.764 0 0 1-1.811 4.444l-3.467-3.475c.186-.289.307-.606.4-.97zm-.4-2.189l3.513-3.506c1.088 1.258 1.79 2.835 1.903 4.584h-4.97a3.464 3.464 0 0 0-.447-1.078zm-7.361 7.508l3.534-3.514c.302.228.652.369 1.05.445V25a7.78 7.78 0 0 1-4.584-1.903zm5.695-3.069a2.947 2.947 0 0 0 1.086-.445l3.497 3.514A7.726 7.726 0 0 1 13.334 25v-4.972zM5 0l7.222 6.373v8.094c-.368.075-.68.226-.984.394-.698-.706-4.886-4.888-6.218-6.213L5 0z" fill="#00A9E0" fill-rule="evenodd"/>
</svg>
