<svg width="25" height="25" xmlns="http://www.w3.org/2000/svg">
  <g fill-rule="nonzero" fill="none">
    <path fill="#0099E5" d="M0 0h24.956v24.956H0z"/>
    <g fill="#FFF">
      <path d="M12.096 12.934l2.369 2.408a3.3 3.3 0 0 0 4.724 0 3.452 3.452 0 0 0 0-4.817 3.3 3.3 0 0 0-4.724 0l-2.369 2.409zm4.732 4.596a4.458 4.458 0 0 1-3.2-1.348l-3.193-3.248 3.194-3.249a4.47 4.47 0 0 1 6.396 0 4.661 4.661 0 0 1 0 6.497 4.456 4.456 0 0 1-3.197 1.348z"/>
      <path d="M8.129 17.53a4.455 4.455 0 0 1-3.198-1.348 4.661 4.661 0 0 1 0-6.497 4.47 4.47 0 0 1 6.397 0l.15.154-.835.839-.151-.153a3.302 3.302 0 0 0-4.726 0 3.452 3.452 0 0 0 0 4.817 3.302 3.302 0 0 0 4.726 0l.15-.154.837.847-.151.154a4.458 4.458 0 0 1-3.2 1.348"/>
    </g>
  </g>
</svg>
