<svg width="25" height="25" xmlns="http://www.w3.org/2000/svg">
  <g fill="none" fill-rule="evenodd">
    <path d="M25 12.5C25 19.404 19.404 25 12.5 25S0 19.404 0 12.5 5.596 0 12.5 0 25 5.596 25 12.5" fill="#3A3A39"/>
    <path d="M12.5 23.181c-5.89 0-10.681-4.791-10.681-10.681C1.819 6.61 6.61 1.819 12.5 1.819c5.89 0 10.681 4.791 10.681 10.681 0 5.89-4.791 10.681-10.681 10.681zm0-22.053C6.23 1.128 1.128 6.229 1.128 12.5c0 6.27 5.101 11.372 11.372 11.372 6.27 0 11.372-5.101 11.372-11.372 0-6.27-5.101-11.372-11.372-11.372z" fill="#FFFFFE"/>
    <path d="M6.38 8.788c1.304 3.287 2.917 6.185 4.795 8.62l.105-.043c-1.63-3.45-2.792-6.83-3.456-10.053-.734.046-1.207.53-1.444 1.476zm13.708 4.961a2.43 2.43 0 0 0 .529-.96c.142-.53.064-.988-.239-1.391-1.64 2.739-3.49 4.928-5.639 6.676.084.102.157.21.216.323a28.75 28.75 0 0 0 5.133-4.648zM8.299 7.085c.656 3.241 1.825 6.648 3.477 10.131l.048-.01a60.796 60.796 0 0 1-1.492-11.238c-.909-.216-1.566.143-2.033 1.117zm2.49 11.818a26.109 26.109 0 0 0 .672.428l.209.128c.15.09.3.18.452.267a.77.77 0 0 0 .757 0c.151-.087.302-.177.452-.267l.206-.127a31.082 31.082 0 0 0 .676-.43l.249-.165.068-.046a1.378 1.378 0 0 0-.32-.438l-.02-.02a1.945 1.945 0 0 0-.428-.293 2.501 2.501 0 0 0-.45-.176l-.004-.001a2.943 2.943 0 0 0-.808-.112c-.285 0-.558.04-.808.112h-.005a2.502 2.502 0 0 0-.488.198c-.145.079-.276.17-.388.272l-.022.02c-.138.13-.248.277-.319.438l.067.045.251.167zm9.298-8.018c.111-1.014-.212-1.573-1.042-1.783-1.301 3.252-2.904 6.128-4.767 8.557l.085.06c2.19-1.769 4.064-4.007 5.724-6.834zM4.912 13.75a28.75 28.75 0 0 0 5.133 4.648c.059-.113.131-.221.216-.323-2.15-1.748-3.998-3.938-5.64-6.676-.302.403-.38.86-.238 1.39.092.34.27.663.529.961zm5.81 3.91c-1.863-2.43-3.466-5.305-4.767-8.557-.83.21-1.153.769-1.042 1.783 1.66 2.827 3.535 5.065 5.724 6.835a2.48 2.48 0 0 1 .085-.061zm.12-11.777c.14 3.781.642 7.568 1.492 11.262a3.464 3.464 0 0 1 .332 0 60.28 60.28 0 0 0 1.493-11.262c-.491-.406-1.259-.706-1.661-.71-.399.004-1.166.304-1.657.71zm3.826.086a60.802 60.802 0 0 1-1.491 11.238l.047.01c1.652-3.483 2.821-6.89 3.477-10.131-.467-.974-1.124-1.333-2.033-1.117zm-.843 11.44a3.012 3.012 0 0 0-.105-.043c1.63-3.45 2.792-6.83 3.456-10.052.733.047 1.207.53 1.444 1.476-1.304 3.286-2.917 6.184-4.795 8.62z" fill="#FFFFFE"/>
  </g>
</svg>
