<svg width="25" height="25" xmlns="http://www.w3.org/2000/svg">
  <g fill="#F13D20" fill-rule="nonzero">
    <path d="M12.5 0C5.607 0 0 5.607 0 12.5 0 19.392 5.607 25 12.5 25 19.392 25 25 19.392 25 12.5 25 5.607 19.392 0 12.5 0zm0 23.04c-5.812 0-10.54-4.728-10.54-10.54C1.96 6.69 6.688 1.96 12.5 1.96c5.812 0 10.54 4.728 10.54 10.54 0 5.812-4.727 10.54-10.54 10.54z"/>
    <path d="M12.5 6.889A5.617 5.617 0 0 0 6.889 12.5c0 1.675.738 3.18 1.905 4.208a7.698 7.698 0 0 1 1.842-.673A4 4 0 0 1 8.503 12.5 4.002 4.002 0 0 1 12.5 8.503a4.001 4.001 0 0 1 3.997 3.997 4 4 0 0 1-2.133 3.534 7.7 7.7 0 0 1 1.842.674A5.597 5.597 0 0 0 18.11 12.5 5.618 5.618 0 0 0 12.5 6.889"/>
    <path d="M12.5 3.315c-5.065 0-9.185 4.12-9.185 9.185a9.158 9.158 0 0 0 2.873 6.663 5.761 5.761 0 0 1 1.154-1.446A7.318 7.318 0 0 1 5.159 12.5c0-4.048 3.293-7.34 7.341-7.34s7.34 3.292 7.34 7.34a7.318 7.318 0 0 1-2.182 5.217c.469.428.859.916 1.154 1.447a9.158 9.158 0 0 0 2.873-6.664c0-5.065-4.12-9.185-9.185-9.185"/>
  </g>
</svg>
