<svg width="25" height="25" xmlns="http://www.w3.org/2000/svg" xmlns:xlink="http://www.w3.org/1999/xlink">
  <defs>
    <path d="M20.01 10.002c0 5.523-4.477 10-10 10s-10-4.477-10-10 4.477-10 10-10c5.524 0 10 4.477 10 10" id="a"/>
    <path d="M4.292 1.361L3.523.03l-.357.206a1.9 1.9 0 0 1-.035.134c-.046.154-.116.31-.262.395-.207.12-.58.185-.815.226-.21.037-.511.099-.698.207C.9 1.462.516 1.794.22 2.206c.284.64.453 1.374.178 2.042a2.2 2.2 0 0 1-.385.6l.025.039 1.75-1.01-.41-.71a1.442 1.442 0 0 1-.196-.848c.028-.351.19-.643.497-.821.368-.213.774-.275 1.151-.053.166.097.354.287.514.463l.948-.547" id="c"/>
    <path d="M4.647 1.365L3.878.034 3.521.24a1.88 1.88 0 0 1-.036.134c-.046.154-.115.31-.261.395-.207.12-.58.185-.815.226a4.784 4.784 0 0 0-.13.025l-.24.049-.45-.78-.19.11.42.729-.274.175c-.117.074-.23.155-.337.242l-.31.248L.42.964l-.19.11.52.901-.135.18a3.35 3.35 0 0 0-.365.615c-.306.665-.332 1.312.04 1.956.033.057.067.112.103.165l1.75-1.01-.41-.71a1.442 1.442 0 0 1-.197-.848c.028-.351.19-.643.498-.821.368-.213.773-.275 1.15-.053.167.097.355.287.515.463l.948-.547" id="e"/>
  </defs>
  <g fill="none" fill-rule="evenodd">
    <path d="M24.985 12.502c0 6.89-5.585 12.475-12.474 12.475-6.89 0-12.475-5.585-12.475-12.475S5.62.027 12.51.027s12.474 5.585 12.474 12.475" fill="#222C46"/>
    <path d="M23.117 12.502c0-5.858-4.748-10.607-10.606-10.607S1.904 6.644 1.904 12.502 6.652 23.11 12.51 23.11c5.858 0 10.606-4.749 10.606-10.607zm.62 0c0 6.2-5.026 11.227-11.226 11.227-6.2 0-11.227-5.027-11.227-11.227S6.31 1.275 12.511 1.275c6.2 0 11.226 5.027 11.226 11.227z" fill="#DF4F2A"/>
    <g transform="translate(2.5 2.5)">
      <mask id="b" fill="#fff">
        <use xlink:href="#a"/>
      </mask>
      <path d="M20.01 10.002c0 5.523-4.477 10-10 10s-10-4.477-10-10 4.477-10 10-10c5.524 0 10 4.477 10 10" mask="url(#b)"/>
    </g>
    <path d="M23.141 12.502c0 5.872-4.76 10.631-10.63 10.631-5.872 0-10.631-4.76-10.631-10.631S6.64 1.871 12.51 1.871c5.872 0 10.631 4.76 10.631 10.631" fill="#E3E4E2"/>
    <path d="M9.506 20.53a1.756 1.756 0 0 0-.148-.56.656.656 0 0 0-.285-.298.456.456 0 0 0-.48.014c-.155.097-.305.285-.45.564-.088.17-.11.33-.064.477.046.147.153.264.321.351.136.07.281.112.436.124.155.012.314-.006.477-.055-.164.288-.373.468-.63.536-.256.069-.54.023-.853-.14-.352-.182-.57-.427-.657-.732-.088-.306-.034-.646.162-1.022.213-.412.484-.682.812-.81.328-.128.671-.1 1.029.086.1.052.212.123.334.21.122.09.198.141.228.157a.56.56 0 0 0 .143.05c.051.01.105.016.161.016l-.536 1.032zm1.643.66c-.026.336-.01.57.047.7s.168.202.334.215c.167.013.288-.041.365-.161.076-.12.128-.349.153-.684.026-.337.01-.57-.047-.702s-.169-.204-.335-.217c-.165-.013-.286.042-.363.163-.077.122-.128.35-.154.686zm1.865.142c-.038.483-.18.828-.428 1.039-.247.21-.613.297-1.096.26-.484-.038-.831-.18-1.043-.425-.212-.246-.3-.609-.263-1.091.037-.48.18-.825.426-1.036.247-.21.612-.297 1.096-.26.485.038.833.178 1.045.424.212.245.3.608.263 1.09zm1.808-1.78a.547.547 0 0 0-.116.498l.406 1.739a.542.542 0 0 0 .325.402l-1.299.303a.543.543 0 0 0 .114-.504l-.406-1.74a.547.547 0 0 0-.324-.396l1.3-.303zm1.399-.704a.32.32 0 0 0 .006.047c.003.01.007.02.013.03l.012.016a.07.07 0 0 0 .014.01l.993.583c.076.043.157.095.244.156.085.06.177.129.274.206a3.442 3.442 0 0 1-.278-.379l-.435-.669a.573.573 0 0 0-.188-.185.553.553 0 0 0-.255-.075l.926-.601a.584.584 0 0 0-.035.263c.01.085.04.168.092.248l1.122 1.728c.025.038.05.067.072.087.024.02.05.033.08.042l-.843.547a.323.323 0 0 0-.01-.045.108.108 0 0 0-.014-.033.073.073 0 0 0-.021-.02l-.006-.004-1.122-.635a2.744 2.744 0 0 1-.224-.144 10.054 10.054 0 0 1-.296-.22 3.353 3.353 0 0 1 .281.378l.495.763a.56.56 0 0 0 .447.265l-.926.601a.544.544 0 0 0-.064-.513l-.972-1.498a.546.546 0 0 0-.44-.263l1.058-.686zM18.553 5.65a2.445 2.445 0 0 0 .136.14c.164.163.302.264.414.305.113.042.207.025.28-.05a.245.245 0 0 0 .063-.246.691.691 0 0 0-.2-.31c-.096-.094-.178-.15-.246-.165-.068-.016-.131.007-.19.066l-.257.26zm-.366.37l-.3.302c-.069.07-.095.145-.078.223.017.077.081.17.191.28a.766.766 0 0 0 .356.221.289.289 0 0 0 .284-.077c.086-.088.105-.197.056-.328-.05-.131-.168-.29-.355-.475a6.302 6.302 0 0 0-.154-.146zM16.451 6c.104.02.2.017.289-.01a.575.575 0 0 0 .242-.151l1.316-1.33a.562.562 0 0 0 .145-.24.598.598 0 0 0 .006-.288l.012.012c.132.139.234.243.302.311.135.133.315.304.541.512.226.208.38.353.463.435.326.322.525.606.6.852a.597.597 0 0 1-.152.634.49.49 0 0 1-.394.154c-.152-.01-.332-.08-.54-.212.163.223.253.427.268.611a.588.588 0 0 1-.18.481.662.662 0 0 1-.672.181c-.264-.065-.553-.253-.867-.564a25.796 25.796 0 0 1-.399-.412 26.57 26.57 0 0 0-.507-.52l-.213-.205-.26-.251zM14.6 2.656a.617.617 0 0 0-.238.167c-.06.07-.1.154-.12.252l-.27 1.34c-.039.193-.03.331.024.414.054.085.165.143.334.177s.293.023.377-.033c.082-.056.143-.18.181-.373l.27-1.34a.546.546 0 0 0-.17-.526l1.375.276a.59.59 0 0 0-.236.166.571.571 0 0 0-.118.254l-.291 1.452a1.37 1.37 0 0 1-.127.39.534.534 0 0 1-.204.205 1.07 1.07 0 0 1-.496.12 3.3 3.3 0 0 1-.748-.078 3.3 3.3 0 0 1-.721-.217A1.048 1.048 0 0 1 13.015 5a.535.535 0 0 1-.11-.259 1.37 1.37 0 0 1 .037-.418l.292-1.45a.548.548 0 0 0-.169-.526l1.536.309M9.823 2.808a.596.596 0 0 0-.102.269.564.564 0 0 0 .044.277l.58 1.387c.042.102.101.168.176.198.076.03.167.023.272-.021a.676.676 0 0 0 .34-.328c.082-.159.155-.43.221-.811l.558 1.337a.534.534 0 0 0-.168-.007.652.652 0 0 0-.177.049l-2.09.872a.59.59 0 0 0 .101-.27.578.578 0 0 0-.046-.281l-.72-1.727a.563.563 0 0 0-.166-.226.598.598 0 0 0-.264-.116l1.441-.602M7.06 5.342c-.26.001-.471.031-.633.09a.828.828 0 0 0-.389.277c-.133.175-.168.355-.103.54.065.186.228.379.49.58.16.121.324.167.493.136.168-.032.32-.135.454-.312.108-.141.189-.298.24-.47.051-.17.07-.352.059-.54.267.222.406.48.416.777.01.296-.11.607-.36.935-.282.368-.596.58-.943.635-.348.056-.698-.051-1.05-.32-.386-.296-.608-.635-.663-1.02-.056-.383.059-.763.346-1.138.08-.106.183-.221.307-.345.124-.124.199-.203.222-.234a.726.726 0 0 0 .09-.153c.024-.056.042-.115.056-.178l.969.74" fill="#222C46"/>
    <path d="M12.567 5.726a6.788 6.788 0 1 1 0 13.575 6.788 6.788 0 0 1 0-13.575zm0 .45a6.338 6.338 0 1 1 0 12.676 6.338 6.338 0 0 1 0-12.676z" fill="#222C46"/>
    <path d="M17.449 11.024l-1.484.857c-.286-.331-.49-.532-.615-.604-.236-.14-.505-.121-.808.054-.2.115-.31.3-.329.554-.018.227.032.444.152.651l.718 1.244a.675.675 0 0 0 .48.336.847.847 0 0 0 .604-.1c.308-.177.446-.417.415-.72-.014-.131-.11-.413-.29-.848l1.472-.85c.418.84.51 1.546.275 2.12-.218.524-.77 1.042-1.655 1.553-.715.413-1.457.553-2.225.422-.732-.13-1.297-.482-1.696-1.057.26-.243.494-.527.627-.85.307-.744.061-1.573-.28-2.26l-.064-.126c.3-.376.678-.696 1.133-.958.174-.101.444-.183.809-.247.365-.064.6-.126.703-.186.038-.022.073-.088.106-.198a.796.796 0 0 0 .045-.246l.798-.461 1.109 1.92" fill="#222C46"/>
    <g transform="translate(12.692 9.538)">
      <mask id="d" fill="#fff">
        <use xlink:href="#c"/>
      </mask>
      <path d="M4.292 1.361L3.523.03l-.357.206a1.9 1.9 0 0 1-.035.134c-.046.154-.116.31-.262.395-.207.12-.58.185-.815.226-.21.037-.511.099-.698.207C.9 1.462.516 1.794.22 2.206c.284.64.453 1.374.178 2.042a2.2 2.2 0 0 1-.385.6l.025.039 1.75-1.01-.41-.71a1.442 1.442 0 0 1-.196-.848c.028-.351.19-.643.497-.821.368-.213.774-.275 1.151-.053.166.097.354.287.514.463l.948-.547" mask="url(#d)"/>
    </g>
    <path d="M12.342 11.028l-1.484.857c-.285-.332-.49-.532-.615-.604-.235-.14-.505-.121-.808.054-.2.115-.309.3-.329.554-.018.227.032.444.152.65l.718 1.245a.675.675 0 0 0 .48.336.847.847 0 0 0 .604-.1c.308-.177.446-.417.415-.72-.014-.131-.11-.413-.29-.848l1.472-.85c.418.84.51 1.546.276 2.12-.145.346-.437.693-.875 1.035l.448.776-.78.45-.418-.725-.03.017a3.85 3.85 0 0 1-.37.189l.43.744-.78.45-.543-.94a3.19 3.19 0 0 1-.963-.02c-.815-.145-1.423-.566-1.826-1.263-.407-.706-.425-1.462-.055-2.269.111-.242.246-.468.402-.677l-.578-1 .78-.45.45.78c.116-.094.238-.182.368-.264l-.428-.742.779-.45.497.862c.045-.01.092-.018.14-.026.365-.064.6-.126.703-.186.038-.022.073-.088.106-.198a.798.798 0 0 0 .045-.247l.798-.46 1.109 1.92" fill="#DF4F2A"/>
    <g transform="translate(7.23 9.538)">
      <mask id="f" fill="#fff">
        <use xlink:href="#e"/>
      </mask>
      <path d="M4.647 1.365L3.878.034 3.521.24a1.88 1.88 0 0 1-.036.134c-.046.154-.115.31-.261.395-.207.12-.58.185-.815.226a4.784 4.784 0 0 0-.13.025l-.24.049-.45-.78-.19.11.42.729-.274.175c-.117.074-.23.155-.337.242l-.31.248L.42.964l-.19.11.52.901-.135.18a3.35 3.35 0 0 0-.365.615c-.306.665-.332 1.312.04 1.956.033.057.067.112.103.165l1.75-1.01-.41-.71a1.442 1.442 0 0 1-.197-.848c.028-.351.19-.643.498-.821.368-.213.773-.275 1.15-.053.167.097.355.287.515.463l.948-.547" mask="url(#f)"/>
    </g>
  </g>
</svg>
