<svg width="25" height="25" xmlns="http://www.w3.org/2000/svg">
  <g fill="none" fill-rule="evenodd">
    <path d="M12.784 0l-.968.133-.933.3-.866.45-.8.617-.75.784-.65.983-.584 1.15-.483 1.35 1.2.817 1.8-1.567L9.767 5l-.034-.183-.017-.2v-.2L9.934 3.3l.616-.9.9-.6 1.1-.233h5.65l-.117-.083-1.1-.55-1.067-.45-1.066-.3L13.8.017 12.783 0zM18.2 1.567h-5.65l.817.117.716.333.6.5.434.667.016-.017 5.117-.183-1.084-.8-.966-.617zm-6.483.867l-.684.466-.45.684-.167.833.167.833.45.683.684.467.833.167.833-.167.684-.467.466-.683.167-.833-.166-.833-.468-.684-.683-.466-.833-.167-.833.167z" fill="#B72D23"/>
    <path d="M17.083 3.8l-1.4.217-.166 1.45 2.25.833h.016l.15-.117.167-.116.167-.1 1.083-.334h3.533L22.35 5.1l-.817-.55-.933-.417-1.05-.266-1.167-.117-1.3.05zm2.267 1.833l1.083.1.967.517.733.867.283.766.05.784-.166.766-.367.7h.017l2.617 4.417.183-1.333.083-1.284-.017-1.233-.133-1.167-.25-1.066-.35-1-.466-.9-.584-.784-.15-.15H19.35zm-.75.95l-.65.55-.383.717-.067.833.25.8.533.667.734.367.816.083.817-.25.65-.55.383-.717.084-.833-.25-.8-.55-.666-.734-.367-.817-.084-.816.25z" fill="#97B63D"/>
    <path d="M21.4 10.667l-1.333.6.45 2.366-.017.017.2.05.167.083.183.1.833.767.467.983.067 1.084-.367 1.066-.517.65-.65.45-.733.25-.783.05h-.017L16.9 23.7l1.25-.533 1.15-.584 1.033-.65.934-.7.8-.766.683-.817.533-.867.367-.9.233-.95.05-.966-.116-1.017-.3-1.033-.5-1.067-.7-1.083-.917-1.1zm-1.517 3.55l-.816.05-.75.35-.567.633-.283.8.05.817.35.75.633.566.817.284.816-.05.734-.35.583-.634.283-.8-.05-.833-.35-.733-.633-.567-.817-.283z" fill="#00743C"/>
    <path d="M15.517 19.783H15.5l.05.184.016.2v.216l-.233 1.1-.616.9-.917.6-1.1.217h3.433l.65-.683.667-.967.583-1.15.5-1.35-1.2-.833-1.816 1.566zM11.9 18.367l-.684.466-.466.667-.184.833.167.85.45.684.684.466.833.167.833-.167.683-.45.467-.683.184-.833-.167-.834-.45-.683-.684-.467-.833-.166-.833.15zm-1.767 3.216l-5.116.15 1.066.8 1.083.7 1.084.584 1.083.433 1.067.317 1.033.166 1.017.034.966-.134.934-.283.883-.433.8-.617.1-.1H12.7l-.817-.117-.717-.333-.583-.517-.433-.666-.017.016z" fill="#05A7E0"/>
    <path d="M.583 11.583L.5 12.866.533 14.1l.134 1.15.233 1.083.366 1 .467.884.583.8.7.666.817.55.934.417 1.05.267 1.166.116 1.284-.05 1.417-.233.15-1.45-.434-.15H6l-1.083-.117-.967-.5-.733-.85-.284-.783-.05-.783.15-.767.367-.7h-.017l-2.616-4.4-.184 1.333zm4.1 2.85l-.65.55-.383.717-.067.833.25.8.55.667.734.367.817.083.816-.25.65-.55.383-.734.067-.816-.25-.817-.55-.65-.733-.383-.817-.083-.817.266zM7.416 18.6l-.15.116-.183.084L6 19.15h3.4l-1.817-.667-.017-.016-.15.133z" fill="#004C77"/>
    <path d="M8.483 1.05l-1.25.517-1.15.583-1.05.65-.916.7-.817.767-.667.8-.533.866-.383.9-.234.95-.066.967.133 1.017.3 1.033.483 1.067.7 1.1.917 1.1 1.317-.617-.417-2.35v-.017l-.183-.066-.184-.084-.183-.1-.833-.75-.467-1L2.95 8l.367-1.067.516-.633.65-.45.75-.25.784-.05 2.466-4.5zM6.05 6.267l-.817.05-.733.35-.583.616-.284.817.05.817.35.75.634.566.8.284.816-.05.75-.35.567-.634.283-.8-.033-.816-.35-.75-.633-.567-.817-.283z" fill="#F47D20"/>
  </g>
</svg>
