<svg width="25" height="25" xmlns="http://www.w3.org/2000/svg">
  <g fill-rule="nonzero" fill="none">
    <path d="M11.844 0h1.249c1.16.097 2.321.284 3.423.675a12.425 12.425 0 0 1 6.806 5.701c1.275 2.29 1.82 4.99 1.484 7.59a12.461 12.461 0 0 1-4.412 8.083 12.428 12.428 0 0 1-7.888 2.854 12.442 12.442 0 0 1-7.465-2.508C2.56 20.533.833 17.706.297 14.652a12.431 12.431 0 0 1 .61-6.612 12.438 12.438 0 0 1 5.872-6.632C8.342.578 10.086.14 11.844 0zM6.399 4.933c-1.439 1.234-2.363 3-2.739 4.845-.354 1.806-.33 3.699.128 5.484.543 2.039 1.785 3.968 3.643 5.034 1.763 1.012 3.853 1.247 5.852 1.175 1.865-.094 3.768-.336 5.467-1.16 0-.91.001-1.822-.001-2.732-1.951 1.084-4.227 1.703-6.464 1.379-1.334-.175-2.646-.799-3.475-1.883-1.035-1.281-1.457-2.953-1.48-4.575-.049-1.905.397-3.902 1.623-5.403.842-1.011 2.154-1.504 3.44-1.597 2.105-.152 4.189.336 6.189.945-.002-.91 0-1.821 0-2.732-2.21-.525-4.495-.77-6.766-.652-1.922.114-3.913.609-5.417 1.872z" fill="#2C3E50"/>
    <path d="M6.4 4.933C7.902 3.67 9.893 3.175 11.815 3.06c2.27-.119 4.555.127 6.765.652l.001 2.732c-2-.61-4.084-1.097-6.19-.945-1.285.093-2.597.586-3.439 1.597-1.226 1.5-1.672 3.498-1.623 5.403.023 1.622.445 3.294 1.48 4.575.829 1.084 2.141 1.708 3.475 1.883 2.237.324 4.513-.295 6.464-1.379.002.91.001 1.821.001 2.732-1.7.824-3.602 1.066-5.467 1.16-1.999.072-4.089-.163-5.852-1.175-1.858-1.066-3.1-2.995-3.643-5.034-.459-1.785-.482-3.678-.128-5.484.376-1.844 1.3-3.611 2.74-4.845" fill="#FFF"/>
  </g>
</svg>
