<svg width="25" height="25" xmlns="http://www.w3.org/2000/svg">
  <g fill="#008DE4" fill-rule="nonzero">
    <path d="M16.328 2.5H7.344l-.742 4.16 8.105.02c4.004 0 5.176 1.445 5.137 3.847-.02 1.23-.547 3.32-.782 4.004-.625 1.797-1.875 3.848-6.62 3.848H4.55l-.742 4.16h8.964c3.165 0 4.512-.371 5.938-1.035 3.164-1.465 5.039-4.57 5.781-8.652C25.625 6.816 24.22 2.5 16.328 2.5"/>
    <path d="M3.457 10.43c-2.363 0-2.695 1.543-2.91 2.46-.293 1.212-.39 1.7-.39 1.7h9.198c2.364 0 2.696-1.543 2.91-2.461.294-1.211.391-1.7.391-1.7H3.457z"/>
  </g>
</svg>
