<svg width="25" height="25" xmlns="http://www.w3.org/2000/svg">
  <g fill-rule="nonzero" fill="none">
    <path d="M13.761 22.035c-.2.023-.354.023-.487.023H7.832c-3.717 0-6.836-2.456-7.633-6.062-.796-3.474.974-7.146 4.204-8.673.11-.066.22-.11.376-.221a109.41 109.41 0 0 1-2.323-2.058C1.68 4.358.907 3.694.066 2.964c.155-.022.222-.066.332-.066 1.615 0 3.186-.022 4.801 0 .221 0 .487.089.642.221 2.566 2.235 5.088 4.47 7.632 6.682.089.066.222.155.332.221-.022.066-.044.089-.066.155h-.487c-1.77 0-3.584-.022-5.354 0-1.66.022-2.942.752-3.783 2.235-1.261 2.278.155 5.376 2.7 5.862.84.155 1.77.111 2.632.177.133 0 .31.022.398.11 1.261 1.063 2.5 2.147 3.74 3.231.065.044.11.133.176.243z" fill="#486EB5"/>
    <path d="M24.712 22.013h-.973c-1.372 0-2.766.022-4.137 0-.221 0-.51-.088-.686-.221a1123.49 1123.49 0 0 1-7.743-6.726c-.045-.044-.067-.088-.155-.22.22-.023.354-.045.509-.045 1.77 0 3.561.022 5.354 0 1.68-.022 2.986-.708 3.783-2.235 1.15-2.146.066-4.933-2.235-5.752-.84-.31-1.725-.31-2.61-.265-.531.022-.952-.089-1.35-.487-1.04-.974-2.124-1.858-3.186-2.788-.066-.066-.177-.11-.31-.22.133-.067.177-.112.222-.112 2.146 0 4.292 0 6.438.045 1.46.022 2.743.553 3.916 1.416 1.593 1.15 2.61 2.699 3.03 4.601a7.271 7.271 0 0 1-.442 4.69c-.708 1.66-1.88 2.921-3.473 3.784-.089.066-.222.088-.332.155-.089.066-.177.11-.354.221 1.593 1.416 3.12 2.743 4.734 4.16z" fill="#57C09A"/>
  </g>
</svg>
