<svg width="25" height="25" xmlns="http://www.w3.org/2000/svg">
  <g fill-rule="nonzero" fill="none">
    <g fill="#014655">
      <path d="M7.168 9.208h3.418v1.103H7.168V9.208m8.568 5.072H7.719v4.08h8.006c1.113 0 2.084-.926 2.084-2.05a2.054 2.054 0 0 0-2.073-2.03"/>
      <path d="M12.494 0C5.59 0 0 5.59 0 12.494c0 6.903 5.59 12.494 12.494 12.494 6.903 0 12.494-5.591 12.494-12.494C24.998 5.59 19.397 0 12.494 0zm.408 5.569h5.954v1.213h-4.631v3.528h3.418V9.208h-2.426V7.995h3.75v3.528h-6.065V5.57zm-6.837.11h3.75v1.433h-3.75V5.68zm-.11 2.316h4.741V5.569h1.323v5.954H5.955V7.995zM16.01 19.904H6.065v-7.168h9.946c1.93 0 3.507 1.621 3.507 3.584s-1.577 3.584-3.507 3.584z"/>
    </g>
    <path fill="#C39145" d="M6.065 5.679h3.75v1.433h-3.75z"/>
  </g>
</svg>
