<svg width="25" height="25" xmlns="http://www.w3.org/2000/svg">
  <defs>
    <linearGradient x1=".222%" y1="-2.755%" x2="99.953%" y2="-2.755%" id="a">
      <stop stop-color="#00BA96" offset="0%"/>
      <stop stop-color="#00D9AF" offset="52%"/>
      <stop stop-color="#00D9AF" offset="100%"/>
    </linearGradient>
    <linearGradient x1=".163%" y1="-1.283%" x2="100.162%" y2="-1.283%" id="b">
      <stop stop-color="#008D85" offset="0%"/>
      <stop stop-color="#00FFE0" offset="100%"/>
    </linearGradient>
    <linearGradient x1="0%" y1="-1.283%" y2="-1.283%" id="c">
      <stop stop-color="#008D94" offset="0%"/>
      <stop stop-color="#00FFE0" offset="100%"/>
    </linearGradient>
    <linearGradient x1="0%" y1="-2.755%" x2="99.999%" y2="-2.755%" id="d">
      <stop stop-color="#00BA96" offset="0%"/>
      <stop stop-color="#00D9AF" offset="52%"/>
      <stop stop-color="#00FAAF" offset="100%"/>
    </linearGradient>
  </defs>
  <g fill-rule="nonzero" fill="none">
    <path d="M10.72 11.42L7.822 6.271 4.876 1.074A2.137 2.137 0 0 0 4.194.35H4.17a1.882 1.882 0 0 0-.706.75L1.272 4.996a1.823 1.823 0 0 0 0 1.8l2.63 4.672c.195.325.268.7.268 1.074a2.336 2.336 0 0 1-.268 1.075L1.297 18.24a1.823 1.823 0 0 0 0 1.8l2.191 3.897c.17.3.414.575.706.75h.025c.292-.175.511-.425.681-.725l2.922-5.197 2.898-5.197a2.245 2.245 0 0 0 0-2.149z" fill="url(#a)" opacity=".25"/>
    <path d="M24.695 11.27l-2.921-5.173L18.779.775a2.185 2.185 0 0 0-.536-.625.589.589 0 0 0-.39-.15c-1.533 0-2.58.05-3.36.05-.121 0-.194.15-.17.275l.755 4.348c0 .05 0 .1-.025.15a1.84 1.84 0 0 0 .05 1.774l2.677 4.798c.195.35.293.724.293 1.1 0 .374-.098.749-.293 1.099l-2.702 4.797a1.907 1.907 0 0 0-.049 1.774c.024.05.024.1.024.15l-.754 4.323c-.025.125.048.275.17.275.706 0-.292.074 3.458.074.073 0 .17-.025.243-.05.268-.1.438-.424.584-.7l2.995-5.346 2.898-5.173c.462-.75.462-1.674.048-2.449" fill="url(#b)" opacity=".25"/>
    <path d="M23.502 11.42L17.683 1.073A2.079 2.079 0 0 0 15.881 0H4.243c-.39 0-.755.125-1.096.325V.35c.28.183.514.431.682.724l2.922 5.198c.268-.125.584-.2.876-.2h4.821c.755 0 1.437.4 1.802 1.074l2.41 4.273c.366.65.366 1.474 0 2.15l-2.41 4.272c-.365.65-1.071 1.074-1.802 1.074H7.652a2.056 2.056 0 0 1-.877-.2l-2.922 5.198a2.137 2.137 0 0 1-.681.724v.025c.316.2.706.325 1.095.325H15.93c.754 0 1.436-.4 1.801-1.074l5.82-10.345a2.245 2.245 0 0 0-.049-2.149" fill="url(#c)"/>
    <path d="M9.648 11.42L6.751 6.271 3.829 1.074A2.137 2.137 0 0 0 3.147.35h-.024a1.882 1.882 0 0 0-.706.75L.25 4.971a1.823 1.823 0 0 0 0 1.8l2.63 4.672c.194.325.267.7.267 1.074a2.336 2.336 0 0 1-.268 1.075L.25 18.24a1.823 1.823 0 0 0 0 1.8l2.192 3.898c.17.3.414.574.706.75h.025c.292-.176.511-.426.682-.725l2.921-5.198 2.898-5.147c.365-.725.365-1.524-.025-2.199z" fill="url(#d)"/>
  </g>
</svg>
