<svg width="25" height="25" xmlns="http://www.w3.org/2000/svg">
  <path d="M.239 24.84v-5.827h3.407V5.733H.255V.142h.493c4.586 0 9.14.016 13.727-.016 1.019 0 1.91.271 2.802.621 1.8.685 3.376 1.752 4.634 3.249a11.045 11.045 0 0 1 2.277 4.57c.669 2.93.685 5.892-.16 8.79-1.114 3.774-3.503 6.37-7.467 7.245a9.538 9.538 0 0 1-2.134.255H.797C.62 24.84.445 24.84.238 24.84zm10.35-5.843c.78 0 1.529.048 2.277-.016.972-.096 1.847-.398 2.5-1.242.558-.717 1.051-1.433 1.29-2.277.526-1.847.319-3.726-.048-5.59-.207-1.114-.732-2.133-1.433-2.977-.414-.478-.987-1.02-1.56-1.115-.956-.175-1.99-.048-3.026-.048v13.265z" fill="#C2A633" fill-rule="nonzero"/>
</svg>
