<svg width="25" height="25" xmlns="http://www.w3.org/2000/svg">
  <g fill-rule="nonzero" fill="none">
    <g fill="#0175B0">
      <path d="M2.367 16.357L0 21.024h5.497l2.367-4.668zM5.5 10.18l-2.361 4.655h5.497l2.36-4.656zM8.632 4.002L6.27 8.658h5.497l2.36-4.656H8.633"/>
    </g>
    <g fill="#00A2D0">
      <path d="M7.846 16.355l-2.367 4.668h5.497l2.367-4.668zM10.978 10.177l-2.36 4.656h5.497l2.36-4.656zM14.11 4l-2.36 4.656h5.497L19.607 4z"/>
    </g>
    <g fill="#0CF">
      <path d="M13.238 16.355l-2.367 4.668h5.497l2.368-4.668zM16.37 10.177l-2.36 4.656h5.497l2.36-4.656zM19.503 4l-2.361 4.656h5.497L25 4z"/>
    </g>
  </g>
</svg>
