<svg width="25" height="25" xmlns="http://www.w3.org/2000/svg">
  <g fill="#2F2F2F" fill-rule="nonzero">
    <path d="M23.56 6.05c-.026-.014-.052-.029-.081-.047-1.695-.97-3.386-1.944-5.077-2.914-1.775-1.017-3.547-2.038-5.322-3.052L13.018 0l-.066.026a2.017 2.017 0 0 0-.293.135L8.029 2.87C6.11 3.993 4.189 5.113 2.286 6.234c-.238.11-.231.358-.227.508 0 .033.003.07 0 .106-.004 2.84-.008 5.681-.015 8.522l-.007 3.162c-.015.19.07.352.212.417 2.2 1.249 4.4 2.5 6.6 3.752l3.89 2.215a.493.493 0 0 0 .257.084c.07 0 .131-.022.183-.062l5.644-3.25c1.603-.923 3.206-1.85 4.799-2.764.179-.08.285-.26.263-.428l.018-11.97c.026-.274-.205-.402-.344-.475m-10.582.754l4.642 2.7-4.634 2.673-1.578-.893c-1.04-.59-2.079-1.175-3.119-1.765l4.69-2.715m5.274 2.335l-5.04-2.932a.403.403 0 0 0-.454-.011L7.652 9.154l-4.638-2.62L6.25 4.64c2.243-1.314 4.487-2.624 6.735-3.935 2.06 1.19 4.121 2.372 6.186 3.555 1.259.724 2.518 1.445 3.777 2.17L18.252 9.14M2.695 7.083l4.616 2.613.095 5.765c-.01.18.077.34.216.403 1.021.59 2.046 1.175 3.071 1.764l1.97 1.131-.004 5.384-9.986-5.68.022-11.38m5.257 2.976l4.718 2.668-.007 5.304-4.623-2.658-.088-5.314m5.347 8.704l1.973-1.131c1.01-.582 2.024-1.16 3.042-1.746l.03-.019c.054-.032.127-.076.179-.15l.029-.04v-.047a332.62 332.62 0 0 1-.007-3.818c0-.703.003-1.406 0-2.108l4.721-2.724-.007 4.645-.01 6.783c-2.11 1.211-4.218 2.427-6.33 3.642l-3.627 2.09.007-5.377m0-.729l.004-5.307 4.649-2.68v5.319c-1.549.886-3.1 1.775-4.653 2.668"/>
    <path d="M12.842 1.332a.407.407 0 0 0-.319.231.392.392 0 0 0 .022.392.415.415 0 0 0 .355.186.715.715 0 0 0 .085-.007c.172-.03.3-.146.33-.297a.383.383 0 0 0-.096-.373.412.412 0 0 0-.377-.132m.267 1.746a.422.422 0 0 0-.436.011.408.408 0 0 0-.197.315.382.382 0 0 0 .132.33c.076.073.175.11.281.11a.458.458 0 0 0 .183-.04.394.394 0 0 0 .25-.363.394.394 0 0 0-.213-.363m.018 1.717a.429.429 0 0 0-.443-.015.387.387 0 0 0-.208.322.386.386 0 0 0 .157.352.413.413 0 0 0 .26.088.458.458 0 0 0 .183-.04.391.391 0 0 0 .245-.334.405.405 0 0 0-.194-.373M6.33 16.007a.407.407 0 0 0-.285.31.4.4 0 0 0 .131.4.371.371 0 0 0 .34.084.39.39 0 0 0 .283-.23.4.4 0 0 0-.07-.444c-.102-.12-.256-.164-.399-.12m12.921.809a.347.347 0 0 0 .103-.015.37.37 0 0 0 .267-.227.411.411 0 0 0-.07-.454.386.386 0 0 0-.41-.117.399.399 0 0 0-.274.315.41.41 0 0 0 .132.395c.065.07.157.103.252.103m-14.378.054a.395.395 0 0 0-.26.348.417.417 0 0 0 .194.4.378.378 0 0 0 .198.058.422.422 0 0 0 .172-.04.38.38 0 0 0 .227-.293.413.413 0 0 0-.146-.403.36.36 0 0 0-.385-.07m15.798.802a.393.393 0 0 0 .143-.026.382.382 0 0 0 .253-.292.397.397 0 0 0-.125-.403.38.38 0 0 0-.395-.084.408.408 0 0 0-.264.322.415.415 0 0 0 .143.395c.07.055.157.088.245.088m-16.896.08a.38.38 0 0 0-.384 0 .411.411 0 0 0-.209.367.403.403 0 0 0 .392.41c.073 0 .15-.022.22-.066a.4.4 0 0 0 .19-.363.39.39 0 0 0-.209-.347m18.086.684a.358.358 0 0 0 .392.059c.142-.063.241-.194.248-.323a.406.406 0 0 0-.183-.41.365.365 0 0 0-.41-.01.415.415 0 0 0-.2.34.392.392 0 0 0 .153.344"/>
  </g>
</svg>
