<svg width="25" height="25" xmlns="http://www.w3.org/2000/svg">
  <g fill-rule="nonzero" fill="none">
    <path d="M12.537.135v.013c.012.061.012.135.012.21v8.878c-.012.05-.049.062-.086.087-.259.123-.505.234-.763.344-.358.16-.727.333-1.084.493l-1.293.591c-.357.16-.715.32-1.06.48-.418.198-.85.382-1.268.58-.357.16-.714.332-1.084.492-.295.135-.59.259-.874.394a.175.175 0 0 1-.074.025c-.012 0-.012 0-.025-.013l.333-.554c.64-1.059 1.268-2.106 1.909-3.165.677-1.133 1.367-2.266 2.044-3.399.628-1.047 1.269-2.093 1.897-3.14.455-.764.923-1.527 1.379-2.29.012-.026.025-.038.025-.062h.012c-.012.012 0 .024 0 .036z" fill="#8A92B2"/>
    <path d="M20.099 12.71l.012.012-1.81 1.071-5.69 3.362c-.025.012-.05.025-.062.037-.037 0-.037-.037-.037-.05V9.423c0-.038 0-.087.013-.124.012-.05.049-.037.086-.025.16.074.332.148.492.222.48.222.961.443 1.441.653.42.185.825.382 1.244.566.419.185.838.382 1.256.567.357.16.727.332 1.084.492.357.16.727.333 1.084.493.283.123.566.259.85.382 0 .037.012.049.037.061z" fill="#454A75"/>
    <path d="M12.537 24.84c0 .012-.012.025-.012.037h-.013c0-.025-.024-.037-.037-.062-.763-1.071-1.527-2.155-2.29-3.226l-2.34-3.3c-.751-1.06-1.515-2.131-2.266-3.19-.197-.284-.394-.555-.591-.838-.013-.025-.025-.037-.05-.074.037 0 .062.025.074.037 1.072.628 2.13 1.256 3.202 1.884 1.232.727 2.451 1.454 3.683 2.18l.628.37c.024.024.024.049.024.074v5.935c0 .062 0 .124-.012.173z" fill="#8A92B2"/>
    <path fill="gray" d="M4.951 12.71h.05v.05h-.1v-.05z"/>
    <path d="M12.575.21c-.05 0-.05-.05-.05-.1h.05v.1z" fill="#FFF"/>
    <path d="M4.926 12.734v-.012c.394-.173.776-.357 1.17-.53.505-.234 1.01-.456 1.515-.69.382-.172.776-.357 1.157-.53.567-.258 1.121-.504 1.688-.763.381-.172.763-.344 1.157-.53.271-.122.554-.246.825-.369.025-.012.062-.024.074-.049.013 0 .013.012 0 .025v7.82c0 .037-.012.074.013.098-.025.037-.05 0-.062-.012a4.701 4.701 0 0 1-.332-.197c-2.377-1.404-4.766-2.82-7.143-4.224a.27.27 0 0 0-.062-.037zm15.148 1.453h.012c0 .025-.024.05-.037.074-2.266 3.19-4.532 6.392-6.798 9.581-.234.333-.48.665-.714.998-.012-.012-.012-.025-.012-.037v-6.157c.517-.309 1.022-.604 1.539-.912 1.995-1.182 3.99-2.352 5.973-3.534.012.012.025 0 .037-.013z" fill="#62688F"/>
    <path d="M12.525 9.286V.247c0-.038-.013-.062.012-.1 2.5 4.151 5 8.289 7.488 12.44.024.036.061.085.074.135-.173-.062-.333-.148-.493-.222-.197-.086-.406-.185-.604-.27-.123-.063-.258-.112-.381-.173-.21-.099-.419-.185-.628-.284a4.967 4.967 0 0 1-.37-.172l-.813-.37c-.135-.061-.27-.123-.418-.184l-.592-.259c-.123-.05-.246-.11-.369-.172l-.813-.37c-.135-.061-.27-.123-.418-.184l-.592-.259c-.135-.062-.258-.123-.394-.185-.234-.11-.468-.221-.714-.32.037-.012.025-.012.025-.012z" fill="#62688F"/>
  </g>
</svg>
