<svg width="25" height="25" xmlns="http://www.w3.org/2000/svg">
  <g fill="none" fill-rule="evenodd">
    <path d="M25 12.5C25 19.404 19.404 25 12.5 25S0 19.404 0 12.5 5.596 0 12.5 0 25 5.596 25 12.5" fill="#3A3A39"/>
    <path d="M12.5 23.181c-5.89 0-10.681-4.791-10.681-10.681C1.819 6.61 6.61 1.819 12.5 1.819c5.89 0 10.681 4.791 10.681 10.681 0 5.89-4.791 10.681-10.681 10.681zm0-22.053C6.23 1.128 1.128 6.229 1.128 12.5c0 6.27 5.101 11.372 11.372 11.372 6.27 0 11.372-5.101 11.372-11.372 0-6.27-5.101-11.372-11.372-11.372z" fill="#D8C276"/>
    <path d="M7.136 17.183h10.728v-1.828H7.136v1.828zm0-3.77h10.728v-1.827H7.136v1.828zm0-3.768h10.728V7.817H7.136v1.828z" fill="#D8C276"/>
  </g>
</svg>
