<svg width="25" height="25" xmlns="http://www.w3.org/2000/svg">
  <defs>
    <linearGradient x1="0%" y1="50.001%" x2="99.999%" y2="50.001%" id="a">
      <stop stop-color="#FF3F3F" offset="0%"/>
      <stop stop-color="#EB0000" offset="100%"/>
    </linearGradient>
    <linearGradient x1="-.003%" y1="49.993%" x2="99.995%" y2="49.993%" id="b">
      <stop stop-color="#2482C5" offset="0%"/>
      <stop stop-color="#285FAC" offset="100%"/>
    </linearGradient>
  </defs>
  <g fill-rule="nonzero" fill="none">
    <path d="M10.27 9.587a4.968 4.968 0 0 0 3.037-4.604C13.324 2.237 11.112 0 8.41 0 5.694 0 3.486 2.237 3.486 4.983A4.997 4.997 0 0 0 5.171 8.73l-2.585 1.727s5.185.452 7.684-.87z" fill="url(#a)" transform="translate(1)"/>
    <path d="M20.774 15.035c-2.47-.886-5.913.828-5.913.828s2.658-3.56 2.6-8.818c-.028-3.85-1.394-5.099-2.44-6.028.087.528.131 1.062.13 1.598 0 5.578-3.456 9.326-9.02 9.326-2.31 0-4.43-.015-6.13-1.308.03.088.276 1.146 1.263 2.252a6.656 6.656 0 0 0 1.802 1.41c2.498 1.35 4.416 1.51 4.604 1.524.016.015.016.044.03.059 0 2.774-1.947 6.74-4.707 6.74a5.64 5.64 0 0 1-1.218-.144 4.298 4.298 0 0 1-1.746-.77s.378 2.891 3.487 3.182c3.413.32 4.982-.421 8.367-2.484 3.617-2.208 6.362-4.547 8.469-3.966 1.598.436 1.862 2.978 1.862 2.978s.48-1.003.625-1.888c.142-.932.403-3.605-2.065-4.49z" fill="url(#b)" transform="translate(1)"/>
    <path d="M9.294 1.612a3.41 3.41 0 0 1 2.586 1.192l.392-.335a3.932 3.932 0 0 0-5.215-.667l.291.419a3.434 3.434 0 0 1 1.946-.609z" fill="#FFF"/>
  </g>
</svg>
