<svg width="25" height="25" xmlns="http://www.w3.org/2000/svg">
  <g fill="none" fill-rule="evenodd">
    <path d="M25 12.5C25 19.404 19.404 25 12.5 25S0 19.404 0 12.5 5.596 0 12.5 0 25 5.596 25 12.5" fill="#84BF42"/>
    <path d="M12.531 13.07h5.531v-1.08h-5.53v1.08zm0 .388h5.498v4.507c-.564.408-1.348.737-2.355.987-1.007.249-1.985.373-2.936.373-2.133 0-3.817-.617-5.052-1.851-1.236-1.235-1.853-2.876-1.853-4.924 0-2.043.677-3.7 2.032-4.97 1.355-1.27 3.062-1.905 5.364-1.905 1.612 0 3.35.947 4.292 1.85l-1.506 1.676c-2.307-2.668-8.074-1.506-7.852 3.42.224 4.956 5.066 5.708 7.754 3.653v-1.736H12.53v-1.08z" fill="#FFFFFE"/>
  </g>
</svg>
