<svg width="25" height="25" xmlns="http://www.w3.org/2000/svg">
  <g fill="none" fill-rule="evenodd">
    <circle fill="#7C5D00" cx="12.5" cy="12.5" r="12.5"/>
    <circle fill="#EED554" cx="12.5" cy="12.5" r="11.5"/>
    <circle fill="#F1C700" cx="12.5" cy="12.5" r="10.5"/>
    <path d="M19.49 11.807h-4.693a.51.51 0 0 0-.51.51v1.249c0 .282.228.51.51.51h2.576a4.527 4.527 0 0 1-4.162 2.76 4.52 4.52 0 0 1-3.82-2.11h.94a.51.51 0 0 0 .51-.51v-.447a.51.51 0 0 0-.51-.51h-1.54a4.517 4.517 0 0 1-.035-1.703h1.575a.51.51 0 0 0 .51-.51v-.448a.51.51 0 0 0-.51-.51h-1.05a4.522 4.522 0 0 1 3.93-2.292 4.51 4.51 0 0 1 3.476 1.635c.19.23.541.24.751.026.44-.448.87-.878 1.207-1.208a6.783 6.783 0 0 0-5.434-2.723c-2.964 0-5.49 1.909-6.414 4.562H5.51a.51.51 0 0 0-.51.51v.448c0 .282.228.51.51.51h.954a6.822 6.822 0 0 0 .023 1.702H5.51a.51.51 0 0 0-.51.51v.449c0 .281.228.51.51.51h1.354a6.8 6.8 0 0 0 6.347 4.378A6.797 6.797 0 0 0 20 12.315v-.005a.508.508 0 0 0-.51-.503" fill="#FFF"/>
  </g>
</svg>
