<svg width="25" height="25" xmlns="http://www.w3.org/2000/svg">
  <g fill="#00A6C4" fill-rule="evenodd">
    <path d="M2.074 6.294c.039.034.07.06.1.089.313.303.625.609.942.908.072.067.072.113.02.19-.665 1.004-.907 2.104-.685 3.27.298 1.564 1.21 2.704 2.703 3.39.88.406 1.815.51 2.776.368a4.708 4.708 0 0 0 1.802-.653c.091-.057.142-.05.216.023.811.794 1.627 1.584 2.437 2.379.09.088.135.098.232.004.926-.902 1.859-1.796 2.785-2.698.102-.1.165-.116.299-.039.81.47 1.692.659 2.635.616 1.872-.084 3.582-1.347 4.162-3.08.44-1.313.277-2.56-.44-3.744-.046-.078-.05-.125.022-.192.26-.243.514-.492.771-.739.024-.023.05-.043.077-.065a11.643 11.643 0 0 1-1.284 14.762C17.072 25.857 9.528 26.229 4.49 22.13-.625 17.969-1.233 11.136 2.074 6.294"/>
    <path d="M21.085 4.75C16.175-.095 8.194.316 3.935 4.557c.024.026.048.055.075.081 2.814 2.721 5.628 5.443 8.44 8.166.08.076.124.067.196-.004.363-.355.73-.707 1.097-1.06l7.12-6.824c.064-.061.143-.108.222-.166m-8.543 9.772L2.255 4.558c.025-.032.045-.062.07-.088 1.237-1.326 2.674-2.397 4.35-3.16C7.592.894 8.543.58 9.533.375a13.953 13.953 0 0 1 3.456-.282 13.72 13.72 0 0 1 4.874 1.117c1.866.803 3.442 1.978 4.779 3.462.077.086.033.125-.027.182l-4.988 4.79c-1.66 1.593-3.317 3.188-4.976 4.781-.03.03-.063.056-.108.097M8.12 12.192c-.698.615-2.247.758-3.272-.23-1.029-.993-.888-2.46-.212-3.222l3.483 3.452M17.129 11.954l3.489-3.376c.49.53.718 1.883-.132 2.881-.944 1.11-2.504 1.103-3.357.495"/>
  </g>
</svg>
