<svg width="25" height="25" xmlns="http://www.w3.org/2000/svg">
  <path d="M11.628 1.647c.969-.02 1.86.155 2.655.698.349.233.64.194.93-.116.64-.679 1.299-1.299 1.958-1.958.232-.271.445-.407.755-.077.272.29.194.504-.058.756-.659.659-1.298 1.356-1.977 2.015-.29.29-.329.504-.116.872 1.492 2.694.756 5.853-2.228 7.287-.291.136-.601.194-.911.271-.35.078-.504.272-.485.64.02.775.02 1.55 0 2.306-.02.407.116.6.543.698 1.608.387 2.732 1.356 3.45 2.83.678 1.433.503 3.991-.97 5.522-1.24 1.26-3.43 1.803-5.058 1.144-1.938-.775-3.14-2.48-3.159-4.535-.019-2.48 1.318-4.264 3.721-4.922.35-.097.562-.272.562-.66-.02-.871 0-1.763-.038-2.635 0-.155-.291-.368-.485-.426-1.55-.407-2.694-1.338-3.333-2.81-1.55-3.373 1.027-7.094 4.244-6.9zm3.934 18.198c0-2.035-1.783-3.915-3.76-3.915-2.073-.039-3.953 1.803-3.992 3.876-.02 2.054 1.9 4.031 3.876 4.012 2.093-.02 3.895-1.86 3.876-3.973zM7.868 6.435c0 2.228 1.725 4.03 3.876 4.03 1.996 0 3.837-1.86 3.818-3.915 0-1.938-1.434-3.934-3.818-3.895-2.151.058-3.856 1.667-3.876 3.78z" fill="#026990" fill-rule="nonzero"/>
</svg>
