<svg width="25" height="25" xmlns="http://www.w3.org/2000/svg">
  <g fill="none" fill-rule="evenodd">
    <path d="M25 12.5C25 19.404 19.404 25 12.5 25S0 19.404 0 12.5 5.596 0 12.5 0 25 5.596 25 12.5" fill="#282A2E"/>
    <path fill="#BB242B" d="M12.5 3.71L10.64 9.16h3.72L12.5 3.71"/>
    <path fill="#CDCECA" d="M14.36 9.795l-1.86 7.818-1.86-7.818"/>
    <path d="M20.653 6.283c1.197 1.356 1.904 3.02 1.904 4.822 0 4.55-4.503 8.24-10.057 8.24s-10.057-3.69-10.057-8.24c0-1.801.707-3.466 1.904-4.822-1.761 1.611-2.834 3.747-2.834 6.09 0 5.017 4.919 9.085 10.987 9.085 6.068 0 10.987-4.068 10.987-9.085 0-2.343-1.073-4.479-2.834-6.09zm.107 3.685c-.286-3.452-3.609-6.207-7.757-6.414l.488 1.43c3.385.328 6.183 2.311 7.27 4.984zm-16.52 0c.286-3.452 3.609-6.207 7.757-6.414l-.488 1.43c-3.385.328-6.183 2.311-7.27 4.984z" fill="#CDCECA"/>
  </g>
</svg>
