<svg width="25" height="25" xmlns="http://www.w3.org/2000/svg">
  <path d="M12.541.106C5.674.106.107 5.673.107 12.54c0 6.868 5.567 12.436 12.434 12.436 6.867 0 12.435-5.568 12.435-12.436C24.976 5.673 19.408.106 12.54.106zm7.105 12.434a7.085 7.085 0 0 1-2.744 5.603l-.816-1.295a5.57 5.57 0 0 0-.276-8.828l1.044-1.12a7.089 7.089 0 0 1 2.792 5.64zm-5.015-3.255a3.862 3.862 0 0 1 .534 6.102l-2.51-3.98 1.976-2.122zM16.494 3l-6.007 6.353.852-6.301H8.467a10.287 10.287 0 0 1 4.074-.837c1.4 0 2.735.28 3.953.785zM6.244 15.832a7.065 7.065 0 0 1-.808-3.292c0-1.87.726-3.569 1.907-4.837l-1.098 8.13zm-4.03-3.292c0-4.048 2.332-7.55 5.724-9.243l-.2 1.486a9.116 9.116 0 0 0-1.886 13.956L5.65 20.23a10.3 10.3 0 0 1-3.435-7.69zm4.62 8.606h2.06l1.078-7.98.088.011 5.025 7.97h3.163a10.274 10.274 0 0 1-5.707 1.72c-2.11 0-4.072-.634-5.706-1.72zm11.794-.266l-.642-1.019a9.108 9.108 0 0 0 3.68-7.32 9.105 9.105 0 0 0-3.428-7.127l.821-.881a10.304 10.304 0 0 1 3.808 8.007 10.31 10.31 0 0 1-4.24 8.34z" fill="#DE4235" fill-rule="nonzero"/>
</svg>
