<svg width="25" height="25" xmlns="http://www.w3.org/2000/svg">
  <g fill="#F5A51E" fill-rule="evenodd">
    <path d="M11.534 3.34c-.661-.399-2.373.34-2.613 1.116-.352 1.14 2.597 3.843 3.102 3.574.27-.145.568-4.054-.49-4.69"/>
    <path d="M11.245 8.588c.089-.293-2.465-3.268-3.663-2.97-.749.186-1.437 1.918-1.057 2.637.557 1.055 4.553.88 4.72.333"/>
    <path d="M11.09 9.534c-.145-.27-4.054-.568-4.691.49-.398.66.34 2.372 1.117 2.612 1.14.352 3.843-2.597 3.573-3.102"/>
    <path d="M11.648 10.312c-.293-.089-3.268 2.465-2.97 3.663.186.749 1.918 1.437 2.637 1.057 1.055-.557.88-4.553.333-4.72"/>
    <path d="M12.594 10.468c-.27.144-.568 4.053.49 4.69.66.398 2.372-.34 2.612-1.117.352-1.14-2.597-3.843-3.102-3.573"/>
    <path d="M13.372 9.909c-.089.293 2.465 3.268 3.663 2.97.749-.185 1.437-1.918 1.057-2.637-.557-1.055-4.553-.88-4.72-.333"/>
    <path d="M17.101 5.861c-1.14-.352-3.843 2.597-3.573 3.102.144.27 4.053.568 4.69-.49.398-.66-.34-2.372-1.117-2.612"/>
    <path d="M12.969 8.185c.293.09 3.268-2.465 2.97-3.663-.186-.749-1.918-1.437-2.637-1.057-1.055.557-.88 4.553-.333 4.72"/>
    <path d="M18.423 13.183c-.357.469-.762 1-1.171 1.675-1.75 2.888-3.95 5.994-5.016 7.469-1.065-1.475-3.265-4.581-5.015-7.469a18.354 18.354 0 0 0-1.172-1.675c-.874-1.148-1.452-1.906-1.452-3.905 0-2.935 1.207-5.108 3.586-6.457 1.999-1.135 4.035-1.235 4.051-1.236.02 0 2.063.118 4.05 1.247 2.383 1.355 3.592 3.523 3.592 6.446 0 1.999-.578 2.757-1.453 3.905zM17.03 1.433C14.916.243 12.711 0 12.236 0c-.482 0-2.716.243-4.822 1.434C5.406 2.569 3.012 4.85 3.012 9.278c0 2.534.823 3.614 1.776 4.866.35.459.712.933 1.077 1.536 2.43 4.009 5.702 8.42 5.735 8.464l.636.856.637-.856c.032-.044 3.305-4.455 5.735-8.464.365-.603.727-1.077 1.077-1.536.953-1.252 1.776-2.332 1.776-4.866 0-4.423-2.41-6.708-4.43-7.845z"/>
  </g>
</svg>
