<svg width="25" height="25" xmlns="http://www.w3.org/2000/svg">
  <g fill="none" fill-rule="evenodd">
    <path d="M13.653 16.12l1.882 1.073 7.634-5.645c1.12-.829 1.776-2.126 1.8-3.56.024-1.433-.589-2.753-1.68-3.621L19.058 1l-5.125 3.683 1.691 1.227L19 3.484l3.123 2.484c.598.476.934 1.2.92 1.985a2.45 2.45 0 0 1-.986 1.951l-8.404 6.215" fill="#038199"/>
    <path d="M11.469 8.897L9.678 7.74 1.847 13.37C.699 14.194.008 15.557 0 17.014c-.008 1.456.667 2.827 1.806 3.666l4.515 3.327 5.148-3.807-1.844-1.102-3.306 2.445-3.403-2.508a2.446 2.446 0 0 1-.99-2.01 2.443 2.443 0 0 1 1.012-1.997l8.53-6.131" fill="#018294"/>
    <path d="M2.913 9.904a2.45 2.45 0 0 1-.987-1.95 2.458 2.458 0 0 1 .92-1.986L5.97 3.484l12.562 9.028 1.675-1.24L5.912 1 1.681 4.367C.589 5.235-.023 6.555 0 7.988c.024 1.434.68 2.731 1.8 3.56l1.271.94 1.691-1.215-1.85-1.369" fill="#4DBEC8"/>
    <path d="M23.122 13.369l-1.225-.88-1.675 1.238 1.81 1.3a2.443 2.443 0 0 1 1.012 1.998 2.446 2.446 0 0 1-.99 2.01l-3.403 2.508-12.212-9.031-1.691 1.215 13.901 10.28 4.514-3.327c1.14-.84 1.815-2.21 1.806-3.666-.008-1.457-.698-2.82-1.847-3.645" fill="#4DBEC8"/>
  </g>
</svg>
