<svg width="25" height="25" xmlns="http://www.w3.org/2000/svg">
  <g fill="#003265" fill-rule="nonzero">
    <path d="M10.19 24.894l3.242-3.644c.064-.064.021-.148-.063-.148h-3.58c-.022 0-.064-.021-.064-.043l-3.03-3.39c-.021-.042-.042-.063-.021-.105l5.084-8.708c.022-.042.022-.064 0-.085L9.661 5.148a.1.1 0 0 0-.17 0L1.972 18.03c-.022.042-.022.063 0 .106l6.037 6.78c.022.02.043.042.064.042h2.055c0-.022.042-.043.064-.064z"/>
    <path d="M12.415.106l-2.118 3.623c-.022.042-.022.063 0 .085l2.203 3.75 5.805 9.978c.021.043.021.064-.021.106l-3.072 3.433-3.263 3.686c-.063.064-.021.148.064.148h4.894c.021 0 .063-.02.063-.042l6.038-6.78c.022-.042.043-.063.022-.106L12.564.106c-.022-.085-.106-.085-.149 0z"/>
  </g>
</svg>
