<svg width="25" height="25" xmlns="http://www.w3.org/2000/svg" xmlns:xlink="http://www.w3.org/1999/xlink">
  <defs>
    <path d="M22.047 7.477a.431.431 0 0 0-.656-.368l-8.456 4.836a2.022 2.022 0 0 1 .054 1.389l2.368 1.25a2.03 2.03 0 1 1-.332.625l-2.368-1.25a2.028 2.028 0 0 1-1.189.743l-.148 9.849a.431.431 0 0 0 .648.384l10.094-5.867-.015-11.591zM9.464 13.97l-2.287 1.227a2.03 2.03 0 1 1-.336-.624l2.287-1.227a2.024 2.024 0 0 1 .052-1.408L.673 7.024a.431.431 0 0 0-.657.368l.035 11.676 10.045 5.782a.431.431 0 0 0 .647-.384l-.107-9.766a2.028 2.028 0 0 1-1.172-.73zm1.238-3.254c-.411.073-.78.268-1.067.549l-8.6-4.7a.431.431 0 0 1-.01-.75L11.057.004l10.129 5.808a.431.431 0 0 1-.01.754l-8.693 4.702a2.024 2.024 0 0 0-1.072-.553v-2.52a2.03 2.03 0 1 0-.708 0v2.52z" id="a"/>
    <linearGradient x1="1.875%" y1="26.223%" x2="100.039%" y2="76.223%" id="b">
      <stop stop-color="#F75B60" offset="0%"/>
      <stop stop-color="#F14F1B" offset="100%"/>
    </linearGradient>
  </defs>
  <g transform="translate(1.5)" fill="none" fill-rule="evenodd">
    <mask id="c" fill="#fff">
      <use xlink:href="#a"/>
    </mask>
    <path d="M22.047 7.477a.431.431 0 0 0-.656-.368l-8.456 4.836a2.022 2.022 0 0 1 .054 1.389l2.368 1.25a2.03 2.03 0 1 1-.332.625l-2.368-1.25a2.028 2.028 0 0 1-1.189.743l-.148 9.849a.431.431 0 0 0 .648.384l10.094-5.867-.015-11.591zM9.464 13.97l-2.287 1.227a2.03 2.03 0 1 1-.336-.624l2.287-1.227a2.024 2.024 0 0 1 .052-1.408L.673 7.024a.431.431 0 0 0-.657.368l.035 11.676 10.045 5.782a.431.431 0 0 0 .647-.384l-.107-9.766a2.028 2.028 0 0 1-1.172-.73zm1.238-3.254c-.411.073-.78.268-1.067.549l-8.6-4.7a.431.431 0 0 1-.01-.75L11.057.004l10.129 5.808a.431.431 0 0 1-.01.754l-8.693 4.702a2.024 2.024 0 0 0-1.072-.553v-2.52a2.03 2.03 0 1 0-.708 0v2.52z" fill="url(#b)" mask="url(#c)"/>
  </g>
</svg>
