<svg width="25" height="25" xmlns="http://www.w3.org/2000/svg">
  <g fill="none" fill-rule="evenodd">
    <path d="M24.96 12.455c0 6.87-5.568 12.438-12.437 12.438-6.87 0-12.438-5.569-12.438-12.438C.085 5.585 5.653.017 12.523.017c6.869 0 12.437 5.569 12.437 12.438" fill="#E1F0FF"/>
    <path d="M9.31 10.859l9.556-5.556v11.382a4.27 4.27 0 0 1-2.19 3.729l-.67.374V9.574l-4.53 2.59-2.167-1.305z" fill="#25558B"/>
    <path d="M15.114 14.196L9.309 10.86l9.557-5.556-.922-.473a4.27 4.27 0 0 0-4.076.093l-9.7 5.563 10.863 6.322.083-2.612z" fill="#5191D9"/>
    <path d="M4.168 10.486v1.233a4.27 4.27 0 0 0 2.177 3.722l9.68 5.441V9.574l-2.39 1.356v5.045l-9.467-5.49z" fill="#97BDE8"/>
  </g>
</svg>
