<svg width="25" height="25" xmlns="http://www.w3.org/2000/svg">
  <g fill="none" fill-rule="evenodd">
    <path d="M24.413 12.57c0 6.537-5.3 11.837-11.837 11.837-6.538 0-11.837-5.3-11.837-11.838C.739 6.032 6.039.732 12.576.732c6.538 0 11.837 5.3 11.837 11.837" fill="#D7D1C6"/>
    <path d="M22.55 11.335l-1.064.328L19.91 9.24l-1.19.345-1.114-1.41-3.77 3.763-2-.978-1.446 1.805-1.056-.703-2.174.55-1.005-3.467H3.538v.001l-.002-.001-2.016 3.373h-.446C1.112 6.238 6.213 1.16 12.5 1.16c6.311 0 11.428 5.117 11.428 11.428 0 .092-.002.183-.004.273l-1.375-1.526zm-4.756 11.383l-.38-.108a114.153 114.153 0 0 0-3.06-.773c-1.628-.481-3.396-.546-5.046-1.152-.002-.026-.002-.102.023-.14.024-.038.518-.518.518-.518l.228-.179c1.078-.653 2.387-1.898 1.012-2.946a3.392 3.392 0 0 0-.61-.35 4.048 4.048 0 0 0-.641-.22 9.851 9.851 0 0 0-.56-.091 14.788 14.788 0 0 0-.566-.066c-.743.007-1.442-.115-2.2-.183l-1.08-3.26-.859 2.558a.993.993 0 0 0-.034-.052l-1.21-3.65-1.245 3.706a.818.818 0 0 0-.116.347l-.005.014h.004c-.002.02-.004.04-.004.059v.01H1.51a11.39 11.39 0 0 1-.408-2.326h1.154v-.047l1.987-3.326h1.093l1.217 3.838 2.62-.787.634.416-1.289 1.61.754.622 2.796-3.513 1.886.803 3.537-3.234.966 1.18.917-.672 1.621 2.325 1.162-.23 1.654 1.845a11.438 11.438 0 0 1-6.017 8.49zM1.85 16.737h2.228l-.008.048-.005.015h.004c-.001.02-.004.039-.004.059 0 .564.612 1.022 1.367 1.022S6.8 17.423 6.8 16.86l-.001-.03c.663.445 2.08.092 2.867.516.199.065.393.147.58.252.15.1.282.216.386.353.08.105.066.211-.006.32-.072.107-.203.217-.359.33-.125.11-.263.215-.408.318-.734.539-2.11 1.325-1.467 2.369.112.116.265.208.44.285 1.93.7 3.96.766 5.834 1.364.232.058.464.112.697.16.397.083.795.147 1.195.18-1.26.478-2.628.74-4.056.74-4.848 0-8.99-3.019-10.65-7.28zM12.476.059C5.596.059.017 5.637.017 12.518c0 6.88 5.578 12.459 12.46 12.459 6.88 0 12.459-5.578 12.459-12.459 0-6.881-5.579-12.46-12.46-12.46z" fill="#3C2415"/>
    <path d="M22.605 15.708c-.02-.571-.676-1.338-1.605-1.663-.337-.118-.662-.37-.899-.588a1.83 1.83 0 0 0 .007-.236c-.02-.57-.676-1.337-1.606-1.663-.653-.229-1.264-.965-1.264-.965s-.392.712-1.498 1.065a1.843 1.843 0 0 0-1.288 1.688c0 1.022 1.2 1.34 1.643 1.37.444.03.617.267.664.464.046.197 0 2.129 0 2.129a2.932 2.932 0 0 0-.702-.358c-.653-.23-1.264-.966-1.264-.966s-.392.712-1.498 1.065a1.843 1.843 0 0 0-1.288 1.689c0 1.38 1.201 1.397 2.787 1.397 1.524 0 2.814-.139 2.868-1.371h.002v-1.749c.142.06.18-.011.479.133.297.144-.001 0-.001 0s1.046.347 1.046.732v1.296a.46.46 0 1 0 .921 0s-.012-.89 0-1.296c.012-.405.913-.714.913-.714s-.707.04-.002 0c.706-.04 1.62-.483 1.585-1.46M10.71 6.144a2.88 2.88 0 1 1-5.76 0 2.88 2.88 0 0 1 5.76 0M17.606 8.175l1.113 1.41.73-.212a4.258 4.258 0 1 0-5.156 2.108l3.313-3.306" fill="#3C2415"/>
    <path fill="#F47E31" d="M5.45 15.724l-.396 1.146h.824l-.428-1.146M3.375 14.587l-.417 1.137h.855l-.438-1.137"/>
    <path d="M16.707 18.623c0 .496-.886.584-1.882.584-.997 0-1.78-.13-1.821-.563-.036-.382.835-1.038 1.831-1.038.997 0 1.872.634 1.872 1.017M19.152 13.231c0 .495-.886.583-1.882.583-.997 0-1.78-.129-1.821-.563-.036-.382.835-1.037 1.831-1.037.997 0 1.872.633 1.872 1.017M21.65 15.718c0 .495-.886.583-1.883.583-.996 0-1.78-.129-1.82-.563-.037-.382.835-1.037 1.83-1.037.997 0 1.872.633 1.872 1.017" fill="#D8A77F"/>
    <path d="M9.74 6.153a1.92 1.92 0 1 1-3.84 0 1.92 1.92 0 0 1 3.84 0M17.606 8.175l.797 1.01a3.25 3.25 0 1 0-3.263 1.452l2.466-2.462" fill="#F47E31"/>
  </g>
</svg>
