<svg width="25" height="25" xmlns="http://www.w3.org/2000/svg">
  <g fill="none" fill-rule="evenodd">
    <path d="M17.746 5.01A7.234 7.234 0 0 0 12.5 7.253a7.23 7.23 0 0 1 2.008 5.01 3.238 3.238 0 1 1 6.477 0 3.238 3.238 0 0 1-6.477 0 7.232 7.232 0 0 1-2.008 5.01A7.254 7.254 0 1 0 17.746 5.01" fill="#1CA8E5"/>
    <path d="M12.5 7.253a7.23 7.23 0 0 0-2.008 5.01c0 1.944.764 3.709 2.008 5.01a7.232 7.232 0 0 0 2.008-5.01 7.23 7.23 0 0 0-2.008-5.01" fill="#1F3463"/>
    <path d="M7.254 15.502a3.238 3.238 0 1 1 3.238-3.238 7.23 7.23 0 0 1 2.008-5.01 7.254 7.254 0 1 0 0 10.02 7.232 7.232 0 0 1-2.008-5.01 3.238 3.238 0 0 1-3.238 3.238" fill="#D81A5A"/>
  </g>
</svg>
