<svg width="25" height="25" xmlns="http://www.w3.org/2000/svg">
  <g fill="#000" fill-rule="nonzero">
    <path d="M3.755 16.426l-.127-.22 1.475-.846.127.22-1.475.846zm16.427-.258l-.128.22-1.475-.855.128-.22 1.475.855z"/>
    <path d="M11.933 0L2 5.658v11.55l7.678 4.474-.038-1.88-6.099-3.57V7.65l7.602 4.295V24.55l.865.451.79-.451V11.945l7.565-4.295v8.581L14.3 19.727v1.88l7.716-4.314V5.658L11.933 0zm.075 10.592L4.518 6.26l7.415-4.398 7.593 4.323-7.518 4.408z"/>
    <path d="M6.264 14.988l-.126-.22 1.485-.847.126.221-1.485.846zm2.603-1.485l-.126-.22 1.485-.847.126.222-1.485.845zm3.212-4.001h-.254V7.801h.254v1.701zm.02-2.97h-.255v-1.71h.254v1.71zm0-2.848h-.255v-1.71h.254v1.71zm3.159 9.636l-.128.22-1.475-.855.128-.22 1.475.855zm2.519 1.458l-.127.22-1.485-.855.127-.22 1.485.855z"/>
  </g>
</svg>
