<svg width="25" height="25" xmlns="http://www.w3.org/2000/svg">
  <g fill="#F0DBB0" fill-rule="nonzero">
    <path d="M12.45 16.427l1.343-2.27H11.16z"/>
    <path d="M21.912 9.001L20.132 1l-3.496 5.506a17.654 17.654 0 0 0-8.27 0L4.875 1 3.092 9.001C1.17 10.534 0 12.537 0 14.734c0 4.815 5.594 8.72 12.496 8.72s12.496-3.905 12.496-8.72c0-2.197-1.162-4.2-3.08-5.733zM5.554 12.666h-.832l2.032-2.341h1.482l-2.682 2.341zm6.88 5.718l-3.458-6.078.854-.486.77 1.354h3.778l.805-1.36.845.5-3.595 6.07zm7.016-5.718l-2.683-2.341h1.49l2.031 2.341h-.838z"/>
  </g>
</svg>
