<svg width="25" height="25" xmlns="http://www.w3.org/2000/svg">
  <path d="M12.496 0C5.594 0 0 5.594 0 12.496s5.594 12.496 12.496 12.496 12.496-5.594 12.496-12.496S19.397 0 12.496 0zM9.967 6.572c.499-.309 1.974 1.992 2.252 2.033.28.04.998-.678 1.455-1.057.457-.38 2.462-1.635 2.55-1.505.09.13-1.405.997-2.233 1.635-.827.637-1.41 1.61-2.07 1.61-.66 0-1.854-1.855-2.023-2.06a.438.438 0 0 1 .07-.656zm6.451 10.598l-1.25-5.181-2.674 3.215-2.72-3.218-1.25 5.182H6.165l2.36-9.939 3.969 4.86 3.87-4.86 2.34 9.936-2.286.005z" fill="#FF9616" fill-rule="nonzero"/>
</svg>
