<svg width="25" height="25" xmlns="http://www.w3.org/2000/svg">
  <g fill="none" fill-rule="evenodd">
    <path d="M12.925 20.995l2.791-15.23s2.215.606 3.52 1.699c1.498 1.254 2.305 3.398 2.305 3.398s1.123-1.912.728-4.066c-.394-2.155-1.963-4.039-2.012-4.097v-.001A12.433 12.433 0 0 0 14.682.19l-3.275 18.074s-1.565-1.352-5.037-.85c-2.518.364-4.31 1.964-4.31 1.964a12.512 12.512 0 0 0 7.222 5.202s2.185-.43 3.642-3.586" fill="#FFF"/>
    <path d="M20.257 2.699c.049.058 1.618 1.942 2.012 4.097.395 2.154-.728 4.066-.728 4.066s-.807-2.144-2.306-3.398c-1.304-1.093-3.519-1.7-3.519-1.7l-2.791 15.231c-1.457 3.156-3.642 3.586-3.642 3.586 1.026.273 2.104.419 3.217.419C19.404 25 25 19.404 25 12.5a12.47 12.47 0 0 0-4.743-9.801M11.408 18.265L14.683.19A12.56 12.56 0 0 0 12.5 0C5.596 0 0 5.596 0 12.5c0 2.541.758 4.907 2.062 6.879 0 0 1.791-1.6 4.31-1.964 3.471-.502 5.036.85 5.036.85" fill="#E9B200"/>
  </g>
</svg>
