<svg width="25" height="25" xmlns="http://www.w3.org/2000/svg">
  <defs>
    <linearGradient x1="-.002%" y1="49.995%" y2="49.995%" id="a">
      <stop stop-color="#C51F5D" offset="0%"/>
      <stop stop-color="#2F2361" offset="100%"/>
    </linearGradient>
  </defs>
  <path d="M24.926 8.18L16.82.073a.281.281 0 0 0-.377 0l-3.98 3.966L8.562.138a.264.264 0 0 0-.377 0L6.967 1.332 2.49 5.722l-.98.96L.075 8.083A.256.256 0 0 0 0 8.276c0 .074.032.138.074.193l4.044 4.045c.105.105.28.105.376 0l3.884-3.88 3.934 3.935c.105.105.28.105.376 0l3.893-3.893 3.915 3.916c.055.055.12.073.193.073a.274.274 0 0 0 .193-.073l4.044-4.044A.256.256 0 0 0 25 8.355c0-.079-.023-.134-.074-.175zm-.726.335l-2.325-.854-1.066-2.298.616.087 2.922 2.923-.147.142zM22.886 9.83l-.69-1.475 1.586.583-.896.892zM6.88 4.513l-3.277.882L6.88 2.173v2.34zm-4.067 1.65l2.297-.616-.151 2.587-2.794-1.328.647-.644zM5.662 5.4l.409-.106L7.16 6.967 5.455 8.855 5.662 5.4zm1.861 1.14l-.915-1.402.52-.138 1.305.537-.91 1.002zm-.106-2.004v-.98l3.107.258.777 2.33-3.884-1.608zm2.629 3.028l1.112.68.184 2.597L9.77 9.278l.276-1.714zm1.512.294l-1.41-.873.105-.68 1.328.551a.178.178 0 0 0 .106.042l1.337.56.56 1.66-2.026-1.26zm2.013-.478l1.457-.753-1.067 1.898-.39-1.145zm2.017-1.636l-1.346.699.321-2.284 1.875 1.144-.85.441zM17 5.01l-2.514-1.53-.44-.272.66-.657 2.86.929.27 1.098-.836.432zm1.37-.529l-.667-2.77 3.107 3.106-2.44-.336zm.023.543l.57.073.615 5.8-1.64-1.64.455-4.233zm1.112.16l.68.097.97 2.091-1.186 2.201-.464-4.388zM16.622.644l.336.336.455 1.888-2.275-.735L16.622.643zm-3.975 3.98l1.016-1.016.4.248-.41 2.891-.418.216-1.291-.528-1.057-3.18 1.379 1.378c.11.087.27.087.381-.01zM8.364.72l1.673 1.668.29.874-2.91-.249V1.645l.947-.924zm-6.618 6.49l3.171 1.497-.087 1.425-2.836-.496L.648 8.29l1.098-1.08zm2.555 4.742l-1.65-1.65 2.133.377-.055.832-.428.44zm3.88-3.883l-2.868 2.867.073-1.227.01-.009 3.556-3.934.786.322-.16.993-.281 1.723-.735-.735a.269.269 0 0 0-.382 0zm4.324 3.938l-.584-.584-.193-2.835 2.132 1.314.193.56-1.548 1.545zm4.085-3.97a.29.29 0 0 0-.193.073l-1.93 1.93-.28-.832L15.9 6.167l1.93-.993-.386 3.59-.657-.658a.323.323 0 0 0-.198-.069zm4.1 3.988l-.52-.519-.106-.993 1.37-2.545 1.048 2.265-1.793 1.792z" transform="translate(0 6)" fill="url(#a)" fill-rule="nonzero"/>
</svg>
