<svg width="25" height="25" xmlns="http://www.w3.org/2000/svg">
  <g fill-rule="nonzero" fill="none">
    <path d="M8.75 10.972L5.417 18.82H0l.208-.486 7.64-8.958.902 1.597zM5.694 5.486l.07.07-.07-.07z" fill="#A03EC3"/>
    <path fill="#3B9FE6" d="M19.583 5.486l-.555 6.597-2.64 2.986-.763-1.458z"/>
    <path fill="#20ADEC" d="M24.93 5.556l-6.458 13.263.556-6.736z"/>
    <path fill="#3AB6ED" d="M25 5.486l-.07.07-5.902 6.527.555-6.597z"/>
    <path fill="#7C58B8" d="M11.111 5.486l-.139.208-2.36 2.848-2.848-2.986-.07-.07z"/>
    <path fill="#A03EC3" d="M11.111 5.556l-.139.138.14-.208z"/>
    <path fill="#5E88DE" d="M15.625 13.611l-.694 1.528-2.848-2.917-.902-6.666z"/>
    <path fill="#7876D7" d="M13.056 18.75L8.75 10.972l.694-1.597 2.64 2.847z"/>
    <path fill="#0447C1" d="M18.472 18.82h-5.347l.139-.278 2.361-2.64z"/>
    <path fill="#A03EC3" d="M13.056 18.75l.208-.208-.139.277z"/>
    <path fill="#3C67CA" d="M16.389 15.07l-.764.833-.694-.764.694-1.528z"/>
    <path fill="#B64AC6" d="M7.847 9.375L.208 18.333 5.694 5.486l.07.07z"/>
    <path fill="#572FAA" d="M9.444 9.375l-.694 1.597-.903-1.597.764-.833z"/>
    <path fill="#7241AE" d="M8.611 8.542l-.764.833-2.083-3.82z"/>
    <path fill="#6249B6" d="M10.972 5.694L9.444 9.375l-.833-.833z"/>
    <path fill="#8E7FDA" d="M12.083 12.222L9.444 9.375l1.528-3.68.14-.14h.069z"/>
    <path fill="#2890E2" d="M19.028 12.083l-.556 6.736-2.083-3.75z"/>
    <path fill="#5375D8" d="M14.93 15.139l-1.666 3.403-.208.208-.973-6.528z"/>
    <path fill="#2B4FC0" d="M15.625 15.903l-2.361 2.639 1.667-3.403z"/>
    <path fill="#205DC9" d="M18.472 18.82l-2.847-2.917.764-.834z"/>
  </g>
</svg>
