<svg width="25" height="25" xmlns="http://www.w3.org/2000/svg">
  <g fill="none" fill-rule="evenodd">
    <path d="M20.583 4.53l.374-1.235c-.175-.16-.355-.316-.539-.467l-.37 1.192c.184.164.362.334.535.51M4.513 20.568l-.37 1.226c.176.16.357.313.542.461l.369-1.186a11.422 11.422 0 0 1-.54-.501M1.147 12.5C1.147 6.23 6.23 1.147 12.5 1.147a11.3 11.3 0 0 1 5.49 1.414l.34-1.12A12.444 12.444 0 0 0 12.5 0C5.596 0 0 5.596 0 12.5c0 2.667.836 5.138 2.259 7.168l.444-1.43A11.3 11.3 0 0 1 1.147 12.5M22.83 5.461l-.449 1.446a11.3 11.3 0 0 1 1.472 5.593c0 6.27-5.083 11.353-11.353 11.353-1.948 0-3.78-.49-5.382-1.355l-.339 1.119A12.446 12.446 0 0 0 12.5 25C19.404 25 25 19.404 25 12.5c0-2.61-.8-5.034-2.17-7.039" fill="#FBC531"/>
    <path d="M19.83 4.723c.183.173.36.352.532.538l.221-.732a11.409 11.409 0 0 0-.535-.509l-.218.703M4.733 19.841l-.22.727c.175.173.355.34.54.501l.218-.698c-.186-.17-.365-.347-.538-.53" fill="#FBC531"/>
    <path d="M12.5 23.853c6.27 0 11.353-5.083 11.353-11.353a11.3 11.3 0 0 0-1.472-5.593l.45-1.446a12.566 12.566 0 0 0-1.874-2.166L16.98 16.437l1.25 3.833 3.872-12.466a10.644 10.644 0 0 1 1.084 4.696c0 5.903-4.784 10.688-10.687 10.688-1.882 0-3.65-.487-5.185-1.341L9.64 14.16l-1.25-3.833-3.705 11.928c.649.52 1.35.978 2.094 1.362l.339-1.119a11.301 11.301 0 0 0 5.382 1.355" fill="#FFF"/>
    <path d="M17.603 20.417h-1.728a1.07 1.07 0 0 1-1.025-.758L10.25 4.604h1.623c.509 0 .958.332 1.108.818l4.623 14.995zm-4.74 0c-.47 0-.886-.308-1.024-.758L7.237 4.604H8.86c.51 0 .959.332 1.109.818l4.622 14.995h-1.728zM19.83 4.723l-3.22 10.366-1.25-3.833 2.433-8.043a10.639 10.639 0 0 0-5.293-1.4C6.597 1.813 1.812 6.596 1.812 12.5c0 1.748.42 3.399 1.165 4.856L6.77 5.146l1.25 3.833-3.287 10.862c.173.183.352.36.538.53l3.12-10.044 1.25 3.833-2.326 7.687a10.638 10.638 0 0 0 5.185 1.34c5.903 0 10.688-4.784 10.688-10.687 0-1.685-.39-3.278-1.085-4.696L18.23 20.27l-1.25-3.833 3.382-11.176a10.734 10.734 0 0 0-.532-.538z" fill="#FBC531"/>
    <path d="M4.733 19.841L8.02 8.979 6.77 5.146l-3.792 12.21A10.642 10.642 0 0 1 1.813 12.5c0-5.903 4.784-10.688 10.687-10.688 1.926 0 3.732.51 5.293 1.401l-2.433 8.043 1.25 3.833 3.808-12.261A12.522 12.522 0 0 0 18.33 1.44l-.339 1.12a11.3 11.3 0 0 0-5.49-1.414C6.23 1.147 1.147 6.23 1.147 12.5a11.3 11.3 0 0 0 1.556 5.738l-.444 1.43a12.567 12.567 0 0 0 1.883 2.126l.591-1.953" fill="#FFF"/>
    <path d="M11.872 4.604h-1.623L14.85 19.66c.138.45.554.758 1.025.758h1.728L12.98 5.422a1.16 1.16 0 0 0-1.108-.818M8.86 4.604H7.237L11.84 19.66c.138.45.553.758 1.024.758h1.728L9.97 5.422a1.16 1.16 0 0 0-1.109-.818" fill="#FFF"/>
  </g>
</svg>
