<svg width="25" height="25" xmlns="http://www.w3.org/2000/svg" xmlns:xlink="http://www.w3.org/1999/xlink">
  <defs>
    <path d="M25 12.5C25 19.404 19.404 25 12.5 25S0 19.404 0 12.5 5.596 0 12.5 0 25 5.596 25 12.5" id="a"/>
    <linearGradient x1="50%" y1="0%" x2="50%" y2="100%" id="b">
      <stop stop-color="#EB9D2E" offset="0%"/>
      <stop stop-color="#DD6A2B" offset="100%"/>
    </linearGradient>
  </defs>
  <g fill="none" fill-rule="evenodd">
    <mask id="c" fill="#fff">
      <use xlink:href="#a"/>
    </mask>
    <path d="M25 12.5C25 19.404 19.404 25 12.5 25S0 19.404 0 12.5 5.596 0 12.5 0 25 5.596 25 12.5" fill="url(#b)" mask="url(#c)"/>
    <path d="M12.5 23.181c-5.89 0-10.681-4.791-10.681-10.681C1.819 6.61 6.61 1.819 12.5 1.819c5.89 0 10.681 4.791 10.681 10.681 0 5.89-4.791 10.681-10.681 10.681zm0-22.053C6.23 1.128 1.128 6.229 1.128 12.5c0 6.27 5.101 11.372 11.372 11.372 6.27 0 11.372-5.101 11.372-11.372 0-6.27-5.101-11.372-11.372-11.372z" fill="#FFFFFE"/>
    <path d="M18.086 15.014l-.04-.093c-.018-.045-.098-.037-.163.016l-.946.76a.188.188 0 0 1-.11.045H11.03c-.055 0-.075-.045-.042-.1l.76-1.32-1.17-2.643-2.346 4.063c-.45.709-1.102 1.307-1.907 1.822-.1.063-.115.17-.027.17h9.536c.054 0 .122-.043.155-.097.488-.81 1.193-1.65 2.054-2.513.037-.038.054-.081.042-.11zM12.83 7.712l1.156 2.737 1.128-1.953c.361-.626 1.079-1.651 1.721-2.178.084-.069.088-.157.008-.157h-3.682c-.085 0-.19.1-.172.164.11.396.052.877-.16 1.387zm-4.148-.845h2.893c.027 0 .046.01.054.03l2.164 5.118c.026.063.161.018.213-.071l2.873-4.976c.032-.056.103-.1.159-.1h3.035c.091 0 .07.109-.031.172-.484.302-.866.658-1.11 1.088l-3.144 5.446c-.282.485-.363.848-.23 1.082.035.062-.07.178-.166.178h-2.51c-.026 0-.045-.01-.054-.028l-2.113-4.77c-.027-.063-.161-.018-.213.071l-2.67 4.627c-.033.055-.104.1-.16.1H4.927c-.087 0-.074-.106.023-.168.38-.24.705-.57.96-1.017l2.521-4.365c.501-.867.55-1.681.13-2.182l-.043-.052c-.048-.057.065-.183.164-.183zM12.5 19.646l.298.918h.965l-.78.567.298.918-.781-.567-.78.567.297-.918-.78-.567h.965l.298-.918" fill="#FFFFFE"/>
  </g>
</svg>
