<svg width="25" height="25" xmlns="http://www.w3.org/2000/svg">
  <g fill-rule="nonzero" fill="none">
    <path d="M23.448 16.717V8.28a.898.898 0 0 0-.364-.743L13.03.19a.9.9 0 0 0-.725-.174c-.156.03-.297.108-.422.202L1.902 7.514a.934.934 0 0 0-.4.772c-.002 2.811-.002 5.622 0 8.433-.005.304.153.6.404.771 3.327 2.431 6.653 4.862 9.978 7.294.319.272.818.293 1.146.028 3.34-2.439 6.68-4.879 10.017-7.32a.907.907 0 0 0 .4-.775" fill="#050708"/>
    <path d="M11.316 2.03c.088-.1.177-.257.332-.236.528.003 1.057-.008 1.584.006.092.056.162.141.24.215-.002.544-.002 1.089 0 1.633-.157.002-.315.01-.472-.001l-.037-.153c0-.406.035-.814.001-1.22h-1.162l-.004.411h-.491c.001-.219-.023-.44.008-.656M10 2.693c.178-.006.357-.006.536-.002.002.753.005 1.506-.002 2.258-.17.004-.34.004-.51.003-.057-.75-.011-1.506-.024-2.258m4.538.809c.475-.006.949-.004 1.424-.001.002.174.002.347 0 .52-.475.006-.95.008-1.425 0a23.147 23.147 0 0 1 0-.52m-2.88.257c.192-.004.384-.003.575-.003.184.356.414.69.563 1.063-.176.008-.353.008-.528.009-.21-.353-.411-.71-.61-1.069m1.957.628c.165-.004.331-.003.498-.001.451.7.89 1.408 1.344 2.107 0 .212 0 .425-.003.637l-.195-.034c-.386-.575-.74-1.17-1.122-1.748-.006.65.002 1.3-.005 1.95-.172.003-.345.003-.519 0-.002-.97-.005-1.94.002-2.911m2.06.394c.176-.004.353-.004.53 0v.5c-.177.005-.354.005-.53.002a40.382 40.382 0 0 1 0-.502m-8.726.164c.14-.003.279-.002.418 0a8.947 8.947 0 0 1 1.115.003c.001.161 0 .323-.001.485-.55.33-1.079.696-1.637 1.012-.164-.062-.29-.194-.424-.303.365-.223.722-.458 1.091-.674-.186-.01-.374-.008-.56-.01a17.276 17.276 0 0 1-.002-.513m4.4.192a9.34 9.34 0 0 1 .512 0c.005.171.005.342 0 .513-.17.005-.34.006-.512.001a11.631 11.631 0 0 1 0-.514m-2.508.501c.274.415.54.836.816 1.248.277-.417.544-.841.824-1.256 0 .275.018.553-.006.827-.253.435-.547.845-.82 1.267-.268-.415-.552-.822-.807-1.245-.029-.279-.008-.56-.007-.84m7.575.07c.821-.004 1.643-.004 2.464 0v.5c-.821.002-1.643.002-2.464 0v-.5m-4.348.65c.166-.003.331-.003.497-.001.008.728 0 1.458.005 2.187a15.32 15.32 0 0 0-.229.222c-.569.006-1.138 0-1.707.003-.075-.072-.151-.14-.219-.218-.029-.223-.008-.45-.008-.675h.476c.005.129.004.257.002.386.392.044.786.012 1.18.022.002-.642-.005-1.285.003-1.926m7.941 2.154a89.36 89.36 0 0 1 0-1.651c.172-.004.344-.005.517 0 .006.55.005 1.1 0 1.651-.173.003-.345.002-.517 0m-2.453-1.236c.325-.003.652-.053.975 0 .212.69.394 1.39.604 2.082a66.65 66.65 0 0 1-.5.001c-.159-.536-.294-1.08-.458-1.614l-.274.003c-.136.54-.3 1.072-.44 1.61h-.504c.207-.692.4-1.388.597-2.082m-13.894.264c.748-.005 1.498-.006 2.247 0 .004.173.004.344 0 .516-.75.007-1.499.005-2.248 0a16.19 16.19 0 0 1 0-.516m2.6 0h.512c.004.173.004.346 0 .519-.17.001-.34 0-.511-.001a22.318 22.318 0 0 1 0-.518m1.882.021c.167 0 .335 0 .502.002.005.4.002.8.002 1.201-.17.001-.339.002-.508 0-.001-.4-.007-.801.004-1.203m13.09.36c.193-.004.386-.003.578-.004.19.353.422.688.563 1.065-.175.006-.35.007-.526.008-.207-.355-.405-.716-.615-1.069m-7.579.428h.5c.004.549.001 1.097.001 1.646l-.502.002.001-1.648m1.759.667a20.859 20.859 0 0 1 0-.516c.168-.002.338-.002.506.002 0 .172.002.343-.001.515h-.505m-9.514.76c.404-.296.835-.552 1.25-.83.274.002.548-.002.822.003-.407.291-.84.543-1.25.83.421.265.834.542 1.253.81-.282.004-.564.001-.846.002-.406-.276-.829-.53-1.229-.816m14.11-.478c.172-.004.345-.005.518 0 .005.172.004.344 0 .517-.173.003-.346.003-.518 0a12.543 12.543 0 0 1 0-.517m-17.733.07a170.39 170.39 0 0 1 2.59.002c.002.163.002.327.002.49-.385.253-.771.507-1.168.742-.167-.061-.294-.2-.437-.302.214-.135.43-.265.637-.41-.541-.002-1.082.003-1.625-.003a17.088 17.088 0 0 1 0-.519m7.386.501c.747.003 1.494-.004 2.24.003.018.17.016.341-.007.51-.744.004-1.488.001-2.232.002a50.597 50.597 0 0 1-.001-.515m2.728.003c.18-.004.359-.004.538.003v.501c-.18.005-.359.005-.538.002a26.274 26.274 0 0 1 0-.506m2.35.722c-.024-.177.158-.267.25-.389.22 0 .44-.001.659.003.005.165.005.33.003.496-.14.003-.278.003-.417.005v1.176c.645.004 1.29-.003 1.934.004.002.167.002.334-.002.5-.726.005-1.453 0-2.18.002-.092-.12-.27-.212-.247-.388-.003-.47-.003-.939 0-1.409m2.444-.156c.178-.006.357-.006.535 0 .002.17.002.341 0 .511a8.022 8.022 0 0 1-.535.001c-.002-.17-.002-.341 0-.512m1.7 0c.75-.01 1.501-.003 2.253-.004v.521c-.752 0-1.502.006-2.253-.003a19.198 19.198 0 0 1 0-.514m-10.409.6l1.262-.001c.004.175.004.35 0 .525h-1.26a6.59 6.59 0 0 1-.002-.524m2.777 0c.66-.001 1.32 0 1.981-.002.24-.037.48.212.45.45v1.456l-.255.273c-.219 0-.437 0-.655-.003a24.322 24.322 0 0 1-.001-.499l.41-.005c.001-.382 0-.765.002-1.147-.642-.057-1.289-.01-1.932-.026a24.726 24.726 0 0 1 0-.497m-4.656.153c.323-.002.645-.003.967.002.196.697.406 1.391.59 2.092-.162 0-.324 0-.486.002-.166-.539-.294-1.087-.465-1.623l-.276.02c-.122.54-.297 1.065-.43 1.602-.167 0-.334 0-.5-.002.198-.698.396-1.396.6-2.093m14.08.63c.563-.005 1.126-.01 1.688.003.141.087.301.23.27.416 0 .4-.002.8 0 1.201-.004.192.004.385-.001.577.009.157-.034.311-.025.469-.16 0-.32 0-.48-.002v-2.168c-.392-.01-.785-.002-1.178-.005 0 .134 0 .268-.003.403-.165.002-.33.003-.495.002a39.236 39.236 0 0 1-.002-.664c.076-.076.151-.153.226-.231m-16.007.02h.522c.002.549 0 1.097.001 1.646h-.525c.003-.549 0-1.098.002-1.646m-1.64.459c.172-.003.343.002.514.014.002.162.002.325 0 .488-.173.002-.345.003-.518 0-.002-.168-.001-.335.004-.502m6.14 3.008c-.004-.97-.005-1.941 0-2.912.17-.003.34-.003.51.001.4.645.813 1.283 1.221 1.923.177.228.07.533.099.798l-.177.002c-.368-.584-.751-1.157-1.103-1.75-.064.644-.012 1.294-.032 1.941a14.57 14.57 0 0 1-.518-.003m2.27-2.539c.173-.003.346-.004.52 0 .002.423.001.848 0 1.272-.174.003-.347.003-.521-.002a76.819 76.819 0 0 1 0-1.27m3.143.568c.17-.002.34-.002.51 0 .003.172.003.345 0 .518h-.51a23.288 23.288 0 0 1 0-.518m1.654.022c.528-.007 1.056-.003 1.585-.002.021.155.035.312.02.468-.05.102-.17.061-.26.07-.45-.012-.901.027-1.348-.024a9.964 9.964 0 0 1 .003-.512m2.13.073c.171-.002.343-.013.513.013.016.596.007 1.194.003 1.791a13.13 13.13 0 0 1-.515 0 95.653 95.653 0 0 1 0-1.804m-4.71.353l.5.001c.001.172.002.344 0 .516-.168.003-.334.003-.5 0a35.622 35.622 0 0 1 0-.517m-8.015.367c.594-.064 1.193-.013 1.79-.032.153-.002.307.005.46.021.002.173.001.347 0 .52-.75 0-1.498.004-2.247-.002a15.217 15.217 0 0 1-.003-.507m-3.364.383l.246-.238c.217-.002.433-.002.65.002.002.164.002.328 0 .492-.134.003-.268.004-.403.005.003.391-.002.782.003 1.173.639.002 1.277-.005 1.916.003.003.161.003.322.002.483l-.475.002c-.567-.006-1.134.01-1.701-.007a.554.554 0 0 1-.233-.242c-.015-.557-.001-1.115-.005-1.673m13.247.325c.085-.08.171-.16.259-.238.552.005 1.104 0 1.656.002l.25.238v1.64c-.167 0-.336 0-.503-.005-.001-.46-.004-.919.001-1.378h-1.16c.001.14 0 .28-.003.42-.165.002-.331.002-.496.001-.006-.227-.004-.453-.004-.68m3.545.965c.613-.399 1.231-.787 1.849-1.177.147.098.292.202.436.305l-1.332.848c.652.007 1.305 0 1.958.004l-.001.52c-.97.003-1.94.004-2.908 0a21.56 21.56 0 0 1-.002-.5m-6.932.1c.615-.41 1.249-.79 1.864-1.198.146.1.29.203.439.3-.425.299-.876.56-1.31.847.65.012 1.298 0 1.947.007.004.179.004.358-.001.536-.97.006-1.942.002-2.913.002-.024-.164-.024-.33-.026-.495m-6.38-.441c.27.412.54.825.807 1.239.286-.409.542-.838.826-1.249.005.278 0 .557.003.835-.282.414-.54.843-.83 1.251-.269-.41-.53-.825-.81-1.227-.002-.283-.005-.567.004-.849m2.957 1.058a5.74 5.74 0 0 1 .003-.529c.17-.001.34 0 .51.013.003.172.003.344-.001.516-.17.002-.341.002-.512 0m2.403.255c.172-.002.345-.002.517 0 .004.64 0 1.282.002 1.923-.122.005-.244.01-.367.022l-.156-.029c.004-.638-.003-1.277.004-1.916m3.56.402c.326-.006.65-.002.974-.004l.599 2.094c-.168 0-.336 0-.503-.004-.142-.533-.297-1.064-.442-1.596-.09-.006-.181-.01-.272-.014l-.449 1.614c-.167 0-.334 0-.501-.002.204-.695.407-1.39.595-2.088m-7.36 1.156c.619-.397 1.236-.797 1.863-1.18.144.101.29.2.433.303-.449.28-.889.573-1.342.845.657.013 1.314-.002 1.972.008.003.172.003.345-.002.518-.974.003-1.947.007-2.921-.002a11.944 11.944 0 0 1-.003-.492m5.108-1.054c.181.002.362-.009.542-.032.212.35.463.697.572 1.095-.17.001-.34.001-.508.003a84.54 84.54 0 0 0-.606-1.066m7.159.214c.177-.006.355-.006.532-.002.001.17.001.34 0 .51a7.945 7.945 0 0 1-.532-.004 15.076 15.076 0 0 1 0-.504m-1.306 1.356c.215-.344.444-.679.66-1.023.006.255.01.511.004.767.006.096-.064.17-.109.248-.237.35-.465.709-.698 1.062-.28-.418-.552-.841-.83-1.262-.001-.28-.003-.56.003-.84.273.409.53.827.809 1.231.078-.033.114-.118.161-.183m-13.191-.496c.454-.015.91-.007 1.364-.004.003.168.014.338-.008.506-.451.022-.904.011-1.356.003a27.123 27.123 0 0 1 0-.505m5.54 1.099c.729-.01 1.457 0 2.186-.006l.25.252c-.003.556-.002 1.114-.002 1.671-.073.077-.145.154-.216.232-.234.005-.467.005-.7-.001.003-.158-.017-.319.02-.473.132-.014.264-.009.397-.01.002-.39 0-.78.001-1.17-.645-.003-1.292.009-1.936-.006a18.773 18.773 0 0 1 0-.489m-3.5.185c.17-.002.34-.002.511.002.003.17.003.34 0 .512a19.11 19.11 0 0 1-.512 0 17.306 17.306 0 0 1 0-.514m9.016.276c.193-.163.368.108.533.187l.001.061c-.431.278-.872.541-1.294.834l.245-.002c.13 0 .26.001.39.004.002.17.002.341 0 .512-.532.007-1.062.005-1.593 0a8.297 8.297 0 0 1-.014-.481c.567-.389 1.158-.739 1.732-1.115m-8.058.473c.69-.003 1.379-.007 2.068.001.001.17.001.34 0 .51-.69.01-1.379.005-2.068.002a14.077 14.077 0 0 1 0-.513m1.837 1.308c.194-.002.388-.002.582.001.18.358.419.687.557 1.064-.174.01-.348.01-.521.011-.213-.355-.412-.718-.618-1.076m3.44.544c.17-.002.34 0 .509.012.003.17.002.34-.02.509h-.485a10.363 10.363 0 0 1-.003-.521m-1.182 1.686c0-.395-.01-.792.006-1.188.17 0 .342.01.513.025v1.164c-.173.003-.346.002-.52 0" fill="#FFF"/>
  </g>
</svg>
