<svg width="25" height="25" xmlns="http://www.w3.org/2000/svg">
  <g fill-rule="nonzero" fill="none">
    <path d="M24.983 12.504c0 6.87-5.568 12.438-12.438 12.438-6.869 0-12.438-5.569-12.438-12.438C.107 5.634 5.676.066 12.545.066c6.87 0 12.438 5.569 12.438 12.438" fill="#008EBD"/>
    <path d="M17.616 13.142h-1.812l-3.778-2.51c-.026-.016-.052-.028-.079-.041a.882.882 0 0 0-.01-.006l-.041-.02a.676.676 0 0 0-.277-.059h-1.065a.68.68 0 1 0 0 1.36h.872l3.792 2.52c.122.08.268.119.414.11a.682.682 0 0 0 .088.006h1.896a.68.68 0 1 0 0-1.36m-5.783 0h-1.115l-3.704-2.46a.676.676 0 0 0-.454-.176H5.495a.68.68 0 1 0 0 1.36h.845l3.705 2.461a.677.677 0 0 0 .454.175h1.334a.68.68 0 0 0 0-1.36m8.36-2.28a.68.68 0 0 0-.598-.356H15.74a.68.68 0 1 0 0 1.36h3.176v.569a.68.68 0 0 0 1.36 0v-1.249a.678.678 0 0 0-.083-.324m-13.532 2.28H5.495a.68.68 0 0 0 0 1.36H6.66a.68.68 0 0 0 0-1.36" fill="#FFF"/>
  </g>
</svg>
