<svg width="25" height="25" xmlns="http://www.w3.org/2000/svg">
  <g fill="#000" fill-rule="evenodd">
    <path d="M10.96 18.32a6.049 6.049 0 0 1-4.523-5.845A6.049 6.049 0 0 1 10.96 6.63V4.473c-3.77.712-6.63 4.029-6.63 8.002 0 3.973 2.86 7.29 6.63 8.002V18.32"/>
    <path d="M12.475 24.192C6.014 24.192.758 18.936.758 12.475S6.014.758 12.475.758c6.46 0 11.717 5.256 11.717 11.717 0 6.46-5.256 11.717-11.717 11.717zm0-24.192C5.596 0 0 5.596 0 12.475 0 19.353 5.596 24.95 12.475 24.95c6.878 0 12.475-5.597 12.475-12.475C24.95 5.596 19.353 0 12.475 0z"/>
    <path d="M13.99 4.473V6.63a6.049 6.049 0 0 1 4.522 5.845 6.048 6.048 0 0 1-4.522 5.845v2.157c3.769-.712 6.629-4.03 6.629-8.002 0-3.973-2.86-7.29-6.63-8.002"/>
  </g>
</svg>
