<svg width="25" height="25" xmlns="http://www.w3.org/2000/svg">
  <path d="M11.78.216c.805-.35 1.38.393 1.876.889.886.753 1.73 1.554 2.53 2.399.458.5.273 1.415-.35 1.693-.48.262-1.066.065-1.433-.3-.965-.923-1.888-1.894-2.89-2.777-.622-.508-.495-1.61.267-1.904m8.785 2.562c.546-.294 1.419-.055 1.57.595.232.578-.14 1.15-.547 1.534-.893.881-1.76 1.787-2.628 2.693-.317.383-.874.485-1.321.278-.646-.267-.82-1.237-.333-1.728 1.095-1.114 2.061-2.362 3.259-3.372m-17.443.18c.568-.343 1.271-.116 1.692.35.946.955 1.922 1.878 2.878 2.818.633.585.192 1.824-.691 1.828-.74.114-1.131-.617-1.626-1.017-.867-.718-1.661-1.517-2.448-2.323-.445-.459-.312-1.3.195-1.656m.734 5.644c.953-.367 1.883.834 1.289 1.662-.703.917-1.618 1.654-2.385 2.52-.453.466-.876 1.182-1.63 1.091-.883-.034-1.326-1.261-.684-1.857 1.16-1.11 2.08-2.514 3.41-3.416m19.326 2.656c.655-.428 1.644.06 1.665.85.097.742-.64 1.135-1.046 1.633a28.79 28.79 0 0 1-2.308 2.433c-.59.559-1.696.166-1.802-.643-.138-.835.646-1.354 1.14-1.889.82-.76 1.511-1.655 2.35-2.383m-16.84 5.875c.638-.38 1.604.072 1.619.845.118.746-.62 1.143-1.023 1.64-.713.862-1.507 1.653-2.308 2.434-.521.526-1.632.272-1.78-.484-.252-.729.368-1.318.84-1.776.915-.857 1.71-1.836 2.653-2.658m11.316-.03c.353-.12.8-.13 1.097.124 1.103 1.048 2.276 2.021 3.312 3.14.32.323.35.867.137 1.257-.3.701-1.327.718-1.825.222-1.006-.95-1.973-1.946-2.985-2.891-.611-.476-.468-1.577.264-1.852m-8.49 2.68c.524-.285 1.14-.016 1.517.384.951.944 1.902 1.887 2.89 2.793.649.618.21 1.87-.705 1.88-.74.087-1.124-.647-1.62-1.048-.862-.715-1.662-1.5-2.435-2.31-.467-.499-.277-1.425.352-1.7M7.48 1.17a1.083 1.083 0 1 1-2.167 0 1.083 1.083 0 0 1 2.167 0m3.158 2.881a1.083 1.083 0 1 1-2.167 0 1.083 1.083 0 0 1 2.167 0M2.179 6.697a1.083 1.083 0 1 1-2.167 0 1.083 1.083 0 0 1 2.167 0m17.198-5.614a1.083 1.083 0 1 1-2.168 0 1.083 1.083 0 0 1 2.168 0m5.61 5.343a1.083 1.083 0 1 1-2.166 0 1.083 1.083 0 0 1 2.167 0m-2.961 3.112a1.083 1.083 0 1 1-2.167 0 1.083 1.083 0 0 1 2.167 0m2.956 8.75a1.083 1.083 0 1 1-2.167 0 1.083 1.083 0 0 1 2.167 0m-8.45 2.641a1.083 1.083 0 1 1-2.166 0 1.083 1.083 0 0 1 2.166 0m3.117 2.963a1.083 1.083 0 1 1-2.166 0 1.083 1.083 0 0 1 2.166 0m-11.864 0a1.083 1.083 0 1 1-2.167 0 1.083 1.083 0 0 1 2.167 0m-2.642-8.485a1.083 1.083 0 1 1-2.167 0 1.083 1.083 0 0 1 2.167 0m-2.965 3.149a1.083 1.083 0 1 1-2.167 0 1.083 1.083 0 0 1 2.167 0" fill="#03E8B0" fill-rule="nonzero"/>
</svg>
