<svg width="25" height="25" xmlns="http://www.w3.org/2000/svg">
  <defs>
    <linearGradient x1="97.964%" y1="86.803%" x2="1.946%" y2="12.662%" id="a">
      <stop stop-color="#3C3738" offset="0%"/>
      <stop stop-color="#040404" offset="50%"/>
      <stop stop-color="#3C3738" offset="100%"/>
    </linearGradient>
  </defs>
  <g fill-rule="nonzero" fill="none">
    <path d="M24.73 12.21L18.097 5l-5.676 6.11L6.855 5 .222 12.21a.838.838 0 0 0 0 1.136l6.633 7.246 5.576-5.983 5.666 5.983 6.633-7.252a.842.842 0 0 0 0-1.13zm-21.337.972a.668.668 0 0 1 .01-.91l3.468-3.636 4.012 4.202L6.87 17.04l-3.478-3.858zm18.156 0L18.06 17.03l-4.011-4.202 4.011-4.202 3.467 3.636c.254.26.26.66.022.92z" fill="#3C3738"/>
    <path d="M.01 1.781L9.605 12.03l1.585-1.856L1.665 0z" transform="translate(7.18 7.187)" fill="url(#a)"/>
    <path d="M7.031 16.833l1.639 1.712 9.545-10.106-1.654-1.78z" fill="#3C3738"/>
  </g>
</svg>
