<svg width="25" height="25" xmlns="http://www.w3.org/2000/svg">
  <g fill-rule="nonzero" fill="none">
    <circle fill="#ED79AA" cx="12.5" cy="12.5" r="12.5"/>
    <g fill="#FFF">
      <path d="M18.322 6.976l-1.461 1.47a5.655 5.655 0 0 0-4.025-1.678c-3.059 0-5.555 2.43-5.686 5.477h-.006v5.564A7.815 7.815 0 0 1 5.078 12.5c0-4.315 3.474-7.812 7.758-7.812a7.707 7.707 0 0 1 5.486 2.288zm0 11.048a7.707 7.707 0 0 1-5.36 2.288v-2.08a5.655 5.655 0 0 0 3.899-1.678l1.46 1.47z" opacity=".5"/>
      <path d="M9.126 19.363v-7.118h.005c.11-2.035 1.783-3.651 3.831-3.651 2.12 0 3.837 1.73 3.837 3.864 0 2.133-1.718 3.863-3.836 3.863a3.798 3.798 0 0 1-1.94-.529v4.306a7.673 7.673 0 0 1-1.897-.735zm3.837-4.952a1.946 1.946 0 0 0 1.94-1.953 1.947 1.947 0 0 0-1.94-1.953 1.946 1.946 0 0 0-1.94 1.953c0 1.078.868 1.953 1.94 1.953z"/>
    </g>
  </g>
</svg>
