<svg width="25" height="25" xmlns="http://www.w3.org/2000/svg">
  <g fill="none" fill-rule="evenodd">
    <path d="M22.051 15.96s-.097 1.921-2.426 3.94c-2.33 2.02-6.915 3.727-6.915 3.727s-4.72-1.963-7.157-4.006C2.94 17.433 3.368 15.96 3.368 15.96V2.965l9.354-1.493 9.33 1.493V15.96zM12.705.024l-10.2 2.102v14.171s-.227 1.706 2.382 3.992c2.608 2.287 7.805 4.693 7.805 4.693s5-2.186 7.54-4.388c2.541-2.202 2.647-4.297 2.647-4.297V2.127L12.705.023z" fill="#372F45"/>
    <path d="M12.69.027v1.45l.032-.005 9.33 1.493V15.96s-.098 1.921-2.427 3.94c-2.33 2.02-6.915 3.727-6.915 3.727l-.02-.008v1.362h.002s5-2.185 7.54-4.387c2.541-2.202 2.647-4.297 2.647-4.297V2.127L12.705.023l-.016.003" fill="#5C4D7D"/>
    <path d="M12.562 2.488L4.134 3.813l-.018 11.693s-.346 1.533 2.136 3.613c2.318 1.941 6.437 3.567 6.437 3.567s4.05-1.775 6.353-3.585c2.52-1.979 2.147-3.834 2.147-3.834l-.023-11.423-8.604-1.356" fill="#372F45"/>
    <path d="M21.166 3.844l-8.604-1.356-6.867 1.08c1.182 9.393 7.36 13.379 15.034 13.641.624-1.126.46-1.942.46-1.942l-.023-11.423" fill="#5C4D7D"/>
    <path d="M14.208 5.42H9.452v1.138h4.599v.002c1.601.054 2.875.944 2.875 2.836 0 1.778-1.274 2.775-2.875 2.836a4.086 4.086 0 0 1-.157.003l-4.237-.003v6.287h1.217v-5.147c.1.007 3.334.012 3.334.012 2.216 0 4.012-1.783 4.012-3.982 0-2.2-1.796-3.983-4.012-3.983" fill="#FFF"/>
    <path fill="#FFF" d="M8.573 9.863h4.916v-.98H8.573z"/>
  </g>
</svg>
