<svg width="25" height="25" xmlns="http://www.w3.org/2000/svg">
  <g fill="none" fill-rule="evenodd">
    <path d="M25 12.5C25 19.404 19.404 25 12.5 25S0 19.404 0 12.5 5.596 0 12.5 0 25 5.596 25 12.5" fill="#388CBF"/>
    <path d="M12.5 23.181c-5.89 0-10.681-4.791-10.681-10.681C1.819 6.61 6.61 1.819 12.5 1.819c5.89 0 10.681 4.791 10.681 10.681 0 5.89-4.791 10.681-10.681 10.681zm0-22.053C6.23 1.128 1.128 6.229 1.128 12.5c0 6.27 5.101 11.372 11.372 11.372 6.27 0 11.372-5.101 11.372-11.372 0-6.27-5.101-11.372-11.372-11.372z" fill="#F5F5F3"/>
    <path d="M19.523 12.704c-.11.213-.37.403-.78.568l-1.215.49-.667-1.655 1.21-.487c.418-.168.737-.217.96-.145.222.071.398.267.49.495.098.245.111.52.002.734zM20.7 10.33c-.392-.219-.892-.283-1.5-.193.314-.273.522-.557.624-.85a1.86 1.86 0 0 0-.046-1.345 1.928 1.928 0 0 0-1.148-1.128c-.409-.155-.872-.169-1.39-.04.075.136.144.283.207.44.194.48.279.94.255 1.374.14.092.254.247.324.421.098.242.118.503.024.69-.094.186-.373.372-.745.522l-.656.264c-.318.245-.709.46-1.17.647l-.957.385 1.827 4.536 3.105-1.25c.175-.07.517-.249 1.025-.535.382-.215.65-.42.803-.617.248-.316.4-.67.458-1.065.057-.394.005-.79-.156-1.19-.197-.491-.492-.846-.884-1.066zM4.585 9.642l-1.511.609.147.367.572-.23 3.732 9.265.367-.148L4.16 10.24l.572-.23-.147-.368" fill="#FFFFFE"/>
    <path d="M15.33 8.859c-.121.234-.687.555-1.146.74l-.584.235-.693-1.72.679-.273c.445-.18 1.058-.329 1.287-.225a.924.924 0 0 1 .49.518c.1.249.09.49-.032.725zm.562-3.054c-.595-.237-1.324-.182-2.186.166l-2.727 1.098-1.512.607.148.367.572-.23 3.732 9.265.367-.148-.736-1.827 1.869-.753-1.19-2.953 1.167-.47c.96-.387 1.587-.894 1.879-1.521.291-.627.28-1.33-.033-2.109-.305-.757-.755-1.254-1.35-1.492z" fill="#FFFFFE"/>
    <path d="M10.883 11.068l-.248.1-.234-.581.053-.022a.15.15 0 0 0 .083-.195L9.75 8.415a.15.15 0 0 0-.195-.083l-.129.052a1.748 1.748 0 0 0-2.002-.51L6.17 8.38a1.748 1.748 0 0 0-1.09 1.754l-.129.052a.15.15 0 0 0-.083.196l.787 1.954a.15.15 0 0 0 .196.083l.053-.021.234.581-.248.1a.282.282 0 0 0-.157.368l.036.088a.068.068 0 0 0 .088.037l.262-.105a.438.438 0 0 0 .167-.12l1.312 3.257-.053.022a.15.15 0 0 0-.084.195l.787 1.954a.15.15 0 0 0 .196.084l.053-.022.065.16a.569.569 0 0 0 .74.316l3.442-1.386a.569.569 0 0 0 .315-.74l-.065-.161.054-.021a.15.15 0 0 0 .083-.196l-.787-1.954a.15.15 0 0 0-.196-.084l-.053.022-1.312-3.257a.438.438 0 0 0 .204-.03l.262-.105a.068.068 0 0 0 .037-.089l-.035-.088a.282.282 0 0 0-.368-.156" fill="#FFFFFE"/>
  </g>
</svg>
