<svg width="25" height="25" xmlns="http://www.w3.org/2000/svg">
  <g fill="none" fill-rule="evenodd">
    <path fill="#4B5897" d="M24.96 6.628l-.062-.87-.232.688-1.402 1.234-1.61.221-.438-.41 1.347-1.915 1.788-.553-1.9.119-2.259 1.598-2.089-.154-2.987-1.563-1.709.37L7.9 9.943l-2.58.893-1.113 1.133h-1.92l-1.01 1.833-1.27.291 1.27.292 1.16-1.61 1.77.365v1.729l-.837 2.304-.55 2.375-.569.913 1.432-.297-.17-.975 1.275-2.553 2.24-.849.929-1.503 1.518-1.14 3.074.55 2.918-1.379-.423 2.06-1.362.12-.372 1.79 1.193-.822 1.886-.852 1.513-2.296.072-1.143.802.814 2.37 1.477 1.41-.622-.162-3.134-.33-1.133-.813.25 2.469-.758 1.24-1.438"/>
    <path fill="#313A62" d="M1.277 13.802v.583l-1.27-.292 1.27-.291"/>
    <path fill="#4B5897" d="M2.287 11.969l.15.805-1.16 1.611v-.583l1.01-1.833"/>
    <path fill="#3F4B80" d="M4.207 13.14l-1.92-1.171.15.805 1.77.366"/>
    <path fill="#313A62" d="M4.207 11.969v1.171l-1.92-1.171h1.92"/>
    <path fill="#3F4B80" d="M4.207 14.869v-2.9l1.697 2.546-1.697.354"/>
    <path fill="#313A62" d="M3.37 17.173l2.534-2.658-1.697.354-.837 2.304"/>
    <path fill="#1F243E" d="M2.82 19.548l.693-.359-.143-2.016-.55 2.375"/>
    <path fill="#313A62" d="M2.251 20.461l1.262-1.272-.692.36-.57.912"/>
    <path fill="#3F4B80" d="M3.683 20.164l-.17-.975-1.262 1.272 1.432-.297M4.788 16.636l-1.275 2.553-.143-2.016 1.418-.537"/>
    <path fill="#4B5897" d="M7.028 15.787l-1.124-1.272-2.534 2.658 3.658-1.386"/>
    <path fill="#313A62" d="M7.957 14.284l-.93 1.503-1.123-1.272 2.053-.231"/>
    <path fill="#3F4B80" d="M5.32 10.836l.584 3.679-1.697-2.546 1.112-1.133"/>
    <path fill="#4B5897" d="M7.9 9.943l-1.996 4.572-.585-3.679L7.9 9.943"/>
    <path fill="#3F4B80" d="M7.957 14.284l-2.053.23L7.9 9.945l.057 4.34"/>
    <path fill="#313A62" d="M9.475 13.145l-1.518 1.139-.057-4.34 1.575 3.2"/>
    <path fill="#3F4B80" d="M12.549 13.694l-3.074-.55 3.074-.469v1.019"/>
    <path fill="#4B5897" d="M7.9 9.943l4.649 2.732-3.074.47L7.9 9.943"/>
    <path fill="#3F4B80" d="M13.01 9.225l-.472 3.466L7.89 9.959l5.12-.734"/>
    <path fill="#4B5897" d="M13.407 5.393l-.386 3.816-5.12.734 5.506-4.55"/>
    <path fill="#313A62" d="M15.467 12.315l-2.918 1.379-.01-1.003 2.928-.376"/>
    <path fill="#3F4B80" d="M17.974 11.172l-2.507 1.143-2.929.376 5.436-1.519"/>
    <path fill="#5161A4" d="M17.902 12.315l.072-1.143-2.507 1.143h2.435"/>
    <path fill="#4B5897" d="M16.389 14.61l-.922-2.295h2.435l-1.513 2.296"/>
    <path fill="#3F4B80" d="M15.044 14.375l1.345.236-.922-2.296-.423 2.06"/>
    <path fill="#4B5897" d="M14.503 15.463l.54-1.088 1.346.236-1.886.852"/>
    <path fill="#313A62" d="M13.31 16.284l1.734-1.91-.54 1.09-1.194.82"/>
    <path fill="#3F4B80" d="M13.682 14.495l-.372 1.79 1.734-1.91-1.362.12"/>
    <path fill="#4B5897" d="M17.974 11.172L13.021 9.21l-.483 3.482 5.436-1.519"/>
    <path fill="#5161A4" d="M13.407 5.393l-.386 3.816 4.953 1.963-4.567-5.78"/>
    <path fill="#4B5897" d="M15.116 5.023l-1.709.37 4.567 5.78-2.858-6.15"/>
    <path fill="#3F4B80" d="M18.447 9.055l-.473 2.117-2.858-6.15 3.33 4.033"/>
    <path fill="#313A62" d="M18.103 6.586l.344 2.469-3.331-4.032 2.987 1.563M18.776 11.986l-.33-2.931-.472 2.117.802.814"/>
    <path fill="#4B5897" d="M21.251 8.823l-2.804.232-.344-2.469 3.148 2.237"/>
    <path fill="#3F4B80" d="M18.776 11.986l2.475-3.163-2.804.232.33 2.93"/>
    <path fill="#495692" d="M21.146 13.463l.105-4.64-2.475 3.163 2.37 1.477"/>
    <path fill="#3F4B80" d="M21.216 7.49l-.986.607-2.127-1.51 3.113.904"/>
    <path fill="#313A62" d="M20.192 6.74l1.024.75-3.113-.904 2.09.154"/>
    <path fill="#3F4B80" d="M22.563 5.576l-1.347 1.915-1.024-.75 2.37-1.165"/>
    <path fill="#495692" d="M22.45 5.142l.113.434-2.37 1.164 2.257-1.598"/>
    <path fill="#5D6CAC" d="M24.35 5.023l-1.787.553-.113-.434 1.9-.12"/>
    <path fill="#313A62" d="M21.658 7.905l-.442-.414-.986.606 1.428-.192"/>
    <path fill="#4F60A3" d="M23.72 8.066l-2.469.757-1.021-.726 3.49-.031"/>
    <path fill="#495692" d="M23.264 7.68l.456.462-3.49.038 3.034-.5"/>
    <path fill="#3F4B80" d="M24.666 6.446l-.946 1.62-.456-.386 1.402-1.234"/>
    <path fill="#4F60A3" d="M24.96 6.628l-.294-.182-.946 1.62 1.24-1.438"/>
    <path fill="#313A62" d="M25.06 5.759l-.394.687.5.182-.107-.87M22.394 9.707l-1.143-.884.813-.25.33 1.134"/>
    <path fill="#3F4B80" d="M21.146 13.463l1.248-3.756-1.143-.884-.105 4.64"/>
    <path fill="#313A62" d="M22.556 12.841l-1.41.622 1.248-3.756.162 3.134"/>
  </g>
</svg>
