<svg width="25" height="25" xmlns="http://www.w3.org/2000/svg">
  <path d="M24.986 13.66a.016.016 0 0 0 0-.015l-2.902-2.903v-8.21h-.013V2.52H15.84v.006h-.006v1.996L11.313 0 .013 11.298l-.005.007a.011.011 0 0 0-.008.01v13.65h22.022v-8.31L25 13.677l-.014-.016zM4.534 23.436H1.53v-11.49l9.78-9.78 4.256 4.256c.142.62.231 1.25.266 1.884v.447h.013c.018 5.417-5.105 9.193-9.663 8.673-.554-.063-1.03-.18-1.65-.347v6.357zm15.96-7.42a.015.015 0 0 0-.004.012v7.408H6.064V19.12c.18.01.365.015.559.015 5.935 0 10.746-4.495 10.746-10.04 0-.114 0-.228-.007-.342V4.05h3.186v7.315a.016.016 0 0 0 0 .02l2.288 2.288-2.342 2.344z" fill="#2CACE2" fill-rule="nonzero"/>
</svg>
