<svg width="25" height="25" xmlns="http://www.w3.org/2000/svg">
  <defs>
    <linearGradient x1="50%" y1="0%" x2="50%" y2="100%" id="a">
      <stop stop-color="#EBA019" offset="0%"/>
      <stop stop-color="#EB7912" offset="100%"/>
    </linearGradient>
  </defs>
  <g fill="none" fill-rule="evenodd">
    <path d="M25 12.5C25 19.404 19.404 25 12.5 25S0 19.404 0 12.5 5.596 0 12.5 0 25 5.596 25 12.5" fill="url(#a)"/>
    <path d="M12.5 23.181c-5.89 0-10.681-4.791-10.681-10.681C1.819 6.61 6.61 1.819 12.5 1.819c5.89 0 10.681 4.791 10.681 10.681 0 5.89-4.791 10.681-10.681 10.681zm0-22.053C6.23 1.128 1.128 6.229 1.128 12.5c0 6.27 5.101 11.372 11.372 11.372 6.27 0 11.372-5.101 11.372-11.372 0-6.27-5.101-11.372-11.372-11.372z" fill="#FFFFFE"/>
    <path d="M12.5 23.872c-6.27 0-11.372-5.101-11.372-11.372 0-6.27 5.101-11.372 11.372-11.372 6.27 0 11.372 5.101 11.372 11.372 0 6.27-5.101 11.372-11.372 11.372zM12.5 0C5.596 0 0 5.596 0 12.5S5.596 25 12.5 25 25 19.404 25 12.5 19.404 0 12.5 0z" fill="#D6552B"/>
    <path d="M7.728 17.564l-.721.62h5.825l-.629-.449a1.96 1.96 0 0 1-.82-1.595V3.748H9.263l-.155.634a2.652 2.652 0 0 1-.873 1.4L6.84 6.954H8.4v9.146c0 .563-.245 1.098-.672 1.465M15.48 7.734c.51.024.856.17.856.51 0 .367-.41.539-.874.55-.118.003-.222-.001-.311-.005 0-.38-.02-.719-.06-1.02.284-.023.134-.047.388-.035zm-.265 2.668c-.039-.489-.059-.883-.059-1.181.072.003.192.004.36.004.924 0 1.035-.09 1.67-.271.636-.181.954-.462.954-.841 0-.278-.235-.485-.704-.622-.47-.137-1.044-.205-1.724-.205-.276 0-.602.003-.978.007-.375.005-.63.008-.762.008h-.935c.047.414.07.907.07 1.479 0 .622-.023 1.163-.07 1.622h2.178zM17.762 11.672l.032-.51h-4.702l-.037.512c.753-.025.926-.038 1.357-.038.013.306.019.64.019 1 0 .575-.02 1.115-.06 1.618h2.12a24.562 24.562 0 0 1-.05-1.617c0-.368.003-.701.01-1 .54 0 .7.011 1.31.035M17.222 17.717c-.754 0-1.173-.11-1.59-.332-.419-.221-.627-.483-.627-.784 0-.295.176-.546.528-.752.352-.206.721-.309 1.443-.309.384 0 .284.03.704.091l.187-.555a10.723 10.723 0 0 0-1.232-.068c-1.18 0-2.11.167-2.787.5-.678.334-1.016.726-1.016 1.177 0 .434.319.804.957 1.107.638.304 1.567.456 2.787.456.49 0 .989-.027 1.493-.081l.091-.554c-.519.07-.497.104-.938.104M12.908 19.93l-.432-1.328-.432 1.329h-1.397l1.13.82-.431 1.33 1.13-.822 1.13.822-.431-1.33 1.13-.82h-1.397" fill="#FFFFFE"/>
  </g>
</svg>
