<svg width="25" height="25" xmlns="http://www.w3.org/2000/svg">
  <g fill="#2EA6DF" fill-rule="nonzero">
    <path d="M7.944 22.208h6.273l5.07-3.68 1.94-5.958-1.94-5.958-5.07-3.68H7.944L2.874 6.59l-1.94 5.958 1.94 5.958 5.07 3.703zm6.378.339H7.827l-.047-.035-5.21-3.785-1.998-6.169 2.01-6.18L7.827 2.57h6.495l5.257 3.82 2.01 6.18-2.01 6.18-5.257 3.797z"/>
    <path d="M8.551 2.734c0 .42-.338.747-.747.747a.745.745 0 0 1-.748-.747c0-.41.339-.748.748-.748s.747.339.747.748m6.449 0c0 .42-.339.747-.748.747a.745.745 0 0 1-.747-.747c0-.41.338-.748.747-.748.41 0 .748.339.748.748M8.598 22.266c0 .42-.339.748-.748.748a.745.745 0 0 1-.747-.748c0-.409.339-.747.747-.747a.738.738 0 0 1 .748.747m-5.163-3.633c0 .42-.34.748-.748.748a.753.753 0 0 1-.748-.748c0-.42.339-.747.748-.747s.748.327.748.747m-1.928-6.075c0 .421-.339.748-.748.748a.745.745 0 0 1-.747-.748c0-.42.338-.747.747-.747a.738.738 0 0 1 .748.747m1.928-6.051c0 .42-.34.748-.748.748a.753.753 0 0 1-.748-.748c0-.42.339-.748.748-.748s.748.327.748.748m17.208 6.04c0 .42.338.747.747.747a.753.753 0 0 0 .748-.747.753.753 0 0 0-.748-.748.745.745 0 0 0-.747.748m-1.928-6.052c0 .42.339.748.748.748.42 0 .747-.339.747-.748a.745.745 0 0 0-.747-.747.738.738 0 0 0-.748.747m-3.657 15.771c0 .42-.338.748-.747.748a.753.753 0 0 1-.748-.748c0-.409.339-.747.748-.747s.747.327.747.747"/>
    <path d="M7.103 16.986l.058.023 4.194 1.414 4.743-1.425 3.201 1.366V6.752L16.1 8.12l-4.744-1.425-4.252 1.413-.059-.011L2.862 6.74v11.612l4.24-1.367zm12.535 1.87l-3.563-1.52-4.72 1.426-4.24-1.426-4.58 1.484V6.273l4.58 1.484 4.24-1.425.047.011 4.673 1.402 3.563-1.518v12.628z"/>
    <path d="M.748 12.871v-.483l20.654-.017v.468z"/>
    <path d="M11.542 6.53l2.465 5.55 1.88-4.16-1.693-4.836-2.652 3.446zM7.278 7.91l1.659 4.182 2.208-5.549L7.92 3.12l-.643 4.79zm-4.357 4.65l4.112 4.298 1.705-4.299-1.705-4.31-4.112 4.31zm6.203 0l2.231 5.584L13.82 12.5l-2.465-5.55-2.231 5.608zm-1.846 4.626l.69 4.708 3.177-3.342-2.208-5.525-1.659 4.159zm4.264 1.378l2.699 3.353 1.647-4.743-1.881-4.24-2.465 5.63zM7.734 22.64l-.795-5.397-4.486-4.685L6.94 7.85l.736-5.502 3.657 3.89 2.979-3.867 1.95 5.573-2.067 4.556 2.068 4.65-1.893 5.455-3.037-3.762-3.598 3.797z"/>
    <path d="M16.215 17.266l-.28-.21 3.317-4.498-3.317-4.52.28-.21 3.458 4.73-3.458 4.708zM6.297 7.932c0 .42.339.748.747.748.421 0 .748-.339.748-.748a.753.753 0 0 0-.748-.747.745.745 0 0 0-.747.747zm4.299-1.425c0 .42.339.748.747.748.421 0 .748-.34.748-.748a.745.745 0 0 0-.748-.748.738.738 0 0 0-.747.748z"/>
    <path d="M16.612 7.407a.754.754 0 0 0-1.063 0 .754.754 0 0 0 0 1.063.754.754 0 0 0 1.063 0 .754.754 0 0 0 0-1.063M3.435 12.5a.745.745 0 0 0-.748-.748.753.753 0 0 0-.748.748c0 .42.339.748.748.748a.745.745 0 0 0 .748-.748m6.11 0a.745.745 0 0 0-.748-.748.745.745 0 0 0-.748.748c0 .42.339.748.748.748a.745.745 0 0 0 .747-.748m5.106 0a.745.745 0 0 0-.748-.748.745.745 0 0 0-.748.748c0 .42.339.748.748.748a.745.745 0 0 0 .748-.748m5.56.058a.745.745 0 0 0-.747-.747.753.753 0 0 0-.748.747c0 .421.339.748.748.748a.753.753 0 0 0 .747-.748m-3.388 4.603a.745.745 0 0 0-.747-.747.745.745 0 0 0-.748.747c0 .41.339.748.748.748.42 0 .747-.327.747-.748m8.166 3.785c0-.584-.479-1.063-1.063-1.063s-1.063.48-1.063 1.063c0 .584.48 1.063 1.063 1.063.584 0 1.063-.479 1.063-1.063M11.051 17.91a.746.746 0 0 0-.397.981c.164.386.608.56.982.397a.746.746 0 0 0 .397-.98.762.762 0 0 0-.982-.398m-4.299-1.437a.746.746 0 0 0-.397.981c.164.386.608.561.981.397a.746.746 0 0 0 .398-.98.742.742 0 0 0-.982-.398"/>
    <path d="M23.843 21.098l-4.497-2.325.163-.303 4.498 2.324z"/>
  </g>
</svg>
