<svg width="25" height="25" xmlns="http://www.w3.org/2000/svg">
  <path d="M5.318 18.731a9.05 9.05 0 0 1-1.783-3.488c2.663-2.976 6.436-4.84 10.372-5.117a16.532 16.532 0 0 1 1.27-.04l-2.14 2.01a.732.732 0 0 0-.195.825c.127.32.449.545.783.545a.78.78 0 0 0 .54-.223l3.446-3.239a.768.768 0 0 0 .238-.556.813.813 0 0 0-.233-.587l-3.99-3.964a.764.764 0 0 0-.545-.235c-.324 0-.64.22-.77.534a.75.75 0 0 0 .178.84l2.46 2.443c-4.373.03-8.608 1.748-11.713 4.738-.07-1.817.388-3.628 1.307-5.149C6.208 5.312 9.255 3.6 12.496 3.6a8.94 8.94 0 0 1 1.792.181c3.45.708 6.24 3.367 7.136 6.792-2.66 2.95-6.418 4.796-10.33 5.071a16.569 16.569 0 0 1-1.27.04l2.138-2.01a.732.732 0 0 0 .196-.824.867.867 0 0 0-.783-.545.78.78 0 0 0-.54.223l-3.446 3.239a.768.768 0 0 0-.238.555.813.813 0 0 0 .233.587l3.99 3.965a.764.764 0 0 0 .545.235c.324 0 .64-.22.77-.534a.75.75 0 0 0-.178-.84l-2.46-2.443c4.343-.03 8.557-1.728 11.656-4.683l.004.244c-.021 3.885-2.451 7.375-6.048 8.681a9.213 9.213 0 0 1-3.155.554 9.332 9.332 0 0 1-7.19-3.356zM24.892 7.67a.874.874 0 0 0-.736-.425.735.735 0 0 0-.655.403c-.264.483-.561.96-.884 1.423a11.113 11.113 0 0 0-2.352-3.734 10.946 10.946 0 0 0-4.091-2.69A10.51 10.51 0 0 0 12.52 2c-1.588 0-3.192.353-4.64 1.022a10.711 10.711 0 0 0-3.793 2.92 10.99 10.99 0 0 0-2.13 4.258c-.376 1.5-.433 3.09-.166 4.601a17.477 17.477 0 0 0-1.687 2.52.77.77 0 0 0 .004.78.874.874 0 0 0 .736.425.735.735 0 0 0 .655-.403c.252-.462.533-.917.837-1.357.225.59.5 1.154.821 1.685 1.955 3.236 5.543 5.247 9.364 5.247.709 0 1.42-.07 2.113-.208 4.373-.871 7.889-4.55 8.55-8.946.087-.577.132-1.147.135-1.692a10.867 10.867 0 0 0-.164-1.817 17.509 17.509 0 0 0 1.741-2.587.77.77 0 0 0-.004-.78z" fill="#4155FF" fill-rule="evenodd"/>
</svg>
