<svg width="25" height="25" xmlns="http://www.w3.org/2000/svg">
  <g fill-rule="nonzero" fill="none">
    <path d="M10.384 21.905l-1.588-3.28-2.83 4.457a11.053 11.053 0 0 0 1.746.9c1.084.45 2.222.74 3.386.872.238.027.49.053.727.067l-1.441-3.016z" fill="#7CC245"/>
    <path d="M24.484 9.18c-.08-.278-.172-.556-.264-.833l-8.744 7.724-1.204 1.072.106.979.662 6.56c.436-.092.86-.198 1.283-.33 5-1.614 8.624-6.296 8.624-11.839a13.083 13.083 0 0 0-.463-3.333z" fill="#FCCB32"/>
    <path fill="#EE3F26" d="M7.288 19.127l1.932 4.008 6.693-5.913-1.217-12.024-7.408 13.929z"/>
    <path fill="#CF3627" d="M8.135 18.69l6.389-11.997.04.45.687-1.283L3.228 9.63l4.761 9.894.291-.543-.145-.29z"/>
    <path d="M9.802 22.143l1.31 2.711c.462.053.925.08 1.388.08 1.323 0 2.606-.212 3.81-.595l-.741-7.289-5.767 5.093z" fill="#F05048"/>
    <path d="M15.569 17.05l.74 7.289c5-1.614 8.625-6.297 8.625-11.839 0-1.15-.159-2.262-.45-3.32l-8.915 7.87z" fill="#FCCB32"/>
    <path d="M13.862.146c-.45-.053-.912-.08-1.362-.08-4.431 0-8.32 2.328-10.53 5.82A12.636 12.636 0 0 0 .649 8.73L3.955 10l10.569-3.32L15.66.463a13.84 13.84 0 0 0-1.799-.317z" fill="#2591D4"/>
    <path d="M21.905 4.378A12.304 12.304 0 0 0 17.5 1.124 11.48 11.48 0 0 0 15.675.49l-1.138 6.217 1.045 10.357 8.915-7.87a12.527 12.527 0 0 0-2.592-4.815z" fill="#F47F22"/>
    <path d="M8.135 18.69L3.955 10 .648 8.73a12.535 12.535 0 0 0-.582 3.77c0 4.418 2.302 8.294 5.78 10.503.292.185.583.357.887.516l2.116-3.347-.714-1.482z" fill="#4CAA4C"/>
    <path d="M9.802 22.143l-.953-1.971-2.116 3.347c.317.171.661.33.992.462 1.085.45 2.222.741 3.386.873l-1.31-2.711z" fill="#7CC245"/>
    <path d="M21.905 4.378A12.304 12.304 0 0 0 17.5 1.124L14.524 6.68l7.38-2.302zm-7.381 2.315l1.045 10.357 8.915-7.87a12.366 12.366 0 0 0-2.58-4.802l-7.38 2.315z" fill="#F47F22"/>
    <path fill="#EE3F26" d="M8.135 18.69l1.667 3.453 5.767-5.093-1.045-10.357-6.39 11.997z"/>
    <path d="M14.524 6.693L13.862.146c-.45-.053-.912-.08-1.362-.08-4.431 0-8.32 2.328-10.53 5.82L3.956 10l10.569-3.307z" fill="#1E85CA"/>
    <path fill="#CF3627" d="M14.524 6.693L3.955 10l4.18 8.69z"/>
    <path d="M14.524 6.68l2.963-5.569a12.332 12.332 0 0 0-3.638-.965l.675 6.534z" fill="#35A9E1"/>
    <path d="M9.802 22.143l1.31 2.711c.462.053.925.08 1.388.08 1.323 0 2.606-.212 3.81-.595l-.741-7.289-5.767 5.093z" fill="#F05048"/>
    <path d="M15.569 17.05l.74 7.289c5-1.614 8.625-6.297 8.625-11.839 0-1.15-.159-2.262-.45-3.32l-8.915 7.87z" fill="#FCCB32"/>
    <path d="M7.725 23.981c1.085.45 2.222.741 3.386.873l-1.31-2.711-2.076 1.838z" fill="#7CC245"/>
    <path d="M1.97 5.886a12.464 12.464 0 0 0-1.838 5.318L3.955 10 1.971 5.886z" fill="#0161AD"/>
    <path d="M3.955 10L.132 11.204c-.04.423-.066.86-.066 1.296 0 4.418 2.302 8.294 5.78 10.503l2.289-4.313L3.955 10z" fill="#4CAA4C"/>
    <path d="M8.135 18.69l-2.288 4.313c.595.383 1.216.7 1.878.978l2.077-1.838-1.667-3.453z" fill="#51B34B"/>
    <path d="M14.788 2.804l-.29.873C17.09 5.08 19.602 7.58 20.965 9.75l.886-.265c-1.468-2.38-4.22-5.145-7.064-6.68z" fill="#444344"/>
    <path d="M19.1.78a4.47 4.47 0 0 0-3.888 2.262 3.585 3.585 0 0 0-.265.556c-.013.053-.04.092-.053.145-.013.04-.04.093-.053.133 2.328 1.362 4.55 3.545 5.887 5.542.026-.013.04-.013.066-.026.145-.067.29-.133.436-.212.106-.053.212-.12.318-.185a4.454 4.454 0 0 0 2.037-3.744c0-2.46-2.01-4.47-4.484-4.47z" fill="#EE3F26"/>
    <path d="M14.894 3.743c-.013.04-.04.093-.053.133 2.328 1.362 4.55 3.545 5.887 5.542.026-.013.04-.013.066-.026.145-.067.29-.133.436-.212-1.415-1.971-3.836-4.154-6.336-5.437z" fill="#C03225"/>
  </g>
</svg>
