<svg width="25" height="25" xmlns="http://www.w3.org/2000/svg">
  <g fill-rule="nonzero" fill="none">
    <circle fill="#5F2652" cx="12.5" cy="12.5" r="12.5"/>
    <path d="M19.608 15.738l-6.54-11.73a.648.648 0 0 0-1.14 0L5.39 15.738a.649.649 0 0 0 .232.875l6.548 3.915c.21.12.47.12.68 0l6.537-3.908a.663.663 0 0 0 .22-.883m-4.942-4.727l-.16-.135-.01-.01a1.594 1.594 0 0 0-.16-.115l-.01-.01c-.052-.035-.107-.072-.17-.107-.01 0-.01-.01-.018-.01-.052-.035-.114-.063-.17-.09-.01 0-.01-.01-.017-.01-.052-.028-.115-.053-.177-.08-.01 0-.01-.01-.018-.01-.053-.018-.107-.046-.16-.063a2.734 2.734 0 0 0-.445-.125 2.23 2.23 0 0 1-.455.588 2.525 2.525 0 0 1 1.195.402c.007 0 .013.004.018.01.035.018.062.045.097.073.017.009.032.02.045.034a.572.572 0 0 1 .09.073c.018.018.035.027.053.045.027.027.052.045.08.072l.052.053.073.072.052.053c.019.026.04.05.063.072.017.02.034.046.052.063l.053.08c.017.027.034.045.044.072l.053.08c.018.028.027.053.045.073.018.027.027.053.045.08.018.027.027.053.045.08.01.027.027.053.035.08.018.035.027.072.045.098.075.182.126.374.152.57l.08.312c.035.135.358 1.275 1.105 1.66.858.445 1.99 1 2.436 1.213l-5.875 3.514V17.36c0-.383.757-.83 1.104-.98l.018-.01c.073-.035.143-.073.215-.115l.028-.017c.152-.09.295-.195.427-.313.01-.01.028-.018.035-.035.018-.01.027-.027.045-.035.045-.035.08-.08.125-.115l.018-.018a.963.963 0 0 0 .124-.142c.01-.018.028-.027.035-.045.035-.035.063-.08.098-.125.01-.01.018-.027.027-.035l.108-.16c0-.01.01-.01.01-.018.045-.072.09-.152.135-.222a3.46 3.46 0 0 1-.42-.66c-.046.132-.102.26-.17.383-.027.052-.063.107-.09.16-.01.01-.01.017-.018.017a1.353 1.353 0 0 1-.09.125c-.01.01-.017.027-.027.035a.624.624 0 0 1-.098.115c-.01.01-.01.018-.017.018-.215.24-.473.445-.768.587l-.052.027c-.153.063-1.463.66-1.463 1.56v2.408L6.28 16.245c.382-.233 1.49-.893 2.4-1.178.357-.114 1.115.365 1.543.713l.027.027c.055.056.114.107.178.153l.017.017c.135.108.277.215.438.296l.107.052a3.376 3.376 0 0 0 .365.17c.01 0 .018.01.035.01.152.053.303.098.455.135.115-.223.285-.42.465-.588a2.555 2.555 0 0 1-.732-.16c-.01-.01-.028-.01-.035-.017a.371.371 0 0 1-.08-.035c-.01-.01-.028-.01-.035-.018-.028-.01-.053-.027-.073-.034a2.55 2.55 0 0 1-.49-.313l-.232-.215a4.402 4.402 0 0 0-.695-.5c-.58-.33-1.07-.438-1.446-.32-.775.25-1.66.723-2.195 1.035l5.878-10.56v4.63c0 .16-.24.588-1.053.955l-.052.027c-.08.036-.152.08-.232.126l-.018.01c-.154.092-.3.197-.438.312-.086.07-.166.148-.24.232l-.01.01c-.079.077-.15.16-.214.25l-.01.01c-.035.046-.063.09-.098.136 0 .01-.01.01-.01.017-.027.045-.053.08-.08.125 0 .01-.01.01-.01.018l-.08.135c-.01.01-.01.017-.018.035-.027.045-.044.09-.062.125a.025.025 0 0 1-.01.017c-.017.045-.035.08-.052.125a.334.334 0 0 0-.018.045l-.053.135a.334.334 0 0 0-.017.045.508.508 0 0 1-.035.098c-.01.017-.01.035-.018.052-.01.045-.027.09-.034.125-.01.017-.01.045-.018.063-.01.027-.01.062-.018.09-.01.027-.01.052-.017.08-.01.034-.01.072-.018.107 0 .027-.01.045-.01.072 0 .036-.01.063-.01.098a.324.324 0 0 1-.01.098v.135c0 .161.011.322.036.482.232.053.472.152.732.277a2.678 2.678 0 0 1-.115-.722v-.045c-.002-.06.002-.119.01-.178v-.044c0-.053.01-.098.018-.153v-.018c.01-.052.017-.107.027-.17 0-.017.01-.027.01-.044.01-.045.027-.09.035-.135 0-.01.01-.018.01-.028l.053-.16c.01-.01.01-.027.017-.035.018-.045.035-.09.053-.125.01-.01.01-.018.017-.035.027-.053.045-.098.08-.143a.168.168 0 0 0 .018-.027l.072-.125a1.52 1.52 0 0 1 .125-.173l.098-.124a.168.168 0 0 0 .017-.028c.16-.178.344-.334.545-.465l.277-.135c.153-.063 1.456-.678 1.456-1.58V4.908l5.932 10.65c-.527-.258-1.462-.723-2.185-1.098-.42-.215-.695-.973-.775-1.25l-.08-.32c0-.17-.045-.34-.098-.508a3.287 3.287 0 0 0-.932-1.372" fill="#FFF"/>
  </g>
</svg>
