<svg width="25" height="25" xmlns="http://www.w3.org/2000/svg">
  <g fill="none" fill-rule="evenodd">
    <path d="M8.862 11.335c-.157-2.516-3.434-1.997-3.434-1.997l-.578 1.235h1.712s.952.2.884.963c-.088.986-1.179.895-1.179.895H4.114l-.522 1.258h2.471l.77 2.018h1.7l-1.02-2.244s1.46-.36 1.35-2.128" fill="#000"/>
    <path d="M20.411 15.707h-1.7l-.77-2.018H15.47l.521-1.258h2.153s1.091.091 1.18-.895c.067-.762-.885-.963-.885-.963h-1.711l.578-1.235s3.276-.52 3.434 1.997c.11 1.768-1.349 2.128-1.349 2.128l1.02 2.244zm-8.478-.022l-2.618-6.37h1.496l1.836 4.477 1.859-4.477h1.507l-2.606 6.37h-1.474zm-3.4.022h-1.7l-.77-2.018h-2.47l.52-1.258h2.154s1.09.091 1.179-.895c.068-.762-.884-.963-.884-.963H4.85l.578-1.235s3.277-.52 3.434 1.997c.11 1.768-1.348 2.128-1.348 2.128l1.02 2.244zM12.5 0C5.596 0 0 5.596 0 12.5S5.596 25 12.5 25 25 19.404 25 12.5 19.404 0 12.5 0z" fill="#EFC40F"/>
    <path fill="#000" d="M14.506 9.315l-1.859 4.477-1.836-4.477H9.315l2.618 6.37h1.474l2.606-6.37h-1.507M20.74 11.335c-.158-2.516-3.434-1.997-3.434-1.997l-.578 1.235h1.711s.952.2.884.963c-.088.986-1.179.895-1.179.895h-2.153l-.521 1.258h2.47l.771 2.018h1.7l-1.02-2.244s1.46-.36 1.349-2.128"/>
  </g>
</svg>
