<svg width="25" height="25" xmlns="http://www.w3.org/2000/svg">
  <defs>
    <linearGradient x1="35.717%" y1="14.819%" x2="106.823%" y2="90.041%" id="a">
      <stop stop-color="#137EAF" offset="0%"/>
      <stop stop-color="#003C5A" offset="100%"/>
    </linearGradient>
    <linearGradient x1="15.108%" y1="64.034%" x2="82.36%" y2="19.46%" id="b">
      <stop stop-color="#137EAF" offset="0%"/>
      <stop stop-color="#003C5A" offset="100%"/>
    </linearGradient>
  </defs>
  <g fill-rule="nonzero" fill="none">
    <path d="M12.057 7.362c6.788 0 12.294 5.283 12.294 11.804 0 1.337-.236 2.663-.696 3.918a11.532 11.532 0 0 0 1.314-5.361c0-6.52-5.402-11.804-12.062-11.804-4.417 0-8.278 2.324-10.381 5.788 2.258-2.65 5.685-4.345 9.53-4.345" fill="#000"/>
    <path d="M7.881 1.326A9.496 9.496 0 0 0 0 5.516a9.987 9.987 0 0 1 4.943-1.298c5.593 0 10.13 4.582 10.13 10.231a10.302 10.302 0 0 1-.485 3.135 9.48 9.48 0 0 0 2.804-6.743c0-5.257-4.258-9.515-9.51-9.515z" fill="url(#a)" transform="translate(0 1.5)"/>
    <path d="M20.072 3.16A10.994 10.994 0 0 0 10.15.286a11.616 11.616 0 0 1 5.155 2.902c4.644 4.51 4.717 11.969.165 16.66a11.969 11.969 0 0 1-2.928 2.21 10.971 10.971 0 0 0 7.763-3.34c4.232-4.355 4.129-11.324-.232-15.556z" fill="url(#b)" transform="translate(0 1.5)"/>
  </g>
</svg>
