<svg width="25" height="25" xmlns="http://www.w3.org/2000/svg">
  <g fill="none" fill-rule="evenodd">
    <path d="M16.667 17.133h-.398v2.858h-1.815v-2.858h-2.597v-1.106h2.597v-1.9s-1.734 1.227-4.23.872c-2.726-.387-2.942-3.084-2.942-3.084V6.412h1.694l.081 5.432s.061 1.358 2.547 1.796c1.486.262 2.85-.788 2.85-.788v-6.44h1.815v9.615h.398v1.106zM12.5 0C5.596 0 0 5.596 0 12.5S5.596 25 12.5 25 25 19.404 25 12.5 19.404 0 12.5 0z" fill="#057BC1"/>
    <path d="M16.27 6.412h-1.816v6.44s-1.364 1.05-2.85.788c-2.486-.438-2.547-1.796-2.547-1.796l-.081-5.432H7.282v5.503s.216 2.697 2.942 3.084c2.496.355 4.23-.872 4.23-.872v1.9h-2.597v1.106h2.597v2.858h1.815v-2.858h.398v-1.106h-.398V6.412" fill="#FFF"/>
  </g>
</svg>
