<svg width="25" height="25" xmlns="http://www.w3.org/2000/svg">
  <g fill-rule="nonzero" fill="none">
    <circle fill="#FDA616" cx="12.5" cy="12.5" r="12.5"/>
    <path d="M7.5 19.869l-1.316 1.315s5.726 6.12 11.021-.887c0 0-6.02 2.992-9.705-.428zm9.342-16.843l.79.79-1.645 1.645s-3.356-3.618-7.04 1.118c0 0-.131-4.342 5.266-4.213l2.629.66z" fill="#686868"/>
    <path d="M8.158 18.684c.131.395 1.77 2.023 3.472 2.023 2.527 0 4.002-1.463 4.002-3.58 0-1.96-1.022-3.08-3.604-4.17-3.122-1.214-5.052-2.988-5.052-5.945 0-3.268 2.47-5.696 6.187-5.696 1.958 0 3.942 1.184 4.6 1.973l-1.579 1.58c-.624-.374-1.374-1.312-3.106-1.312-2.61 0-3.605 1.712-3.605 3.144 0 1.96 1.164 2.925 3.804 4.046 3.235 1.37 4.881 3.081 4.881 6.163 0 3.237-2.198 6.116-6.71 6.116-1.845 0-3.817-1.184-5-2.631l1.71-1.71z" fill="#FFF"/>
    <path d="M10.131 6.71s-.131.659.527 1.448c0 0 5.92-1.316 5.79 4.079 0 0 .92.394 1.71 1.842 0 0 1.973-8.948-8.027-7.368z" fill="#686868"/>
    <path d="M10.131 5.921s-.262.79.132 1.579c0 0 6.579-.921 6.448 4.474 0 0 .789.263 1.578 1.71 0 0 1.842-9.342-8.158-7.763z" fill="#FFF"/>
    <path d="M14.474 18.421s.526-.79.263-1.71c0 0-7.235 1.447-7.02-4.813 0 0-.751-.36-1.355-1.893-.122.366-3.153 9.81 8.112 8.416z" fill="#686868"/>
    <path d="M14.676 17.933s.458-.96.06-1.88c0 0-7.234 1.447-7.02-4.813 0 0-.75-.359-1.354-1.893.002 0-3.073 9.995 8.314 8.586z" fill="#FFF"/>
  </g>
</svg>
