<svg width="25" height="25" xmlns="http://www.w3.org/2000/svg">
  <g fill="#AA0E20" fill-rule="nonzero">
    <path d="M14.676 13.98l-2.215 4.3-2.876-5.454v-.013l-.582-1.062-.635 1.075 4.093 7.423 4.093-7.423-.647-1.075z"/>
    <path d="M12.461 6l-.505.803-2.319 3.886.583 1.114 2.241-3.562 2.19 3.562.595-1.166-1.943-3.264z"/>
    <path d="M12.461 8.111C5.583 8.111 0 13.241 0 13.254c0 .013 5.583 5.142 12.461 5.142s12.448-5.142 12.448-5.142S19.326 8.11 12.461 8.11zm0 9.133c-5.363 0-11.412-3.99-11.412-3.99S7.1 9.25 12.461 9.25c5.363 0 11.412 3.9 11.412 4.003 0 .104-6.062 3.99-11.412 3.99z"/>
  </g>
</svg>
