<svg width="25" height="25" xmlns="http://www.w3.org/2000/svg">
  <path d="M12.246 9.719c.348.135.695.067.973 0 .21.675.557 1.283.904 1.554-.208 1.689-.904 2.297-1.599 2.297-.973 0-1.46-1.96-1.46-2.297.278-.135.904-.54 1.182-1.554zm-1.113 5.946c.14.54.557 1.892 1.46 1.892.626 0 1.322-.744 1.46-1.825-.486-.27-.694-.878-.903-1.824-.278.067-.695.135-.974 0-.347.878-.625 1.419-1.043 1.757zm-5.562 2.094c.347.54 1.043 1.42 1.808 1.081.208-.067.278-.608.208-1.08-.556-.339-.904-.947-1.32-1.893-.14.068-.349.068-.557 0 .139 1.014.139 1.554-.14 1.892zm-2.92-1.824c.278 1.486.347 1.622.278 1.824.486.879.973 1.284 1.599 1.216.208 0 .07-.54-.209-1.08 0 0-.834-.676-1.32-1.893-.14-.067-.21-.067-.349-.067zm-1.878 0c.695 2.838 2.016 2.703 1.947 2.567-.278-.473-.556-.675-.834-.878-.626-.608-1.113-1.892-1.113-1.69zm8.483 1.824c.348 1.216 1.321 1.216 1.669 1.081.487-.067.695-.473.765-1.216-.626-.405-.835-1.284-.974-1.892-.208.068-.556.068-.834 0-.07.946-.14 1.69-.626 2.027zm-5.98-2.094c.278.675 1.113 1.96 1.739 1.96.278 0 .417-.474.278-1.893-.418-.27-.765-.81-.974-1.689-.139.068-.417.068-.626 0-.07.743-.139 1.284-.417 1.622zm-2.155 0c.208.54.695 1.689 1.32 1.892.279.135.279-.27-.069-1.825 0 0-.486-.405-.834-1.689H1.26c-.07.608-.14 1.486-.14 1.622zm5.562 0c.07.27.765 1.621 1.6 1.824.973.203 1.043-1.014 1.043-1.757-.487-.27-.835-.81-1.043-1.689-.209.068-.557.135-.904 0-.14.878-.348 1.351-.696 1.622zm-.625-.203c.417 0 .764-.608.903-1.757-.347-.338-.764-.946-.834-2.365-.209.068-.417.068-.556 0-.209 1.284-.417 2.027-.835 2.433 0 .405.487 1.689 1.322 1.689zm-4.312-1.69c.348 1.352.696 1.69.974 1.69.626 0 .487-1.014.556-1.757-.208-.27-.626-.946-.626-2.365h-.347c-.417 2.095-.417 2.162-.557 2.433zm-1.39-2.364c-.14-.068-.835 2.77.208 3.986.14.135.14-1.554.14-1.554-.279-.608-.14-2.365-.348-2.432zM8.7 13.773c.07.202.487 1.689 1.6 1.689.694 0 1.25-.743 1.39-1.824-.557-.541-.835-1.284-.974-2.298-.208.068-.556.068-.834 0-.417 1.352-.695 2.095-1.182 2.433zm-5.702-2.635c.07 1.216.348 2.432.904 2.432.626 0 .904-1.351 1.113-2.5-.21-.135-.487-.54-.487-1.419a.432.432 0 0 1-.556 0c-.07.135-.418 1.284-.974 1.487zm-1.738 2.5c.347 0 .695-2.5.695-2.5-.139-.203-.278-.609-.209-1.487-.07.068-.208 0-.278 0-.278.878-.695 1.487-.695 1.487-.14.743 0 2.5.487 2.5zm5.284-2.5c.07.81.487 2.432 1.321 2.432.904 0 1.322-1.216 1.53-2.432-.487-.27-.695-.744-.834-1.487-.348.068-.626.068-.904-.067-.278.675-.835 1.418-1.113 1.554zm.626-1.825c-.209-.27-.487-.743-.348-1.756h-.486c-.348.675-.765 1.486-1.321 1.891 0 .136.07 1.554.764 1.554.557 0 .974-.608 1.391-1.689zM3.763 7.624h-.278c0 .068-.904 1.622-1.321 1.892-.14.676-.14 1.486.278 1.554.417 0 .695-.338 1.251-1.69-.139-.337-.278-.81.07-1.756zm-2.017.068C.703 8.367.147 10.8.426 10.867c.069.068.903-1.08.834-1.756-.07-.473.695-1.487.486-1.42zm9.874 1.621c-.278-.27-.626-.743-.765-1.756a1.468 1.468 0 0 1-.765 0c-.208.608-.556 1.418-1.251 1.891.139.676.487 1.487 1.112 1.554 1.182 0 1.46-.945 1.67-1.689zM2.164 7.49c-.696 1.013-.696 1.892-.418 1.892.348 0 1.322-1.69 1.53-2.027-.07-.338.696-1.014.417-1.081-.486 0-1.39 1.148-1.53 1.216zm17.105 8.378c-.209.068-.417.068-.556 0-.279.879-.696 1.554-1.322 1.892-.07.473-.07 1.014.21 1.081.764.27 1.529-.54 1.807-1.08-.209-.339-.209-.88-.14-1.893zm2.781 0c-.487 1.217-1.32 1.892-1.32 1.892-.349.608-.488 1.081-.21 1.081.626 0 1.113-.338 1.6-1.216-.07-.203 0-.338.278-1.824-.14.135-.278.135-.348.067zm1.113 1.757c-.278.27-.557.405-.765.878-.07.136 1.251.27 1.947-2.567-.14-.203-.556 1.081-1.182 1.69zm-7.997-1.757a1.743 1.743 0 0 1-.834 0c-.14.608-.417 1.42-.973 1.892.139.676.278 1.081.764 1.216.348.068 1.322.068 1.67-1.08-.418-.474-.627-1.217-.627-2.028zm6.258-1.892a.666.666 0 0 1-.625 0c-.209.744-.557 1.42-.974 1.69-.139 1.419 0 1.892.278 1.892.557 0 1.46-1.284 1.739-1.96-.348-.27-.418-.81-.418-1.622zm2.504.136h-.279c-.347 1.216-.834 1.689-.834 1.689-.348 1.486-.417 1.892-.07 1.824.557-.203 1.044-1.351 1.322-1.892-.14-.203-.14-1.08-.14-1.621zm-6.189-.136c-.348.136-.695.068-.904 0-.208.811-.556 1.42-1.043 1.69 0 .675.07 1.96 1.043 1.756.765-.135 1.53-1.486 1.6-1.824-.418-.203-.557-.676-.696-1.622zm2.642-.202c-.347-.406-.556-1.216-.834-2.433a.789.789 0 0 1-.556 0c-.07 1.42-.487 2.095-.835 2.365.14 1.081.487 1.757.904 1.757.696 0 1.252-1.284 1.321-1.69zm2.434-2.433c-.139 0-.209.068-.348 0 0 1.42-.347 2.095-.625 2.365.07.676-.07 1.757.556 1.757.278 0 .626-.405.973-1.69-.139-.27-.208-.337-.556-2.432zm1.46 2.433s0 1.689.14 1.554c1.042-1.081.417-4.054.208-3.987-.14.135 0 1.892-.348 2.433zm-8.9-2.433c-.348.068-.695.068-.834 0-.14 1.014-.487 1.757-.974 2.298.209 1.013.626 1.891 1.39 1.824.974 0 1.53-1.487 1.6-1.69-.626-.337-.973-1.08-1.182-2.432zm5.771-1.689c-.208.135-.417.135-.626.068 0 .81-.278 1.283-.486 1.486.208 1.216.486 2.5 1.112 2.5.557 0 .904-1.284.904-2.432-.487-.338-.904-1.487-.904-1.622zm3.13 1.487s-.348-.609-.627-1.487a.216.216 0 0 1-.278 0c.07.743-.07 1.216-.208 1.419 0 0 .347 2.5.695 2.5.348.068.487-1.69.417-2.432zM17.46 9.65c-.278.135-.626.135-.904.068-.07.675-.348 1.216-.765 1.486.209 1.284.487 2.5 1.53 2.433.765 0 1.252-1.622 1.321-2.433-.417-.203-.904-.946-1.182-1.554zm1.738 1.284c.696 0 .765-1.351.765-1.554-.487-.338-.904-1.081-1.32-1.824-.14.067-.28.067-.488 0 .14.945-.07 1.486-.347 1.756.486 1.081.904 1.69 1.39 1.622zm2.225-1.622c.487 1.352.765 1.69 1.113 1.69.417-.068.417-.811.278-1.555-.348-.202-1.321-1.824-1.321-1.891h-.278c.417 1.013.278 1.486.208 1.756zm2.365-.202c-.07.608.695 1.824.764 1.756.209-.067-.208-2.5-1.32-3.175-.07-.068.625.946.556 1.419zm-8.831 1.824c.695-.068 1.043-.743 1.112-1.554-.556-.406-.904-1.216-1.112-1.824a1.468 1.468 0 0 1-.765 0c-.07.945-.417 1.554-.765 1.756.209.744.487 1.69 1.53 1.622zm6.466-4.662c-.278 0 .487.743.418 1.08.208.339 1.112 2.028 1.53 2.028.277 0 .277-.811-.487-1.892-.07-.068-1.113-1.216-1.46-1.216zm-15.436.202s.14-.337-.07-.405c-.347 0-1.32 1.284-1.738 1.487-.07.135-.626 1.689.07 1.824.625.067 1.32-1.081 1.738-1.892-.209-.203-.14-.608 0-1.014zm3.268-.067c0-.068 0-.406-.348-.406-.417 0-.973 1.284-1.599 1.487-.139.743 0 1.757.626 1.824.904.068 1.46-1.013 1.738-1.824-.347-.203-.417-.676-.417-1.081zm9.874 1.08c.417.744 1.043 1.96 1.738 1.893.695-.135.14-1.69.07-1.824-.418-.203-1.391-1.487-1.739-1.487-.208 0-.07.338-.07.405.14.406.14.811 0 1.014zm-3.685 0c.278.744.764 1.96 1.738 1.825.695-.067.834-.946.626-1.824-.557-.203-1.252-1.554-1.6-1.487-.347 0-.347.338-.347.406-.07.405-.14.878-.417 1.08zm-2.92-1.486c-.766 0-.488 1.217-1.322 1.555.07.608.278 1.824 1.252 1.824 1.112 0 1.32-1.487 1.32-1.824-.556-.27-.556-1.555-1.25-1.555z" fill="#000" fill-rule="nonzero"/>
</svg>
