<svg width="25" height="25" xmlns="http://www.w3.org/2000/svg">
  <path d="M12.5 0C5.596 0 0 5.596 0 12.5S5.596 25 12.5 25 25 19.403 25 12.5 19.404 0 12.5 0zm5.05 7.427a4.474 4.474 0 0 1-.133.684 2.04 2.04 0 0 1-.121.335c-.041.09-.095.175-.16.25-.06.066-.121.098-.188.098-.103 0-.232-.04-.386-.122a6.351 6.351 0 0 0-1.355-.532 3.944 3.944 0 0 0-1.026-.122c-.397 0-.733.049-1.009.147a1.98 1.98 0 0 0-.678.39 1.533 1.533 0 0 0-.517 1.145c0 .236.066.445.198.625s.309.348.53.502c.24.166.493.316.755.447.289.148.575.298.86.453.294.16.58.331.86.516.279.183.533.402.756.65.223.25.402.536.529.846.132.318.198.683.198 1.096 0 .617-.14 1.19-.419 1.717-.279.528-.674.987-1.185 1.378-.51.39-1.128.696-1.852.92a7.04 7.04 0 0 1-.627.158l-.114 1.584a.608.608 0 0 1-.641.574.609.609 0 0 1-.574-.642l.097-1.357a9.545 9.545 0 0 1-.55.018c-.146 0-.282-.01-.42-.016l-.103 1.423a.608.608 0 0 1-.641.574h-.001a.609.609 0 0 1-.573-.642l.107-1.504a7.634 7.634 0 0 1-.768-.19 5.288 5.288 0 0 1-.788-.31 2.055 2.055 0 0 1-.474-.31c-.103-.097-.155-.245-.155-.443.003-.079.01-.158.022-.236a4.817 4.817 0 0 1 .155-.713c.033-.12.078-.237.132-.349a1 1 0 0 1 .17-.256.28.28 0 0 1 .205-.098c.125 0 .274.05.447.153.172.102.387.213.644.334.257.121.562.234.915.339.354.105.776.157 1.268.158.434 0 .814-.05 1.142-.148.327-.098.601-.232.821-.403.22-.17.388-.369.502-.595.113-.227.17-.474.17-.743 0-.243-.065-.456-.198-.64a2.253 2.253 0 0 0-.524-.508 5.487 5.487 0 0 0-.738-.437 24.6 24.6 0 0 1-.844-.443c-.288-.159-.57-.33-.843-.512a3.754 3.754 0 0 1-.739-.644 2.982 2.982 0 0 1-.524-.851 2.93 2.93 0 0 1-.198-1.12c0-.591.132-1.136.397-1.634a3.883 3.883 0 0 1 1.102-1.284c.37-.282.8-.513 1.285-.697l.135-1.884a.609.609 0 0 1 1.216.069l-.107 1.484c.324-.053.65-.086.978-.098l.104-1.455a.609.609 0 0 1 1.216.068l-.102 1.432c.056.006.115.01.17.018.306.044.608.106.905.187.272.076.503.16.695.252.19.091.323.168.397.231a.613.613 0 0 1 .16.196c.033.068.05.156.05.261 0 .053-.006.129-.017.227h-.001z" fill="#01AEF0" fill-rule="nonzero"/>
</svg>
