<svg width="25" height="25" xmlns="http://www.w3.org/2000/svg">
  <g fill-rule="nonzero" fill="none">
    <path d="M12.016 0c-.078.64-.117 1.182-.194 1.705-.252 1.803-.078 3.528.736 5.194 1.105 2.229 2.151 4.477 3.198 6.725.64 1.376 1.22 2.79 1.53 4.283.136.717.078 1.376-.27 2.015-1.047 1.822-2.404 3.353-4.032 4.671-.155.116-.368.155-.542.233 0-.194-.02-.407.02-.582.212-.853.484-1.705.678-2.577a5.098 5.098 0 0 0-.33-3.256c-.853-1.88-1.744-3.76-2.616-5.64-.834-1.783-1.686-3.546-2.21-5.445-.27-.989-.465-1.997 0-2.966.834-1.724 2.113-3.062 3.663-4.166.058-.078.155-.097.369-.194z" fill="#5C9DD5"/>
    <path d="M4.167 2.674c0 .194.019.33 0 .446-.155 1.105-.291 2.21-.078 3.314.097.465.252.93.446 1.376.872 1.88 1.783 3.721 2.616 5.6.465 1.067.814 2.19 1.182 3.315.175.523.078 1.066-.193 1.57-.814 1.434-1.9 2.635-3.179 3.682-.116.097-.271.155-.407.232-.038-.02-.058-.038-.097-.058.02-.174.04-.349.078-.504.174-.678.368-1.356.523-2.035a4.035 4.035 0 0 0-.252-2.48c-.794-1.725-1.589-3.43-2.384-5.136-.62-1.337-1.22-2.655-1.55-4.07-.194-.833-.058-1.589.368-2.306.66-1.085 1.512-1.977 2.52-2.732.097-.059.232-.117.407-.214zm15.872.078l-.117 1.008c-.135.969-.213 1.976.059 2.926.213.736.542 1.454.852 2.151.911 2.016 1.88 4.012 2.752 6.027.291.679.465 1.415.601 2.152.058.348 0 .775-.174 1.104-.776 1.55-1.938 2.79-3.295 3.876-.097.078-.233.116-.446.233.04-.252.04-.407.078-.562.194-.814.407-1.609.581-2.423.155-.756 0-1.492-.33-2.19-.794-1.725-1.608-3.45-2.402-5.174-.601-1.299-1.202-2.616-1.512-4.031-.174-.833-.039-1.57.407-2.287.64-1.066 1.492-1.938 2.48-2.674.117-.078.233-.136.35-.194.058.039.077.058.116.058z" fill="#195199"/>
  </g>
</svg>
