<svg width="25" height="25" xmlns="http://www.w3.org/2000/svg">
  <path d="M23.05 15.782l1.576-2.714-1.95 5.867.373-3.153zm-.516 3.582v-2.962l.413-.494-.406 3.437-.007.019zm-3.452 1.964l2.843-1.257-5.16 3.697 2.317-2.44zm-2.853 2.824h-.08l-2.635-1.006 2.554-1.072 2.115-.523-1.873 2.543-.08.058zm-3.506-.68l2.942.676-3.413-.022.471-.653zM13.73 1.032l.232-.322 1.674.011-1.906.31zm4.418 2.188l-2.257-.525-2.56-1.074 2.947-.896h.105l.074.055 1.691 2.44zm.936.22l-2.158-2.315 5.038 3.711-2.88-1.396zm4.031 5.573l.005-.052-.013.003-.387-3.07 1.886 5.935-1.49-2.816zm-.58 6.622l.4.153-.4.478v-.63zm-1.456 2.375l1.369-2.28v.641l-1.369 1.639zm1.356 1.657l-2.92.946 1.274-2.12 1.659-1.986v3.12l-.013.04zm-2.988 1.06l2.855-.925-.028.02-3.11 1.377.283-.472zm-.523.643l-2.215 2.332 1.608-2.182.607-.15zm-.22-.375l.045.061v-.024l.225.236-.577.143.307-.416zm-.13.028l-.31.42-1.677.414 1.987-.834zm-1.99-2.9l2.002 2.713-3.187-1.07 1.185-1.643zm.454-.63l1.574-.54.046 3.834-2.02-2.738.4-.556zm1.555-2.154l.018 1.521-1.484.51 1.466-2.031zm.526-.73l3.23.966-3.651 1.255-.02-1.61.44-.61zm1.008-2.175l2.252 3.059-3.206-.959.261-.362-.463-.15 1.156-1.588zm-1.462-1.985l1.408 1.91-1.19 1.636-5.536-1.787 5.318-1.76zM16.383 7.22l2.254.734v2.41l-5.432 1.797-.382-.123 3.56-4.818zm-3.84-1.268l2.306-.75 1.463 1.967-3.577 4.84-.191-.061V5.952zm-.087-.094l-1.754-.63 1.754-2.432v3.062zm.296-3.473l2.042 2.744-2.25.731V2.675l.208-.29zm5.808 1.428l-2.19-.918 1.851.43.339.488zm-.286-.565L16.792 1.11l2.135 2.29-.653-.152zm.702.253l-.292.34-.336-.486.628.146zm.526.632l-.333-.555 2.82 1.367-2.487-.812zm3.027 4.192l.083-2.585.396 3.144-.48-.559zm.51 1.545l.06-.698 1.49 2.815-1.55-2.117zm-.076 5.17v.664l-.401-.153.401-.51zm-.192-2.145l.191 2.005-.415.529.224-2.534zm-.345-3.624l.3 3.146-.269 3.035-2.277-3.093 2.246-3.088zm-.138.04l-2.163 2.974-1.373-1.865 3.536-1.108zm.1-.136l-.014.018-3.65 1.144V7.982l3.663 1.193zm-3.664-5.146l2.029 2.362 1.608 2.683-3.637-1.184V4.03zm-.087.02v3.813l-2.2-.716 2.2-3.098zm1.851 1.9l-1.672-1.947.628.204 1.044 1.744zm1.931 3.053l-1.33-2.22 1.351 1.573-.02.647zm.092.148l-.009-.011.022-.686.47.546-.483.151zm.437.745l-.18 2.045-.251-2.635.431.59zm-.383-.67l.455-.143-.06.681-.395-.538zm-.053-3.986l.026.084-.094 2.904-1.62-1.885-1.254-2.094 2.864.934.078.057zm-6.147 1.856l-1.428-1.92 3.632-1.181-2.204 3.1zm2.38 13.707l-.047-3.88 3.694-1.27-1.676 2.79-1.971 2.36zm.576-.036l-.273.454-.266-.28.539-.174zm-.488.066l1.592-1.906-1.036 1.726-.556.18zm5.983-8.338l-.027.081-1.749 2.226-.227-2.383.214-2.417 1.76 2.403.03.09zm-5.44-8.402l-.62-.202.294-.34.325.542zm-6.364-2.067l.246-.34 2.126.891-2.372-.551zm-.055.077l2.907.676 2.691 1.128L14.882 5.1l-2.076-2.79.15-.208zm.7-.971l2.117-.345-2.393.727.276-.382zm-1.55 10.676L9.05 7.518l1.599-2.216 1.807.649v5.969l-.348-.113zm-3.11-4.214l2.971 4.17-4.85-1.566 1.879-2.604zm4.308 15.073l2.04-2.827 3.234 1.086-2.541 1.067-2.733.674zm.083.438h-.399l.237-.329 2.294-.566-2.132.895zm-.462.087h.463l2.266.865-2.876-.66.147-.205zm10.125-7.585v-.677l1.506-1.917-1.506 2.594zm-11.127 7.68l.033-.01-.02-.01 6.295-8.68L5.918 10.57 13.07.703l.677.005-.642.889-.032.01.02.008-6.257 8.675 12.315 3.974-7.113 9.86-.72-.004.606-.835zm-.565.48l-.256.352-1.697-.01 1.953-.342zM6.111 21.48l2.024 2.266-5.099-3.755 3.075 1.49zm-3.565-5.067L4.123 18.3l1.446 2.316-3.004-.973-.077-.056-.027-.086.085-3.09zm-.548-.674l-.012.002.037.044.293 3.26-1.957-6.16 1.639 2.854zm.025-6.736l-.035.041.01.003L.364 11.79l2.032-6.118-.373 3.33zm3.946-5.564l-2.87 1.3 5.133-3.678L5.969 3.44zM8.771.675h.09l2.691.948-2.506 1.083-2.12.42L8.69.733l.08-.058zm3.663.608L9.422.68l3.434.023-.422.581zm-.636.878l-2.346.465 2.34-1.011-2.45-.863 3.036.609-.58.8zM9.755 4.979L6.489 3.906 9.072 2.79l2.65-.525-1.967 2.714zM8.483 6.733L6.48 3.995l3.22 1.058-1.218 1.68zm-.53.731l-1.543.467V4.045l2.02 2.762-.477.657zm-1.543.558l1.458-.441L6.41 9.592v-1.57zm-.48 2.234L2.666 9.154l3.655-1.106v1.665l-.393.543zm-1.03 2.09L2.64 9.237l3.235 1.093-.24.33.405.132-1.14 1.554zm1.483 2.038L4.954 12.42l1.173-1.6 5.494 1.793-5.238 1.771zm2.365 3.235l-2.338-.754v-2.398l5.35-1.809.522.17-3.534 4.791zm3.708 1.283l-2.216.718-1.422-1.95 3.551-4.813.087.029v6.016zm.088.09l1.885.541-1.885 2.6v-3.141zm-.236 3.465l-2.014-2.763 2.162-.7v3.26l-.148.203zM6.486 21.02l2.397 1.03-2.022-.48-.375-.55zm.322.628l1.372 2.018-1.917-2.147.545.13zm-.61-.234l.177-.403.36.53-.536-.127zm-.177-.075L3 19.877l2.64.855.38.607zm.215-.507l-.538-.174-1.166-1.867 1.704 2.041zm.174-.044v-3.83l2.283.735-2.283 3.095zm2.354-3.044l1.388 1.904-3.67 1.19 2.282-3.094zm-2.457 3.203l-.176.404-.36-.578.536.174zm-3.684-5.21l3.7 1.192V20.8l-2.13-2.55-1.57-2.513zm-.06.067l1.221 1.955-1.234-1.478.013-.477zm3.76-1.309v2.342L2.665 15.66l3.656-1.164zm-4.167.587l.142-2.05.171 2.479-.313-.429zm.306 1.23l-.071 2.585-.27-2.994.34.408zm-.319-.518l.335-.08-.013.465-.322-.385zm.004-.577l.302.414-.337.08.035-.494zm-.08-.11l-.036.514L.525 13l1.542 2.109zm0-5.43l-1.55 2.028L2.03 9.163l.035.515zm.41-1.214l-.353.42.344-3.07.01 2.65zm3.081-4.358l-2.453.727 2.779-1.259-.326.532zm.731-.216l-.606.18.318-.52.288.34zm.434-.633l.01-.002-.372.584-.307-.362L8.296 1.12 6.723 3.256zm1.942-.385l-2.186.944.372-.585 1.814-.36zM4.372 6.212L5.615 4.18l.624-.185-1.867 2.217zM2.47 9.293l-.172 2.474-.142-2.063.314-.41zm-.02-.117l-.303.397-.034-.493.337.096zm.03-.082l-.338-.097.336-.399.001.496zm1.216-1.942l-1.13 1.846-.001-.503 1.13-1.343zM2.583 5.109l.074-.053 2.833-.84L4 6.657 2.564 8.36l-.01-3.161.03-.09zM4.9 12.494l1.395 1.919-3.657 1.163L4.9 12.494zm-2.341 3.042L2.342 12.4l.217-3.125 2.287 3.144-2.287 3.117zm3.763-7.579L2.62 9.077 4.07 6.708l2.253-2.677v3.926zM.184 12.333l.028-.086 1.863-2.438.18 2.59-.179 2.574-1.864-2.55-.028-.09zm11.82 10.545l-.232.318-1.931-.83 2.162.512zm.055-.077l-2.683-.635-2.886-1.24 3.717-1.204 2.048 2.81-.196.27zm-.626.863l-1.992.349 2.209-.648-.217.3zm1.548-10.607l3.07 4.238-1.568 2.163-1.94-.557v-5.987l.438.143zm3.125 4.164l-2.984-4.118 4.828 1.575-1.844 2.543zm-7.56 6.829l-1.612-2.372 2.414.571 2.352 1.01-2.88.844h-.203l-.07-.053zM22.67 5.16l-.008-.028L16.463.567 16.44.551 8.715.5 2.458 4.984 2.435 5 0 12.332l2.33 7.336.01.027 6.197 4.565.022.016 7.726.05 6.257-4.483.023-.016L25 12.495 22.67 5.16z" fill="#000" fill-rule="evenodd"/>
</svg>
