<svg width="25" height="25" xmlns="http://www.w3.org/2000/svg">
  <g fill-rule="nonzero" fill="none">
    <path d="M23.85 7.304a2.829 2.829 0 0 1-2.214-2.186h1.644a.564.564 0 0 1 .568.56l.001 1.626zm0 9.064a3.95 3.95 0 0 0-3.363 3.317H4.498a3.95 3.95 0 0 0-3.361-3.317V8.436a3.95 3.95 0 0 0 3.361-3.318h15.99a3.95 3.95 0 0 0 3.362 3.316v7.934zm0 2.756a.564.564 0 0 1-.568.56h-1.645a2.829 2.829 0 0 1 2.214-2.183l-.002 1.623zm-22.147.56a.564.564 0 0 1-.567-.56v-1.623a2.829 2.829 0 0 1 2.213 2.184H1.703zM1.136 5.68a.564.564 0 0 1 .567-.562h1.645a2.829 2.829 0 0 1-2.212 2.186V5.68zM23.282 4H1.703A1.694 1.694 0 0 0 0 5.68v13.444c.007.934.77 1.686 1.703 1.681h21.58a1.694 1.694 0 0 0 1.703-1.68V5.68A1.693 1.693 0 0 0 23.282 4z" fill="#D9A162"/>
    <path d="M12.56 6.884a5.564 5.564 0 1 0 5.639 5.563 5.592 5.592 0 0 0-5.64-5.563zm0 .987a4.574 4.574 0 1 1-4.638 4.574 4.611 4.611 0 0 1 4.637-4.571V7.87z" fill="#5DB3ED"/>
    <path d="M14.728 12.324h-1.93v-2.151a.501.501 0 1 0-1.003 0v2.398c0 .05.012.086.012.124a.5.5 0 0 0 .489.618h2.434a.495.495 0 1 0 0-.987" fill="#5DB3ED"/>
  </g>
</svg>
