<svg width="25" height="25" xmlns="http://www.w3.org/2000/svg" xmlns:xlink="http://www.w3.org/1999/xlink">
  <defs>
    <path id="a" d="M0 0h24.86V21.31H0z"/>
  </defs>
  <g transform="translate(0 2)" fill="none" fill-rule="evenodd">
    <mask id="b" fill="#fff">
      <use xlink:href="#a"/>
    </mask>
    <path d="M24.054 4.865c-2.428-4.939-9.6-6.35-16.019-3.153C1.615 4.909-1.62 11.505.807 16.444c2.427 4.939 9.599 6.35 16.018 3.153 6.42-3.197 9.656-9.793 7.229-14.732M16.47 18.663c-4.66 2.321-10.196.624-12.366-3.791S3.953 4.997 8.612 2.676c4.66-2.32 10.196-.623 12.366 3.792 2.17 4.414.151 9.875-4.508 12.195m1.095-8.317L9.423 5.372a.369.369 0 0 0-.544.324v9.918c0 .28.298.457.544.324l8.142-4.944a.369.369 0 0 0 0-.648" fill="#454545" mask="url(#b)"/>
  </g>
</svg>
