<svg width="25" height="25" xmlns="http://www.w3.org/2000/svg">
  <g fill-rule="nonzero" fill="none">
    <path d="M16.282 11.82a.697.697 0 0 0-.128-.379c-.118-.169-.359-.357-.818-.357 0 0-.274 0-.315-.34a.144.144 0 0 1 .05-.125l7.198-5.943L9.454 9.613H0l7.143 5.358s1.47-1.576 3.676-1.366c0 0-.21 1.786 1.996 2.416l.816.726c.086.076.161.163.223.26l.852 1.325h3.151l-.849-2.378a6.888 6.888 0 0 1-.306-1.176c-.145-.848-.389-2.344-.42-2.959zm-.736 1.575l-1.155-.525c.125-.408.16-.838.105-1.26 0 0 1.26.524 1.05 1.785z" fill="#59298D"/>
    <path d="M19.748 24.214l-7.563-5.462-7.563 5.567 2.406-7.508a3.173 3.173 0 0 1 3.056-2.26s.63 1.365 1.786 1.995c0 0 1.155.63 1.47 1.68l1.05 1.051h3.782l1.576 4.937zM16.492 10.56l1.05-.946H25l-7.353 5.148s-.525-2.206-.525-3.362c0-1.155 0-.21-.63-.84zM12.185 1L9.769 8.563l4.517-1.786L12.185 1z" fill="#CCC"/>
  </g>
</svg>
