<svg width="25" height="25" xmlns="http://www.w3.org/2000/svg">
  <g fill="none" fill-rule="evenodd">
    <path d="M25 12.5C25 19.404 19.404 25 12.5 25S0 19.404 0 12.5 5.596 0 12.5 0 25 5.596 25 12.5" fill="#000"/>
    <path d="M5.076 9.753h.733v3.274c0 .578.104.993.314 1.247.21.254.549.381 1.018.381.467 0 .805-.127 1.014-.38.21-.255.314-.67.314-1.248V9.753h.733v3.364c0 .703-.174 1.234-.521 1.592-.348.359-.861.538-1.54.538-.681 0-1.196-.179-1.543-.538-.348-.358-.522-.889-.522-1.592V9.753M10.57 9.753h.982l2.39 4.509v-4.51h.708v5.39h-.982l-2.39-4.508v4.509h-.708v-5.39M16.83 12.569v1.974H18c.392 0 .683-.08.872-.243.189-.163.283-.411.283-.746 0-.337-.094-.585-.283-.745-.19-.16-.48-.24-.872-.24h-1.17zm0-2.217v1.625h1.08c.356 0 .621-.067.796-.2.174-.134.261-.338.261-.613 0-.272-.087-.475-.261-.61-.175-.135-.44-.202-.796-.202h-1.08zm-.729-.6h1.863c.556 0 .984.116 1.285.347.3.231.451.56.451.986 0 .33-.077.592-.23.787-.155.195-.381.316-.68.364.359.078.638.238.836.482.199.245.298.55.298.916 0 .48-.164.853-.49 1.115-.328.262-.794.394-1.398.394h-1.935v-5.39z" fill="#BEF400"/>
  </g>
</svg>
