<svg width="25" height="25" xmlns="http://www.w3.org/2000/svg">
  <g fill="none" fill-rule="evenodd">
    <path d="M25 12.5C25 19.404 19.404 25 12.5 25S0 19.404 0 12.5 5.596 0 12.5 0 25 5.596 25 12.5" fill="#3E2D2A"/>
    <path d="M12.5 23.181c-5.89 0-10.681-4.791-10.681-10.681C1.819 6.61 6.61 1.819 12.5 1.819c5.89 0 10.681 4.791 10.681 10.681 0 5.89-4.791 10.681-10.681 10.681zm0-22.053C6.23 1.128 1.128 6.229 1.128 12.5c0 6.27 5.101 11.372 11.372 11.372 6.27 0 11.372-5.101 11.372-11.372 0-6.27-5.101-11.372-11.372-11.372z" fill="#FFFFFE"/>
    <path d="M15.442 14.193v-2.367h2.205c.247 0 .446.109.596.325.15.216.226.503.226.859s-.075.642-.226.858a.694.694 0 0 1-.596.325h-2.205zm2.745.939a1.808 1.808 0 0 0 1.169-.965c.166-.328.249-.714.249-1.157 0-.444-.083-.83-.249-1.157a1.86 1.86 0 0 0-.699-.768 1.98 1.98 0 0 0-1.052-.274h-3.23v.005H9.67l1.384-4.244H9.893L8.065 12.54 6.238 6.572H5.076l2.482 7.612h1.015l.767-2.352h1.87v6.596h1.068v-6.596h2.096v6.596h1.068v-3.22h1.59l1.625 3.22h1.267l-1.737-3.296z" fill="#FFFFFE"/>
  </g>
</svg>
