<svg width="25" height="25" xmlns="http://www.w3.org/2000/svg">
  <g fill="#507CA5" fill-rule="nonzero">
    <path d="M0 12.5V25h25V0H0v12.5zm4.826-2.373v.79H3.244V9.336h1.582v.792zm2.373 0v.79H5.617V9.336H7.2v.792zm2.295 0v.79H7.99V9.336h1.503v.792zm4.288-.562c1.202.475 1.89 1.717 1.78 3.196-.087 1.108-.602 1.954-1.456 2.413-.625.324-1.17.411-2.69.411h-1.29V9.32l1.607.031c1.432.032 1.645.048 2.049.214zm5.213 2.5l2.168 2.73.024-2.73.016-2.73h.435l-.016 3.11-.008 3.1h-.198c-.166 0-.554-.442-2.342-2.681l-2.144-2.682v5.403h-.474v-6.25h.182c.15 0 .617.546 2.357 2.73zM6.464 11.63h.735v1.582H5.617V11.63h.847zm3.038 0v1.582H7.99v-1.59l1.51.008zm-.028 2.334v1.621l-.752.008h-.731v-1.63h1.483z"/>
    <path d="M11.55 12.468v1.867l.752-.031c.673-.024.783-.056 1.084-.261.475-.34.704-.847.712-1.567.008-1.281-.585-1.867-1.89-1.875h-.657v1.867z"/>
  </g>
</svg>
