<svg width="25" height="25" xmlns="http://www.w3.org/2000/svg">
  <g fill-rule="nonzero" fill="none">
    <path d="M23.953 16.415h-3.488V6.027c-2.674 2.713-5.349 5.368-8.043 8.062-2.713-2.713-5.387-5.368-8.08-8.081v10.407c-.098 0-.175.02-.233.02H.833c-.097 0-.174-.02-.213-.078.368 1.124.892 2.17 1.55 3.14-.116-.195-.232-.37-.348-.563h5.194v-6.55l5.368 5.368c1.802-1.802 3.585-3.566 5.387-5.368v6.53h5.233c-1.027 1.648-2.306 2.985-3.915 4.012-.794.504-1.608.93-2.48 1.24a12.398 12.398 0 0 0 7.616-7.926c-.058.117-.116.175-.272.175z" fill="#FFF"/>
    <path d="M12.422 14.09c-2.713-2.714-5.387-5.37-8.08-8.082v10.407c-.098 0-.175.02-.233.02H.833c-.155 0-.232-.04-.271-.195-.446-1.492-.64-3.004-.523-4.573.194-2.636 1.104-5 2.81-7.035C4.729 2.364 7.112.91 10.019.349c3.838-.737 7.326.155 10.35 2.655 2.305 1.9 3.7 4.36 4.243 7.306.369 1.996.214 3.954-.368 5.892-.058.155-.116.213-.29.213h-3.489V6.027c-2.674 2.713-5.349 5.368-8.043 8.062z" fill="#F26722"/>
    <path d="M1.822 18.934h5.194v-6.55l5.368 5.368c1.802-1.802 3.585-3.566 5.387-5.368v6.53h5.233c-1.027 1.648-2.306 2.985-3.915 4.012a12.006 12.006 0 0 1-5.213 1.88c-5.717.678-10.155-2.558-12.054-5.872z" fill="#4C4C4D"/>
  </g>
</svg>
