<svg width="25" height="25" xmlns="http://www.w3.org/2000/svg">
  <g fill-rule="nonzero" fill="none">
    <path d="M24.947 12.225a12.415 12.415 0 0 1-1.392 5.99l-6.802 2.746.014-.03 8.18-8.706z" fill="#0F6089"/>
    <path d="M24.947 12.222l-8.179 8.708 7.598-12.237a12.41 12.41 0 0 1 .581 3.53z" fill="#078FA4"/>
    <path fill="#00AAA6" d="M24.366 8.693L16.768 20.93l-.02.033-.911-15.836 7.638 2.858zM24.366 8.693l-.89-.708.744.278c.053.143.102.286.146.43z"/>
    <path d="M24.22 8.263L16.858.793a12.496 12.496 0 0 1 7.362 7.47zM16.858.793l7.362 7.47-.745-.278-7.002-5.562.384-1.63h.001z" fill="#1EAAE2"/>
    <path d="M16.753 20.961l6.801-2.747a12.486 12.486 0 0 1-8.505 6.47l1.633-3.565.071-.158z" fill="#0C7392"/>
    <path fill="#1EAAE2" d="M23.475 7.985l-7.638-2.858.636-2.704z"/>
    <path d="M16.857.793l-.384 1.63L13.47.04c1.159.09 2.299.343 3.386.753z" fill="#ABCF3A"/>
    <path fill="#CD1685" d="M16.748 21.265l.21-.335-.14.315-.07.02z"/>
    <path fill="#8F9990" d="M16.754 20.961l-.072.158-8.82-6.434.113-.102 7.862-9.456.91 15.836z"/>
    <path d="M16.682 21.12l-1.633 3.564a12.412 12.412 0 0 1-3.588.226L3.7 18.163l.225.05 12.756 2.906z" fill="#CD1685"/>
    <path fill="#EC1076" d="M16.682 21.12L3.926 18.213l3.935-3.53z"/>
    <path fill="#ABCF3A" d="M16.473 2.423l-.636 2.704L13.47.04z"/>
    <path d="M13.471.04l2.365 5.087L7.15 1.19A12.422 12.422 0 0 1 13.471.04z" fill="#E0E224"/>
    <path fill="#F9A516" d="M15.837 5.127l-7.862 9.456-3.418-4.215 11.28-5.241z"/>
    <path fill="#FDCD11" d="M15.837 5.127l-11.28 5.24L7.15 1.193l8.688 3.935z"/>
    <path fill="#CD1685" d="M11.923 25.356l-.5-.45.216.035z"/>
    <path d="M3.7 18.163l7.76 6.747-.037-.004L2.79 20.34l.855-2.225.054.048zm-.909 2.177l8.632 4.566A12.447 12.447 0 0 1 2.79 20.34z" fill="#B9204A"/>
    <path fill="#F05B28" d="M4.557 10.368l3.418 4.215-.114.102-6.048-.128 2.744-4.19zM7.861 14.685l-3.935 3.53-2.114-3.658z"/>
    <path d="M7.15 1.191l-2.593 9.177-2.745 4.19.01-.089-1.801-2.676C.27 7.099 3.117 3.096 7.149 1.19z" fill="#FDCD11"/>
    <path d="M1.813 14.557l2.113 3.657-.226-.051-1.888-3.606zM3.7 18.163l-.054-.05-.855 2.227a12.463 12.463 0 0 1-1.395-2.126l.417-3.656L3.7 18.163z" fill="#AB1F25"/>
    <path fill="#CB0010" d="M.018 11.793l1.805 2.676-.01.088-.417 3.656z"/>
    <path d="M.02 11.793l1.379 6.42a12.413 12.413 0 0 1-1.378-6.42z" fill="#CB0010"/>
    <path d="M19.482 14.583l.568-2.393c.234-.648.351-1.332.345-2.021 0-.458-.173-.898-.485-1.233l-.084-.091c-.582-.627-1.624-.984-2.482-.984h-.3c-.776 0-1.524.293-2.093.821l-.708.66-.121-.278a1.308 1.308 0 0 0-.263-.393 3.1 3.1 0 0 0-3.933-.403l-.698.505v-.05a.864.864 0 0 0-.864-.863H.797l-.683 2.508 6.266.114-.92 4.949c-.157.673.27 1.337.958 1.42.551.069 1.071-.27 1.23-.802l1.715-5.295c.185-.618 1.018-1.01 1.658-.927a1.315 1.315 0 0 1 1.096 1.664l-.903 3.933a1.399 1.399 0 0 0 1.346 1.78c.597 0 .9-.378 1.095-.942l1.72-5.113c.2-.58.908-.924 1.51-.81a1.233 1.233 0 0 1 .95 1.567l-.912 3.356a1.502 1.502 0 0 0 1.437 1.941l5.891-.113.684-2.507h-5.453z" fill="#FFF"/>
  </g>
</svg>
