<svg width="25" height="25" xmlns="http://www.w3.org/2000/svg">
  <g fill="none" fill-rule="evenodd">
    <path d="M12.5 25C5.556 25 0 19.375 0 12.5S5.625 0 12.5 0 25 5.625 25 12.5C25 19.306 19.514 25 12.5 25zm-5.07-6.806c.07-.069.07-.138.07-.138 1.111-1.945 2.222-3.959 3.333-5.903.973-1.736 1.945-3.472 2.917-5.14.07-.069.07-.069.139-.069h3.542c-1.598 2.778-3.125 5.556-4.723 8.334h8.75a.15.15 0 0 0 .14-.14c.416-1.527.485-3.124.138-4.652-.417-1.875-1.389-3.472-2.778-4.792a7.073 7.073 0 0 0-2.083-1.458c-1.875-.972-3.889-1.25-5.972-.903-2.084.348-3.89 1.39-5.278 2.917-.208.139-.347.347-.556.556v.069h8.195c-.07.07-.07.139-.139.208-.486.903-.972 1.736-1.458 2.64-.07.069-.14.138-.209.138H3.611c-1.32 4.097.556 9.236 5.139 11.25 4.444 2.014 9.167.139 11.32-2.917H7.43zm14.306 2.153c1.597-1.736 2.986-4.653 2.917-8.125-.07-2.847-1.042-5.347-2.917-7.57L20.07 6.32c2.917 3.473 3.056 8.681 0 12.362.625.555 1.181 1.11 1.667 1.666z" fill="#C87035" fill-rule="nonzero"/>
    <path d="M7.43 18.194H20.14c-2.222 3.056-6.875 4.862-11.32 2.917-4.583-2.083-6.458-7.153-5.138-11.25h7.847c.139 0 .139 0 .208-.139.486-.903.972-1.736 1.458-2.639 0-.07.07-.139.14-.208H5.138v-.07c.208-.208.347-.416.555-.624 1.459-1.528 3.195-2.57 5.278-2.917 2.084-.347 4.097-.07 5.972.903a11.18 11.18 0 0 1 2.084 1.458c1.389 1.32 2.291 2.917 2.778 4.792.347 1.597.277 3.125-.14 4.652a.15.15 0 0 1-.138.14H12.777c1.598-2.778 3.126-5.556 4.723-8.334h-3.542c-.07 0-.139 0-.139.07-.972 1.736-1.944 3.472-2.916 5.138-1.111 1.945-2.222 3.959-3.334 5.903-.138.07-.138.139-.138.208z"/>
    <path d="M21.736 20.347l-1.667-1.666c2.987-3.681 2.848-8.89 0-12.362l1.667-1.666c1.806 2.222 2.847 4.722 2.917 7.57.139 3.471-1.32 6.388-2.917 8.124z"/>
  </g>
</svg>
