<svg width="25" height="25" xmlns="http://www.w3.org/2000/svg">
  <g fill-rule="nonzero" fill="none">
    <path d="M10.833 3.611c0-.07.07-.07.14-.139 1.944-1.11 3.958-2.291 5.902-3.403.07 0 .07 0 .139-.069h.07l1.041.625c1.736.972 3.403 2.014 5.139 2.986v.139c-.07 0-.139.07-.208.07l-1.042.624c-.625.348-1.32.764-1.945 1.112-.555.347-1.11.694-1.736.972-.416.278-.833.486-1.25.764 0 0-.07 0-.07-.07-1.596-.903-3.124-1.805-4.721-2.708-.486-.347-.973-.625-1.459-.903z" fill="#234871"/>
    <path d="M1.806 8.958c.069 0 .069-.07.138-.07a261.182 261.182 0 0 0 5.903-3.471c.07-.07.14-.07.278 0 1.944 1.18 3.958 2.291 5.903 3.472.07 0 .07 0 .139.07-.903.485-1.806 1.041-2.64 1.527l-3.54 2.083c-.14-.138-.348-.208-.556-.347-.556-.347-1.112-.625-1.667-.972-.486-.278-1.042-.625-1.528-.903-.625-.347-1.18-.694-1.805-1.041-.14-.07-.348-.209-.625-.348z" fill="#1B2E58"/>
    <path d="M1.806 8.958c.208.07.486.278.694.348.625.347 1.18.694 1.806 1.041.486.278 1.041.625 1.527.903.556.347 1.111.625 1.667.972.208.07.347.209.556.347v7.223a38.231 38.231 0 0 1-1.737-1.042c-1.458-.833-2.916-1.667-4.375-2.57 0 0-.069-.069-.138-.069V8.958zM17.014 25s0-.07 0 0c.07-.139 0-.139 0-.208v-7.014c1.805-1.042 3.542-2.084 5.347-3.125.278-.14.556-.347.833-.486v7.222c-.069 0-.069 0-.138.07-1.945 1.18-3.959 2.291-5.903 3.472-.07 0-.07 0-.14.069z" fill="#234871"/>
    <path d="M17.014 7.222c.417-.278.833-.486 1.25-.764.555-.347 1.111-.694 1.736-.972.625-.347 1.32-.764 1.944-1.111l1.042-.625c.07-.07.139-.07.208-.07v7.223c-.069 0-.138.07-.138.07-1.945 1.11-3.89 2.29-5.903 3.402 0 0-.07.07-.14.07V7.221z" fill="#1B2E58"/>
    <path d="M23.194 14.236a5.18 5.18 0 0 0-.833.486c-1.805 1.042-3.542 2.084-5.347 3.125-1.667-.972-3.403-1.944-5.07-2.986-.347-.208-.694-.417-1.11-.625.208-.139.416-.278.555-.347.555-.278 1.042-.625 1.597-.903.139-.07.208-.07.278 0 1.25.695 2.43 1.458 3.68 2.153.07.07.14.07.209 0 1.18-.695 2.43-1.389 3.61-2.153.07-.07.21-.07.279 0 .764.347 1.458.764 2.152 1.25 0-.07 0-.07 0 0z" fill="#69FEBB"/>
    <path d="M10.833 14.236c.348.208.695.417 1.111.625 1.667.972 3.403 1.945 5.07 2.986V25l-1.042-.625a329.227 329.227 0 0 0-5.07-2.917c-.069-.07-.138-.07-.138-.208v-6.875c.07-.07.07-.139.07-.139z" fill="#1B2E58"/>
    <path d="M17.014 7.222v7.222c-.208-.069-.347-.138-.486-.277-.556-.278-1.042-.625-1.597-.903-.07-.07-.14-.139-.14-.208V8.819c0-.069 0-.138-.138-.208-1.25-.694-2.5-1.458-3.75-2.153-.07-.07-.07-.07-.07-.139V3.75c.486.139.973.417 1.459.694 1.527.903 3.125 1.806 4.722 2.778 0-.07 0 0 0 0z" fill="#69FEBB"/>
    <path d="M7.986 19.792v-7.223l3.542-2.083c.903-.486 1.805-1.042 2.639-1.528.07.07 0 .07 0 .14v2.221c0 .07 0 .14-.14.209-1.25.764-2.569 1.458-3.819 2.222-.07.07-.07.139-.07.208v4.445c0 .139 0 .208-.138.208-.625.347-1.32.764-2.014 1.18.07-.069 0 0 0 0z" fill="#69FDBB"/>
    <path fill="#455679" d="M17.014 24.93v-7.152z"/>
  </g>
</svg>
